<svg xmlns="http://www.w3.org/2000/svg" viewBox="0 0 148.7522 153.16895"><g id="Capa_2" data-name="Capa 2"><g id="Capa_1-2" data-name="Capa 1"><path d="M114.9458,153.169h-.01562l-25.70655-.084c-.00781-.00049-.01562.00049-.02343,0h-.01075l-86.69751-.2832A2.5,2.5,0,0,1,0,150.30176V77.58691a2.50471,2.50471,0,0,1,.12769-.78906l12.103-36.39258A10.5275,10.5275,0,0,1,13.81812,19.4707H43.67139L68.68994,5.87012A2.50063,2.50063,0,0,1,69.884,5.56641H121.4751V4.72852A4.73362,4.73362,0,0,1,126.20312,0h17.82105a4.73363,4.73363,0,0,1,4.728,4.72852V35.165a4.73363,4.73363,0,0,1-4.728,4.72851h-17.821a4.73362,4.73362,0,0,1-4.728-4.72851V30.57666h-3.55762a14.18913,14.18913,0,0,1-3.637,7.041,17.33789,17.33789,0,0,1-8.04273,4.62109l11.08887,34.585a2.49781,2.49781,0,0,1,.11938.76318v73.082a2.50158,2.50158,0,0,1-.54394,1.55712l-.002.002a2.41858,2.41858,0,0,1-.18921.21142q-.07545.07545-.1565.14356A2.49416,2.49416,0,0,1,114.9458,153.169Zm-20.04712-5.06543,13.93286.04541L101.509,140.9248ZM5,147.81006l81.71484.2666V79.31689a2.50217,2.50217,0,0,1,.14771-.84668l12.675-35.2041q-.44971.022-.90967.03321c-.22974.25879-.50073.56738-.75537.85742-6.87232,7.8291-13.99927,15.07373-19.56763,15.07373a13.5456,13.5456,0,0,1-13.447-13.57617c0-1.33985.886-3.11084,2.35767-5.1294H17.46021L5,77.9917Zm98.9231-11.52735,8.52294,8.40821V77.978L102.98193,48.46,91.71484,79.75342v64.42627l7.20826-7.82764V82.71924a2.5,2.5,0,1,1,5,0ZM74.09985,40.06787c-2.4768,2.60352-4.083,4.65479-4.24585,5.65674a8.62878,8.62878,0,0,0,8.45093,8.50586c1.85767,0,6.1084-2.31983,15.81006-13.37207,1.84961-2.10742,2.23462-2.5459,3.4519-2.5459,6.02027,0,10.40308-1.37109,13.02686-4.07471a8.96649,8.96649,0,0,0,2.5791-6.061,2.52065,2.52065,0,0,1,2.49805-2.6001h5.804V10.56641H70.51978L54.14014,19.4707H90.66309a2.5003,2.5003,0,0,1,1.06518,4.76221A203.08233,203.08233,0,0,0,74.7561,39.38623,2.50594,2.50594,0,0,1,74.09985,40.06787Zm-58.38549-4.543H71.50293A159.035,159.035,0,0,1,83.55225,24.4707H44.35767c-.03223.001-.06495.001-.09717,0H13.81812a5.5271,5.5271,0,1,0,0,11.0542h1.78051Q15.6565,35.52344,15.71436,35.5249Zm110.76074-.63135h17.2771V5H126.4751Z"/><path d="M60.10278,136.166c-3.69531,0-10.48193-2.78467-10.48193-7.334,0-1.76074,1.41162-16.30713,1.845-20.73047-4.7146-2.148-4.71484-3.38037-4.71484-3.99267,0-19.71729,11.06006-25.83057,14.45-27.23438.78-.32324,4.74853-1.85889,6.25879-.34814.71093.71045,1.59643,1.5957,1.37329,29.37109l-.00806,1.17529c0,.80811.45435,5.34864.855,9.3545.6023,6.019.99707,10.05029.99707,11.20166C70.677,132.03125,64.08032,136.166,60.10278,136.166Zm-10.35009-32.46a20.39274,20.39274,0,0,0,3.89672,2.07764,1.49953,1.49953,0,0,1,.90821,1.52832c-.77857,7.89844-1.93677,20.14746-1.93677,21.52,0,2.05127,4.45972,4.334,7.48193,4.334,2.675,0,7.57422-3.25538,7.57422-5.53711,0-1.08741-.52173-6.30225-.98218-10.90332-.54126-5.40967-.86987-8.75928-.86987-9.65284l.00806-1.19921c.158-19.63965-.27661-25.35792-.57373-27.00049a13.742,13.742,0,0,0-6.8357,3.10986C54.50952,85.085,49.85156,91.36621,49.75269,103.70605ZM65.709,78.88428h0Z"/><path d="M67.3291,108.66455H53.06519a1.5,1.5,0,1,1,0-3H67.3291a1.5,1.5,0,0,1,0,3Z"/><path d="M33.59814,136.32373a14.25932,14.25932,0,0,1-6.65722-1.96484c-2.64209-1.53174-4.09693-3.52686-4.09693-5.6167,0-1.83448,1.50147-26.32178,1.72632-29.9751l-4.47314-8.57422A1.49947,1.49947,0,0,1,19.927,89.499V78.585c0-1.9917,1.72852-3.437,4.11011-3.437s4.11011,1.44531,4.11011,3.437V84.833H29.759V78.585c0-1.88281,1.61206-3.24951,3.833-3.24951s3.833,1.3667,3.833,3.24951c0,.97217.03931,4.23.06372,6.165H39.051V78.585c0-1.84717,1.72534-3.1875,4.10253-3.1875s4.10254,1.34033,4.10254,3.1875c0,1.49609-.1604,10.397-.16723,10.7749a1.501,1.501,0,0,1-.187.69922l-4.81958,8.71436c.28955,3.61181,2.09082,26.18554,2.09082,28.71826,0,4.833-7.00049,8.83154-10.57373,8.832h-.00123ZM22.927,89.13135,27.42285,97.749a1.5,1.5,0,0,1,.16724.78614c-.60376,9.80078-1.7461,28.727-1.7461,30.207,0,2.12451,4.69312,4.582,7.75513,4.582v-.00049c2.19776,0,7.574-3.11279,7.574-5.832,0-2.061-1.385-19.82422-2.11719-28.92871a1.50075,1.50075,0,0,1,.18237-.84619L44.096,88.93359c.03051-1.71289.15576-8.79736.16015-10.27539a2.4614,2.4614,0,0,0-2.20507,0V86.25a1.49993,1.49993,0,0,1-1.5,1.5h-4.543a1.5,1.5,0,0,1-1.49976-1.48s-.08325-6.26514-.08325-7.68506a1.15018,1.15018,0,0,0-.833-.24951,1.23463,1.23463,0,0,0-.8374.24072L32.759,86.333a1.49992,1.49992,0,0,1-1.5,1.5H26.64722a1.49992,1.49992,0,0,1-1.5-1.5V78.585c0-.22461-.53955-.437-1.11011-.437s-1.11011.2124-1.11011.437Z"/><path d="M40.55884,99.94238H26.093a1.5,1.5,0,1,1,0-3H40.55884a1.5,1.5,0,0,1,0,3Z"/></g></g></svg>