<svg xmlns="http://www.w3.org/2000/svg" viewBox="0 0 135.92076 173.2625"><defs><style>.cls-1{fill-rule:evenodd;}</style></defs><g id="Capa_2" data-name="Capa 2"><g id="Capa_1-2" data-name="Capa 1"><path class="cls-1" d="M64.10772,129.93754v40.49823a2.82715,2.82715,0,0,0,5.6543,0V127.75442c1.30835,1.10975,2.81806,2.46463,4.51346,3.89312,6.98845,5.88928,16.89818,12.73814,28.579,11.19523,19.51869-2.57821,29.66488-19.36387,29.66488-38.51434,0-11.956-3.77362-18.69256-6.74354-22.143,4.20847-2.82419,10.14492-9.10665,10.14492-22.07025,0-13.51024-8.48209-20.5118-17.0437-24.07921a50.411,50.411,0,0,0-13.9253-3.4054C103.51862,24.70113,96.66975,0,66.93466,0,36.86328,0,30.70264,25.2246,29.5233,32.91218a54.36087,54.36087,0,0,0-17.83259,7.32548C5.37525,44.51117.15918,50.88225.00648,60.06758-.1365,68.69179,2.10754,74.198,4.73482,77.73076a17.79762,17.79762,0,0,0,6.14583,5.27169A63.487,63.487,0,0,0,4.02206,100.819c-2.4805,12.06683-.87774,26.66852,15.33306,36.853,9.64789,6.0625,17.48108,7.54111,23.81134,6.69912,9.61193-1.27769,15.96292-7.984,20.18408-13.45725.247-.32064.50169-.64783.75718-.9763Zm5.6543-9.216a37.92092,37.92092,0,0,1,5.178,4.03609c6.03246,5.24568,15.45869,14.02746,27.17465,12.48011,16.5327-2.18376,24.75125-16.68773,24.75125-32.90932,0-15.66639-7.4288-20.33868-7.4288-20.33868a2.82721,2.82721,0,0,1,.58671-5.152s10.243-3.42866,10.243-18.72259c0-10.6392-6.82222-16.05112-13.56448-18.86061a44.39453,44.39453,0,0,0-14.28106-3.14123,2.82763,2.82763,0,0,1-2.75418-2.58868S97.13844,5.65419,66.93424,5.65419c-30.145,0-32.03117,29.80976-32.03117,29.80976a2.82631,2.82631,0,0,1-2.39,2.61628s-9.77056,1.50389-17.65451,6.83945c-4.884,3.30494-9.08149,8.13639-9.1995,15.242-.11422,6.90787,1.50758,11.36422,3.61245,14.19539a11.22908,11.22908,0,0,0,6.252,4.39311A2.82636,2.82636,0,0,1,17.408,83.14057,57.86013,57.86013,0,0,0,9.56,101.95686c-2.07991,10.11932-.791,22.38645,12.80265,30.92733,9.27226,5.82583,16.47095,6.91739,22.15867,5.47854,8.62294-2.18122,13.58774-9.88371,16.77508-14.13744a20.8595,20.8595,0,0,1,2.81087-3.22266V90.42534L45.02388,69.46483a2.82644,2.82644,0,1,1,4.17928-3.8064l14.90414,16.369V36.8128a2.82736,2.82736,0,0,1,5.65472,0V58.95761L84.50288,44.21633a2.82685,2.82685,0,0,1,3.99739,3.99814L69.762,66.95367V98.09229L84.50288,83.351a2.82651,2.82651,0,0,1,3.99739,3.99718L69.762,106.08729v14.63426Z"/></g></g></svg>