<svg xmlns="http://www.w3.org/2000/svg" viewBox="0 0 140.02492 140.16166"><defs><style>.cls-1{fill-rule:evenodd;}</style></defs><g id="Capa_2" data-name="Capa 2"><g id="Capa_1-2" data-name="Capa 1"><path class="cls-1" d="M23.93072,64.47744v2.91468a38.63681,38.63681,0,0,0,.44032,5.82765H21.24988a7.60153,7.60153,0,0,0-7.26106-5.36409H7.594a7.5942,7.5942,0,0,0,0,15.18839h6.39479A7.60065,7.60065,0,0,0,21.31,77.47487h3.96213A38.43115,38.43115,0,0,0,39.47978,98.22051L28.92185,118.94187a2.12593,2.12593,0,0,0-.72132,1.41461l-7.15987,14.05274a2.12751,2.12751,0,1,0,3.7912,1.93184l6.96433-13.66884H67.77671v15.36172a2.127,2.127,0,1,0,4.25408,0V122.67222h35.99009l6.965,13.66884a2.12721,2.12721,0,1,0,3.79052-1.93184L111.233,119.60439l-.02393-.04649-10.87792-21.35A38.43217,38.43217,0,0,0,114.4649,77.681h4.30877a7.60207,7.60207,0,0,0,7.26106,5.36375h6.39616a7.59437,7.59437,0,0,0,0-15.18874h-6.39616a7.60362,7.60362,0,0,0-7.32122,5.57023h-3.32286a38.57759,38.57759,0,0,0,.47245-6.03379V64.47778h.65773a7.18175,7.18175,0,1,0,0-14.36349H22.86071a7.18175,7.18175,0,1,0,0,14.36349h1.07Zm19.12489,36.09573-9.092,17.84429H67.776V105.73727h-5.5005a38.14362,38.14362,0,0,1-19.21992-5.1641Zm53.69969-.0106a38.14526,38.14526,0,0,1-19.2377,5.1747H72.03079v12.68019h33.822L96.7553,100.56257Zm14.853-36.08513H28.1848v2.91468a34.1701,34.1701,0,0,0,.73773,7.08227,2.11382,2.11382,0,0,1,.18665.83,34.13034,34.13034,0,0,0,12.33218,19.0654L43.1903,90.9362a2.12743,2.12743,0,1,1,3.7912,1.9315l-1.99166,3.90811a33.91257,33.91257,0,0,0,17.28569,4.707H67.776V89.24332a2.127,2.127,0,1,1,4.25407,0v12.23953h5.48682a33.9119,33.9119,0,0,0,17.30347-4.71729L92.8342,92.8677a2.12713,2.12713,0,1,1,3.79051-1.9315l1.74348,3.42063a34.04512,34.04512,0,0,0,13.24015-26.96437v-2.915ZM17.32945,75.44971A3.3425,3.3425,0,0,1,13.98882,78.79H7.594a3.33995,3.33995,0,1,1,0-6.6799h6.39479a3.34214,3.34214,0,0,1,3.34063,3.33961Zm105.36533,0a3.34155,3.34155,0,0,1,3.34-3.33961h6.39548a3.34,3.34,0,0,1,0,6.6799h-6.39548a3.34192,3.34192,0,0,1-3.34-3.34029Zm-6.17463-15.22737H22.86a2.927,2.927,0,0,1,0-5.854h93.66013a2.927,2.927,0,1,1,0,5.854ZM92.92034,43.35508V38.40259c0-1.85322-1.29154-3.74506-3.10338-5.8615-1.84672-2.15849-4.25818-4.798-4.25818-8.99667,0-5.01642,3.36525-8.02818,5.29674-10.41093a7.55586,7.55586,0,0,0,2.06482-4.44757V2.127a2.12738,2.12738,0,0,0-4.25476,0V8.68592a1.69447,1.69447,0,0,1-.40818.828,25.08544,25.08544,0,0,1-1.67988,2.10242C84.19,14.4387,81.304,18.11777,81.304,23.54442c0,5.4393,2.8887,8.96693,5.2817,11.76264a20.69021,20.69021,0,0,1,1.65322,2.08465,1.98277,1.98277,0,0,1,.42664,1.01053v4.95284a2.12738,2.12738,0,1,0,4.25476,0Zm-36.81123,0V38.40259c0-1.85322-1.29018-3.74506-3.102-5.8615-1.84808-2.15849-4.25955-4.798-4.25955-8.99667,0-5.01642,3.36593-8.02818,5.29743-10.41093a7.55854,7.55854,0,0,0,2.06414-4.44757V2.127a2.127,2.127,0,0,0-4.25408,0V8.68592a1.69626,1.69626,0,0,1-.40886.828A25.20791,25.20791,0,0,1,49.767,11.61632c-2.38753,2.82238-5.27418,6.50145-5.27418,11.9281,0,5.4393,2.8887,8.96693,5.2817,11.76264a20.59393,20.59393,0,0,1,1.65323,2.08465,1.97842,1.97842,0,0,1,.42732,1.01053v4.95284a2.127,2.127,0,1,0,4.25408,0Zm18.60663,0V38.40259c0-1.85322-1.29086-3.74506-3.1027-5.8615-1.84672-2.15849-4.25887-4.798-4.25887-8.99667,0-5.01642,3.36525-8.02818,5.29743-10.41093a7.55854,7.55854,0,0,0,2.06414-4.44757V2.127a2.12738,2.12738,0,0,0-4.25476,0V8.68592a1.69269,1.69269,0,0,1-.4075.828,25.22769,25.22769,0,0,1-1.67989,2.10242c-2.38822,2.82238-5.27418,6.50145-5.27418,11.9281,0,5.4393,2.888,8.96693,5.2817,11.76264a20.689,20.689,0,0,1,1.65323,2.08465,1.97842,1.97842,0,0,1,.42732,1.01053v4.95284a2.12738,2.12738,0,1,0,4.25476,0Z"/></g></g></svg>