<svg xmlns="http://www.w3.org/2000/svg" viewBox="0 0 112.82953 112.82949"><defs><style>.cls-1{fill-rule:evenodd;}</style></defs><g id="Capa_2" data-name="Capa 2"><g id="Capa_1-2" data-name="Capa 1"><path class="cls-1" d="M0,52.95378a1.802,1.802,0,0,0,1.80156,1.80156H12.85962a1.80189,1.80189,0,0,0,1.71943-1.26389l1.12322-3.5908,1.641,3.77173a1.8012,1.8012,0,0,0,1.65184,1.083h92.03318a1.80154,1.80154,0,0,0,1.80121-1.80156V23.79959a1.80131,1.80131,0,0,0-1.80121-1.80156h-6.58325V16.69472a1.80139,1.80139,0,0,0-1.80156-1.80156H1.80174A1.80177,1.80177,0,0,0,0,16.69472V52.95378Zm3.6033-1.80147v-32.656h97.23883v5.3034a1.80133,1.80133,0,0,0,1.80138,1.8012h6.58325V51.15231H20.17584l-3.09809-7.12092a1.80158,1.80158,0,0,0-3.37128.18094l-2.17106,6.94Z"/><path class="cls-1" d="M47.87154,111.02793a1.8016,1.8016,0,0,0,1.80121,1.80156H61.944a1.80167,1.80167,0,0,0,1.80156-1.80156V52.95378A1.80139,1.80139,0,0,0,61.944,51.15222H49.67275a1.80132,1.80132,0,0,0-1.80121,1.80156v58.07415Zm3.60277-1.80156V54.75543h8.6681v54.47094Z"/><path class="cls-1" d="M47.87154,16.69481a1.80154,1.80154,0,0,0,1.80121,1.80156H61.944a1.80162,1.80162,0,0,0,1.80156-1.80156V9.51323a1.80152,1.80152,0,0,0-.28737-.97582L58.48986.82588A1.80138,1.80138,0,0,0,55.66742.56282L48.36486,8.27444a1.80132,1.80132,0,0,0-.49332,1.23879v7.18158Zm3.60277-1.80165V10.23068l5.23013-5.52344,3.438,5.336v4.84989Z"/><path class="cls-1" d="M1.80174,28.14508h13.751a1.80139,1.80139,0,1,0,0-3.60277H1.80174a1.80139,1.80139,0,1,0,0,3.60277Z"/><path class="cls-1" d="M1.80174,37.122H9.6535a1.80138,1.80138,0,1,0,0-3.60276H1.80174a1.80138,1.80138,0,1,0,0,3.60276Z"/><path class="cls-1" d="M102.8578,37.122h7.85193a1.80138,1.80138,0,0,0,0-3.60276H102.8578a1.80138,1.80138,0,1,0,0,3.60276Z"/><path class="cls-1" d="M97.21488,45.71455h13.49485a1.80156,1.80156,0,0,0,0-3.60312H97.21488a1.80156,1.80156,0,0,0,0,3.60312Z"/><path d="M26.31349,43.49417a13.889,13.889,0,0,1-5.6901-1.06149,7.83076,7.83076,0,0,1-4.89752-7.52563,8.36707,8.36707,0,0,1,.72179-3.51487,7.54122,7.54122,0,0,1,2.09514-2.71307,9.585,9.585,0,0,1,3.34041-1.734,15.13,15.13,0,0,1,4.43028-.60161,15.54866,15.54866,0,0,1,2.70376.24781,10.13764,10.13764,0,0,1,2.47688.74326,2.28516,2.28516,0,0,1,1.10407.89626,1.6144,1.6144,0,0,1,.21251,1.10876,2.04264,2.04264,0,0,1-.49545,1.01467,1.942,1.942,0,0,1-1.0191.60126,2.15054,2.15054,0,0,1-1.359-.15336,10.8733,10.8733,0,0,0-1.68431-.50715,8.39965,8.39965,0,0,0-1.74125-.17686,6.85662,6.85662,0,0,0-2.92993.55434,3.84369,3.84369,0,0,0-1.76927,1.61593,5.29453,5.29453,0,0,0-.59425,2.61861,5.363,5.363,0,0,0,.59425,2.63058,3.82307,3.82307,0,0,0,1.76927,1.62755,6.8497,6.8497,0,0,0,2.92993.55478,8.93127,8.93127,0,0,0,1.58533-.15371,8.51577,8.51577,0,0,0,1.67047-.48347,2.76262,2.76262,0,0,1,1.51454-.165,2.0434,2.0434,0,0,1,1.07569.566,1.94508,1.94508,0,0,1,.52347.979A1.57187,1.57187,0,0,1,32.69736,41.56a2.10194,2.10194,0,0,1-1.03329.87267,9.586,9.586,0,0,1-2.44885.77847,15.17682,15.17682,0,0,1-2.90173.283Z"/><path d="M36.36345,43.44716A2.91277,2.91277,0,0,1,34.8913,43.105a1.45057,1.45057,0,0,1-.736-.9438A1.95062,1.95062,0,0,1,34.41,40.805l7.0489-12.64507a3.3571,3.3571,0,0,1,1.26-1.34461,3.41758,3.41758,0,0,1,1.71287-.42466,3.26254,3.26254,0,0,1,1.6843.42466,3.63225,3.63225,0,0,1,1.25982,1.34461L54.425,40.805a1.90845,1.90845,0,0,1,.32533,1.3682,1.37239,1.37239,0,0,1-.7076.94344,2.84906,2.84906,0,0,1-1.42958.33056,3.02352,3.02352,0,0,1-1.74124-.42467A3.63894,3.63894,0,0,1,49.782,41.65394l-1.52874-2.996,1.98179,1.20323H38.57158l2.01-1.20323-1.52874,2.996a4.37686,4.37686,0,0,1-1.0473,1.36855,2.62934,2.62934,0,0,1-1.64209.42467Zm8.01176-12.31477L41.091,37.66722l-.79222-1.13236h8.23793L47.744,37.66722l-3.312-6.53483Z"/><path d="M59.43552,43.44716a2.60886,2.60886,0,0,1-1.7409-.51912,1.81708,1.81708,0,0,1-.60862-1.46257V28.3724a1.75679,1.75679,0,0,1,.651-1.47463,2.93606,2.93606,0,0,1,1.84-.50715,3.27587,3.27587,0,0,1,1.57131.31859,3.09427,3.09427,0,0,1,1.0615,1.0496l6.08656,9.10626h-.99107l6.05835-9.10626a3.32622,3.32622,0,0,1,1.08988-1.0496,3.2759,3.2759,0,0,1,1.57131-.31859,2.65233,2.65233,0,0,1,1.74089.50715,1.811,1.811,0,0,1,.6088,1.47463V41.46547A1.8383,1.8383,0,0,1,77.78,42.928a3.20243,3.20243,0,0,1-3.496,0,1.81728,1.81728,0,0,1-.609-1.46257V33.3502h.59479l-4.558,6.60542a2.99407,2.99407,0,0,1-.83514.77847,2.75818,2.75818,0,0,1-2.33568,0,2.61581,2.61581,0,0,1-.8206-.77847l-4.58621-6.629h.651v8.13887a1.83764,1.83764,0,0,1-.59443,1.46257,2.5998,2.5998,0,0,1-1.75526.51912Z"/><path d="M84.65913,43.44716a2.88753,2.88753,0,0,1-1.925-.57793,2.00708,2.00708,0,0,1-.6794-1.61628V28.79707a1.98,1.98,0,0,1,.69359-1.6279,2.986,2.986,0,0,1,1.93921-.566h6.96393a8.3508,8.3508,0,0,1,5.25142,1.45068,4.7977,4.7977,0,0,1,1.85406,3.9987,4.79772,4.79772,0,0,1-1.85406,3.99878,8.35074,8.35074,0,0,1-5.25142,1.4506H87.26355V41.253a2.049,2.049,0,0,1-.651,1.61628,2.86855,2.86855,0,0,1-1.9534.57793Zm2.60442-9.27149h3.48214a4.06052,4.06052,0,0,0,2.2649-.53074,2.00842,2.00842,0,0,0,0-3.19664,4.13491,4.13491,0,0,0-2.2649-.51877H87.26355v4.24615Z"/></g></g></svg>