<svg xmlns="http://www.w3.org/2000/svg" viewBox="0 0 200.00024 85.9209"><defs><style>.cls-1{fill-rule:evenodd;}</style></defs><g id="Capa_2" data-name="Capa 2"><g id="Capa_1-2" data-name="Capa 1"><path class="cls-1" d="M123.928,66.73682h67.96094a2.78422,2.78422,0,0,0,1.80395-.66407c4.2251-3.60107,6.25-7.31884,6.30615-10.91992.05664-3.64013-1.86132-7.41015-6.36132-11.05127a2.803,2.803,0,0,0-.35694-.2456l-27.283-15.773A2.785,2.785,0,0,0,164.606,27.71H34.14185L27.033,2.03906A2.781,2.781,0,0,0,24.353,0H11.124A2.78082,2.78082,0,0,0,8.343,2.78076V40.18359A8.64067,8.64067,0,0,0,8.522,57.459s5.551.436,10.813.84766l11.074,7.91211a2.78212,2.78212,0,0,0,1.61694.51807H77.63281a7.39187,7.39187,0,0,0-.439,2.51709v9.25683a7.41379,7.41379,0,0,0,7.40893,7.41016h26.34986a7.41385,7.41385,0,0,0,7.40918-7.41016V69.25391a7.36826,7.36826,0,0,0-.439-2.51709H123.928Zm-22.21216.66992V80.35742h-17.113a1.84844,1.84844,0,0,1-1.84692-1.84668V69.25391a1.84761,1.84761,0,0,1,1.84692-1.84717Zm5.563,0h3.67407a1.84761,1.84761,0,0,1,1.84692,1.84717v9.25683a1.84844,1.84844,0,0,1-1.84692,1.84668h-3.67407V67.40674Zm-81.32276-48.416H13.90576v20.666l14.624-1.41162c.08886-.0083.17822-.01221.26709-.01221,5.54589,0,9.6289,5.04,9.6289,10.58594,0,5.231-3.53906,9.624-8.574,10.165l3.06591,2.18994H63.23291a6.04675,6.04675,0,0,1-.56714-2.54981,7.11241,7.11241,0,0,1,3.301-5.71728,18.63251,18.63251,0,0,1,10.512-2.92285L114.60791,48.041c.04688-.002.09375-.00391.14185-.00391,5.37182,0,9.75122,1.69482,12.42016,3.99365a8.7728,8.7728,0,0,1,3.33692,6.59326,7.3601,7.3601,0,0,1-.46,2.54981H183.981v-16.269l-1.687-.9751H152.45581a2.78117,2.78117,0,0,1-2.321-1.249l-6.21-9.40869H32.02588a2.78039,2.78039,0,0,1-2.68018-2.03906l-3.38989-12.2417Zm97.18409,42.18311a3.28067,3.28067,0,0,0,1.80371-2.55029,3.33563,3.33563,0,0,0-1.40479-2.37891c-1.866-1.60693-4.97217-2.63184-8.72094-2.645l-38.125,1.94189c-.04712.00342-.094.0044-.14087.0044A14.39016,14.39016,0,0,0,69.999,56.94141a5.3949,5.3949,0,0,0-1.32788.94043,1.15224,1.15224,0,0,0-.44214.7417c0,.417.37012.7163.77295,1.04a8.909,8.909,0,0,0,3.28516,1.51026Zm66.40307-13.05274V61.17383h1.29517c2.24267-2.05615,3.56689-4.03076,3.59863-6.10694.03418-2.21386-1.44482-4.29785-4.13281-6.50585l-.761-.43995ZM11.4248,45.48438l-.05981.00634-2.457.23682c-.08887.00879-.178.01318-.26685.01318a3.07788,3.07788,0,1,0,0,6.15576c.07178,0,.145.00293.2168.00928l20.03516,1.5708c2.407-.05566,3.97-2.229,3.97-4.65771,0-2.46631-1.51294-4.94629-3.94995-5.022l-17.48829,1.688Zm38.29346-5.17823h9.37793a2.781,2.781,0,0,0,0-5.562H49.71826a2.781,2.781,0,1,0,0,5.562Zm33.67676,0h9.37915a2.781,2.781,0,1,0,0-5.562H83.395a2.781,2.781,0,0,0,0,5.562Zm33.03882,0H125.812a2.781,2.781,0,1,0,0-5.562h-9.37817a2.781,2.781,0,1,0,0,5.562Zm-50.73,0H75.083a2.781,2.781,0,0,0,0-5.562H65.70386a2.781,2.781,0,1,0,0,5.562Zm33.678,0H108.76a2.781,2.781,0,1,0,0-5.562H99.38184a2.781,2.781,0,1,0,0,5.562Zm54.571-1.93945h18.72l-8.813-5.09522h-13.27l3.36328,5.09522ZM13.906,13.42871H24.415l-2.178-7.86621H13.906v7.86621Z"/></g></g></svg>