<svg xmlns="http://www.w3.org/2000/svg" viewBox="0 0 166.93276 85.79897"><defs><style>.cls-1{fill-rule:evenodd;}</style></defs><g id="Capa_2" data-name="Capa 2"><g id="Capa_1-2" data-name="Capa 1"><path class="cls-1" d="M92.88988,60.3503a2.34884,2.34884,0,0,0,.203.267S112.5996,82.66,113.33238,83.48773a6.74691,6.74691,0,0,0,6.92366,2.10866,16.59139,16.59139,0,0,0,5.56468-2.55167c7.57636-5.04139,6.70664-15.64666,6.70664-15.64666-.00264-.02649-.0059-.05339-.00916-.07947,0,0-1.36733-10.816-1.99333-17.90489v-.00326a19.41635,19.41635,0,0,0-.33888-2.3214c27.92552-11.8002,34.11091-22.63736,34.72631-23.83719,2.39313-4.08935,2.36379-7.1904,1.43294-9.47879a9.74548,9.74548,0,0,0-4.73491-4.81113,18.31432,18.31432,0,0,0-5.35928-1.706,2.341,2.341,0,0,0-1.32128.21192s-16.84016,8.11555-23.55659,11.35149l-.73359-3.64512,15.23075-6.83013a2.34243,2.34243,0,0,0-.71769-4.46716c-7.9727-.82366-17.5923.89254-17.5923.89254-.02914.00489-.05848.01059-.08762.01711-9.77142,2.14209-28.16231,8.93187-31.98431,10.35911L41.87564.94176A23.74971,23.74971,0,0,0,23.31582,3.21833C18.82136,5.457,17.52657,8.0046,17.299,9.982c-.39654,3.43442,2.59161,6.01707,2.59161,6.01707a2.60766,2.60766,0,0,0,.23536.172L50.76634,35.742l-17.932,9.97357-17.704-9.44823c-.04585-.02527-.09272-.04769-.1402-.06929-3.5575-1.60289-7.9085-.24575-8.79411.06154C2.405,37.40239.90934,39.41039.31431,41.20769A7.8992,7.8992,0,0,0,.902,46.91583l.00571.00978L9.28449,61.71926a19.52765,19.52765,0,0,0-4.4804,5.451,2.3206,2.3206,0,0,0-.218.70873,8.94085,8.94085,0,0,0,.81978,5.57651A9.19349,9.19349,0,0,0,11.10644,77.749c4.72921,1.4415,10.935.51229,11.83056.36638,7.32-.75233,24.77292-5.27451,25.77019-5.53371,15.10747-3.34313,31.00191-8.00713,44.1835-12.23139Zm32.581-12.85249A12.67446,12.67446,0,0,1,125.859,49.829c.61092,6.912,1.91814,17.3335,2.00658,18.03856.05583.637.56343,7.83841-4.664,11.29321-.03769.02486-.07335.05013-.10942.07662a11.05241,11.05241,0,0,1-3.79348,1.77284,2.26851,2.26851,0,0,1-2.39068-.549c-.01508-.01875-.03077-.03627-.04585-.0538L96.7235,57.65151l-.85219-1.34084a2.34257,2.34257,0,0,0-2.697-.972c-13.39046,4.32778-29.88319,9.2196-45.52251,12.67847-.02914.00652-.05848.013-.08681.02079,0,0-17.88756,4.69416-25.17354,5.42367-.06255.00652-.1243.01508-.18584.02649,0,0-5.57059,1.049-9.73474-.22008a4.6017,4.6017,0,0,1-2.92885-2.00922,4.10684,4.10684,0,0,1-.36557-2.3161,18.66732,18.66732,0,0,1,4.53888-4.81683,2.34357,2.34357,0,0,0,.60929-3.011L4.98219,44.61725a2.62666,2.62666,0,0,1-.22191-1.93912c.2647-.798,1.12341-1.437,2.81433-1.9432a2.10233,2.10233,0,0,0,.20031-.0701s2.88382-1.23325,5.225-.22538l18.753,10.00861a2.343,2.343,0,0,0,2.24112-.01915l22.4774-12.50159a2.34278,2.34278,0,0,0,.12267-4.0213l-33.827-21.60625a2.19511,2.19511,0,0,1-.81632-1.78181c.11921-1.03151,1.17272-1.99007,3.54976-3.15607a2.15023,2.15023,0,0,0,.27285-.15772A18.98476,18.98476,0,0,1,40.5994,5.448c.01671.00489.03362.01019.05012.01426L95.01036,19.86511a2.33781,2.33781,0,0,0,1.42907-.07417s21.25047-8.05522,31.98839-10.41942c.32808-.05746,2.39965-.41122,5.24068-.6908l-6.65386,2.98368a2.34178,2.34178,0,0,0-1.338,2.59935l1.69764,8.43587a2.34256,2.34256,0,0,0,3.31277,1.64854s21.4624-10.34239,25.59251-12.332a13.15986,13.15986,0,0,1,3.18337,1.10813,5.05608,5.05608,0,0,1,2.54148,2.41229c.53593,1.318.22374,3.04643-1.17171,5.40941-.03586.06113-.06928.12389-.09944.18706,0,0-5.31914,10.62687-34.50317,22.52732a2.34126,2.34126,0,0,0-.75947,3.83708Z"/></g></g></svg>