<svg xmlns="http://www.w3.org/2000/svg" viewBox="0 0 143.69871 144.86777"><g id="Capa_2" data-name="Capa 2"><g id="Capa_1-2" data-name="Capa 1"><path d="M2.49851,144.86777a2.5,2.5,0,0,1-1.92237-4.09619l5.69727-6.86719a2.49979,2.49979,0,0,1,3.84765,3.19239L4.4238,143.964A2.49326,2.49326,0,0,1,2.49851,144.86777Zm8.82568-12.09326a2.5,2.5,0,0,1-1.52344-4.4834,40.83852,40.83852,0,0,0,11.72608-15.22119,18.53226,18.53226,0,0,1-5.7544,1.01514c-9.083,0-13.51074-6.79737-13.86914-13.53418C1.48142,92.62558,6.41745,83.628,16.39646,82.5626c5.9746-.63428,10.43261,1.94091,12.55957,7.25927,1.44775,3.62061,1.66894,8.15381.90039,12.977,8.11035-6.125,15.66308-15.23584,17.36279-20.32324a2.5,2.5,0,0,1,4.74219,1.585c-2.3252,6.9585-12.98828,19.53565-23.92481,25.97949-2.89013,8.51221-8.354,16.97168-15.19287,22.21778A2.48812,2.48812,0,0,1,11.32419,132.77451Zm6.80225-45.30664a11.29974,11.29974,0,0,0-1.19922.06641c-6.917.73828-10.33057,7.1206-10.03125,12.751.22656,4.25391,2.67724,8.79981,8.87646,8.79981a18.20775,18.20775,0,0,0,8.15479-2.45362c1.65234-5.77392,1.86963-11.24267.38623-14.95312A6.12383,6.12383,0,0,0,18.12644,87.46787Zm33.2417,36.40723a2.50063,2.50063,0,0,1-2.11768-3.82569l8.89941-14.23877a2.50021,2.50021,0,0,1,4.24024,2.65039L53.49069,122.6998A2.49894,2.49894,0,0,1,51.36814,123.8751Zm38.26806-4.44971a2.5007,2.5007,0,0,1-2.07764-3.88721c3.93409-5.90137,5.6504-10.59521,6.189-14.231a18.80836,18.80836,0,0,1-9.36084,1.75c-5.48535-.62207-8.51807-4.61425-7.91455-10.41894.45459-4.37012,3.06152-7.59717,6.97363-8.63184,4.54248-1.20068,9.62744.82715,12.646,5.04981a14.4554,14.4554,0,0,1,1.88965,3.72656,25.39253,25.39253,0,0,0,8.64209-16.21045,2.50008,2.50008,0,1,1,4.96289.60938A30.56962,30.56962,0,0,1,98.9155,98.36045c.07373,4.87353-1.55176,11.48291-7.19678,19.95117A2.49722,2.49722,0,0,1,89.6362,119.42539Zm-3.585-30.749a5.21334,5.21334,0,0,0-1.32715.16407c-1.90381.50342-3.0376,1.9956-3.27832,4.31494-.31836,3.05908.79541,4.62646,3.5044,4.93359,2.34375.27051,5.50781-.5122,8.70605-2.27685A10.224,10.224,0,0,0,92.02439,91.964,7.46543,7.46543,0,0,0,86.05124,88.67636Zm-21.3291-3.95849A2.50622,2.50622,0,0,1,62.291,82.815L53.9194,52.67832h-41.707a2.49986,2.49986,0,0,1-.8667-4.84473L140.28659.172A2.50023,2.50023,0,0,1,143.604,3.18174c-.01221.04345-.0254.08593-.04.12841l-19.4712,59.21778a2.5,2.5,0,0,1-2.375,1.71924H83.65769L66.60642,83.85752a2.50275,2.50275,0,0,1-1.88428.86035ZM70.3823,64.24863l-1.6626,9.55811,8.311-9.55811ZM58.75437,51.40293l5.4038,19.45215,1.6587-9.53467a2.49222,2.49222,0,0,1,.918-1.53711L117.25534,18.734Zm16.56738,7.8457h7.11133c.02881-.001.05713-.00146.08545-.00146h37.38964L136.16208,9.81406ZM26.18649,47.67832H55.16892l56.74414-31.688Z"/></g></g></svg>