<svg xmlns="http://www.w3.org/2000/svg" viewBox="0 0 140.49609 200.00035"><defs><style>.cls-1{fill-rule:evenodd;}</style></defs><g id="Capa_2" data-name="Capa 2"><g id="Capa_1-2" data-name="Capa 1"><path class="cls-1" d="M16.92383.001h-.06348C7.53027.061,0,8.686,0,18.02832V168.812a3.025,3.025,0,0,0,.2334,1.169c1.1543,7.04785,6.47265,10.19775,12.69629,11.49121v15.481a3.0483,3.0483,0,0,0,5.20312,2.15479l8.752-8.75293,8.42382,8.42236a3.04746,3.04746,0,0,0,5.20215-2.15527V182.32422h96.93848a3.04735,3.04735,0,0,0,3.04687-3.04834V31.55078a3.04724,3.04724,0,0,0-3.04687-3.04785H127.18457V3.04785A3.04839,3.04839,0,0,0,124.13672,0H16.9248ZM34.415,179.27783V168.92969H19.02539v20.667l5.70508-5.70606a3.04753,3.04753,0,0,1,4.30957,0l5.375,5.37549v-9.98828ZM40.50977,176.23h93.89062V34.59912h-7.2168V151.5752a3.04787,3.04787,0,0,1-3.04785,3.04687H25.36523a69.15945,69.15945,0,0,0-7.45507.23486,3.02284,3.02284,0,0,1-1.00684.1709c-.07812,0-.15625-.00293-.23144-.00879-5.584.86084-10.57813,3.55908-10.57813,11.96289,0,5.02,3.07031,7.19971,6.83594,8.23194v-9.33106a3.04693,3.04693,0,0,1,3.04687-3.04785H37.46289a3.04756,3.04756,0,0,1,3.04688,3.04785V176.23Zm10.4707-7.2998H110.1582a3.04761,3.04761,0,0,0,0-6.09522H50.98047a3.04761,3.04761,0,0,0,0,6.09522ZM13.85645,6.61328C9.31152,8.167,6.09473,12.999,6.09473,18.0293V152.83447a18.40661,18.40661,0,0,1,6.0957-2.98486q.82178-.23877,1.666-.42334V6.61328Zm6.0957-.51709V148.64844c1.87793-.1084,3.7168-.1211,5.41406-.1211h95.72363V6.09619ZM59.67969,54.27H43.61719a10.5625,10.5625,0,1,0,0,21.125h16.0625v37.53516a10.5625,10.5625,0,0,0,21.125,0V75.395h16.0625a10.5625,10.5625,0,1,0,0-21.125H80.80469V36.49023a10.5625,10.5625,0,0,0-21.125,0V54.27ZM74.71,57.31787V36.49023a4.46729,4.46729,0,1,0-8.93457,0V57.396l-.00293.04-.001.03808-.00293.03858-.002.03906-.0039.03906-.00293.03809-.00391.03808-.00488.03906-.00489.03809-.00586.0376-.00683.03711-.00586.03808-.00684.03711-.00781.0376-.00781.03711-.00879.03711-.00781.03613-.00879.03711-.00489.01807-.00488.01806-.00488.01856a3.05048,3.05048,0,0,1-2.93457,2.23144H43.61816a4.468,4.468,0,0,0,0,8.936H62.8457l.03907.00195.03906.002.03808.002L63,69.311l.03906.00292.03809.0044.043.00586.03808.00488.03711.00488.03809.00586.03711.00733.03711.00683.03613.00733.03711.00781.03516.00781.01855.00391a3.05059,3.05059,0,0,1,2.33984,2.94531l.001.02v40.582a4.46778,4.46778,0,0,0,8.93555,0V72.26709l.002-.03906.00195-.03858.002-.03906.00293-.03809.00293-.03906.0039-.03808.00391-.03907.00391-.03808.00585-.0376.00586-.03809.00586-.03808.00684-.03711.00683-.0376.00684-.03711.00879-.03711.00781-.03711.00879-.03711.00879-.03613.00977-.03662.00488-.01807.00488-.01806.00488-.01807a3.04862,3.04862,0,0,1,2.92286-2.19531H96.86719a4.468,4.468,0,0,0,0-8.936H77.71875l-.03906-.001-.03907-.001-.03906-.002-.03906-.002-.03906-.00293-.03906-.00341-.03711-.00391-.03809-.00391-.03906-.0039L77.332,60.334l-.03711-.00634-.03808-.00586-.03809-.00586-.03711-.00733-.03711-.00781-.03711-.00781-.03711-.00781-.03613-.00928-.03711-.00928-.03613-.00879-.01758-.00488-.01953-.00586-.01758-.00537a3.04919,3.04919,0,0,1-2.19531-2.92188v-.0039Z"/></g></g></svg>