<svg xmlns="http://www.w3.org/2000/svg" viewBox="0 0 200 149.48682"><defs><style>.cls-1{fill-rule:evenodd;}</style></defs><g id="Capa_2" data-name="Capa 2"><g id="Capa_1-2" data-name="Capa 1"><path class="cls-1" d="M99.98242,6.25781a13.96286,13.96286,0,0,0-2.19726-2.353,15.96149,15.96149,0,0,0-10.669-3.563h-71.354A2.92513,2.92513,0,0,0,12.8374,3.26611L12.835,9.68018c-1.1416-.0044-2.585,0-4.17383.02246A9.15826,9.15826,0,0,0,0,18.95068v111.1211c0,5.92724,3.25488,11.481,9.05908,11.481H81.93213c.52978,0,.665.48731.896.88623.52442.90381.98,1.937,1.56641,2.87793a7.9261,7.9261,0,0,0,7.33887,4.16993h15.06787c5.708,0,7.96533-2.76075,9.46826-5.49317.3418-.6206.63281-1.2417.92383-1.80664.104-.20117.27588-.478.39062-.65625h73.09131c5.63135,0,9.32471-5.11621,9.32471-10.748V18.23975a9.05,9.05,0,0,0-2.10352-5.48584,7.69487,7.69487,0,0,0-5.88818-2.9502h-3.28076V2.9248A2.92565,2.92565,0,0,0,185.80225,0H112.55664A16.4438,16.4438,0,0,0,99.98242,6.25781Zm88.74512,9.39405v9.98046a2.92505,2.92505,0,0,1-5.8501,0V13.98291a2.93076,2.93076,0,0,1,0-2.51172V5.84912h-70.3208c-4.627,0-9.53906,3.5459-9.53906,8.17285v.96631c.01074.24365.01709.48584.01709.7251a3.091,3.091,0,0,1-.01709.31787V117.65918a2.92505,2.92505,0,1,1-5.8501,0V15.12061a9.5391,9.5391,0,0,0-3.16406-6.75342,10.32593,10.32593,0,0,0-6.88721-2.17676H18.68652l-.0332,115.51807c12.748-.00538,63.05518-.02295,69.0127-.02295,4.38818,0,7.06054,2.23193,9.313,4.60693.64795.68164,1.25293,1.36914,1.88721,1.9419a2.38863,2.38863,0,0,0,1.56787.84228c.7168,0,1.07959-.57422,1.502-1.09619.6621-.81983,1.272-1.76026,1.9663-2.61524a8.67269,8.67269,0,0,1,7.06543-3.68212c4.93311,0,58.05664.30127,71.22657.376V36.38818a2.92481,2.92481,0,0,1,5.84961,0v88.61328a2.92414,2.92414,0,0,1-2.94141,2.92383s-68.50147-.39209-74.13428-.39209a2.90656,2.90656,0,0,0-2.25342,1.19873c-.6748.76221-1.24365,1.64014-1.84668,2.43555-1.65136,2.17578-3.56787,3.75879-6.43408,3.75879-2.688,0-4.71924-1.46875-6.66406-3.50879-1.543-1.61816-2.98779-3.8833-6.104-3.8833-6.82911,0-71.937.02393-71.937.02393a2.92494,2.92494,0,0,1-2.92627-2.92481l.03125-109.105c-1.11523-.00293-2.52929,0-4.08691.02295A3.24478,3.24478,0,0,0,5.84961,18.9502V130.07129a8.26449,8.26449,0,0,0,1.0498,4.32031,2.50422,2.50422,0,0,0,2.15918,1.312H81.93164c3.19727,0,4.9043,1.82276,6.25293,4.333.34912.65088.67725,1.35156,1.06836,2.01172a2.67672,2.67672,0,0,0,2.47949,1.58887h15.06836c4.165,0,4.57813-3.09082,5.53565-4.76563,1.146-2.00439,2.61621-3.1914,4.90918-3.1914H190.6748c2.377,0,3.47559-2.521,3.47559-4.898V18.23926a2.98967,2.98967,0,0,0-.76269-1.75879,1.88293,1.88293,0,0,0-1.37989-.82813h-3.28125Zm-70.543,81.53662h49.36475a2.92456,2.92456,0,0,0,0-5.84912H118.18457a2.92456,2.92456,0,1,0,0,5.84912ZM47.44775,43.03271H41.3418a6.59838,6.59838,0,0,0-6.59522,6.5962V56.9707a6.59817,6.59817,0,0,0,6.59522,6.59522h6.106V89.146a6.57982,6.57982,0,0,0,6.57666,6.57763h7.30616A6.57991,6.57991,0,0,0,67.90771,89.146V63.56592h6.39893a6.59826,6.59826,0,0,0,6.5957-6.59522V49.62891a6.59847,6.59847,0,0,0-6.5957-6.5962H67.90771V36.1748a6.58065,6.58065,0,0,0-6.57714-6.57812H54.02441a6.58055,6.58055,0,0,0-6.57666,6.57812v6.85791Zm2.92432,5.84864a2.92441,2.92441,0,0,0,2.92481-2.92383v-9.7832a.72821.72821,0,0,1,.72753-.728h7.30567a.72779.72779,0,0,1,.727.728v9.7832a2.92482,2.92482,0,0,0,2.92529,2.92383h9.32373a.74727.74727,0,0,1,.74658.74707v7.34179a.74707.74707,0,0,1-.74658.7461H64.98242a2.925,2.925,0,0,0-2.92529,2.9248v28.5044a.7278.7278,0,0,1-.727.728H54.02441a.72821.72821,0,0,1-.72753-.728V60.64111a2.92461,2.92461,0,0,0-2.92481-2.9248H41.34131a.74666.74666,0,0,1-.7461-.7461V49.62842a.74686.74686,0,0,1,.7461-.74707Zm67.8125,32.3833h49.36475a2.92456,2.92456,0,0,0,0-5.84912H118.18457a2.92456,2.92456,0,1,0,0,5.84912Zm0-15.76514h49.36475a2.92456,2.92456,0,0,0,0-5.84912H118.18457a2.92456,2.92456,0,1,0,0,5.84912Zm0-15.76513h49.36475a2.92457,2.92457,0,0,0,0-5.84913H118.18457a2.92457,2.92457,0,1,0,0,5.84913Zm0-15.76368h49.36475a2.925,2.925,0,0,0,0-5.85009H118.18457a2.925,2.925,0,1,0,0,5.85009Z"/></g></g></svg>