<svg xmlns="http://www.w3.org/2000/svg" viewBox="0 0 175.95292 173.26303"><defs><style>.cls-1{fill-rule:evenodd;}</style></defs><g id="Capa_2" data-name="Capa 2"><g id="Capa_1-2" data-name="Capa 1"><path class="cls-1" d="M108.53786,73.192c.03.077.063.15313.10025.22694.47419,1.07782.986,2.24383,1.53085,3.4845-.41793,12.10744-8.47532,25.08057-17.657,33.80673-5.3104,5.04623-10.98035,8.72488-15.82417,9.73565l-4.81-11.74535a2.77732,2.77732,0,0,0-.73265-1.93271c-.033-.03553-.06683-.07106-.10152-.10469L66.57751,95.7553c4.39925-1.49109,8.81118-3.06763,10.16268-3.6463,3.27871-1.40353,4.15771-5.10165,3.36246-7.92076a4.97569,4.97569,0,0,0-4.46016-3.93457H51.50036a6.32782,6.32782,0,0,0-4.97622,2.56848A5.76337,5.76337,0,0,0,45.72,88.53229c.48222,1.14422,1.343,3.92611,2.18609,5.86241a9.36581,9.36581,0,0,0,1.62264,2.67868c1.67933,1.67975,3.70594,2.46548,7.05318,1.79586h0c.80286-.1601,2.54183-.67659,4.68688-1.361l4.32649,10.56728-7.11493,6.52865a33.721,33.721,0,1,0-41.27127,53.08177H2.78845a2.78855,2.78855,0,0,0,0,5.5771h170.376a2.78855,2.78855,0,0,0,0-5.5771H158.22734a33.73,33.73,0,0,0-28.65305-60.33777L128.59,105.0965,127.3294,102.211h4.04689a11.17936,11.17936,0,0,0,11.15209-8.18323c.77282-2.65859,2.35486-14.01012,3.03548-19.053h3.37938a2.78855,2.78855,0,0,0,0-5.5771H112.95487c-1.55666-3.53272-2.58075-5.8345-2.78337-6.24524-1.68863-3.41491-4.45043-5.41107-8.26043-5.41107H93.54066a2.78866,2.78866,0,0,0,0,5.57731h8.37041a3.57789,3.57789,0,0,1,3.26052,2.30538c.22757.459,1.48347,3.291,3.36584,7.56882Zm12.63937,28.85948L91.80592,132.842a11.80562,11.80562,0,0,1-3.24783,16.939l2.57144,6.3292h6.61579a2.78866,2.78866,0,0,1,0,5.57731H80.75873a2.78866,2.78866,0,1,1,0-5.57731h4.3506l-1.84853-4.55153c-.32909.02792-.66327.04167-.99913.04167H67.28139a33.86028,33.86028,0,0,1-12.927,16.08474h66.729a33.72579,33.72579,0,0,1,3.32651-58.23375c-1.05624-2.41768-2.14083-4.90156-3.2326-7.4Zm5.46944,12.52156a27.98469,27.98469,0,1,0,5.17589-2.07822l.71826,1.64612,1.159,2.6552a23.5226,23.5226,0,1,1-5.18984,2.04692l-1.05074-2.40816-.8126-1.86186Zm-72.294,3.81783A28.1423,28.1423,0,1,0,61.218,151.60034H55.95333a23.50722,23.50722,0,1,1-5.0456-30.04812l3.44495-3.16132ZM46.753,125.36413a17.92648,17.92648,0,1,0,2.2838,26.23621H34.30862a11.808,11.808,0,1,1,0-23.61591H43.896l2.857-2.62052Zm83.99767-1.38534a17.8402,17.8402,0,1,0,5.21734-1.98749c1.64591,3.77193,2.96188,6.78859,3.75882,8.61554.04145-.00084.08206-.00084.12351-.00084a9.24943,9.24943,0,1,1-5.43645,1.76879c-.82739-1.89718-2.10148-4.81823-3.66279-8.39622ZM54.51554,133.562H34.309a6.231,6.231,0,0,0,0,12.46192H54.274c.02412-.00084.04738-.00084.07107,0H65.24843c.03638-.00084.07191-.00084.10829,0H81.01254L78.17545,139.038a2.78821,2.78821,0,1,1,5.16657-2.09831l3.05282,7.51446a6.22657,6.22657,0,0,0-.14974-9.4514l-.07022-.05731a6.1991,6.1991,0,0,0-3.91321-1.38344H54.51554Zm85.33479,2.62051a3.66936,3.66936,0,1,1-3.66871,3.66978,3.67091,3.67091,0,0,1,3.66871-3.66978ZM114.25814,86.23008c-2.97245,10.57956-9.99263,21.00471-17.90408,28.52256-5.79305,5.50455-12.07128,9.41163-17.53819,10.8913l.95853,2.34091h2.48727a11.75671,11.75671,0,0,1,5.282,1.24575L118.7551,96.51078c-1.54227-3.52764-3.06339-7.0041-4.497-10.2807ZM58.1593,122.467l-3.4386,3.15519a23.60431,23.60431,0,0,1,1.53043,2.36227h5.2038a28.19181,28.19181,0,0,0-3.29521-5.51746Zm9.31329,5.51767h6.27485l-5.8988-14.40753-5.568,5.10756a33.66714,33.66714,0,0,1,5.192,9.3ZM139.9434,74.97415H115.40872l.06641.15249c.03553.07255.06853.14721.09814.22356,2.55579,5.8216,5.74905,13.11758,8.98969,20.52883.03045.06324.05922.12817.08417.1931l.24492.56154h6.48466a5.76254,5.76254,0,0,0,5.796-4.16448c.70388-2.41874,2.082-12.33883,2.77068-17.495ZM74.74065,85.83077a2.16445,2.16445,0,0,1,.06134.59242c-.01989.20981-.03342.46361-.2555.55878-2.52745,1.0812-16.36308,5.87892-19.058,6.41762h0c-.89635.17914-1.49532.19754-1.9564-.21574-.08206-.1601-.55752-1.09494-.83416-1.79586-.72418-1.83563-1.4213-4.03356-1.83753-5.02022-.03469-.08333.07995-.13769.132-.20706a.68432.68432,0,0,1,.50845-.33015H74.74065Zm-41.25054-27.431V50.188a2.78845,2.78845,0,0,0-5.57689,0v8.21179a2.78845,2.78845,0,0,0,5.57689,0ZM19.248,56.0667l4.096-7.11155a2.78833,2.78833,0,1,0-4.8324-2.78337l-4.09638,7.11155A2.78852,2.78852,0,1,0,19.248,56.0667Zm19.32834-7.63143,4.0968,7.1124a2.78842,2.78842,0,1,0,4.832-2.78443l-4.09553-7.11155a2.78876,2.78876,0,0,0-4.83325,2.78358ZM8.07515,46.69144l7.09379-4.10632A2.78837,2.78837,0,1,0,12.37626,37.758L5.28079,41.86432a2.7888,2.7888,0,1,0,2.79436,4.82712Zm38.457-4.406,7.09463,4.10632a2.78859,2.78859,0,1,0,2.79352-4.82712l-7.095-4.10631a2.78848,2.78848,0,0,0-2.7931,4.82711Zm82.9004,4.10886a8.58511,8.58511,0,0,0,.90269.04759h17.03608a8.64856,8.64856,0,0,0,3.115-16.71608A10.24781,10.24781,0,0,0,131.36064,25.247c-.30541-.026-.615-.03976-.92638-.03976a10.61738,10.61738,0,0,0-1.00168,21.18744ZM30.70081,16.32459A14.19444,14.19444,0,1,0,44.89557,30.51892,14.2015,14.2015,0,0,0,30.70081,16.32459ZM130.002,40.84636c-.01269-.00084-.02665-.00275-.04061-.00338a5.04064,5.04064,0,1,1,2.14886-9.77288,2.78928,2.78928,0,0,0,3.62684-1.92235,4.67217,4.67217,0,0,1,9.08148,2.19159,2.788,2.788,0,0,0,2.64336,3.38467,3.07084,3.07084,0,0,1-.09137,6.14033H130.33443a3.02478,3.02478,0,0,1-.33248-.01819ZM30.70081,21.90211a8.61734,8.61734,0,1,1-8.617,8.61724,8.62128,8.62128,0,0,1,8.617-8.61724Zm52.25289-7.027A10.51244,10.51244,0,0,0,86.19476,35.3877h22.45688a10.58989,10.58989,0,0,0,1.11674-.05879,13.10853,13.10853,0,1,0-2.964-26.045A12.62121,12.62121,0,0,0,82.9537,14.875Zm26.8151,20.45375-.01269.00169.01269-.00169Zm-59.411-2.3555h8.19275a2.78856,2.78856,0,0,0,0-5.57711H50.35783a2.78856,2.78856,0,0,0,0,5.57711Zm-47.28682,0h8.19191a2.78856,2.78856,0,0,0,0-5.57711H3.071a2.78856,2.78856,0,0,0,0,5.57711Zm106.15381-3.195c-.01354.00191-.02792.00275-.04061.00423a5.10888,5.10888,0,0,1-.533.02877H86.19476a4.93511,4.93511,0,0,1-.14551-9.86806,2.78856,2.78856,0,0,0,2.64293-3.38467,7.04571,7.04571,0,0,1,13.69561-3.30409,2.78984,2.78984,0,0,0,3.62727,1.92256,7.53179,7.53179,0,1,1,3.20976,14.60169ZM49.02621,22.99071l7.09548-4.10547a2.78869,2.78869,0,0,0-2.794-4.82711l-7.0942,4.10547a2.78837,2.78837,0,1,0,2.79267,4.82711ZM5.58027,18.58554,12.67533,22.691a2.78848,2.78848,0,1,0,2.7931-4.82711L8.37422,13.75843a2.78869,2.78869,0,0,0-2.79395,4.82711Zm37.31111-3.56909,4.096-7.11156a2.78833,2.78833,0,1,0-4.8324-2.78336L38.0594,12.23308a2.78815,2.78815,0,1,0,4.832,2.78337ZM14.9329,7.38608l4.09595,7.11155a2.78857,2.78857,0,1,0,4.83283-2.78358L19.76615,4.6025A2.78876,2.78876,0,1,0,14.9329,7.38608Zm18.55721,3.61436v-8.212a2.78845,2.78845,0,1,0-5.57689,0v8.212a2.78845,2.78845,0,1,0,5.57689,0Z"/></g></g></svg>