<svg xmlns="http://www.w3.org/2000/svg" viewBox="0 0 224.80231 173.26271"><defs><style>.cls-1{fill-rule:evenodd;}</style></defs><g id="Capa_2" data-name="Capa 2"><g id="Capa_1-2" data-name="Capa 1"><path class="cls-1" d="M32.32684,56.41515a14.91921,14.91921,0,0,0-2.96357,1.54375A35.57884,35.57884,0,0,0,20.79236,66.875c-10.39407,14.50736-19.4912,40.34235-19.4912,51.17655,0,15.9056,3.28,25.99637,9.09629,32.16716,5.49652,5.832,13.342,8.333,23.35576,8.67011v9.08677H2.64378a2.64357,2.64357,0,1,0,0,5.28713H222.15769a2.64357,2.64357,0,1,0,0-5.28713H204.17323v-10.374c12.75951-1.09347,19.26954-10.12715,19.26954-20.05612,0-7.1272-4.8324-24.339-11.24853-34.01675-3.23767-4.88422-7.06671-7.8021-10.66479-7.8021a7.928,7.928,0,0,0-2.648.47905V63.09608a26.37041,26.37041,0,0,0-47.7792-15.40043,199.903,199.903,0,0,0-7.09463-24.84157c-2.2783-6.098-4.7681-10.98479-7.3129-13.9381-2.21316-2.56679-4.59636-3.80313-6.89962-3.80313-2.58329,0-5.15093,1.35838-7.49353,4.09151-2.76645,3.228-5.36115,8.54861-7.65934,15.10676-8.524,24.31831-13.47988,66.10829-13.47988,74.49161,0,22.55459,7.48168,39.06213,25.98939,40.48025v28.69239H76.59214V152.96569c8.60179-.48265,14.92909-3.37092,19.24162-8.37549q6.95864-8.07757,6.97915-23.937c0-9.28706-7.72575-29.29009-16.37027-40.43436a36.184,36.184,0,0,0-4.403-4.80723V24.85627a24.85638,24.85638,0,0,0-49.71275,0V56.41515ZM149.7351,129.51623a24.74594,24.74594,0,0,1-17.2958,9.73629v28.72264h36.59707v-25.6144A26.39985,26.39985,0,0,1,149.7351,129.516ZM54.84041,155.061a38.32856,38.32856,0,0,1-15.79964,3.80049v9.11363H54.84041V155.061Zm6.05319-4.22644q-.37563.3496-.76606.68526v16.45551H71.305v-15.008a32.72642,32.72642,0,0,1-10.41141-2.133Zm118.28811-9.1001a26.22324,26.22324,0,0,1-4.85821.79187v25.449h24.56218V157.62551c-6.63948-.44458-12.13346-2.61544-15.66766-6.74354a18.08069,18.08069,0,0,1-4.03589-9.14747ZM55.08406,82.91532C51.68014,76.2274,47.8105,70.13381,43.90955,65.97441c-2.76476-2.94707-5.406-4.96988-7.95841-4.96988a4.38122,4.38122,0,0,0-.49787.02856c-.0753.01374-.15186.02411-.22885.03214a9.23946,9.23946,0,0,0-4.0583,2.12222,34.37306,34.37306,0,0,0-6.076,6.7668C15.30938,83.60566,6.58787,107.8565,6.58787,118.05112c0,14.06024,2.516,23.08547,7.6568,28.5399,4.58622,4.866,11.19185,6.72238,19.50854,7.00939v-31.539l-6.42543-8.99836a2.64371,2.64371,0,1,1,4.3028-3.07291l2.12221,2.97245V97.54746a2.644,2.644,0,1,1,5.288,0v1.44583l1.77239-1.7726a2.64368,2.64368,0,0,1,3.73936,3.73809l-5.51175,5.51238v21.80863l1.77239-1.7726a2.64405,2.64405,0,0,1,3.73936,3.73915l-5.51175,5.51153v17.81039c6.71308-.349,12.0717-1.96633,16.18542-4.91531a2.65237,2.65237,0,0,1,.56048-.65248,21.13359,21.13359,0,0,1-2.8942-2.60085c-4.7423-5.12321-7.41442-13.10806-7.41442-24.747h0c0-7.058,5.05067-22.23312,11.57171-33.70055q-.91116-1.95555-1.879-3.86563c-.0313-.05626-.05922-.11252-.08629-.17153Zm149.08917,69.36405c9.15382-1.03531,13.98114-7.46857,13.98114-14.73409,0-6.52083-4.49653-22.24179-10.367-31.09442a18.95554,18.95554,0,0,0-3.58877-4.21122,4.4146,4.4146,0,0,0-2.67-1.22566,4.74622,4.74622,0,0,0-2.7783,1.19541q-.354.2703-.70387.58481c-.02369.02242-.04823.04505-.07361.06683a21.39906,21.39906,0,0,0-2.91365,3.395c-6.06758,8.52524-10.90421,23.83905-10.90421,31.28943,0,.16814.00169.33523.00508.49978.00169.04336.00253.08671.00253.12923.10068,3.97983,1.16284,7.03964,3.071,9.26866,2.63278,3.07439,6.74861,4.524,11.65123,4.88781V133.28076l-6.0515-6.05214a2.64368,2.64368,0,0,1,3.73936-3.73809l2.31214,2.31215v-1.776a2.6442,2.6442,0,0,1,5.2884,0v14.06722l3.4551-3.45573a2.644,2.644,0,0,1,3.73936,3.73894l-7.19446,7.19488v6.70737ZM76.59256,147.66989c6.75665-.42872,11.81409-2.55981,15.23578-6.531,3.95678-4.59235,5.69787-11.47611,5.69787-20.48568,0-8.55928-7.29429-26.92317-15.26116-37.19351a26.69,26.69,0,0,0-4.873-5.03164,6.40664,6.40664,0,0,0-3.62515-1.56553,6.09246,6.09246,0,0,0-3.53547,1.59324,26.48938,26.48938,0,0,0-4.76218,5.15452c-1.04651,1.41728-2.07738,2.98345-3.07863,4.6503a2.67891,2.67891,0,0,1-.21319.35786C55.848,99.29383,50.76518,113.933,50.76518,120.653h0c0,9.908,1.97078,16.79327,6.00793,21.1553a16.16808,16.16808,0,0,0,4.56253,3.43247,2.72145,2.72145,0,0,1,.30625.15333,25.50372,25.50372,0,0,0,9.66354,2.27936V122.79194c-.03088-.03976-.06218-.07973-.09179-.12119l-6.86029-9.60728a2.64371,2.64371,0,1,1,4.3028-3.07291L71.305,113.7001v-4.83917a2.64378,2.64378,0,1,1,5.28755,0v18.89243l8.6056-8.606a2.644,2.644,0,1,1,3.73936,3.73914l-12.345,12.345v12.43845ZM193.59474,99.786V63.09608a21.08922,21.08922,0,0,0-40.80132-7.49289c3.54224,17.55849,5.70464,35.03449,5.70464,43.19954,0,10.28408-1.97078,18.92564-5.44449,25.55369A21.13467,21.13467,0,0,0,169.036,137.01589V121.66908l-6.40683-8.9732a2.6434,2.6434,0,1,1,4.3028-3.07185l2.104,2.94728V99.34185l-6.40683-8.9732a2.64371,2.64371,0,1,1,4.3028-3.07291l2.104,2.94728V84.78944a2.64378,2.64378,0,1,1,5.28755,0V98.52481l5.36243-5.36264a2.6436,2.6436,0,0,1,3.73809,3.73915l-9.10052,9.10052v16.26748l2.60571-2.48282a2.64378,2.64378,0,1,1,3.64714,3.8284l-6.25285,5.95759v7.6513a20.96928,20.96928,0,0,0,4.58029-.91136c.46785-8.53686,5.50964-24.21785,11.84836-33.12272a27.01825,27.01825,0,0,1,2.84259-3.40371ZM147.43311,55.67256c-2.29437-11.19618-5.15981-22.3562-8.378-30.9672-2.01012-5.37892-4.12091-9.733-6.36537-12.33724-.98349-1.14084-1.87053-1.96824-2.8942-1.96824-1.25294,0-2.3426.91993-3.47879,2.24541-2.44835,2.85624-4.65136,7.61144-6.68431,13.414-8.32346,23.74906-13.18251,64.55576-13.18251,72.74344,0,19.05381,5.32308,33.68765,20.70183,35.169V118.96016l-6.609-9.25492a2.64383,2.64383,0,0,1,4.30323-3.0727l2.30579,3.22879V92.54459l-6.609-9.25576a2.64352,2.64352,0,1,1,4.30323-3.07165l2.30579,3.22879v-7.5631a2.64378,2.64378,0,1,1,5.28756,0V98.323l8.94908-8.94908a2.64382,2.64382,0,0,1,3.73893,3.73893l-12.688,12.68823v16.69895l8.94908-8.94908a2.64382,2.64382,0,0,1,3.73893,3.73893l-12.688,12.68823v3.95446c6.439-.80561,11.65461-4.58791,15.248-10.71026a2.65613,2.65613,0,0,1,.38451-.67491c3.31128-5.99312,5.13908-14.09154,5.13908-23.74471,0-8.04555-2.1569-25.35341-5.68053-42.65809a2.68658,2.68658,0,0,1-.09729-.47208ZM76.75119,72.104V24.85606a19.56882,19.56882,0,0,0-39.13764,0V55.8718c3.24445.59072,6.74861,2.858,10.15253,6.48614a63.25329,63.25329,0,0,1,7.07433,9.4055V56.24171l-9.04595-9.04616a2.64386,2.64386,0,0,1,3.73893-3.739l5.307,5.30712V33.70711l-6.601-6.60056a2.64372,2.64372,0,1,1,3.73852-3.739l2.86247,2.86237V24.6012a2.64357,2.64357,0,0,1,5.28713,0V37.92161l6.28754-6.2868A2.64371,2.64371,0,1,1,70.15444,35.373L60.12754,45.39969V60.24313l6.28754-6.28691a2.64375,2.64375,0,1,1,3.73936,3.7383L60.12754,67.721V81.18015q.11992.23667.23857.47461.422-.6069.8477-1.1842a28.62076,28.62076,0,0,1,7.013-7.07348,10.28892,10.28892,0,0,1,5.53925-1.82188,9.11335,9.11335,0,0,1,2.98556.52855Z"/></g></g></svg>