<svg xmlns="http://www.w3.org/2000/svg" viewBox="0 0 138.56142 140.0256"><defs><style>.cls-1{fill-rule:evenodd;}</style></defs><g id="Capa_2" data-name="Capa 2"><g id="Capa_1-2" data-name="Capa 1"><path class="cls-1" d="M61.72856,16.56848A61.72856,61.72856,0,1,0,123.45644,78.297,61.75744,61.75744,0,0,0,61.72856,16.56848Zm0,4.20621A57.52218,57.52218,0,1,1,4.20656,78.297a57.5492,57.5492,0,0,1,57.522-57.52235Z"/><path class="cls-1" d="M61.72856,30.426A47.871,47.871,0,1,0,109.5989,78.297,47.89338,47.89338,0,0,0,61.72856,30.426Zm0,4.20622A43.66463,43.66463,0,1,1,18.0641,78.297a43.68534,43.68534,0,0,1,43.66446-43.6648Z"/><path class="cls-1" d="M59.62545,32.9291V44.18648a2.10328,2.10328,0,1,0,4.20656,0V32.9291a2.10328,2.10328,0,0,0-4.20656,0Z"/><path class="cls-1" d="M59.62545,112.68177v11.257a2.10328,2.10328,0,1,0,4.20656,0v-11.257a2.10328,2.10328,0,1,0-4.20656,0Z"/><path class="cls-1" d="M15.90972,79.73216H27.16709a2.10311,2.10311,0,0,0,0-4.20622H15.90972a2.10311,2.10311,0,1,0,0,4.20622Z"/><path class="cls-1" d="M96.17483,79.73216H107.4322a2.10311,2.10311,0,0,0,0-4.20622H96.17483a2.10311,2.10311,0,0,0,0,4.20622Z"/><path class="cls-1" d="M63.6269,50.4876a2.10393,2.10393,0,0,0-3.797,0L47.309,76.72313a2.10271,2.10271,0,0,0,1.898,3.009H74.24978a2.10271,2.10271,0,0,0,1.89834-3.009L63.6269,50.4876Zm-1.89834,5.789s6.28574,13.17075,9.18709,19.24932H52.54079l9.18777-19.24932Z"/><path class="cls-1" d="M59.82988,104.76982a2.10394,2.10394,0,0,0,3.797,0L76.14812,78.535a2.10287,2.10287,0,0,0-1.89834-3.00937H49.207A2.10287,2.10287,0,0,0,47.309,78.535l12.52088,26.23485Zm1.89868-5.78834L52.54079,79.73216H70.91565L61.7289,98.98148Z"/><path class="cls-1" d="M99.21839,32.13668a18.36838,18.36838,0,0,1,5.58356-4.30741,5.81974,5.81974,0,0,1,6.48025.55176c1.66827,1.35512,1.81185,3.407,1.45495,5.41024-.63585,3.56591-2.89656,7.152-3.96486,8.02066a2.10328,2.10328,0,1,0,2.65349,3.26406c1.41769-1.15309,4.60893-5.815,5.45263-10.546.62868-3.528-.00683-7.02723-2.94339-9.41305-3.621-2.9434-7.49694-2.65418-10.87654-1.11582a22.92065,22.92065,0,0,0-6.95681,5.31041,2.10329,2.10329,0,0,0,3.11672,2.82512Z"/><path class="cls-1" d="M101.74506,27.80944a16.95564,16.95564,0,1,1,11.54932,9.8561,2.10309,2.10309,0,1,0-1.00985,4.08315A21.17847,21.17847,0,1,0,97.87318,29.45378a2.1032,2.1032,0,0,0,3.87154-1.64468Z"/></g></g></svg>