<svg xmlns="http://www.w3.org/2000/svg" viewBox="0 0 96.02832 135.8291"><g id="Capa_2" data-name="Capa 2"><g id="Capa_1-2" data-name="Capa 1"><path d="M78.91113,135.8291h-62.041a6.44586,6.44586,0,0,1-6.427-6.45019L7.05762,36.25H4.31323A4.3182,4.3182,0,0,1,0,31.93652V17.42969a4.31768,4.31768,0,0,1,4.31323-4.3125H8.30347L14.042,1.40039A2.5,2.5,0,0,1,16.28711,0H80.04932a2.50035,2.50035,0,0,1,2.26147,1.43408l5.50684,11.68311h3.89746a4.31768,4.31768,0,0,1,4.31323,4.3125V31.93652A4.3182,4.3182,0,0,1,91.71509,36.25h-1.396L85.3374,129.45361A6.44558,6.44558,0,0,1,78.91113,135.8291ZM14.46,102.27832l.98145,27.00977a1.466,1.466,0,0,0,1.42871,1.541h62.041a1.44021,1.44021,0,0,0,1.42676-1.45019q0-.06666.00366-.1333L81.783,102.27832Zm-.14233-5h67.71l2.31665-45.417H12.926Zm-1.87134-50.417H84.74487l.708-13.24463A2.49981,2.49981,0,0,1,87.94922,31.25h3.0791V18.11719h-3.6416a2.49961,2.49961,0,0,1-1.04639.22949H9.75049a2.49879,2.49879,0,0,1-1.04639-.22949H5V31.25H9.46826a2.5,2.5,0,0,1,2.49829,2.40918Zm1.4248-33.74414H82.29L78.46387,5H17.84644Zm23.3042,77.44922a12.45329,12.45329,0,0,1-2.0105-.1626c-.03662.00146-.07324,0-.11035-.00049a2.48852,2.48852,0,0,1-.9602-.22021c-6.62793-1.66895-11.3833-8.50586-11.3833-16.4878,0-9.30176,6.48877-16.86914,14.46435-16.86914a12.37275,12.37275,0,0,1,1.34156.07276,12.94116,12.94116,0,0,1,5.66723,2.04443,15.44134,15.44134,0,0,1,4.56543,4.62646,19.58892,19.58892,0,0,1,4.2937-2.42382c8.74878-3.57373,18.40113-.26807,21.51929,7.36474,3.11743,7.63379-1.46216,16.751-10.209,20.32422-6.30176,2.57324-13.31153,1.57422-17.81763-2.2666a13.50888,13.50888,0,0,1-7.19434,3.80908A12.47429,12.47429,0,0,1,37.17529,90.56641ZM49.499,82.52c3.06812,2.87451,8.2461,3.6123,12.96387,1.686,5.364-2.19091,8.59619-7.12793,8.019-11.71191-5.1643-.374-6.88794,1.54932-9.02734,3.9292-2.27222,2.52686-5.05762,5.63721-11.55273,5.28418Q49.70959,82.12134,49.499,82.52ZM40.75928,62.728a15.5409,15.5409,0,0,1-1.50049,2.65478A7.17329,7.17329,0,0,0,37.624,69.71094a6.69889,6.69889,0,0,0,1.64429,4.22314,9.32846,9.32846,0,0,1,2.13355,5.5669,9.805,9.805,0,0,1-2.16285,5.7749A9.42168,9.42168,0,0,0,44.36182,81.394c.03784-.05517.07763-.10888.11938-.16064a13.75971,13.75971,0,0,0,2.158-7.53711A14.34631,14.34631,0,0,0,45.728,68.6167c-.01685-.0376-.03272-.0752-.04761-.11328A10.86982,10.86982,0,0,0,40.75928,62.728ZM27.71655,74.09912c.13037,4.67139,2.50928,8.81787,5.87549,10.57373a19.59166,19.59166,0,0,1,1.20239-1.7832c.86255-1.18213,1.60743-2.20264,1.60743-3.38867,0-.89063-.42432-1.542-1.23755-2.71045A11.54463,11.54463,0,0,1,32.624,69.71094a11.89146,11.89146,0,0,1,2.46387-7.08545c.1438-.21729.27612-.419.39673-.60889-4.4148,1.00244-7.77344,5.8584-7.77344,11.67969C27.71118,73.83154,27.71289,73.96533,27.71655,74.09912ZM50.874,68.27783a19.35436,19.35436,0,0,1,.76514,5.41846,19.631,19.631,0,0,1-.23486,3.03711c3.16455-.12891,4.49658-1.61133,6.332-3.65332,2.12378-2.36182,4.66479-5.1875,10.20483-5.58057-3.02026-2.87012-8.176-3.69726-13.00683-1.7251A14.42593,14.42593,0,0,0,50.874,68.27783Z"/></g></g></svg>