<svg xmlns="http://www.w3.org/2000/svg" viewBox="0 0 141.1499 108.69141"><g id="Capa_2" data-name="Capa 2"><g id="Capa_1-2" data-name="Capa 1"><path d="M138.6499,108.69141H2.5a2.49981,2.49981,0,0,1-2.5-2.5V21.20605a2.49982,2.49982,0,0,1,2.5-2.5h8.70166V13.24414a9.87915,9.87915,0,0,1,19.7583,0v5.46191h.98145L55.42578.52344A2.498,2.498,0,0,1,56.95605,0H90.48486a2.49978,2.49978,0,0,1,2.04688,1.06494l12.05127,17.188H138.6499a2.49981,2.49981,0,0,1,2.5,2.5v85.43848A2.49981,2.49981,0,0,1,138.6499,108.69141ZM5,103.69141H136.1499V76.42969H104.04a35.38263,35.38263,0,0,1-65.93018,0H5ZM71.07471,33.1958a30.38111,30.38111,0,1,0,30.38134,30.38086A30.41541,30.41541,0,0,0,71.07471,33.1958Zm34.50293,38.23389H136.1499v-15.707H105.57764a35.54678,35.54678,0,0,1,0,15.707ZM5,71.42969H36.57227a35.54639,35.54639,0,0,1,0-15.707H5Zm99.03955-20.707H136.1499V23.25293H103.28271a2.49975,2.49975,0,0,1-2.04687-1.06494L89.18457,5h-31.374L34.32617,23.18262a2.498,2.498,0,0,1-1.53027.52343H5V50.72266H38.10986a35.3831,35.3831,0,0,1,65.92969,0ZM16.20166,18.70605H25.96V13.24414a4.87915,4.87915,0,0,0-9.7583,0Zm54.873,68.34131A23.47144,23.47144,0,1,1,94.54688,63.57617,23.498,23.498,0,0,1,71.07471,87.04736Zm0-41.94287A18.47144,18.47144,0,1,0,89.54688,63.57617,18.4922,18.4922,0,0,0,71.07471,45.10449Zm57.28271-1.916H110.82959a4.09628,4.09628,0,0,1-4.0918-4.0918V31.6665a4.09721,4.09721,0,0,1,4.0918-4.09326h17.52783a4.09815,4.09815,0,0,1,4.09326,4.09326v7.43018A4.09721,4.09721,0,0,1,128.35742,43.18848Zm-16.61963-5h15.71289V32.57324H111.73779Z"/></g></g></svg>