<svg xmlns="http://www.w3.org/2000/svg" viewBox="0 0 148.56656 117.80905"><defs><style>.cls-1{fill-rule:evenodd;}</style></defs><g id="Capa_2" data-name="Capa 2"><g id="Capa_1-2" data-name="Capa 1"><path class="cls-1" d="M56.836,2.341l-.026-.00068H56.754l-.02667.00137-.028.00068-.02735.00205-.02735.00137-.02734.00273-.02735.0024-.02667.00273-.02735.00342-.02666.00342-.02667.00444-.02666.0041-.026.00411-.02735.00512-.026.00582-.026.00547-.02667.00547-.026.00615-.026.00615-.026.00718-.0253.00718-.026.00752-.0253.00786-.0253.00787-.02461.0082-.026.00889-.02461.00855-.02462.00991-.02461.00889-.02462.00991-.02461.0106-.02461.00957-.02325.01128-.02461.0106-.02393.01094-.02257.01231-.02324.01162-.02393.01231-.02256.01162-.02257.013-.02256.013-.02325.013-.02119.01368-.02256.01333-.02188.014-.02188.01368-.0212.015-.02119.0147-.0212.0147L55.541,2.754l-.02051.015-.02188.01572-.01983.01573-.02051.01641-.01983.01572-.02051.0171-.01915.01641-.01982.01709-.01915.01743L55.34,2.9181l-.01915.01777L55.3031,2.954l-.01777.01812-.01846.01846-.01778.01846-.01709.01915-.01778.0188-.01778.01948-.01709.01915-.01709.02017-.01573.01948-.01709.02051-.01572.02017-.01573.02017-.01573.02052-.01709.02461-.01572.02085-.01436.02154-.015.02119-.015.02154-.01367.02154-.01367.02188-.01436.02256-.013.02256-.01368.02222-.0123.02325-.01231.02222-.01231.02325-.0123.02393L54.8751,3.543l-.01094.02359-.01094.02393-.01094.02359-.01094.02393-.0082.01949-.00958.02427-.01025.02461-.01026.02462-.00889.02427-.00888.02529-.00889.0253-.00821.02427-.00888.0253-.00753.026-.00683.0253-.00684.026-.00684.026-.00615.026-.00615.026-.00616.026-.00547.02632-.00547.026-.00478.02666-.00479.02633-.0041.02666-.0041.02735-.00342.02667L54.66725,4.25l-.00274.02632-.00341.02735-.00206.027-.00136.02735-.00137.028-.00137.02735-.00137.028V4.4968a1.59979,1.59979,0,0,1-.37057.81909,8.84739,8.84739,0,0,1-1.41392,1.55135,25.66647,25.66647,0,0,1-4.19665,2.95741,2.15715,2.15715,0,0,0,2.0785,3.7806,32.93975,32.93975,0,0,0,3.90264-2.61487v5.99174a1.601,1.601,0,0,1-.37057.81909,8.83466,8.83466,0,0,1-1.41392,1.55135,25.67715,25.67715,0,0,1-4.19665,2.95707,2.1573,2.1573,0,0,0,2.0785,3.781,32.91866,32.91866,0,0,0,3.90264-2.61521v5.602a1.59859,1.59859,0,0,1-.37057.81909,8.82106,8.82106,0,0,1-1.41392,1.551,25.68022,25.68022,0,0,1-4.19665,2.95775,2.1573,2.1573,0,0,0,2.0785,3.781A33.019,33.019,0,0,0,54.65357,35.571v6.42214H47.05a2.08079,2.08079,0,0,0-.24.01025l-.01231.00069a2.152,2.152,0,0,0-1.016.375l-.00957.00718a2.14506,2.14506,0,0,0-.67414.77123l-.00957.01983-.01231.02462-.01436.02974-.00889.01812-.00889.01982c-.08888.199-3.00492,6.67409-7.77863,15.59965a25.58421,25.58421,0,0,1-4.16177-2.9386,8.81641,8.81641,0,0,1-1.41461-1.55135,1.60276,1.60276,0,0,1-.36989-.8191,2.08934,2.08934,0,0,0-.04717-.44646V47.23927a33.05976,33.05976,0,0,0,3.94982,2.65144,2.15713,2.15713,0,1,0,2.07781-3.78094,25.6481,25.6481,0,0,1-4.19528-2.95707,8.82136,8.82136,0,0,1-1.41529-1.55135,1.607,1.607,0,0,1-.3692-.81909,2.13393,2.13393,0,0,0-.04718-.44647V35.14366a32.949,32.949,0,0,0,3.94982,2.65144,2.15682,2.15682,0,1,0,2.07713-3.7806,25.63745,25.63745,0,0,1-4.19528-2.95741,8.82351,8.82351,0,0,1-1.41529-1.55135,1.60259,1.60259,0,0,1-.3692-.81841,2.18273,2.18273,0,0,0-.0465-.44646V22.65833a32.92555,32.92555,0,0,0,3.94914,2.65145,2.15683,2.15683,0,1,0,2.07781-3.78027,25.68387,25.68387,0,0,1-4.196-2.95741,8.83212,8.83212,0,0,1-1.4146-1.55169,1.5971,1.5971,0,0,1-.36989-.81841,2.1814,2.1814,0,0,0-.04718-.45091,2.15687,2.15687,0,0,0-4.31288.06051v.2246c-.00478.05436-.00615.10974-.00615.1658a1.59411,1.59411,0,0,1-.37058.81841A8.85338,8.85338,0,0,1,25.169,18.5721a25.70591,25.70591,0,0,1-4.19664,2.95741,2.15683,2.15683,0,1,0,2.07781,3.78027,32.983,32.983,0,0,0,3.91017-2.61966v5.83107c-.00479.0547-.00684.11008-.00684.16614a1.59538,1.59538,0,0,1-.37058.81841A8.81323,8.81323,0,0,1,25.169,31.05709a25.64961,25.64961,0,0,1-4.19664,2.95741,2.15714,2.15714,0,1,0,2.07849,3.7806,32.92393,32.92393,0,0,0,3.90949-2.62v5.441c-.00411.05539-.00684.11042-.00684.16581a1.59613,1.59613,0,0,1-.37058.81909A8.80037,8.80037,0,0,1,25.169,43.1527a25.65287,25.65287,0,0,1-4.19664,2.95707,2.15714,2.15714,0,0,0,2.07849,3.7806,33.09685,33.09685,0,0,0,3.90949-2.61965v6.123c-.00411.05538-.00616.11042-.00616.1658a1.59376,1.59376,0,0,1-.37057.81909,8.81524,8.81524,0,0,1-1.41392,1.55169,25.67435,25.67435,0,0,1-4.19665,2.95741A2.15683,2.15683,0,0,0,23.05088,62.668a33.04593,33.04593,0,0,0,3.90949-2.61966v16.577c-6.36129,10.04242-13.89857,20.24208-21.75583,27.231l-.94694-4.025A2.15743,2.15743,0,0,0,.05753,100.82l3.60728,15.32582a2.157,2.157,0,0,0,4.19938-.988L6.31763,108.585c7.30345-6.04747,14.40041-14.95012,20.64274-24.19259v3.80009L16.51866,114.12988a2.15834,2.15834,0,0,0,2.00124,2.96322H130.23968a2.15747,2.15747,0,0,0,1.99645-2.97348l-6.10695-14.93508c-.00683-.01572-.0123-.03145-.01982-.04717l-8.60866-21.053c7.14,11.364,15.78835,23.08053,24.74913,30.50055l-1.54657,6.57255a2.157,2.157,0,0,0,4.19938.988L148.50856,100.82a2.15709,2.15709,0,1,0-4.19938-.98865l-.94627,4.025C122.28534,85.10753,103.518,43.26414,103.518,43.26414a2.15818,2.15818,0,0,0-2.099-1.26829c-.04171-.002-.0841-.00342-.12649-.00342h-42.322V35.52825a32.95432,32.95432,0,0,0,3.95461,2.65726,2.1573,2.1573,0,0,0,2.0785-3.781,25.71185,25.71185,0,0,1-4.196-2.9581,8.80246,8.80246,0,0,1-1.41461-1.551,1.60449,1.60449,0,0,1-.36921-.81909,2.13565,2.13565,0,0,0-.05333-.47519V23.43366a33.05377,33.05377,0,0,0,3.9553,2.65624,2.157,2.157,0,1,0,2.07781-3.78061,25.6863,25.6863,0,0,1-4.19528-2.95741,8.872,8.872,0,0,1-1.41529-1.55135,1.60934,1.60934,0,0,1-.36921-.81909,2.1407,2.1407,0,0,0-.05264-.47552V10.94765a32.96322,32.96322,0,0,0,3.95529,2.65692A2.157,2.157,0,0,0,65.00434,9.824a25.70836,25.70836,0,0,1-4.196-2.95741A8.84006,8.84006,0,0,1,59.39377,5.3152a1.60394,1.60394,0,0,1-.36989-.81909A2.15839,2.15839,0,0,0,56.86676,2.339H56.8401Zm66.89882,102.396-4.93027,8.04357h8.21963l-3.28936-8.04357Zm-20.38155,8.04322h8.55191L103.35326,88.55v24.23019ZM99.039,57.85771c-6.97321,16.748-20.00688,45.53955-24.27258,54.92251H99.039V57.85771ZM86.80871,75.34954c-5.91072,8.82164-12.43,17.82515-17.82446,24.32523a62.68426,62.68426,0,0,1-7.979,8.35021l1.18351,4.75524h7.83812c2.127-4.66977,9.79422-21.54353,16.78179-37.43068Zm-38.34-29.0415-17.339,43.072c-.00889.02428-.01846.04786-.028.07179l-9.3922,23.32837H57.74328l-1.26555-5.0865c-.00684-.02734-.01436-.054-.02051-.081L54.525,99.84706a2.15668,2.15668,0,1,1,4.1857-1.04164l1.1295,4.53611a76.54209,76.54209,0,0,0,5.82389-6.42214c8.342-10.05232,19.40794-26.17809,26.61157-38.15473a122.53781,122.53781,0,0,0,5.97841-10.88q.14767-.31793.27964-.61124c.12307-.35143.23588-.67483.3357-.96541Zm72.94423,53.96019-5.93329,9.68141-8.904-25.22978,14.83731,15.54837Zm-18.05966-25.1744L117.807,90.2395,103.35326,54.89619V75.09383ZM31.27119,60.01791V69.5571c1.39546-2.37044,2.71025-4.68413,3.93273-6.89663a33.18384,33.18384,0,0,1-3.93273-2.64256ZM103.75665,0h-.00684a17.17835,17.17835,0,1,0,14.25684,26.76028,2.15775,2.15775,0,0,0-2.31028-3.29824,11.49835,11.49835,0,0,1-10.47178-19.703l-.05607.02153A2.15654,2.15654,0,0,0,103.76007,0ZM98.7204,5.33572a15.81533,15.81533,0,0,0,12.03339,22.63A12.86411,12.86411,0,1,1,98.7204,5.33537ZM103.782,4.31288h-.00206v.00136l.00206-.00136Z"/></g></g></svg>