<svg xmlns="http://www.w3.org/2000/svg" viewBox="0 0 113.94596 140.02492"><defs><style>.cls-1{fill-rule:evenodd;}</style></defs><g id="Capa_2" data-name="Capa 2"><g id="Capa_1-2" data-name="Capa 1"><path class="cls-1" d="M87.17816,37.71374V35.54055h.27861c.79038.01607,16.01262.30665,22.20024-1.793a7.30641,7.30641,0,0,0,2.85383-1.61562,3.30391,3.30391,0,0,0,1.00643-2.36224,3.51687,3.51687,0,0,0-.99891-2.3889,9.42143,9.42143,0,0,0-2.88254-1.95816c-5.85158-2.79093-19.12831-5.02052-23.06036-5.63928A33.56,33.56,0,0,0,55.98535,0H53.78A31.657,31.657,0,0,0,22.138,31.64235v1.89184a2.00594,2.00594,0,0,0,2.00568,2.00636h3.05894v2.13764c-1.57186.05094-3.71223.11281-4.86942.11281-2.45146,0-4.14776,1.90278-4.43526,4.98976a14.92344,14.92344,0,0,0,2.164,8.60319,9.90883,9.90883,0,0,0,7.31815,5.04445q.13024,1.19889.3545,2.36907H7.33422A6.58988,6.58988,0,0,0,.7473,65.38405v9.1611a6.5906,6.5906,0,0,0,6.58692,6.58691H9.80174A65.31286,65.31286,0,0,0,9.13581,97.504C3.77274,102.292,0,108.67212,0,117.07943v20.93912a2.00608,2.00608,0,0,0,2.00636,2.00637H111.93925a2.00638,2.00638,0,0,0,2.00671-2.00637V117.07943c0-8.94232-4.15426-15.56957-9.95626-20.42839a60.426,60.426,0,0,0,.5268-15.519h.2246a6.58994,6.58994,0,0,0,6.58691-6.58691v-9.1611a6.58922,6.58922,0,0,0-6.58691-6.58658H86.64589q.23638-1.24248.37057-2.51915a10.17014,10.17014,0,0,0,6.388-4.89437,14.92964,14.92964,0,0,0,2.16465-8.60319c-.28785-3.087-1.98483-4.98976-4.43595-4.98976-.89293,0-2.48189-.03658-3.95495-.07726ZM98.61535,97.62089V134.56a5.45607,5.45607,0,0,1-.19623,1.45221h11.51446V117.07943c0-8.02545-3.9823-13.81994-9.35084-18.02616-.02188-.01607-.04376-.03282-.06461-.05059q-.92661-.721-1.90312-1.38179Zm-53.658-17.08947v5.51177a2.00554,2.00554,0,0,1-1.78758,1.99406A75.18685,75.18685,0,0,0,32.80467,90.141v44.4186a5.45142,5.45142,0,0,1-.19555,1.45187H80.96353a5.43789,5.43789,0,0,1-.19623-1.45187V90.02686a74.99107,74.99107,0,0,0-10.52238-1.98619,2.00682,2.00682,0,0,1-1.81663-1.99782V80.95532a30.0458,30.0458,0,0,1-23.47092-.42458ZM14.957,98.01334c-6.13977,4.291-10.94458,10.37914-10.94458,19.06575v18.93276H15.15182A5.46732,5.46732,0,0,1,14.957,134.56V98.01334Zm4.012-8.32424v44.87122a1.453,1.453,0,0,0,1.4529,1.45187h6.91783a1.4524,1.4524,0,0,0,1.45221-1.45187V89.6891a1.45263,1.45263,0,0,0-1.45221-1.45187H20.4219A1.45321,1.45321,0,0,0,18.969,89.6891ZM94.60228,134.56V89.68876a1.4524,1.4524,0,0,0-1.45221-1.45187H86.23224a1.45237,1.45237,0,0,0-1.36094.94558l-.0188.05333a1.43818,1.43818,0,0,0-.07213.453V134.56a1.45255,1.45255,0,0,0,1.45187,1.45187h6.91817A1.45233,1.45233,0,0,0,94.60228,134.56ZM40.945,81.13241H13.874a63.789,63.789,0,0,0-.93669,13.40082q.99121-.68251,2.0197-1.30863V89.6891a5.468,5.468,0,0,1,5.46494-5.46528h6.91817a5.457,5.457,0,0,1,4.28826,2.07953A85.41692,85.41692,0,0,1,40.945,84.296V81.13241Zm59.54067,0h-28.045V84.27a85.63593,85.63593,0,0,1,9.58057,1.9373,5.45475,5.45475,0,0,1,4.211-1.98311h6.91817a5.468,5.468,0,0,1,5.46528,5.46493v3.1827q.87994.523,1.736,1.08437a57.70534,57.70534,0,0,0,.134-12.82376ZM31.215,39.609V53.14793a25.97555,25.97555,0,1,0,51.95109,0v-17.607H31.21537V39.609ZM28.79536,62.80952H7.3349A2.57647,2.57647,0,0,0,4.76,65.38405v9.1611A2.57647,2.57647,0,0,0,7.3349,77.11968h4.85575q.03692-.001.07384,0H39.17894A30.08981,30.08981,0,0,1,28.79536,62.80986Zm56.7894,0a30.0802,30.0802,0,0,1-10.3829,14.31016h27.0218c.02051-.00068.04-.00068.06017,0h2.45761a2.576,2.576,0,0,0,2.57453-2.57487V65.3837a2.57566,2.57566,0,0,0-2.57453-2.57418ZM47.66522,66.32381c5.5863,5.58664,13.24972,5.58664,18.836,0a2.00648,2.00648,0,0,0-2.83776-2.83742,8.86022,8.86022,0,0,1-13.16152,0,2.00612,2.00612,0,0,0-2.83674,2.83742ZM66.17887,43.30448v7.1503a2.006,2.006,0,1,0,4.012,0v-7.1503a2.006,2.006,0,1,0-4.012,0Zm-22.03649,0v7.1503a2.00619,2.00619,0,1,0,4.01238,0v-7.1503a2.00619,2.00619,0,1,0-4.01238,0ZM27.20264,41.693c-1.59476.05059-3.71291.11076-4.86942.11076-.06529,0-.08615.06769-.11862.122a2.04557,2.04557,0,0,0-.201.51381,6.43724,6.43724,0,0,0-.09026,2.29729,11.14772,11.14772,0,0,0,2.10414,5.346,5.82637,5.82637,0,0,0,3.17483,2.248V41.69262Zm59.97552.03487V52.00339a6.35474,6.35474,0,0,0,2.26139-1.92021,11.15644,11.15644,0,0,0,2.10379-5.34631,6.41161,6.41161,0,0,0-.09093-2.297,2.00788,2.00788,0,0,0-.20033-.51381c-.03282-.05469-.054-.1217-.119-.1217-.895,0-2.47436-.03658-3.95495-.07657Zm.99378-17.6255a33.42691,33.42691,0,0,1,1.28983,7.45454c3.57412.02667,11.321-.04239,16.48951-1.00984a15.89932,15.89932,0,0,0,2.7752-.73021c.09948-.039.20648-.08888.31074-.14187-.06016-.04479-.12067-.08615-.17844-.1217a18.92791,18.92791,0,0,0-3.67942-1.5852A124.70527,124.70527,0,0,0,88.17194,24.102ZM66.77507,31.52749H85.43913A29.53777,29.53777,0,0,0,55.98569,4.01273H53.78037A27.64135,27.64135,0,0,0,26.15143,31.52749H45.97952V22.98514a6.205,6.205,0,0,1,6.20232-6.20129h8.39193a6.20412,6.20412,0,0,1,6.2013,6.20129v8.54235Zm-4.01273,0V22.98514a2.19028,2.19028,0,0,0-2.18926-2.18925H52.18184a2.19094,2.19094,0,0,0-2.19028,2.18925v8.54235Z"/></g></g></svg>