<svg xmlns="http://www.w3.org/2000/svg" viewBox="0 0 149.19628 109.24439"><defs><style>.cls-1{fill-rule:evenodd;}</style></defs><g id="Capa_2" data-name="Capa 2"><g id="Capa_1-2" data-name="Capa 1"><path class="cls-1" d="M74.12979,0H74.097a2.28785,2.28785,0,0,0-1.86039.99481L12.3438,88.37808a2.25685,2.25685,0,0,0-.24477.46288L4.57679,99.658V92.2944A2.2884,2.2884,0,1,0,0,92.2944V106.956a2.29006,2.29006,0,0,0,1.55477,2.16806l.01778.00547.026.00923.03008.00888.02461.00718a2.29691,2.29691,0,0,0,.63586.08957,2.26912,2.26912,0,0,0,1.05976-.2605l.00615-.00273a2.302,2.302,0,0,0,.50048-.3569,2.24487,2.24487,0,0,0,.31109-.36237l7.77521-11.18011v9.29442a2.28884,2.28884,0,0,0,2.28908,2.28772H134.88953a2.28782,2.28782,0,0,0,2.2884-2.28772V96.97067l7.85178,11.29156a2.29,2.29,0,0,0,2.514.89259l.01847-.00478.026-.00821.03008-.00923.02461-.00854a2.28888,2.28888,0,0,0,1.55341-2.16806V92.2944a2.28806,2.28806,0,1,0-4.57611,0V99.658L76.00181.98216A2.28585,2.28585,0,0,0,74.15167.00034h-.02188ZM71.83524,9.67423v94.41324h-55.316V90.381l55.316-80.70679Zm4.57679,48.833v45.58023h32.48674A93.14174,93.14174,0,0,1,76.412,58.50724Zm51.812,25.5877,4.37714,6.295v13.6979H119.86488L128.224,84.09494ZM78.42011,48.17972a88.09464,88.09464,0,0,0,36.92542,54.85038l9.3163-22.27989c-5.7227-2.02346-20.653-7.913-33.12191-18.13316a61.63652,61.63652,0,0,1-13.1205-14.43733ZM76.412,9.58808V26.21741c0,14.01206,8.24766,24.84382,18.02821,32.86005,9.4763,7.768,20.44036,12.91743,27.28572,15.67315L76.41135,9.58808Z"/></g></g></svg>