<svg xmlns="http://www.w3.org/2000/svg" viewBox="0 0 137.33857 127.60885"><defs><style>.cls-1{fill-rule:evenodd;}</style></defs><g id="Capa_2" data-name="Capa 2"><g id="Capa_1-2" data-name="Capa 1"><path class="cls-1" d="M0,125.44354a2.16527,2.16527,0,0,0,2.16534,2.16524H135.173a2.16527,2.16527,0,0,0,2.16534-2.16524V107.9257a2.16462,2.16462,0,0,0-.5152-1.40156L70.31952,28.22457a2.1656,2.1656,0,0,0-3.30067,0L.5152,106.52414A2.16462,2.16462,0,0,0,0,107.9257v17.51784Zm4.33008-2.16494V108.72118L68.669,32.97065c9.67191,11.38755,58.76756,69.19081,64.3391,75.75053V123.2786Z"/><path class="cls-1" d="M15.38429,80.20079a2.16513,2.16513,0,0,0-2.16493-2.16534H2.16534A2.16548,2.16548,0,0,0,0,80.20079V107.9257a2.16528,2.16528,0,0,0,3.81548,1.40157L14.86929,96.31255a2.16393,2.16393,0,0,0,.515-1.40146V80.20079ZM11.054,82.36573V94.11561l-6.72373,7.91644V82.36573Z"/><path class="cls-1" d="M137.33857,80.20079a2.16548,2.16548,0,0,0-2.16534-2.16534h-11.054a2.16514,2.16514,0,0,0-2.16494,2.16534v14.7103a2.164,2.164,0,0,0,.515,1.40146l11.05382,13.01472a2.16527,2.16527,0,0,0,3.81547-1.40157V80.20079Zm-4.33028,2.16494v19.66632l-6.72373-7.91644V82.36573Z"/><path class="cls-1" d="M70.83433,29.626V2.16494a2.16514,2.16514,0,0,0-4.33028,0V29.626a2.16514,2.16514,0,1,0,4.33028,0Z"/><path class="cls-1" d="M68.66879,5.75732a2.16531,2.16531,0,0,0-2.16494,2.16525V23.45432a2.16505,2.16505,0,0,0,2.16494,2.16524H96.3941a2.16522,2.16522,0,0,0,1.0581-4.05412l-10.49066-5.8768L97.4522,9.81145a2.16529,2.16529,0,0,0-1.0581-4.05423H68.66879Zm2.16554,4.33029h17.265l-6.62583,3.71185a2.1654,2.1654,0,0,0,0,3.77806l6.62583,3.71186H70.83433V10.08761Z"/><path class="cls-1" d="M70.11449,78.58857a2.1652,2.1652,0,0,0-3.41283,2.51623L87.4956,126.34786a2.16529,2.16529,0,0,0,3.67644.42532L103.3644,111.099a2.16545,2.16545,0,0,0-.26362-2.942L70.11449,78.58857Zm4.87959,10.18932,23.71262,21.256-8.76489,11.26748L74.99408,88.77789Z"/><path class="cls-1" d="M70.63671,81.1048a2.16519,2.16519,0,0,0-3.41282-2.51623L34.23759,108.157a2.16526,2.16526,0,0,0-.26362,2.942l12.19236,15.6742a2.16529,2.16529,0,0,0,3.67644-.42532L70.63671,81.1048ZM62.3445,88.77789,47.39616,121.30135l-8.76449-11.26748,23.71283-21.256Z"/></g></g></svg>