<svg xmlns="http://www.w3.org/2000/svg" viewBox="0 0 142.65326 140.27644"><defs><style>.cls-1{fill-rule:evenodd;}</style></defs><g id="Capa_2" data-name="Capa 2"><g id="Capa_1-2" data-name="Capa 1"><path class="cls-1" d="M34.88688,102.80786A18.73429,18.73429,0,1,0,53.6212,121.54213a18.74318,18.74318,0,0,0-18.73432-18.73427Zm0,4.74717a13.98732,13.98732,0,1,1-13.98749,13.9871A13.9934,13.9934,0,0,1,34.88688,107.555Z"/><path class="cls-1" d="M107.76838,102.80786a18.73429,18.73429,0,1,0,18.73472,18.73427,18.7432,18.7432,0,0,0-18.73472-18.73427Zm0,4.74717a13.98732,13.98732,0,1,1-13.98709,13.9871,13.99389,13.99389,0,0,1,13.98709-13.9871Z"/><path class="cls-1" d="M107.76838,125.84572a4.30357,4.30357,0,1,1,4.30359-4.30359,2.37357,2.37357,0,1,0,4.74713,0,9.05052,9.05052,0,1,0-9.05072,9.05076,2.37359,2.37359,0,0,0,0-4.74717Z"/><path class="cls-1" d="M34.88688,117.23854a4.30357,4.30357,0,1,1-4.30359,4.30359,2.37351,2.37351,0,1,0-4.747,0,9.05051,9.05051,0,1,0,9.05061-9.05037,2.37339,2.37339,0,1,0,0,4.74678Z"/><path class="cls-1" d="M4.74672,125.24529V95.59761L29.54263,89.7958a2.37216,2.37216,0,0,0,1.67014-1.44862L44.20239,55.05249H133.6317v70.1928H122.96205a2.37361,2.37361,0,1,0,0,4.74722H134.8517a3.52723,3.52723,0,0,0,3.52713-3.52673V54.98566a4.68082,4.68082,0,0,0-4.6802-4.6803H43.36842a3.52692,3.52692,0,0,0-3.28577,2.24513L27.24451,85.45825c-4.45076,1.04155-19.82085,4.638-24.22463,5.6684A3.91066,3.91066,0,0,0,0,94.93486v31.53092a3.52672,3.52672,0,0,0,3.52683,3.52673H19.69332a2.37361,2.37361,0,0,0,0-4.74722Z"/><path class="cls-1" d="M50.08014,129.99251H92.57532a2.37361,2.37361,0,0,0,0-4.74722H50.08014a2.37361,2.37361,0,0,0,0,4.74722Z"/><path class="cls-1" d="M129.43982,70.42338a9.18257,9.18257,0,0,0-9.178-9.17835h-31.399a9.1827,9.1827,0,0,0-9.17806,9.17835V84.03257a9.18242,9.18242,0,0,0,9.17806,9.17795h31.399a9.18223,9.18223,0,0,0,9.178-9.17795V70.42338Zm-4.74692,0V84.03257a4.43324,4.43324,0,0,1-4.43113,4.43113H88.86265a4.43325,4.43325,0,0,1-4.43083-4.43113V70.42338a4.433,4.433,0,0,1,4.43083-4.43113h31.39912a4.433,4.433,0,0,1,4.43113,4.43113Z"/><path class="cls-1" d="M140.2798,43.62621H42.58054a2.37336,2.37336,0,1,0,0,4.74672H140.2797a2.37336,2.37336,0,1,0,0-4.74672Z"/><path class="cls-1" d="M42.58054,43.62621c-16.73175,0-21.547-8.32285-22.559-10.62578,1.01571-2.57183,5.92754-12.19422,22.559-12.19422H77.07719a2.37361,2.37361,0,0,0,0-4.74722H42.58054c-23.42974,0-27.37586,16.38119-27.37586,16.38119a2.37174,2.37174,0,0,0,.00611,1.20988S18.816,48.37293,42.58054,48.37293a2.37341,2.37341,0,0,0,0-4.74682Z"/><path class="cls-1" d="M79.45075,45.99927V18.43265a2.37361,2.37361,0,1,0-4.74722,0V45.99927a2.37361,2.37361,0,1,0,4.74722,0Z"/><path class="cls-1" d="M93.67419,33.03029c13.58494,10.00982,27.99563,9.85052,41.70941.018a2.37346,2.37346,0,1,0-2.7659-3.85785c-11.87863,8.51641-24.3609,8.68834-36.12742.018a2.37362,2.37362,0,0,0-2.81609,3.82178Z"/><path class="cls-1" d="M95.25957,26.30645h26.37248a2.37361,2.37361,0,0,0,0-4.74722H94.80852A4.29665,4.29665,0,0,0,90.51225,25.855V45.99927a2.37366,2.37366,0,0,0,4.74732,0V26.30645Z"/><path class="cls-1" d="M90.65792,9.56V4.74672h14.22754V9.56a2.37367,2.37367,0,0,0,4.74733,0V2.37316A2.37346,2.37346,0,0,0,107.25913,0H88.28476A2.37311,2.37311,0,0,0,85.9112,2.37316V9.56a2.37336,2.37336,0,0,0,4.74672,0Z"/><path class="cls-1" d="M136.37786,43.62621h3.90184v4.74672H42.58054c-11.925,0-18.65346-3.61539-22.438-7.11377a16.23512,16.23512,0,0,1-4.95321-7.69487,2.37449,2.37449,0,0,1-.0008-1.05919,20.29439,20.29439,0,0,1,7.75428-10.838c4.068-3.024,10.25437-5.60814,19.63761-5.60814,4.56989,0,25.3732.03166,32.26055.01483a10.00077,10.00077,0,0,1,2.79746-6.24134C79.4761,8.063,82.155,7.18641,85.6994,7.18641h28.746a9.10589,9.10589,0,0,1,9.56007,9.56007v4.81285h2.70518a9.35138,9.35138,0,0,1,9.66717,9.56V43.62621Zm-4.74682,0H42.58044c-17.26966,0-21.72393-8.43275-22.58736-10.61385.88286-2.4438,5.48051-12.20605,22.58736-12.20605,4.951,0,28.94311.03647,33.69184.011.57287-.0032.91311-.01182.97583-.01683a2.34068,2.34068,0,0,0,2.20254-2.36785c0-2.43638.39675-4.13778,1.47978-5.18054,1.07182-1.03164,2.70188-1.31888,4.769-1.31888h28.746a4.58421,4.58421,0,0,1,4.81284,4.81325v7.18641a2.3738,2.3738,0,0,0,2.37367,2.37356h5.07874A4.73323,4.73323,0,0,1,131.631,31.1193V43.62621Z"/><path class="cls-1" d="M130.06189,52.67893V45.99927a2.37341,2.37341,0,0,0-4.74682,0v6.67966a2.37341,2.37341,0,1,0,4.74682,0Z"/><path class="cls-1" d="M99.57007,52.67893V45.99927a2.37336,2.37336,0,0,0-4.74672,0v6.67966a2.37336,2.37336,0,1,0,4.74672,0Z"/><path class="cls-1" d="M66.51333,52.67893V45.99927a2.37336,2.37336,0,0,0-4.74672,0v6.67966a2.37336,2.37336,0,1,0,4.74672,0Z"/><path class="cls-1" d="M2.37316,117.11591H20.0036a2.37359,2.37359,0,0,0,0-4.74718H2.37316a2.37359,2.37359,0,0,0,0,4.74718Z"/><path class="cls-1" d="M49.76976,117.11591H92.88551a2.37359,2.37359,0,0,0,0-4.74718H49.76976a2.37359,2.37359,0,0,0,0,4.74718Z"/><path class="cls-1" d="M122.65186,117.11591h13.3535a2.37359,2.37359,0,0,0,0-4.74718h-13.3535a2.37359,2.37359,0,1,0,0,4.74718Z"/><path class="cls-1" d="M71.66141,66.2824v18.829H29.00172a2.37339,2.37339,0,1,0,0,4.74678h45.033a2.37331,2.37331,0,0,0,2.37356-2.37362V65.0623a3.52685,3.52685,0,0,0-3.52673-3.52672H38.13459a2.37341,2.37341,0,1,0,0,4.74682H71.66141Z"/><path class="cls-1" d="M71.66141,87.48465v27.25764a2.37341,2.37341,0,1,0,4.74682,0V87.48465a2.37341,2.37341,0,0,0-4.74682,0Z"/><path class="cls-1" d="M26.62816,87.48465v18.79048a2.37356,2.37356,0,1,0,4.74712,0V87.48465a2.37356,2.37356,0,0,0-4.74712,0Z"/><path class="cls-1" d="M56.95336,99.89548h9.46479a2.37359,2.37359,0,1,0,0-4.74717H56.95336a2.37359,2.37359,0,0,0,0,4.74717Z"/><path class="cls-1" d="M108.11153,90.83731V63.61859a2.37361,2.37361,0,0,0-4.74722,0V90.83731a2.37361,2.37361,0,0,0,4.74722,0Z"/><path class="cls-1" d="M127.57291,105.30415v-2.594h8.43225a2.37339,2.37339,0,1,0,0-4.74678H125.19925a2.37351,2.37351,0,0,0-2.37356,2.37321v4.96754a2.37361,2.37361,0,0,0,4.74722,0Z"/><path class="cls-1" d="M13.38266,105.30415v-4.96754A2.37319,2.37319,0,0,0,11.0091,97.9634H2.52144a2.37339,2.37339,0,0,0,0,4.74678H8.63553v2.594a2.37357,2.37357,0,0,0,4.74713,0Z"/><path class="cls-1" d="M17.5027,35.40686H77.07719a2.37362,2.37362,0,0,0,0-4.74723H17.5027a2.37362,2.37362,0,0,0,0,4.74723Z"/></g></g></svg>