<svg xmlns="http://www.w3.org/2000/svg" viewBox="0 0 183.32607 147.70167"><defs><style>.cls-1{fill-rule:evenodd;}</style></defs><g id="Capa_2" data-name="Capa 2"><g id="Capa_1-2" data-name="Capa 1"><path class="cls-1" d="M25.17706,85.21785v53.53678l.03044.19469s1.45015,8.4838,9.20305,8.65209c5.669.12263,38.51211.00447,39.58092,0l5.80685.10026v-42.773H103.147c.05327,9.16008.23319,40.152.23319,40.152l.01432,2.51985h45.894l.19917-.03133s8.3907-1.35257,8.3907-9.76073V85.8082l5.276-1.44746,3.85945,3.33131.38671.15754a11.95147,11.95147,0,0,0,4.05951.79,4.11331,4.11331,0,0,0,3.31385-1.71422V86.9249c.91484-1.34854,7.46691-9.04282,7.46691-9.04282l.008-.01029a5.01325,5.01325,0,0,0,1.05762-3.56808A6.22956,6.22956,0,0,0,181.0883,70.186l-.03939-.03581c-.04028-.03491-23.1701-19.66917-23.1701-19.66917V6.291l-.00314.13338a6.71236,6.71236,0,0,0-1.9277-4.798A5.72835,5.72835,0,0,0,151.96275.234H129.60366L129.336.29258a6.28549,6.28549,0,0,0-4.86694,6.463V22.76312L100.13885,2.4029l-.16963-.1016S90.021-3.59685,81.92967,3.49185L21.02222,54.27022,2.60045,69.49943c-.03133.02775-5.02941,4.71522-1.08493,9.27825l.00045.00179c2.42631,2.79556,6.51715,7.82184,6.51715,7.82184l.06177.07608.068.07072a6.18686,6.18686,0,0,0,3.86616,1.75539,6.99738,6.99738,0,0,0,5.19814-1.95993c.69106-.59662,2.617-2.216,5.217-4.39833l2.73289,3.07216ZM130.33857,5.30543h21.63a.94037.94037,0,0,1,.61676.11727.88131.88131,0,0,1,.22558.73626l-.00269.06579V52.82947l24.87224,21.1126a2.26558,2.26558,0,0,1,.56618.81056c-.80832.95423-5.70167,6.74184-7.2843,8.80606-.14322-.01164-.3133-.02954-.42967-.051a7.694,7.694,0,0,1-.87546-.231L164.421,78.7562,152.80867,81.942v55.86731a4.80187,4.80187,0,0,1-3.961,4.721H108.436l-.248-42.67277H74.72728v42.68531l-.70179-.013c-.02552,0-33.76065.12577-39.50528.00044h0c-3.29282-.07116-4.11725-3.36129-4.27211-4.18035V83.28656L22.95619,75.095l-1.88563,1.58352c-3.56584,2.992-6.30008,5.28766-7.15987,6.02885l-.0009.00089a1.96775,1.96775,0,0,1-2.1.50039c-.777-.952-4.27972-5.23574-6.45942-7.74709A1.14651,1.14651,0,0,1,5.39511,73.985a3.88041,3.88041,0,0,1,.51829-.64451L24.26132,58.17219,85.22965,7.3428C90.19237,2.978,96.176,5.988,97.20364,6.55909,99.5373,8.51231,125.3772,30.136,125.3772,30.136l4.16245,3.48214V6.70455A1.54569,1.54569,0,0,1,130.339,5.305Z"/></g></g></svg>