<svg xmlns="http://www.w3.org/2000/svg" viewBox="0 0 153.48615 147.70159"><defs><style>.cls-1{fill-rule:evenodd;}</style></defs><g id="Capa_2" data-name="Capa 2"><g id="Capa_1-2" data-name="Capa 1"><path class="cls-1" d="M13.12708,56.83592a2.21023,2.21023,0,0,0-.98552.94017L.67955,68.69963a2.19365,2.19365,0,0,0,3.02663,3.17614L11.87925,64.086v71.12081c0,6.83943,6.0038,12.49474,13.53685,12.49474H125.531c7.53042,0,13.53347-5.65306,13.53572-12.49062l.15963-70.95668,10.5282,10.36033a2.19348,2.19348,0,0,0,3.07722-3.12669l-13.9749-13.75268a2.206,2.206,0,0,0-.607-.59656L82.90637,2.67842A9.16582,9.16582,0,0,0,70.101,2.53715L13.12708,56.83592Zm121.7218,3.11019L79.81791,5.79349l-.00637-.00637a4.77983,4.77983,0,0,0-6.6828-.07532L16.26688,59.90489v75.302c0,4.53863,4.15005,8.10786,9.14922,8.10786H125.531c4.99879,0,9.14922-3.56923,9.14922-8.11011l.16862-75.25849Zm-57.9568,5.46982c-2.73772-2.18425-9.48422-7.1793-15.73871-8.75314h0c-8.61-2.16289-23.39729,5.61747-18.696,27.25056,1.7642,8.124,7.285,15.32952,13.34537,21.00694A91.56775,91.56775,0,0,0,74.5643,118.23717l1.011.51262,1.00351-.52761c8.35181-4.39474,21.23327-12.76,28.82814-23.20056,5.34654-7.3498,8.09325-15.71061,5.37127-24.45888V70.562c-1.45092-4.66043-3.85814-7.5604-6.68879-9.28263-4.15717-2.52787-9.36357-2.49115-14.26119-1.30853A50.50853,50.50853,0,0,0,76.8917,65.41556h0Zm-1.63117,4.33741L76.5211,70.8584l1.39772-.92631A46.59868,46.59868,0,0,1,90.858,64.23556c3.75547-.90721,7.765-1.14553,10.95239.79179,2.06434,1.25569,3.721,3.43995,4.7792,6.83868,2.2948,7.37528-.22221,14.37847-4.73012,20.5745-6.884,9.46249-18.39849,17.07385-26.30213,21.35393A87.64776,87.64776,0,0,1,58.802,101.719c-5.4256-5.0831-10.47836-11.46388-12.05781-18.73686h0C43.07564,66.10392,53.36626,59.23039,60.08353,60.917c7.24076,1.8219,15.17776,8.83632,15.17776,8.83632Z"/></g></g></svg>