<svg xmlns="http://www.w3.org/2000/svg" viewBox="0 0 136.0122 136.11621"><defs><style>.cls-1{fill-rule:evenodd;}</style></defs><g id="Capa_2" data-name="Capa 2"><g id="Capa_1-2" data-name="Capa 1"><path class="cls-1" d="M123.99669,0H22.59609a2.17332,2.17332,0,0,0-2.173,2.17367v94.218H2.174A2.17373,2.17373,0,0,0,0,98.56529v9.82755a12.00714,12.00714,0,0,0,12.00156,12.00122H58.48677v13.4448a2.17309,2.17309,0,0,0,3.70963,1.537l6.20432-6.20432,6.30834,6.30833a2.17309,2.17309,0,0,0,3.70963-1.53662V120.39406H113.445a2.17353,2.17353,0,0,0,2.17368-2.173V24.032h8.378a12.016,12.016,0,0,0,0-24.032ZM62.83279,111.00949v17.58212l4.031-4.03065a2.174,2.174,0,0,1,3.07358,0l4.135,4.13533v-17.0132l-6.03052-4.94518-5.209,4.27158ZM24.7691,116.04805H58.48644V113.024a3.81651,3.81651,0,0,1-3.06727-5.17414l3.13074-8.0078-7.23948-4.63812a3.81667,3.81667,0,0,1,2.282-7.02381l8.583.50313,2.17434-8.31884a3.8163,3.8163,0,0,1,7.38437,0l2.17433,8.31884,8.5827-.50313a3.81646,3.81646,0,0,1,2.282,7.02381L77.53407,99.842l3.13074,8.0078a3.81764,3.81764,0,0,1-2.24612,4.97475v3.22346h32.853V24.032H42.28143a21.83094,21.83094,0,0,1-17.512-8.78175V116.04771ZM20.42275,100.7383v15.30941H12.00122a7.65865,7.65865,0,0,1-7.65454-7.6552V100.7383ZM68.04216,83.42635l2.11186,8.0799a2.17211,2.17211,0,0,0,2.2295,1.62037l8.33712-.4885-7.03179,4.50552a2.17285,2.17285,0,0,0-.85205,2.621l3.04134,7.77817L69.42027,102.247a2.17316,2.17316,0,0,0-2.75656,0l-6.45721,5.29577,3.04068-7.77817a2.17285,2.17285,0,0,0-.852-2.621l-7.03179-4.50552,8.33745.4885a2.17262,2.17262,0,0,0,2.22951-1.62037l2.11186-8.0799ZM35.21741,72.43071H49.22382a2.17351,2.17351,0,1,0,0-4.347H35.21741a2.17351,2.17351,0,1,0,0,4.347Zm49.06066,0h15.93317a2.17351,2.17351,0,0,0,0-4.347H84.27807a2.17351,2.17351,0,1,0,0,4.347Zm-26.655,0h20.011a2.17351,2.17351,0,0,0,0-4.347h-20.011a2.17351,2.17351,0,0,0,0,4.347ZM35.21741,61.48425h65.67741a2.17334,2.17334,0,1,0,0-4.34668H35.21741a2.17334,2.17334,0,1,0,0,4.34668Zm31.17813-16.319H63.096a2.17318,2.17318,0,0,0,0,4.34635H73.35787a2.17318,2.17318,0,1,0,0-4.34635H70.74255V30.23468a2.17337,2.17337,0,0,0-3.71-1.53662l-4.61851,4.61851a2.17335,2.17335,0,0,0,3.07358,3.07358l.90789-.90788v9.683Zm65.27031-33.14975a7.67319,7.67319,0,0,1-7.66949,7.6695H42.2811A17.52415,17.52415,0,0,1,24.90335,4.34668h99.093a7.67284,7.67284,0,0,1,7.66949,7.66883Z"/></g></g></svg>