<svg xmlns="http://www.w3.org/2000/svg" viewBox="0 0 156.41785 199.99976"><defs><style>.cls-1{fill-rule:evenodd;}</style></defs><g id="Capa_2" data-name="Capa 2"><g id="Capa_1-2" data-name="Capa 1"><path class="cls-1" d="M76.70865,9.4836c-.054.03272-.14892.08887-.25976.14893-.22413-.01074-.72022-.02881-1.03321-.01612a5.93243,5.93243,0,0,0-1.96484.41309c-1.78516.686-1.42407.68408-3.42334,2.79981a14.53834,14.53834,0,0,1-3.79981,2.27783c-9.748-1.39356-11.39795,1.98242-11.39795,1.98242a2.88913,2.88913,0,0,0-.46411,1.02588,6.11052,6.11052,0,0,1-.40112,1.10888,5.94936,5.94936,0,0,1-.82788-.43505,8.79054,8.79054,0,0,1-1.30811-1.13282,2.907,2.907,0,0,0-4.30883-.00732c-7.84131,8.63623-8.98316,15.1001-9.06812,17.77148-2.03589,2.67188-8.48511,11.106-10.51489,13.33887a17.261,17.261,0,0,1-1.896.2666c-2.678.16211-5.957.083-7.852.64844a4.85977,4.85977,0,0,0-3.01806,2.25,4.34691,4.34691,0,0,0,.167,4.333,14.48686,14.48686,0,0,1,1.52783,4.49316c-3.66187,5.07764-4.48486,12.07471-3.92871,18.793a75.13847,75.13847,0,0,0,4.46777,19.03076c4.8772,16.38623-4.08594,26.0542-5.76684,27.68506-8.092,3.63477-11.55,8.29-11.636,12.686-.08691,4.439,3.322,9.37109,10.60791,13.647a46.91166,46.91166,0,0,0,23.604,6.63574c3.092,2.40527,13.5481,9.90137,24.54517,10.56836,7.927.48389,12.00317,2.46484,13.59692,3.47168a8.32317,8.32317,0,0,0,3.502,6.35693c2.27221,1.57325,6.34521,2.68018,13.66821.86426h.00195a30.61418,30.61418,0,0,1,19.86792,1.29395l-5.99194,9.438a2.905,2.905,0,0,0,2.45288,4.4629c4.78516,0,6.75317,2.91113,6.75317,2.91113a2.90528,2.90528,0,0,0,5.346-.98s3.81983-20.94873,5.27-28.90479l.001-.00537a9.80547,9.80547,0,0,0-1.271-7.478,10.37351,10.37351,0,0,0-5.583-3.89892c-.03393-1.33692.00489-2.38672.05811-3.13184a27.60331,27.60331,0,0,0,6.87891-1.585,6.298,6.298,0,0,0,3.26025-2.604,4.17255,4.17255,0,0,0-.145-4.43311,10.84353,10.84353,0,0,0-3.5-3.01269,2.9039,2.9039,0,0,0-1.41919-.30811c-2.41821.09277-4.105-.30615-5.06006-1.124-.23511-.2002-.43091-.396-.42309-.63086.00512-.148.13818-.249.28-.34717a11.04781,11.04781,0,0,1,3.613-.74414c3.366-.43506,7.81494-.648,11.605-.77881,4.00879-.13867,7.32105-.19922,8.092-.2959a3.16235,3.16235,0,0,0,1.28589-.42529l.02686-.01611a3.01978,3.01978,0,0,0,.96728-.95069c.22193-.34131.771-1.71728,1.48389-3.17627.085-.17382.199-.376.324-.584a13.73209,13.73209,0,0,1,.4729,1.36328,26.3415,26.3415,0,0,0,3.25708,7.708c1.92115,2.771,3.834,3.12793,5.05591,3.11084a4.546,4.546,0,0,0,3.03418-1.19971,2.90693,2.90693,0,0,0,.56983-3.44043s-1.42188-2.79492-3.999-11.73389v-.00292a12.61441,12.61441,0,0,0-8.78173-9.12793,24.9201,24.9201,0,0,0,2.66674-2.64209,7.20962,7.20962,0,0,0-.467-10.11622c-1.5039-1.67285-2.18188-4.22363-2.56592-6.63671a36.97579,36.97579,0,0,1-.334-7.71924c1.54395-6.3501,2.27393-9.78174,2.115-11.62354a4.53651,4.53651,0,0,0-1.97681-3.64111,5.58468,5.58468,0,0,0-2.29516-.86719c-1.1648-.19287-2.8689-.144-5.198-.228h-.00195c-3.94507-.13769-8.061.88721-11.781,1.07227-2.59985.12891-4.99194-.18408-6.645-2.689v-.00147c-5.813-8.79687-11.218-8.15967-11.218-8.15967-.021,0-.042.002-.063.00293l-12.667.77c-4.01318.24512-6.53711-.6499-8.07617-1.98486a6.49938,6.49938,0,0,1-2.11792-3.71631c.811-7.41406-.67309-10.00781-1.885-11.522-.3418-.42676-.90185-1.01612-1.06689-1.189a26.63078,26.63078,0,0,1-.40186-3.07178,6.0193,6.0193,0,0,0-.4331-1.749,3.002,3.002,0,0,0-2.11109-1.74316,2.972,2.972,0,0,0-1.36206-.01221h-.02881l-.27978.01025.1018-.00586-2.6809-.564,1.9768-4.44238a2.89348,2.89348,0,0,0,.293-.97461l.37818-3.26221a8.79609,8.79609,0,0,1,1.77392-3.51221,26.43479,26.43479,0,0,0,3.41211-6.5039c1.12085-3.46582,4.94482-6.105,6.14185-6.90479.81811-.227,5.52319-1.581,7.7-3.228a5.68144,5.68144,0,0,0,2.53613-5.76025A8.06808,8.06808,0,0,0,92.7526,1.88546,14.118,14.118,0,0,0,86.30777.00264c-.01611,0-.032.002-.04785.00293a10.3494,10.3494,0,0,0-3.65527.88086A5.7439,5.7439,0,0,0,79.113,6.23751a2.72807,2.72807,0,0,1-.61914,1.49316,6.82512,6.82512,0,0,1-1.376,1.40576,2.87857,2.87857,0,0,0-.407.34717Zm37.686,175.269-1.249,6.84668a13.87561,13.87561,0,0,0-2.44824-1.02392l3.69727-5.82276ZM79.3356,14.6794a17.40317,17.40317,0,0,0-4.49609,6.668,26.16192,26.16192,0,0,1-3.3999,6.12012,12.15224,12.15224,0,0,0-2.03,5.019l-.31909,2.7544A69.99649,69.99649,0,0,0,66.20474,41.737a4.54779,4.54779,0,0,0,.01807,3.35986,4.30133,4.30133,0,0,0,2.293,1.77,30.9774,30.9774,0,0,0,5.18286,1.15381,22.76778,22.76778,0,0,0,.4231,2.48l.001.00293a5.35545,5.35545,0,0,0,1.26807,2.33692,6.02462,6.02462,0,0,1,1.147,1.36816c.594,1.13477.80616,3.09375.334,7.14111a2.837,2.837,0,0,0-.01294.52881,12.27343,12.27343,0,0,0,4.134,7.9043c2.34985,2.03906,6.10791,3.77,12.23682,3.397l12.478-.75928c.31006.083,3.24805.97705,6.26905,5.54883,2.978,4.51221,7.09692,5.52246,11.782,5.29,3.56616-.17773,7.50806-1.20068,11.28906-1.06787,1.35181.04834,2.479.041,3.39917.07178.1438.00537.30274.01611.457.02929-.00927.18164-.02514.375-.05029.55176-.25195,1.84912-.939,4.61231-1.94775,8.75488a3.03789,3.03789,0,0,0-.07129.43506,43.064,43.064,0,0,0,.36914,9.34131c.561,3.52686,1.78393,7.1626,3.98486,9.61084l.002.00195a2.4272,2.4272,0,0,1,.822,1.44288c.00708.79-.696,1.35205-1.30787,1.97607a30.97288,30.97288,0,0,0-4.02319,4.269,3.78946,3.78946,0,0,0-.53491,3.21192,3.59043,3.59043,0,0,0,1.33887,1.89746,12.361,12.361,0,0,0,3.32715,1.34277,10.74108,10.74108,0,0,1,2.42382,1.01611,5.09854,5.09854,0,0,0-2.83105,1.60791,19.11484,19.11484,0,0,0-2.8877,4.88086c-3.53125.125-11.67431.249-17.41821.898-3.35083.3794-5.99292,1.08106-7.07983,1.8252l-.0022.001a6.20212,6.20212,0,0,0-2.803,4.9458,6.56593,6.56593,0,0,0,2.45215,5.24121,11.21827,11.21827,0,0,0,6.00781,2.39892,45.18473,45.18473,0,0,1-4.95605.71192,2.90909,2.90909,0,0,0-1.80493.86914s-1.89917,1.18506-1.23194,10.3501a2.90632,2.90632,0,0,0,2.7,2.688,5.09836,5.09836,0,0,1,3.73389,1.88184,4.32284,4.32284,0,0,1,.39307,3.22705l-1.992,10.92285a3.05328,3.05328,0,0,0-.313-.25683s-10.48193-7.61475-27.07788-3.4878c-4.791,1.188-7.47412,1.02783-8.96093-.00195a2.69223,2.69223,0,0,1-1.04-2.54443,2.90776,2.90776,0,0,0-.78614-2.49707s-4.498-4.97168-18.22705-5.80957h0c-11.375-.69141-22.03174-9.917-22.03174-9.917a2.905,2.905,0,0,0-2.1372-.69043s-10.155.79639-21.38819-5.80761l-.00195-.001a23.09393,23.09393,0,0,1-6.12183-4.83936,5.76768,5.76768,0,0,1-1.61791-3.68212,5.113,5.113,0,0,1,1.75683-3.40674,21.92441,21.92441,0,0,1,6.84326-4.26514,2.94208,2.94208,0,0,0,.71973-.44922s14.46-12.03174,7.8042-34.15088c-.0249-.083-.0542-.165-.08618-.24463a68.56819,68.56819,0,0,1-4.12183-17.47851c-.46094-5.57569-.02612-11.46778,3.29492-15.48975a2.9271,2.9271,0,0,0,.58789-1.187s.792-2.45508-1.40991-7.355c.89209-.07812,1.89307-.09717,2.88892-.12109a24.3124,24.3124,0,0,0,5.376-.53223,5.43332,5.43332,0,0,0,2.4712-1.3877l.0039-.00439c2.1792-2.27637,11.76-14.86963,11.76-14.86963a2.90453,2.90453,0,0,0,.563-2.16308s-.386-4.68409,5.73511-12.272h0c.17285.1167.352.231.53491.33985a6.741,6.741,0,0,0,5.021.95507c1.46314-.38183,3.08082-1.436,4.05909-4.14209a20.44957,20.44957,0,0,1,6.531.13819,2.90353,2.90353,0,0,0,1.62793-.20215s4.79395-2.17676,6.471-3.94287l.00513-.00537c.332-.35157.582-.63672.781-.873.12915-.15283.26978-.32373.364-.438l.15088-.062a.23868.23868,0,0,0,.0249-.00977,1.217,1.217,0,0,1,.6101-.001c.21314.00879.42408.01172.636.00293a4.97073,4.97073,0,0,0,2.01416-.501l.00391-.00293c.18091-.08691.3479-.17431.50195-.25928ZM74.7565,48.15889h.01514l-.019-.002h.0039Zm2.58008-.32128-.063.03222.022-.01025.041-.022Zm-3.71484-.46778.00488.04a4.0605,4.0605,0,0,1-.53711-.72607s.25635.36474.53223.686ZM90.97843,8.1086a5.23619,5.23619,0,0,1-.60791.48926,9.911,9.911,0,0,1-1.44507.7251,44.57677,44.57677,0,0,1-4.25586,1.38769,4.58714,4.58714,0,0,0-1.228.584c-.1543.1084-.55127.37988-1.09619.79492a9.36626,9.36626,0,0,0,2.575-5.73V6.35567c.00513-.26025.282-.27588.45508-.333a4.826,4.826,0,0,1,1.22192-.21582,7.64486,7.64486,0,0,1,2.488.71A3.14847,3.14847,0,0,1,90.97843,8.1086Z"/></g></g></svg>