<svg xmlns="http://www.w3.org/2000/svg" viewBox="0 0 144.35501 149.52032"><defs><style>.cls-1{fill-rule:evenodd;}</style></defs><g id="Capa_2" data-name="Capa 2"><g id="Capa_1-2" data-name="Capa 1"><path class="cls-1" d="M33.17628,10.8165H19.68A2.20475,2.20475,0,0,0,17.47592,13.021v9.50126H2.20484A2.2049,2.2049,0,0,0,0,24.7267V47.16461c0,6.62474,3.41458,15.178,8.05424,20.94781,2.84293,3.53468,6.17647,5.98227,9.422,6.66855v35.42456a2.20437,2.20437,0,0,0,3.7632,1.55872l9.70276-9.70239,9.79694,9.798a2.20466,2.20466,0,0,0,3.76356-1.55872V80.51793a39.0967,39.0967,0,0,0,12.79391,8.5872,2.19332,2.19332,0,0,0-.12739.73921V104.712H53.64078a2.20421,2.20421,0,0,0-2.20484,2.20448v14.86771H44.61042a8.03988,8.03988,0,0,0-8.03671,8.036v17.49526a2.205,2.205,0,0,0,2.20484,2.20484h66.79134a2.205,2.205,0,0,0,2.20484-2.20484V129.82022a8.03926,8.03926,0,0,0-8.036-8.036H93.402V106.91652a2.20444,2.20444,0,0,0-2.20485-2.20448H87.18648V89.84434a2.19153,2.19153,0,0,0-.1274-.73921,39.08592,39.08592,0,0,0,12.79319-8.5872v29.78324a2.20457,2.20457,0,0,0,3.76356,1.55872l9.79767-9.798,9.70276,9.70239a2.20453,2.20453,0,0,0,3.76319-1.55872V74.781c3.24484-.68628,6.57912-3.13387,9.42132-6.66855,4.63965-5.76982,8.05424-14.32307,8.05424-20.94781V24.7267a2.2049,2.2049,0,0,0-2.20484-2.20447H126.87945V13.021A2.20505,2.20505,0,0,0,124.675,10.8165H111.17909V5.88371A5.88654,5.88654,0,0,0,105.29465,0H39.06036a5.88592,5.88592,0,0,0-5.88371,5.88371V10.8165Zm70.18986,119.00408v15.29079H40.983V129.82058a3.62915,3.62915,0,0,1,3.62777-3.6274h55.128a3.62883,3.62883,0,0,1,3.6274,3.6274ZM88.99233,109.12173v12.66286H55.84526V109.12173ZM21.8845,15.22581v89.6578l7.49829-7.49791a2.2043,2.2043,0,0,1,3.1178,0l7.5932,7.59282V75.21792a38.80482,38.80482,0,0,1-6.91751-22.16923V15.22581Zm89.29459,0V53.04869a38.80574,38.80574,0,0,1-6.9175,22.16923v29.7606l7.59246-7.59282a2.20518,2.20518,0,0,1,3.11853,0l7.49756,7.49755V15.22581ZM82.77717,92.04954v12.66287h-21.199V92.04954ZM106.76941,23.7619V53.04832a34.59227,34.59227,0,0,1-69.18454,0V23.7619Zm20.11,3.17v43.316c2.08037-.7184,4.11948-2.57791,5.9852-4.8981,4.03478-5.01711,7.08141-12.4245,7.08141-18.18483V26.93191Zm-109.40353,0H4.40968V47.165c0,5.76033,3.04626,13.16772,7.08031,18.18483,1.86682,2.32019,3.90484,4.1797,5.98593,4.8981v-43.316ZM74.248,35.53918a2.20432,2.20432,0,0,0-4.19321,0l-3.435,10.57119H55.50431a2.20479,2.20479,0,0,0-1.29553,3.98843l8.992,6.53348L59.76651,67.2042A2.20441,2.20441,0,0,0,63.15883,69.669l8.99239-6.53421L81.144,69.669a2.20466,2.20466,0,0,0,3.39268-2.46475L81.10127,56.63228,90.094,50.0988a2.20479,2.20479,0,0,0-1.29552-3.98843H77.68267L74.248,35.53918Zm-2.09642,7.81587,1.83323,5.64169a2.20445,2.20445,0,0,0,2.09678,1.52368h5.93227l-4.79955,3.4865a2.20453,2.20453,0,0,0-.80053,2.46511l1.83287,5.64206-4.79882-3.48687a2.20465,2.20465,0,0,0-2.59178,0l-4.79881,3.48687L67.89011,56.472a2.2047,2.2047,0,0,0-.80126-2.46511L62.29,50.52042H68.2223a2.2039,2.2039,0,0,0,2.09606-1.52368l1.83323-5.64169Zm34.61782-37.4717V19.35222H37.58487V5.88335A1.47564,1.47564,0,0,1,39.06,4.40859h66.23429a1.47541,1.47541,0,0,1,1.47513,1.47476Z"/></g></g></svg>