<svg xmlns="http://www.w3.org/2000/svg" viewBox="0 0 113.32812 131.43576"><defs><style>.cls-1{fill-rule:evenodd;}</style></defs><g id="Capa_2" data-name="Capa 2"><g id="Capa_1-2" data-name="Capa 1"><path d="M56.66406,131.43576a56.66407,56.66407,0,1,1,56.66406-56.6645A56.7288,56.7288,0,0,1,56.66406,131.43576Zm0-108.91075a52.24669,52.24669,0,1,0,52.24669,52.24625A52.30575,52.30575,0,0,0,56.66406,22.525Z"/><path class="cls-1" d="M72.58833,4.6995A4.70065,4.70065,0,0,0,67.89013,0H46.15957a4.69886,4.69886,0,0,0,0,9.39771H67.89013a4.70066,4.70066,0,0,0,4.6982-4.69821Z"/><polygon class="cls-1" points="63.243 6.308 51.681 6.308 51.681 20.711 63.243 20.711 63.243 6.308 63.243 6.308"/><path class="cls-1" d="M80.33125,51.5047a3.63,3.63,0,0,0-5.13347,0L55.51285,71.18964a3.63006,3.63006,0,0,0,5.1339,5.13347l19.6845-19.6845a3.63129,3.63129,0,0,0,0-5.13391Z"/><path class="cls-1" d="M104.24073,27.59566a3.63233,3.63233,0,0,0-5.13477,0l-9.49649,9.49649a3.63022,3.63022,0,0,0,5.1339,5.13391l9.49736-9.4965a3.63284,3.63284,0,0,0,0-5.1339Z"/></g></g></svg>