<svg xmlns="http://www.w3.org/2000/svg" viewBox="0 0 180.94157 180.94157"><defs><style>.cls-1{fill-rule:evenodd;}</style></defs><g id="Capa_2" data-name="Capa 2"><g id="Capa_1-2" data-name="Capa 1"><path class="cls-1" d="M56.72329,169.48824a11.45319,11.45319,0,0,0,11.44979,11.45333h44.5932a11.45375,11.45375,0,0,0,11.45509-11.45333V124.21916h45.26731a11.45178,11.45178,0,0,0,11.45289-11.45288V68.17308a3.157,3.157,0,0,0-6.314,0v44.5932a5.13754,5.13754,0,0,1-5.13848,5.13891H121.06505a3.15787,3.15787,0,0,0-3.15721,3.15721v48.42584a5.14,5.14,0,0,1-5.14156,5.13936H68.17308a5.13829,5.13829,0,0,1-5.13626-5.13936,3.15677,3.15677,0,1,0-6.31353,0ZM0,99.00877v13.75707a11.45414,11.45414,0,0,0,11.45112,11.45377H56.72285v19.10095a3.15677,3.15677,0,1,0,6.31353,0V121.062a3.15684,3.15684,0,0,0-3.15721-3.15633h-48.428a5.13876,5.13876,0,0,1-5.1367-5.13979V99.00877a3.157,3.157,0,1,0-6.314,0ZM59.88006,56.722H11.452A11.45122,11.45122,0,0,0,.00088,68.17264V86.95023a3.157,3.157,0,0,0,6.314,0V68.17264a5.13668,5.13668,0,0,1,5.1367-5.1367H59.87961a3.157,3.157,0,1,0,0-6.314Zm101.60848,0H124.22005V11.45289A11.452,11.452,0,0,0,112.76628,0H68.174A11.45111,11.45111,0,0,0,56.72285,11.45289V33.54584a3.15677,3.15677,0,0,0,6.31353,0V11.45289a5.13744,5.13744,0,0,1,5.13715-5.13847h44.59231a5.13819,5.13819,0,0,1,5.13935,5.13847V59.87961a3.15637,3.15637,0,0,0,3.15632,3.15633h40.42614a3.157,3.157,0,0,0,0-6.314Z"/></g></g></svg>