<svg xmlns="http://www.w3.org/2000/svg" viewBox="0 0 136.09961 200"><defs><style>.cls-1{fill-rule:evenodd;}</style></defs><g id="Capa_2" data-name="Capa 2"><g id="Capa_1-2" data-name="Capa 1"><path class="cls-1" d="M84.97852,194.187V82.49365H96.083l.123,19.123a2.90654,2.90654,0,0,0,4.96192,2.03613l8.77246-8.772,8.417,8.417a2.90744,2.90744,0,0,0,4.96289-2.05517V82.49414h9.87305a2.90669,2.90669,0,0,0,2.90625-2.90625V50.47656a2.90658,2.90658,0,0,0-2.90625-2.90576h-9.87305v-.999a2.9071,2.9071,0,0,0-2.90722-2.90576H98.75781a2.90665,2.90665,0,0,0-2.90625,2.9248l.00684.98H90.83691V29a2.90616,2.90616,0,0,0-2.90722-2.90723H86.39941V2.90674A2.9071,2.9071,0,0,0,83.49316,0H52.96191a2.90627,2.90627,0,0,0-2.90527,2.90674v23.186H48.52539A2.90679,2.90679,0,0,0,45.61816,29V47.5708H42.37891v-.999A2.90565,2.90565,0,0,0,39.47266,43.666H17.81738A2.905,2.905,0,0,0,14.91113,46.585l.00391.98584H2.90723A2.90679,2.90679,0,0,0,0,50.47656V79.58789a2.9069,2.9069,0,0,0,2.90723,2.90625H15.06738l.19824,45.38672a2.90662,2.90662,0,0,0,4.96192,2.042L29,121.15088l8.417,8.417a2.90665,2.90665,0,0,0,4.96192-2.05517V82.49414h9.80664V194.187H26.33691a2.9065,2.9065,0,0,0,0,5.813h84.84668a2.9065,2.9065,0,0,0,0-5.813H84.97852Zm10.917-140.80273H42.37891V76.68115H55.09277A2.90617,2.90617,0,0,1,57.999,79.58789V194.187H79.166V79.58789a2.90606,2.90606,0,0,1,2.90722-2.90674H96.0459l-.15039-23.29687ZM36.56641,49.479v71.01709l-5.51075-5.51074a2.90725,2.90725,0,0,0-4.11132,0l-5.89551,5.89551L20.73633,49.479Zm65.40918,45.147-.292-45.14746h15.82422V94.22559l-5.51074-5.51075a2.90815,2.90815,0,0,0-4.11133,0L101.97559,94.626Zm21.34472-41.2417V76.68115h6.9668V53.38428Zm-108.37988,0h-9.126V76.68115H15.042l-.10156-23.29687Zm36.49219-5.813H85.02441v-15.665H51.43262v15.665Zm4.43652-21.47852V5.814h24.7168V26.09277Z"/></g></g></svg>