<svg xmlns="http://www.w3.org/2000/svg" viewBox="0 0 167.8283 199.72928"><defs><style>.cls-1{fill-rule:evenodd;}</style></defs><g id="Capa_2" data-name="Capa 2"><g id="Capa_1-2" data-name="Capa 1"><path class="cls-1" d="M49.171,93.98633a8.67188,8.67188,0,1,0,8.67187,8.67187A8.676,8.676,0,0,0,49.171,93.98633Zm0,5.28271a3.38892,3.38892,0,1,1-3.38916,3.38916A3.38963,3.38963,0,0,1,49.171,99.269Z"/><path class="cls-1" d="M119.68075,93.98633a8.67188,8.67188,0,1,0,8.67188,8.67187,8.676,8.676,0,0,0-8.67188-8.67187Zm0,5.28271a3.38892,3.38892,0,1,1-3.38916,3.38916,3.39,3.39,0,0,1,3.38916-3.38916Z"/><path class="cls-1" d="M87.256,108.81494a2.2334,2.2334,0,0,1-4.4668,0,2.6416,2.6416,0,1,0-5.2832,0,7.51587,7.51587,0,1,0,15.03174,0,2.64087,2.64087,0,1,0-5.28174,0Z"/><path class="cls-1" d="M145.67294,63.019a63.01856,63.01856,0,1,0-126.03711,0V99.51123A50.967,50.967,0,0,0,70.57919,150.4541H94.72958a50.96764,50.96764,0,0,0,50.94336-50.94287V63.019Zm-5.2832,0V99.51123a45.68232,45.68232,0,0,1-45.66016,45.66065H70.5787A45.68243,45.68243,0,0,1,24.91806,99.51123V63.019a57.73584,57.73584,0,1,1,115.47168,0Z"/><path class="cls-1" d="M136.95907,199.729a2.64089,2.64089,0,0,0,2.64063-2.64111,51.92278,51.92278,0,0,0-51.89746-51.89844H80.296A51.92289,51.92289,0,0,0,28.398,197.08789a2.6413,2.6413,0,0,0,2.64111,2.64111Zm-2.71582-5.28271H33.75351a46.64237,46.64237,0,0,1,46.542-43.97412h7.40576a46.64169,46.64169,0,0,1,46.542,43.97412Z"/><path class="cls-1" d="M81.29892,41.4624h0s.34668,13.6626-11.8833,24.625c-8.49219,7.6128-22.88526,13.81592-47.13916,13.81592a2.6416,2.6416,0,0,0,0,5.2832c26.1123,0,41.52343-6.96923,50.665-15.165A41.10845,41.10845,0,0,0,84.13974,53.74023,44.12657,44.12657,0,0,0,95.28036,69.99414c8.8916,8.21924,23.52832,15.19238,47.75,15.19238a2.6416,2.6416,0,1,0,0-5.2832c-22.36474,0-35.9541-6.2002-44.16406-13.78809a38.09775,38.09775,0,0,1-12.28711-24.791h0v-.02783a2.64107,2.64107,0,0,0-5.28027.13818l.00049.02783Z"/><path class="cls-1" d="M24.14462,118.542c30.957,13.728,54.84668,2.03223,60.88965-1.48388,6.21777,3.58691,31.06006,15.95507,56.37695,1.35693a2.641,2.641,0,1,0-2.63867-4.57568c-26.42822,15.23779-52.28223-2.07422-52.28223-2.07422a2.64027,2.64027,0,0,0-2.96679.02s-24.251,16.55615-57.23828,1.92724a2.64137,2.64137,0,1,0-2.14063,4.82959Z"/><path class="cls-1" d="M143.5206,75.436a13.06958,13.06958,0,0,1,0,26.13916,2.64136,2.64136,0,1,0,0,5.28271,18.35254,18.35254,0,1,0,0-36.70508,2.64161,2.64161,0,0,0,0,5.28321Z"/><path class="cls-1" d="M22.18954,70.15332a18.3523,18.3523,0,0,0,0,36.70459,2.64136,2.64136,0,1,0,0-5.28271,13.06958,13.06958,0,0,1,0-26.13916,2.64161,2.64161,0,1,0,0-5.28321Z"/><path class="cls-1" d="M12.84872,120.605c-.26562.07227-.52734.146-.78027.22022-3.32129.96484-7.20606,2.74316-9.6582,6.51269-1.626,2.499-2.666,5.89941-2.35547,10.62793.55761,8.51025,5.70215,12.5293,11.26855,14.40918a31.18377,31.18377,0,0,0,8.03516,1.44238c-.15186.2295-.29883.46192-.438.6919-2.25488,3.73388-3.90967,9.041-.188,15.01367,6.8584,11.00439,18.44238,7.644,18.44238,7.644a2.64171,2.64171,0,0,0-1.4414-5.083,11.53324,11.53324,0,0,1-12.5166-5.355c-2.353-3.77588-1.19922-7.1289.22656-9.48877a50.91466,50.91466,0,0,1,3.043-4.11718,2.75938,2.75938,0,0,0-.25586-3.64991A2.67048,2.67048,0,0,0,25.0328,148.77a19.472,19.472,0,0,0-2.99658-.146,30.81037,30.81037,0,0,1-8.20019-.998c-4.07325-1.16895-8.1045-3.81787-8.50928-10.00586a12.0701,12.0701,0,0,1,1.36719-7.16992c2.499-4.14161,7.562-4.73731,10.043-5.35157a7.45579,7.45579,0,0,0,2.51025-1.01074,2.97254,2.97254,0,0,0,1.23437-2.11523,3.80675,3.80675,0,0,0-1.53857-3.36182c-.53613-.46-1.331-.96973-2.17725-1.62891a6.46526,6.46526,0,0,1-2.771-5.86621c.15771-3.08691,3.648-4.70654,4.01611-4.86865a2.64147,2.64147,0,0,0,.08985-5.26709,6.88267,6.88267,0,0,0-3.09278.77588,10.70414,10.70414,0,0,0-6.28906,9.09082,11.17207,11.17207,0,0,0,4.12988,9.7583Z"/><path class="cls-1" d="M149.81747,106.24707c.36817.16162,3.8584,1.78174,4.01612,4.86865a6.46424,6.46424,0,0,1-2.771,5.86621c-.8457.65869-1.64111,1.16895-2.17676,1.62891a3.81086,3.81086,0,0,0-1.54,3.36182,2.97475,2.97475,0,0,0,1.23584,2.11523,7.43863,7.43863,0,0,0,2.50977,1.01074c2.481.61426,7.543,1.21,10.043,5.35157a12.07389,12.07389,0,0,1,1.36718,7.16992c-.40478,6.1875-4.436,8.83691-8.50927,10.00586a30.80726,30.80726,0,0,1-8.20069.998,19.50094,19.50094,0,0,0-2.99707.146,2.67187,2.67187,0,0,0-1.19677.70312,2.75937,2.75937,0,0,0-.25586,3.64991,50.91778,50.91778,0,0,1,3.043,4.11718c1.42579,2.35987,2.58008,5.71289.22657,9.48877a11.53325,11.53325,0,0,1-12.5166,5.355,2.64172,2.64172,0,0,0-1.44141,5.083s11.584,3.36035,18.44238-7.644c3.72217-5.97315,2.0669-11.27979-.188-15.01367-.13916-.23-.28564-.4624-.438-.6919A31.18,31.18,0,0,0,156.505,152.375c5.5669-1.87988,10.71094-5.89893,11.26856-14.40918.31054-4.72852-.7295-8.12891-2.35547-10.62793-2.45215-3.76953-6.33692-5.54785-9.65821-6.51269-.25292-.07422-.51464-.14795-.77978-.22022a11.17348,11.17348,0,0,0,4.12988-9.75781,10.70758,10.70758,0,0,0-6.28906-9.09131,6.883,6.883,0,0,0-3.09326-.77588,2.64145,2.64145,0,0,0,.09033,5.26709Z"/><path class="cls-1" d="M47.48837,199.70117c7.791-1.14013,22.92383-10.3081,36.56152-20.36328a215.54729,215.54729,0,0,0,23.165-19.35059,27.9356,27.9356,0,0,0,4.73633-5.83007,2.64152,2.64152,0,1,0-4.709-2.395,22.90114,22.90114,0,0,1-3.78369,4.51074,210.06387,210.06387,0,0,1-22.54444,18.813c-12.80762,9.44433-26.87305,18.31738-34.19092,19.38818a2.64138,2.64138,0,0,0,.76514,5.227Z"/><path class="cls-1" d="M86.67587,199.644c17.89551-4.645,35.55371-23.33447,39.81445-34.58935a2.6409,2.6409,0,1,0-4.93945-1.87061c-3.86914,10.21875-19.95312,27.12988-36.20312,31.34668a2.64147,2.64147,0,1,0,1.32812,5.11328Z"/><path class="cls-1" d="M64.05282,84.36328V96.62793a2.64161,2.64161,0,0,0,5.28321,0V84.36328a2.64161,2.64161,0,1,0-5.28321,0Z"/><path class="cls-1" d="M99.13,84.36328V96.62793a2.64087,2.64087,0,1,0,5.28174,0V84.36328a2.64087,2.64087,0,1,0-5.28174,0Z"/></g></g></svg>