<svg xmlns="http://www.w3.org/2000/svg" viewBox="0 0 143.28467 142.12503"><defs><style>.cls-1{fill-rule:evenodd;}</style></defs><g id="Capa_2" data-name="Capa 2"><g id="Capa_1-2" data-name="Capa 1"><path class="cls-1" d="M18.20683,22.445c-.01538.0188-.03077.03854-.04547.058a57.70191,57.70191,0,0,0-4.378,63.87953,26.15478,26.15478,0,0,0-3.45994,2.22071c-.02667.01948-.05316.03983-.07914.06085a26.05124,26.05124,0,0,0-.15127,41.299c.02444.01949.04974.03932.075.05744a26.04635,26.04635,0,0,0,29.77957,1.4023l.03863-.02376a26.345,26.345,0,0,0,2.72153-1.98209,58.452,58.452,0,0,0,14.5457,7.9205,2.17142,2.17142,0,0,0,.54185.208,76.732,76.732,0,0,0,10.46683,3.1415,2.15312,2.15312,0,0,0,.45723.10016A55.33494,55.33494,0,0,0,80.17349,142.125c28.67982,0,47.00561-18.63363,56.12261-34.7177.026-.04341.05094-.08734.07419-.13213,1.17547-2.08362,2.19695-4.12519,3.06646-6.07635q.66278-1.4881,1.20778-2.90134c.01334-.033.026-.06513.03778-.0988a37.56676,37.56676,0,0,0,2.55675-9.9137,9.27134,9.27134,0,0,0-.35844-3.83821c-.71978-1.92944-2.66324-4.36313-5.65073-6.74212a42.13415,42.13415,0,0,0-6.37958-4.13835,2.21823,2.21823,0,0,0-.23246-.12324,52.24147,52.24147,0,0,0-10.19881-4.051,57.7884,57.7884,0,0,0-10.28257-46.18933c-.01761-.02445-.0359-.0482-.054-.07137a57.70059,57.70059,0,0,0-91.87613-.6861Zm90.47162,49.38741q-.65842-.02205-1.32539-.02153A70.69235,70.69235,0,0,0,83.3003,76.0971a2.02761,2.02761,0,0,1-.289.105,85.33522,85.33522,0,0,0-29.6671,18.80388l17.14451,41.82134a50.48873,50.48873,0,0,0,9.685,1.03753c26.3162,0,43.25867-16.85,51.93382-31.7114L118.04261,73.16088c-.17776-.04427-.35553-.08751-.53483-.13042-.04052-.00769-.08188-.01675-.12324-.02649q-.0441-.01077-.08837-.02325a44.22972,44.22972,0,0,0-8.58559-1.14744l-.02718-.00069h-.005ZM50.104,98.33152c-.09674.105-.19263.21007-.28784.31434a26.15345,26.15345,0,0,1,1.898,15.33557l8.19211,19.84706c1.798.663,3.63429,1.258,5.47639,1.77475L50.104,98.33152Zm-.38578,21.97821a26.10464,26.10464,0,0,1-3.94248,6.09822,48.93178,48.93178,0,0,0,8.55756,5.0836l-4.61525-11.18182ZM42.64213,95.22352a21.80667,21.80667,0,0,0-24.95441-5.98473c-.03231.01487-.06461.028-.09675.04051a21.78657,21.78657,0,0,0-2.99724,1.55152,18.94974,18.94974,0,0,1,1.79305,4.54244l2.792-1.75168a2.12973,2.12973,0,1,1,2.26344,3.60831L17.2674,99.8492a60.17413,60.17413,0,0,1,.52783,6.62247l4.10007.50885a2.12991,2.12991,0,1,1-.52441,4.22742l-3.58882-.44527a67.95673,67.95673,0,0,1-.61346,7.22516l3.00287,1.80142A2.12978,2.12978,0,1,1,17.98,123.44183l-1.65015-.99q-.12846.53047-.2675,1.03343a20.46668,20.46668,0,0,1-1.66912,4.30091,21.80315,21.80315,0,0,0,21.55327,1.01806,20.19,20.19,0,0,1-1.48845-4.94224l-2.69914.58885a2.12975,2.12975,0,1,1-.908-4.16161l3.194-.69738a37.49275,37.49275,0,0,1,.56492-7.352l-2.6359-.47193a2.12977,2.12977,0,1,1,.75055-4.19289l2.84169.50886a37.04893,37.04893,0,0,1,2.3742-6.191L34.689,99.33026a2.12983,2.12983,0,1,1,2.63726-3.34508l2.79349,2.20259a19.6156,19.6156,0,0,1,2.52205-2.96442Zm2.458,3.52661a15.58551,15.58551,0,0,0-1.67032,2.04567l2.88939,2.27746a2.1301,2.1301,0,0,1-2.63727,3.34576l-2.34617-1.84979a33.57261,33.57261,0,0,0-1.56126,4.26724l4.23374.75756a2.13029,2.13029,0,0,1-.75072,4.19391l-4.45543-.79756a34.67,34.67,0,0,0-.54612,5.683l3.14492-.6861a2.13019,2.13019,0,0,1,.90814,4.16246l-3.73718.81481a15.98041,15.98041,0,0,0,.98933,3.52165q.81174-.64175,1.559-1.357c.03709-.03761.075-.07419.1135-.10923A21.79469,21.79469,0,0,0,45.42759,99.3571c-.0282-.04821-.05333-.09795-.07709-.14769q-.1228-.232-.2499-.45928ZM11.1902,93.43544a21.7872,21.7872,0,0,0-.1911,31.69192,19.29065,19.29065,0,0,0,.9572-2.77674c.19178-.6938.3675-1.43256.52578-2.20687l-3.76129-2.25643a2.13008,2.13008,0,0,1,2.19148-3.65326l2.26634,1.35974c.18837-1.72946.308-3.537.35776-5.35742l-3.54062-.43895a2.12986,2.12986,0,1,1,.52372-4.22741l2.99861.37194c-.04478-1.22248-.12324-2.42668-.23879-3.591l-1.5375.964a2.12973,2.12973,0,0,1-2.26344-3.6083l3.10218-1.94637c-.09093-.4222-.18956-.834-.29468-1.23154a16.4909,16.4909,0,0,0-1.09565-3.09313Zm87.70325-7.7c-1.5787.48937-3.19808,1.02865-4.83643,1.60964-2.08431.73858-4.20006,1.54161-6.30112,2.3901l-1.14608-2.82426A2.12989,2.12989,0,0,0,82.66239,88.512l1.16351,2.86768C80.079,93.004,76.47254,94.73415,73.27925,96.44584L72.08548,93.5033a2.13,2.13,0,0,0-3.94743,1.60177l1.40111,3.45311a35.07526,35.07526,0,0,0-6.93835,5.087,2.13,2.13,0,1,0,3.07364,2.94955,28.716,28.716,0,0,1,5.46306-4.09717l1.43051,3.52592a2.12984,2.12984,0,1,0,3.94726-1.60126l-1.64878-4.06417c3.14509-1.69716,6.76878-3.42508,10.55229-5.05215l1.67322,4.1252a2.12992,2.12992,0,0,0,3.94743-1.60126L89.35357,93.6732c2.04431-.81909,4.10281-1.59631,6.12609-2.31318,1.70673-.60475,3.38781-1.16847,5.01557-1.676l1.739,4.28758a2.12992,2.12992,0,1,0,3.94743-1.60126l-1.57323-3.878c4.22245-1.118,7.8282-1.704,10.18257-1.445a2.12989,2.12989,0,1,0,.46561-4.23425c-2.77537-.30528-7.154.38083-12.24876,1.73425l-1.2553-3.09587a2.13013,2.13013,0,0,0-3.94794,1.6011l1.08864,2.68289Zm24.496-10.89449,11.291,26.48645q.45665-.943.86542-1.86175.44741-1.0048.83789-1.97286L128.05733,76.907a47.335,47.335,0,0,0-4.66772-2.066ZM63.95252,22.69354A65.84546,65.84546,0,0,0,48.2698,29.8376a19.613,19.613,0,0,1,3.56984,12.90966c-.16648,2.70383-1.70621,8.03946-3.17773,15.00558-2.092,9.89781-4.02008,23.247-1.06968,36.94012l.03368.04974q.80328-.853,1.65219-1.7057c.03146-.0335.06359-.06581.09726-.09726a90.23405,90.23405,0,0,1,30.95881-20.2713c.09179-13.22255-4.99181-30.9512-13.26442-45.05805-.9943-1.6957-2.03457-3.3396-3.11689-4.91694Zm70.24475,58.03334,4.24279,10.4899c.17709-.73995.315-1.436.41314-2.08089a7.28574,7.28574,0,0,0,.03692-3.2003c-.56988-1.526-2.25438-3.35431-4.69285-5.20888ZM44.7514,32.18231C30.20791,42.5365,18.944,59.04677,15.2419,79.91479A53.4053,53.4053,0,0,0,17.71814,84.677a26.08169,26.08169,0,0,1,24.62777,4.35339c-1.40178-11.996.29195-23.37367,2.1479-32.15821,1.41221-6.68341,2.93433-11.79213,3.09381-14.38606A15.65483,15.65483,0,0,0,44.7514,32.18231Zm-2.93212-3.12458A21.83626,21.83626,0,0,0,21.20065,25.541,53.51351,53.51351,0,0,0,12.50242,72.5187a77.30166,77.30166,0,0,1,29.31686-43.461Zm39.2198-9.0106a59.96077,59.96077,0,0,0-12.73266,1.49341q1.2594,1.905,2.4371,3.915c8.35535,14.24675,13.55021,32.0313,13.83806,45.71586a74.4171,74.4171,0,0,1,22.04828-3.61685c-.2687-6.87442-3.07142-13.31015-6.71494-19.37248-4.19784-6.98586-9.52518-13.47731-13.72729-19.53349A61.31828,61.31828,0,0,1,81.03891,20.047Zm4.85369.16375a68.19131,68.19131,0,0,0,3.79462,6.00918c4.25118,6.12754,9.63185,12.701,13.87857,19.768,4.072,6.77579,7.09714,14.00394,7.33029,21.701a48.47246,48.47246,0,0,1,5.37554.72542,53.54783,53.54783,0,0,0-9.27939-42.30164,55.82607,55.82607,0,0,0-21.0998-5.902ZM47.13534,6.93911a53.49861,53.49861,0,0,0-21.337,13.27861,26.49471,26.49471,0,0,1,19.6064,6.409,70.58134,70.58134,0,0,1,15.90322-7.53608C57.08562,13.71644,52.315,9.4122,47.13534,6.93928Zm36.3764,1.04395a11.45475,11.45475,0,0,0,.17571,7.205q.10281.32973.21913.66158a60.25226,60.25226,0,0,1,16.64608,2.98186A53.52875,53.52875,0,0,0,83.51156,7.98306ZM79.48482,6.57521A53.78,53.78,0,0,0,52.97666,5.37452a52.62067,52.62067,0,0,1,12.7101,12.444,64.82385,64.82385,0,0,1,13.7526-1.97585,15.222,15.222,0,0,1,.04546-9.2675Z"/></g></g></svg>