<svg xmlns="http://www.w3.org/2000/svg" viewBox="0 0 130.30966 140.02526"><defs><style>.cls-1{fill-rule:evenodd;}</style></defs><g id="Capa_2" data-name="Capa 2"><g id="Capa_1-2" data-name="Capa 1"><path class="cls-1" d="M37.89014,34.02954A15.237,15.237,0,0,0,36.44,35.56482H21.33055a4.30184,4.30184,0,0,0-4.29988,4.29955V56.68206A4.25687,4.25687,0,0,0,14.75321,60.45V78.86555A4.25691,4.25691,0,0,0,19.00866,83.121H28.311a4.25471,4.25471,0,0,0,3.6989-2.15131h1.49426a4.88137,4.88137,0,0,0,1.49938,1.74621v6.24369a15.38312,15.38312,0,0,1-1.94858,7.93657C31.29707,99.78348,15.094,120.86824,15.094,120.86824a2.25677,2.25677,0,0,0-.228.36476c-.05333.06085-.1046.12546-.15349.19212l-3.25141,4.451a2.95293,2.95293,0,0,0,.642,4.12383l7.53078,5.50083H2.26241a2.26225,2.26225,0,1,0,0,4.52449H128.04759a2.26225,2.26225,0,0,0,0-4.52449H97.77746a6.21231,6.21231,0,0,0,.23246-1.68878V67.5463A4.08429,4.08429,0,0,0,99.899,64.10208V54.20427a4.0819,4.0819,0,0,0-1.88911-3.44387V49.58a6.21275,6.21275,0,0,0-12.4255,0v.9213a4.11117,4.11117,0,0,0-1.725,1.51648H69.6665c-2.06961,0-4.33818-1.32777-6.21771-2.93758V45.23085a15.17393,15.17393,0,0,0-3.71052-9.96139,17.752,17.752,0,0,0,7.634-14.59185V19.07908h9.88755a2.26208,2.26208,0,1,0,0-4.52415H67.37161A14.6722,14.6722,0,0,0,52.70694,0H46.505A14.67242,14.67242,0,0,0,31.83926,14.66535v6.01226a17.72819,17.72819,0,0,0,6.05156,13.35193ZM93.48578,68.18625H90.10822V133.812a1.68878,1.68878,0,1,0,3.37756,0V68.18625ZM51.854,94.925a19.8424,19.8424,0,0,1-4.1293,10.55656c-2.3,2.71846-13.715,18.37691-17.51884,23.60664l1.04677.7644a4.333,4.333,0,0,1,1.20334,5.64817H63.83372v-4.25a2.93609,2.93609,0,0,1,.5251-1.68058c-.70526-4.94463-3.18-22.26519-3.45379-23.51775a9.801,9.801,0,0,0-2.93827-5.36922c-.76884-.73671-3.66095-3.45584-6.11276-5.75825ZM17.42107,125.38691,16.042,127.275l10.98936,8.02682,1.39615-1.9103-9.68278-7.07372-1.32333-.93122Zm50.9368,7.43643v2.36634H81.9662v-2.36634ZM63.44811,65.10817v13.662a4.83388,4.83388,0,0,1-.6885,2.49283c2.53179,2.6029,7.29626,7.50924,8.61515,8.92727a21.94109,21.94109,0,0,1,5.587,11.84947c.31588,1.80706,3.43225,20.24618,4.44791,26.25946h.75106a4.32288,4.32288,0,0,1,3.423,1.67989V67.80474A4.1071,4.1071,0,0,1,83.71,66.0346H67.51416a11.54646,11.54646,0,0,1-4.0664-.92643Zm-4.7026,18.51706c-.05059.00137-.10221.002-.15418.002H51.93024v5.16479c2.07234,1.94449,8.00972,7.51677,9.16554,8.6237a14.02093,14.02093,0,0,1,4.22878,7.67061c.26768,1.22179,2.608,17.52328,3.42234,23.2135h8.075c-1.12505-6.66007-4.01307-23.74475-4.31629-25.48a17.58762,17.58762,0,0,0-4.44381-9.54809c-1.45768-1.56776-7.15782-7.42993-9.31631-9.64654Zm-11.33873.002V93.389a15.20838,15.20838,0,0,1-3.13518,9.17033c-2.31267,2.73316-13.74507,18.4022-17.65148,23.769l-5.239-3.68694-1.24847-.91207c4.05888-5.30632,15.32583-20.08141,16.78658-22.48091A20.0263,20.0263,0,0,0,39.527,88.95958v-5.3323ZM58.924,64.46684a19.16853,19.16853,0,0,1-10.08343,5.4205,21.07036,21.07036,0,0,1-11.3384-.52715v9.41a.33023.33023,0,0,0,.14085.27178l12.01117.06085,9.224-.16444a.333.333,0,0,0,.04581-.16819V64.46684ZM19.27667,60.71906V78.59651H28.0419V60.71906Zm2.27814-20.62941v16.1056H28.311a4.25742,4.25742,0,0,1,4.2551,4.25511V76.44554H32.978V45.23119a15.19114,15.19114,0,0,1,.89054-5.14154ZM55.104,59.84288A14.27121,14.27121,0,0,1,49.847,62.50219,19.15512,19.15512,0,0,1,37.50213,61.84v2.55538c2.68427,1.67545,6.68537,1.86928,10.38188,1.07036,3.38678-.73226,6.61289-2.30549,8.27159-4.71969-.36852-.29946-.72064-.60167-1.0519-.90318ZM95.3742,54.64459H87.74872v9.0182H95.3742v-9.0182ZM59.60768,51.70735q-.26973-.25332-.52783-.51074c-2.46753-2.46753-4.68208-4.55628-7.087-6.96022a.574.574,0,0,0-.69021-.0294,3.43027,3.43027,0,0,0-1.18078.96951,3.83157,3.83157,0,0,0-.87242,1.84979,1.10335,1.10335,0,0,0,.24682.9719c2.76016,2.76016,4.70191,4.60516,7.043,6.92193.02256.02188.04444.04376.066.065q.482.47792.99173.9866a22.79262,22.79262,0,0,0,2.66923,2.25318c.05674.03727.11144.07624.16409.11829.59346.42492,1.21633.83379,1.84945,1.20983.03658.02051.07247.04136.10666.0629.469.27554.94284.53227,1.415.76371a9.12585,9.12585,0,0,0,3.7136,1.13155H83.22457V56.54258H69.6665c-3.31329,0-7.13594-2.13422-9.97917-4.76242-.02632-.02359-.053-.04752-.079-.07281ZM41.81193,36.64544a10.69935,10.69935,0,0,0-4.3098,8.58575V56.76684a14.07177,14.07177,0,0,0,11.11721,1.38145,10.57022,10.57022,0,0,0,3.27329-1.45256c-1.75441-1.71749-3.421-3.32422-5.59552-5.49878-2.39506-2.395-1.83236-6.25087.32339-8.88522,2.312-2.8258,6.00234-3.84317,8.57106-1.27513,1.27068,1.27171,2.48872,2.45385,3.71907,3.65036a10.68641,10.68641,0,0,0-3.367-7.26175,17.80583,17.80583,0,0,1-13.7314-.77977ZM93.48578,50.11976v-.53945a1.68878,1.68878,0,0,0-3.37756,0v.53945ZM62.84746,19.07908H36.3634v1.59853A13.23828,13.23828,0,0,0,42.75478,32.0095a2.34812,2.34812,0,0,1,.20443.12136,13.24675,13.24675,0,0,0,12.032.64543c.02256-.0106.04478-.02017.067-.02974a13.25083,13.25083,0,0,0,7.78923-12.06894V19.07908Zm-.00068-4.52415h-26.483A10.14633,10.14633,0,0,1,46.50427,4.52414h6.202A10.14582,10.14582,0,0,1,62.84644,14.55493Z"/></g></g></svg>