<svg xmlns="http://www.w3.org/2000/svg" viewBox="0 0 136.83242 129.76174"><defs><style>.cls-1{fill-rule:evenodd;}</style></defs><g id="Capa_2" data-name="Capa 2"><g id="Capa_1-2" data-name="Capa 1"><path class="cls-1" d="M29.3201,37.1493q-1.37049,1.83381-2.57021,3.79686a26.505,26.505,0,0,0-14.8453-10.0936c-2.72037-.57721-5.07706-.25154-6.62875.837-1.31979.92538-2.51477,3.02735-3.14995,5.86526-1.22634,5.47464-.70267,13.80809,1.94579,18.32A31.114,31.114,0,0,0,13.83929,65.662a18.15366,18.15366,0,0,0,5.831,2.45679q.07888,2.14032.3393,4.23342a28.3404,28.3404,0,0,0-14.42491.72927c-2.67317.9824-4.51853,2.54487-5.22754,4.305-.60223,1.495-.45936,3.90838.55409,6.63414C2.8653,89.27988,7.8451,95.98213,12.52362,98.323a31.13542,31.13542,0,0,0,13.906,2.87561,16.84707,16.84707,0,0,0,6.53783-1.412q1.33911,1.41705,2.78531,2.721a19.25043,19.25043,0,0,0-4.43458,1.794c-5.02225,2.88986-9.59369,9.24046-10.96544,14.27316-.73117,2.68363-.53983,5.05488.4581,6.66582.84934,1.37048,2.8794,2.683,5.67644,3.47879,5.39608,1.53522,13.74632,1.48643,18.4014-.90035a31.09652,31.09652,0,0,0,10.03341-8.78616,19.9229,19.9229,0,0,0,2.79672-5.15024,49.08959,49.08959,0,0,0,21.39073-.01109,19.92234,19.92234,0,0,0,2.80084,5.16133,31.08993,31.08993,0,0,0,10.03341,8.78616c4.65507,2.38678,13.00532,2.43557,18.40139.90067,2.797-.79613,4.8271-2.10863,5.67644-3.47911.99793-1.61094,1.18928-3.98251.4581-6.66582-1.37175-5.0327-5.94319-11.3833-10.96576-14.27316a19.27671,19.27671,0,0,0-4.47386-1.80481q1.447-1.30634,2.78975-2.727a16.78305,16.78305,0,0,0,6.573,1.42846,31.1353,31.1353,0,0,0,13.906-2.87529c4.67852-2.34116,9.65832-9.0434,11.61235-14.30262,1.01345-2.72544,1.15633-5.13915.55409-6.63382-.709-1.76046-2.55437-3.32261-5.22754-4.305a28.3401,28.3401,0,0,0-14.4775-.71818q.25993-2.09041.34057-4.234a18.09607,18.09607,0,0,0,5.88236-2.46757,31.11053,31.11053,0,0,0,9.76761-9.78725c2.64783-4.51188,3.17213-12.845,1.9458-18.31966-.63519-2.83791-1.83016-4.9402-3.15-5.86526-1.552-1.08853-3.90837-1.41452-6.62875-.837-5.10144,1.08283-11.7001,5.28456-14.87191,10.13384q-1.09677-1.7996-2.34116-3.49464a13.71947,13.71947,0,0,0,3.283-5.93526,30.96475,30.96475,0,0,0,.17012-15.561c-1.4104-5.03746-7.04661-11.1986-11.83949-14.11476C96.84405.369,94.50193-.22912,92.91951.07818c-1.86089.36211-3.73065,1.83238-5.20282,4.19191-2.76124,4.42572-4.31578,12.09452-3.02482,17.74309,1.17755,5.1534,5.62987,11.11877,10.34673,14.54054,2.89366,2.09817,5.91182,3.17339,8.42342,2.97159a44.19742,44.19742,0,0,1,4.56637,7.36721,2.27827,2.27827,0,0,0,.1809.37224,43.90931,43.90931,0,0,1,4.31008,18.60795c-.00317.05956-.00539.1207-.0038.18153.00063.04372.00253.08554.0057.128v.12007a44.20815,44.20815,0,0,1-1.12813,9.95135l-3.047,8.79789q-.221.469-.45145.93076-1.23885,2.40309-2.54866,4.4368a44.418,44.418,0,0,1-10.98825,11.55912c-.05322.0358-.10581.07414-.15618.11405a43.96976,43.96976,0,0,1-13.93323,6.72126l-.006.00126c-.03739.00982-.07509.02028-.11215.03168a44.38121,44.38121,0,0,1-23.289.06305,2.31567,2.31567,0,0,0-.29114-.09473c-.06558-.01615-.13116-.02978-.19674-.04023q-2.10419-.59542-4.1181-1.38917c-.73181-.30223-1.513-.63329-2.2816-.97322a44.12017,44.12017,0,0,1-7.13626-4.13489,2.29583,2.29583,0,0,0-.60668-.43972,44.44974,44.44974,0,0,1-6.8353-6.241,2.26088,2.26088,0,0,0-.26009-.351,43.653,43.653,0,0,1-6.2112-9.28988,2.26489,2.26489,0,0,0-.22557-.35419l-.026-.05385-.05006-.103-3.32958-9.6146-.02218-.10138-.01172-.05385a2.28765,2.28765,0,0,0-.18628-.90415,44.23648,44.23648,0,0,1-.81227-8.2457,2.3747,2.3747,0,0,0,.05639-.47077,2.29811,2.29811,0,0,0-.05038-.52462,44.35642,44.35642,0,0,1,.35546-4.90123c.22112-1.41452.49642-2.95861.81227-4.31325.35957-1.53839.87723-3.27319,1.36-4.77641Q27.528,49.47256,28.459,47.503l.00127-.00127a2.32624,2.32624,0,0,0,.429-.88419,44.19656,44.19656,0,0,1,4.47925-7.15591c2.61012.41533,5.85607-.65767,8.95819-2.90791,4.71748-3.42177,9.16885-9.38682,10.3464-14.54054,1.29129-5.64825-.26262-13.31737-3.02386-17.74277C48.1761,1.91056,46.30634.44029,44.44577.0785,42.864-.22912,40.52092.369,38.03656,1.88078,33.24463,4.79725,27.60842,10.9584,26.19739,15.99586a30.96714,30.96714,0,0,0,.1698,15.56064,14.18336,14.18336,0,0,0,2.95291,5.5928Zm67.30282,69.1786a17.87453,17.87453,0,0,1,6.58534,1.98064,21.65428,21.65428,0,0,1,8.20991,9.76255,10.927,10.927,0,0,1,.87532,3.17466,2.55887,2.55887,0,0,1-.2018,1.55993,3.077,3.077,0,0,1-1.39235.89655,16.37267,16.37267,0,0,1-3.64036,1.03024c-4.26984.76254-9.7505.64184-13.00627-1.02707a26.15674,26.15674,0,0,1-8.4136-7.40523,16.03394,16.03394,0,0,1-2.00726-3.47056c1.02359-.36527,2.29459-.88165,3.6448-1.48263a57.49444,57.49444,0,0,0,9.34627-5.01908Zm-56.41373,0a57.49426,57.49426,0,0,0,9.34626,5.01908c1.35021.601,2.62122,1.11736,3.6448,1.48263a16.03429,16.03429,0,0,1-2.00725,3.47056,26.15449,26.15449,0,0,1-8.41392,7.40523c-3.25545,1.66891-8.73611,1.78961-13.00659,1.02707a16.37677,16.37677,0,0,1-3.63973-1.03024,3.07688,3.07688,0,0,1-1.39234-.89655,2.55872,2.55872,0,0,1-.2018-1.55993,10.94358,10.94358,0,0,1,.87469-3.17466,21.65949,21.65949,0,0,1,8.21053-9.76255,17.87458,17.87458,0,0,1,6.58535-1.98064Zm-19.31-28.96481a23.58453,23.58453,0,0,0-11.91616-.467,11.45852,11.45852,0,0,0-3.18734,1.16139,2.49331,2.49331,0,0,0-1.15062,1.05685,3.07386,3.07386,0,0,0,.10137,1.65243,16.42925,16.42925,0,0,0,1.32233,3.54437c1.9119,3.89381,5.2513,8.24064,8.52322,9.87755A26.14724,26.14724,0,0,0,26.2693,96.57835a14.81528,14.81528,0,0,0,3.53487-.48756,48.5699,48.5699,0,0,1-8.905-18.7277Zm88.29945,15.61038q-1.07349,1.66416-2.191,3.11162a14.76593,14.76593,0,0,0,3.55546.49326,26.14724,26.14724,0,0,0,11.67729-2.38963c3.27129-1.63691,6.61132-5.98406,8.52258-9.87755a16.40024,16.40024,0,0,0,1.323-3.54437,3.07022,3.07022,0,0,0,.10106-1.65243,2.49238,2.49238,0,0,0-1.15031-1.05685,11.4571,11.4571,0,0,0-3.18765-1.16139,23.56821,23.56821,0,0,0-11.94752.47742c-.05925.22778-.12609.47361-.19864.73371a48.41725,48.41725,0,0,1-2.80876,8.11929,13.82268,13.82268,0,0,1-1.016,2.13841l-.02091.02661a48.7024,48.7024,0,0,1-2.65859,4.5819ZM71.116,28.52407a2.31184,2.31184,0,0,0-4.39688,0l-7.301,22.47134H35.79044a2.31164,2.31164,0,0,0-1.35876,4.18178L53.54715,69.0648l-7.302,22.471a2.31186,2.31186,0,0,0,3.55768,2.58383L68.91739,80.232,88.03254,94.11965a2.31121,2.31121,0,0,0,3.55672-2.58383l-7.301-22.471c4.57207-3.322,19.11514-13.88761,19.11514-13.88761a2.31164,2.31164,0,0,0-1.35844-4.18178H78.41731L71.116,28.52407Zm-2.1986,8.19438L74.539,54.02086a2.31214,2.31214,0,0,0,2.19891,1.59732H94.93057L80.2123,66.3118a2.31074,2.31074,0,0,0-.83952,2.58415l5.62195,17.30241L70.27583,75.50474a2.31228,2.31228,0,0,0-2.7172,0L52.84037,86.19836,58.46232,68.896a2.31061,2.31061,0,0,0-.83952-2.58415L42.90453,55.61818H61.09715a2.31067,2.31067,0,0,0,2.198-1.59732l5.62195-17.30241ZM21.70261,52.22682a41.18631,41.18631,0,0,1,2.038-6.13771c.083-.17455.16885-.33676.255-.4866A12.89956,12.89956,0,0,0,22.909,43.51859,21.65487,21.65487,0,0,0,12.69532,35.877,10.96974,10.96974,0,0,0,9.476,35.18387a2.5602,2.5602,0,0,0-1.54631.29082,3.0765,3.0765,0,0,0-.81544,1.44081,16.438,16.438,0,0,0-.8221,3.69264c-.51829,4.30659-.08554,9.77078,1.76616,12.92675a26.1524,26.1524,0,0,0,8.22226,8.20167,15.70443,15.70443,0,0,0,3.213,1.58432c.04942-.6279.13052-1.32106.24584-2.05984.16473-1.05368.38143-2.22426.63392-3.44141a48.35394,48.35394,0,0,1,1.32929-5.59281Zm95.63594,11.09406c-.04943-.6279-.13053-1.32106-.24584-2.05984-.77015-4.931-2.68553-12.42082-4.0012-15.17161q-.12546-.26184-.255-.48661a12.91752,12.91752,0,0,1,1.08663-2.08423A21.657,21.657,0,0,1,124.13678,35.877a10.97791,10.97791,0,0,1,3.21934-.69316,2.56015,2.56015,0,0,1,1.5463.29082,3.07612,3.07612,0,0,1,.81545,1.44113,16.43537,16.43537,0,0,1,.8221,3.69232c.51828,4.30659.08553,9.7711-1.76617,12.92675a26.149,26.149,0,0,1-8.22226,8.20167,15.70436,15.70436,0,0,1-3.213,1.58432Zm-13.7384-28.51242c1.49276-.58767,2.33514-2.41941,2.9624-4.55528a25.89864,25.89864,0,0,0,.154-13.01039C105.72937,13.71964,102.095,9.6158,98.63492,7A16.44469,16.44469,0,0,0,95.4064,5.02883a3.085,3.085,0,0,0-1.604-.41279,2.56126,2.56126,0,0,0-1.2821.91176,10.966,10.966,0,0,0-1.73543,2.79893,21.64957,21.64957,0,0,0-1.58623,12.65621c.9634,4.21536,4.696,9.02947,8.55427,11.8284a12.6009,12.6009,0,0,0,3.56908,1.90113,3.53483,3.53483,0,0,0,2.22363.1169l.01362-.00539.02661-.01014.01426-.00538Zm-69.932-.04023c.0415.018.083.03484.12451.051h0a3.49826,3.49826,0,0,0,2.24992-.10708A12.59973,12.59973,0,0,0,39.61233,32.811c3.85864-2.79862,7.59056-7.61305,8.554-11.82809A21.65274,21.65274,0,0,0,46.58006,8.32642,10.93151,10.93151,0,0,0,44.8443,5.52748,2.55781,2.55781,0,0,0,43.56316,4.616a3.079,3.079,0,0,0-1.604.41248A16.42876,16.42876,0,0,0,38.73,6.99965c-3.4601,2.61583-7.09476,6.71967-8.0816,10.24282a25.89875,25.89875,0,0,0,.154,13.01039c.582,1.98032,1.348,3.699,2.64624,4.40734a2.1973,2.1973,0,0,1,.21954.108Z"/></g></g></svg>