<svg xmlns="http://www.w3.org/2000/svg" viewBox="0 0 153.40712 153.76814"><defs><style>.cls-1{fill-rule:evenodd;}</style></defs><g id="Capa_2" data-name="Capa 2"><g id="Tecnología"><path class="cls-1" d="M97.39788,151.118a2.45062,2.45062,0,0,0,2.43468,2.45058s31.85282.19954,36.36618.19954a17.49408,17.49408,0,0,0,17.20838-17.20839V20.54121a20.30691,20.30691,0,0,0-6.70121-14.49175C142.74391,2.29955,137.57713,0,132.86591,0H17.7564A17.4702,17.4702,0,0,0,0,17.75681V136.55934c0,5.89885,2.03475,10.11477,5.13373,12.89164a17.53722,17.53722,0,0,0,11.87511,4.11762H73.31593a2.4501,2.4501,0,0,0,2.45015-2.45058V91.75211A2.44974,2.44974,0,0,0,73.31593,89.302H57.48887V71.79782H73.31593a2.44974,2.44974,0,0,0,2.45015-2.45016V52.83831c0-10.66405,11.31957-21.42849,24.08237-21.42849h20.54414V50.38773H99.84845a2.44983,2.44983,0,0,0-2.45015,2.45058V69.34766a2.45028,2.45028,0,0,0,2.45015,2.45016h20.54414V89.302H99.84845a2.44947,2.44947,0,0,0-2.45015,2.45015V151.118Zm4.90031-2.43551V94.20268h20.54414a2.44929,2.44929,0,0,0,2.45015-2.45057V69.34766a2.45046,2.45046,0,0,0-2.45015-2.451H102.29819V55.28888h20.54414a2.44956,2.44956,0,0,0,2.45015-2.45057V28.95925a2.44982,2.44982,0,0,0-2.45015-2.45057H99.84762c-15.50286,0-28.98268,13.37649-28.98268,26.32963V66.89667H55.03746a2.4501,2.4501,0,0,0-2.45015,2.45057V91.75211a2.4501,2.4501,0,0,0,2.45015,2.45057H70.86494V148.667H17.00759a12.68116,12.68116,0,0,1-8.605-2.866c-2.20585-1.977-3.50225-5.04-3.50225-9.24172V17.75681A12.64767,12.64767,0,0,1,17.75556,4.90114H132.86507c3.58132,0,7.45965,1.857,10.46994,4.70788a15.37787,15.37787,0,0,1,5.16971,10.93219V136.55975A12.51075,12.51075,0,0,1,136.1979,148.867c-3.74781,0-26.37105-.138-33.90013-.18449h.00042Z"/></g></g></svg>