<svg xmlns="http://www.w3.org/2000/svg" viewBox="0 0 169.42935 124.75822"><defs><style>.cls-1{fill-rule:evenodd;}</style></defs><g id="Capa_2" data-name="Capa 2"><g id="Capa_1-2" data-name="Capa 1"><path class="cls-1" d="M30.31048,33.62006l-5.37822,6.72877-11.2222,6.75111-4.656-14.667,3.55073-13.046a2.45,2.45,0,1,0-4.728-1.28685l-3.741,13.74254a2.45629,2.45629,0,0,0,.029,1.38447L9.81021,51.013.02336,121.97223a2.44947,2.44947,0,1,0,4.85289.67011l9.7033-70.34784,13.254-7.97343a2.4588,2.4588,0,0,0,.65191-.56918l5.31037-6.64562,5.092,5.09114a6.938,6.938,0,0,0,9.80919,0L63.50138,27.39387a6.94046,6.94046,0,0,0,0-9.81l-6.86816-6.86817L59.1548,8.19411A2.45006,2.45006,0,0,0,55.6901,4.729L53.16852,7.251l-5.2202-5.22021a6.93973,6.93973,0,0,0-9.81,0l-14.80354,14.804a6.939,6.939,0,0,0,0,9.81l6.97572,6.9753ZM116.25937,7.251l-2.52076-2.522a2.45005,2.45005,0,0,0-3.46469,3.46511l2.52076,2.52158-6.86735,6.86817a6.94048,6.94048,0,0,0,0,9.81L120.7317,42.19741a6.938,6.938,0,0,0,9.80919,0l5.09115-5.09114,5.312,6.64562a2.439,2.439,0,0,0,.65025.56918l13.254,7.97343,9.70329,70.34784a2.45029,2.45029,0,1,0,4.85454-.67011L159.61768,51.013l5.64543-17.78592a2.45629,2.45629,0,0,0,.02895-1.38447l-3.74018-13.74254a2.45,2.45,0,1,0-4.728,1.28685l3.55073,13.046-4.65517,14.667-11.223-6.75111-5.37905-6.72877,6.97655-6.97571a6.94049,6.94049,0,0,0,0-9.81L131.28959,2.03079a6.938,6.938,0,0,0-9.80919,0l-5.221,5.22021ZM48.34624,95.74215a25.82479,25.82479,0,0,0-25.81229,23.256H20.15962a2.45044,2.45044,0,0,0,0,4.90087h4.35651a2.55039,2.55039,0,0,0,.704,0h46.751a2.55032,2.55032,0,0,0,.704,0h25.7577a2.55032,2.55032,0,0,0,.704,0h46.751a2.55032,2.55032,0,0,0,.704,0h2.43058a2.45044,2.45044,0,1,0,0-4.90087h-.44839A25.8341,25.8341,0,0,0,122.512,95.74132c-.407,0-.81322.00869-1.21611.02648a62.0181,62.0181,0,0,0-7.37861-35.24755,2.4564,2.4564,0,0,0-2.85995-1.14,3.18168,3.18168,0,0,0-1.619,1.40805c-.74126,1.169-2.85,4.86943-4.98112,8.63567A96.59632,96.59632,0,0,0,98.533,38.00057c-1.80515-4.84214-3.71288-8.34323-5.05061-9.79264-1.58013-1.71167-3.20079-1.62977-4.17782-1.12512-.74208.38221-1.77205,1.43328-1.89036,3.741-.388,7.571-4.56747,12.79281-9.178,17.61385-5.20945,5.446-10.95581,10.43461-13.80583,16.94043a24.14136,24.14136,0,0,0-1.88788,10.84123c-.211-.49141-.40454-.99316-.5791-1.49864-1.83741-5.2839-1.81921-11.13781-1.90525-12.708a3.13418,3.13418,0,0,0-.63867-1.88043,2.459,2.459,0,0,0-3.61195-.13981c-2.89717,2.89634-5.11928,7.62017-6.4661,13.19156a62.30983,62.30983,0,0,0-.99606,22.559Zm2.59025,5.02083a22.44328,22.44328,0,0,0-2.3404-.122,20.97817,20.97817,0,0,0-21.134,18.35676H69.73006a20.88924,20.88924,0,0,0-18.62315-18.21653c-.05625-.00414-.11334-.00993-.17042-.0182Zm49.85916,6.22826a21.48051,21.48051,0,0,0-15.38182-6.34987,21.81451,21.81451,0,0,0-9.90018,2.34371c-.048.0273-.09763.053-.14809.07611a21.04487,21.04487,0,0,0-5.16643,3.76335,25.31092,25.31092,0,0,1,4.4591,12.17358H96.45237a25.3052,25.3052,0,0,1,4.34328-12.00647Zm42.85118,12.00647a20.97843,20.97843,0,0,0-21.134-18.35676,22.27311,22.27311,0,0,0-3.63925.29741c-.02648.005-.05295.0091-.08025.01324a20.8446,20.8446,0,0,0-17.41447,18.04652h42.26794ZM116.2784,96.46107c1.29884-9.44063-.52451-20.5255-4.68-29.6865-2.68869,4.6837-6.9633,12.32994-8.09338,14.27242a4.18688,4.18688,0,0,1-1.03163,1.26244,2.4511,2.4511,0,0,1-3.77659-2.48808c2.77639-14.787-1.56109-32.43724-5.54946-42.1455-.44012-1.07092-.87445-2.04175-1.29306-2.89469-1.37413,6.9629-5.45929,12.21578-10.07557,17.04261-4.80408,5.02331-10.22945,9.52046-12.85858,15.5208-3.46883,7.91386.00827,16.04282.00827,16.04282a2.44975,2.44975,0,0,1-3.286,3.18342c-4.19933-1.95158-6.79867-5.90479-8.306-10.24186a37.23736,37.23736,0,0,1-1.62976-7.08327,36.49881,36.49881,0,0,0-1.60246,5.0895,56.94289,56.94289,0,0,0-.733,21.82434,26.18217,26.18217,0,0,1,13.63871,6.9298,25.97325,25.97325,0,0,1,3.8105-3.04153,6.17319,6.17319,0,0,1-.19193-5.73023c8.24478-16.06764,9.75128-24.808,9.75128-24.808a2.44931,2.44931,0,0,1,3.63842-1.71746s5.99621,3.12054,7.60115,16.62358c.45667-1.06761.757-1.77536.757-1.77536a2.45118,2.45118,0,0,1,4.02477-.73464,28.57449,28.57449,0,0,1,5.63385,9.2578,15.13179,15.13179,0,0,1,.1241,10.45282q.93814.76255,1.80266,1.60867a26.12874,26.12874,0,0,1,12.31836-6.76435ZM97.90013,98.8052a10.87491,10.87491,0,0,0-.498-6.04047,20.54892,20.54892,0,0,0-2.16419-4.35982c-1.2914,3.00886-2.9526,6.84914-3.44153,7.85885-.03557.0728-.072.14229-.10837.20723a26.37649,26.37649,0,0,1,6.21212,2.33421ZM87.02126,95.78765a2.64615,2.64615,0,0,1-.01655-.48065c.57911-10.98477-1.31208-17.03475-3.01961-20.19169a131.2864,131.2864,0,0,1-8.99761,21.44007,1.25636,1.25636,0,0,0,.10341,1.09781c.01572.03723.03226.07446.05046.11169a26.80285,26.80285,0,0,1,10.27247-2.02356q.81033,0,1.60743.04633ZM35.347,31.72722l7.0055,7.0055a2.03921,2.03921,0,0,0,2.88063,0L60.03669,23.92835a2.0382,2.0382,0,0,0,0-2.8798L44.48362,5.49549a2.03843,2.03843,0,0,0-2.88062,0L26.79946,20.299a2.03769,2.03769,0,0,0,0,2.88062l8.5062,8.50621.04136.04136Zm98.77521-.04136,8.507-8.50621a2.03919,2.03919,0,0,0,0-2.88062L127.82407,5.49549a2.03571,2.03571,0,0,0-2.879,0L109.3912,21.04814a2.0387,2.0387,0,0,0,0,2.88021l14.8052,14.804a2.03646,2.03646,0,0,0,2.879,0l7.0055-7.00509c.01323-.01324.0273-.02813.04136-.04136Z"/></g></g></svg>