<svg xmlns="http://www.w3.org/2000/svg" viewBox="0 0 154.35221 112.11183"><defs><style>.cls-1{fill-rule:evenodd;}</style></defs><g id="Capa_2" data-name="Capa 2"><g id="Capa_1-2" data-name="Capa 1"><path class="cls-1" d="M35.35164,79.593c-15.59092.13985-28.3552,11.63877-29.78523,26.83543H2.82664a2.8276,2.8276,0,0,0,0,5.6552H7.85369a2.94366,2.94366,0,0,0,.81239,0H62.61284a2.94359,2.94359,0,0,0,.81238,0H93.14744a2.94366,2.94366,0,0,0,.81239,0h53.94675a2.94366,2.94366,0,0,0,.81239,0h2.80468a2.8276,2.8276,0,1,0,0-5.6552h-.5174c-1.43957-15.28926-14.35182-26.83639-30.07352-26.83639-.46968,0-.9384.01-1.4033.03055a71.5636,71.5636,0,0,0-8.51429-40.67271,2.83445,2.83445,0,0,0-3.30014-1.31547,3.67136,3.67136,0,0,0-1.8682,1.62477c-.85534,1.34888-3.28868,5.61891-5.74779,9.96484a111.464,111.464,0,0,0-6.83606-36.26C91.18,7.37668,88.9786,3.33671,87.435,1.66421,85.61164-.3109,83.74153-.2164,82.61412.36592c-.8563.441-2.04481,1.65389-2.18132,4.31681-.44772,8.73625-5.27048,14.76183-10.5906,20.3249-6.01126,6.28429-12.64208,12.04068-15.93076,19.54784A27.85679,27.85679,0,0,0,51.733,57.06534c-.24343-.56705-.46682-1.146-.66824-1.7293-2.12022-6.09718-2.09922-12.8521-2.1985-14.664a3.61659,3.61659,0,0,0-.737-2.16986,2.83754,2.83754,0,0,0-4.16789-.16133c-3.34309,3.34214-5.90721,8.793-7.46134,15.222A71.90038,71.90038,0,0,0,35.35068,79.594Zm2.98893,5.79361a25.89659,25.89659,0,0,0-2.70064-.14081A24.207,24.207,0,0,0,11.25311,106.428H60.02676A24.10443,24.10443,0,0,0,38.53722,85.40765c-.06492-.00477-.13079-.01145-.19665-.021Zm57.53328,7.18689a24.78676,24.78676,0,0,0-17.74933-7.32722,25.17213,25.17213,0,0,0-11.424,2.70445c-.05537.0315-.11265.0611-.17088.08783A24.28386,24.28386,0,0,0,60.568,92.38118a29.20665,29.20665,0,0,1,5.14542,14.04729H90.86207A29.2,29.2,0,0,1,95.87385,92.574ZM145.32051,106.428a24.20735,24.20735,0,0,0-24.38683-21.18216,25.69989,25.69989,0,0,0-4.19939.34319c-.03055.00573-.06109.0105-.0926.01527a24.05294,24.05294,0,0,0-20.09483,20.82417h48.77365ZM113.73964,80.4226c1.49876-10.89369-.60524-23.6847-5.40031-34.25572-3.10253,5.4046-8.03507,14.22771-9.33909,16.46917a4.83142,4.83142,0,0,1-1.19042,1.45676,2.82836,2.82836,0,0,1-4.35785-2.871c3.20371-17.06295-1.80138-37.42985-6.40362-48.63236-.50786-1.23576-1.009-2.356-1.49208-3.34023-1.58563,8.03459-6.29956,14.096-11.62637,19.66573C68.3864,34.71139,62.126,39.90072,59.09218,46.82461c-4.00274,9.13194.00955,18.51207.00955,18.51207A2.82681,2.82681,0,0,1,55.31,69.01007c-4.84567-2.25195-7.8451-6.81362-9.58442-11.81824a42.96782,42.96782,0,0,1-1.88061-8.17349,42.11739,42.11739,0,0,0-1.84911,5.87284A65.70762,65.70762,0,0,0,41.15,80.07464,30.21211,30.21211,0,0,1,56.888,88.07105a29.97067,29.97067,0,0,1,4.397-3.50967,7.12336,7.12336,0,0,1-.22147-6.61221c9.51378-18.5407,11.25215-28.62631,11.25215-28.62631a2.82631,2.82631,0,0,1,4.19844-1.9818s6.91912,3.60085,8.77109,19.18222c.52695-1.23194.87348-2.04862.87348-2.04862a2.82844,2.82844,0,0,1,4.64424-.84771,32.97254,32.97254,0,0,1,6.501,10.68272,17.46075,17.46075,0,0,1,.1432,12.06167q1.08254.87993,2.08012,1.85627a30.15045,30.15045,0,0,1,14.21435-7.80548Zm-21.207,2.70493a12.54879,12.54879,0,0,0-.57468-6.97019,23.71183,23.71183,0,0,0-2.4973-5.03086c-1.49017,3.472-3.407,7.90333-3.97123,9.06845-.041.084-.08306.16419-.12506.23913a30.43661,30.43661,0,0,1,7.16827,2.69347Zm-12.5533-3.482a3.05348,3.05348,0,0,1-.0191-.55464c.66824-12.67549-1.514-19.65666-3.48437-23.2995a151.49475,151.49475,0,0,1-10.38249,24.74,1.44975,1.44975,0,0,0,.11932,1.26679c.01814.043.03723.08591.05824.12887a30.92835,30.92835,0,0,1,11.85356-2.335q.93505,0,1.85484.05346Z"/></g></g></svg>