<svg xmlns="http://www.w3.org/2000/svg" viewBox="0 0 125.71061 136.07247"><defs><style>.cls-1{fill-rule:evenodd;}</style></defs><g id="Capa_2" data-name="Capa 2"><g id="Capa_1-2" data-name="Capa 1"><path class="cls-1" d="M53.61382,42.19356,36.8179,19.03106A2.17261,2.17261,0,1,0,33.3,21.5816L50.0958,44.7441a2.17261,2.17261,0,1,0,3.51791-2.55054Z"/><path class="cls-1" d="M89.29892,39.87993,87.61728,38.6655a2.17252,2.17252,0,0,0-2.54352,3.52277l1.68153,1.21443a2.17255,2.17255,0,0,0,2.54363-3.52277Z"/><path class="cls-1" d="M99.07,100.22594l1.31009,1.60811a2.17257,2.17257,0,1,0,3.3688-2.74436l-1.31053-1.60811A2.1724,2.1724,0,1,0,99.07,100.22594Z"/><path class="cls-1" d="M89.73321,76.41557l1.7988,2.20782A2.17257,2.17257,0,1,0,94.9008,75.879L93.102,73.67078a2.17271,2.17271,0,1,0-3.36879,2.74479Z"/><path class="cls-1" d="M61.0158,92.45155l1.79869,2.20825A2.17271,2.17271,0,0,0,66.18328,91.915l-1.79869-2.20782a2.17257,2.17257,0,1,0-3.36879,2.74436Z"/><path class="cls-1" d="M109.27339,106.16482l1.32542,2.52063a2.17262,2.17262,0,0,0,3.84606-2.0221l-1.32543-2.52095a2.17269,2.17269,0,1,0-3.846,2.02242Z"/><path class="cls-1" d="M88.55366,117.96127l1.71825,2.27163a2.17255,2.17255,0,0,0,3.46522-2.62148l-1.71825-2.27153a2.17252,2.17252,0,0,0-3.46522,2.62138Z"/><path class="cls-1" d="M61.38238,76.14185l1.64968,1.25772a2.17248,2.17248,0,1,0,2.63477-3.455l-1.64925-1.25783a2.17263,2.17263,0,1,0-2.63509,3.45507Z"/><path class="cls-1" d="M114.04773,84.5844l.88628,1.87525a2.17251,2.17251,0,0,0,3.92876-1.85581l-.88585-1.87568a2.1728,2.1728,0,0,0-3.92919,1.85624Z"/><path class="cls-1" d="M45.28572,91.0121l.98724,1.82439a2.17257,2.17257,0,0,0,3.82165-2.06767l-.98713-1.82439a2.17262,2.17262,0,0,0-3.82176,2.06767Z"/><path class="cls-1" d="M75.10753,105.87393l1.41267,1.51881a2.1726,2.1726,0,0,0,3.18167-2.95934l-1.41267-1.51871a2.17256,2.17256,0,1,0-3.18167,2.95924Z"/><path class="cls-1" d="M103.83876,42.02318l-1.68153-1.21443a2.17268,2.17268,0,1,0-2.54406,3.52277l1.68164,1.21443a2.17265,2.17265,0,1,0,2.54395-3.52277Z"/><path class="cls-1" d="M106.27517,87.48447l-2.10794-3.15878a2.17264,2.17264,0,0,0-3.61423,2.41222l2.10783,3.15824a2.17254,2.17254,0,1,0,3.61434-2.41168Z"/><path class="cls-1" d="M76.48878,121.51492l-2.83549-2.52624a2.17262,2.17262,0,0,0-2.89024,3.24462l2.83549,2.52581a2.17241,2.17241,0,0,0,2.89024-3.24408Z"/><path class="cls-1" d="M107.14655,66.06764l-2.83549-2.52625a2.1728,2.1728,0,1,0-2.89078,3.24462l2.83549,2.52582a2.17259,2.17259,0,1,0,2.89078-3.24408Z"/><path class="cls-1" d="M108.3004,121.63l-1.97794-3.24192a2.17261,2.17261,0,0,0-3.70935,2.26311l1.97793,3.24192A2.17261,2.17261,0,0,0,108.3004,121.63Z"/><path class="cls-1" d="M66.95154,45.83965l1.31,1.60811a2.17275,2.17275,0,0,0,3.3689-2.7448l-1.31052-1.60811a2.17255,2.17255,0,1,0-3.36837,2.7448Z"/><path class="cls-1" d="M110.44505,57.94567l1.05,1.78854a2.17262,2.17262,0,0,0,3.74693-2.20037l-1.05041-1.78854a2.17243,2.17243,0,1,0-3.7465,2.20037Z"/><path class="cls-1" d="M52.80658,54.64058l1.31052,1.60811a2.17257,2.17257,0,1,0,3.3688-2.74436l-1.31053-1.60811a2.17257,2.17257,0,1,0-3.36879,2.74436Z"/><path class="cls-1" d="M73.63612,64.61523l1.31041,1.60811A2.17241,2.17241,0,1,0,78.3149,63.479l-1.31-1.60811a2.17257,2.17257,0,1,0-3.36879,2.74436Z"/><path class="cls-1" d="M91.532,57.42781l1.31,1.60822a2.17257,2.17257,0,0,0,3.3688-2.74436l-1.31-1.60822A2.17257,2.17257,0,0,0,91.532,57.42781Z"/><path class="cls-1" d="M42.09865,69.16271l1.31009,1.60811a2.17271,2.17271,0,1,0,3.3688-2.74479l-1.31009-1.60757a2.17257,2.17257,0,1,0-3.3688,2.74436Z"/><path class="cls-1" d="M79.94385,89.25832l1.31,1.60822a2.17257,2.17257,0,0,0,3.3688-2.74436l-1.31-1.60822a2.17257,2.17257,0,0,0-3.36879,2.74436Z"/><path class="cls-1" d="M34.12321,83.64413l.98724,1.82439A2.17254,2.17254,0,1,0,38.9321,83.401l-.98724-1.82439a2.17254,2.17254,0,1,0-3.82165,2.06755Z"/><path class="cls-1" d="M52.01888,109.021l.98713,1.82439a2.1727,2.1727,0,0,0,3.82177-2.068l-.98714-1.82395a2.17259,2.17259,0,1,0-3.82176,2.06755Z"/><path class="cls-1" d="M100.44211,136.07247c7.807,0,13.58629-4.85846,17.59377-12.10732,5.55664-10.05218,7.67473-24.77234,7.67473-35.598,0-14.9454-2.08753-30.03279-7.86326-41.39258-6.00431-11.8106-15.906-19.71672-31.44363-19.71672C73.15216,27.25788,53.133,37.39,39.287,51.33711,29.90722,60.78548,23.4061,71.96365,23.4061,82.77643c0,12.48545,6.86328,23.64267,17.47262,32.47622,15.48194,12.89015,38.95121,20.81982,59.56317,20.81982Zm0-4.34492c-19.64589,0-42.02642-7.528-56.78307-19.81443-9.55019-7.95126-15.90727-17.89752-15.90727-29.13669,0-9.80006,6.1179-19.81488,14.61888-28.37783,12.975-13.06972,31.61564-22.79538,44.03307-22.79538,13.63531,0,22.30084,6.97568,27.57015,17.34035,5.49833,10.815,7.39183,25.196,7.39183,39.42361,0,10.18079-1.90711,24.04263-7.13268,33.49586-3.18167,5.75489-7.593,9.86451-13.791,9.86451Z"/><path class="cls-1" d="M82.24723,4.562a21.19228,21.19228,0,0,1,.78769,3.4772c.762,6.62443.095,17.34165-.75238,20.1157l-.01987.05928a2.17248,2.17248,0,0,0,3.33608,2.75278,6.49855,6.49855,0,0,0,1.18656-3.04238,88.79883,88.79883,0,0,0,.56613-20.38186A13.90562,13.90562,0,0,0,85.5792,1.47152,3.29773,3.29773,0,0,0,82.85827,0c-1.17382,0-3.08006.77485-5.237,2.2915a78.27143,78.27143,0,0,0-12.938,12.36118A2.17284,2.17284,0,1,0,68.03057,17.424a73.22774,73.22774,0,0,1,12.09-11.5779A14.92248,14.92248,0,0,1,82.098,4.63591l.14912-.07385Z"/><path class="cls-1" d="M69.31625,35.252c1.01856-2.36438,1.34638-5.96932,1.02212-9.945a44.76344,44.76344,0,0,0-4.536-16.40051,14.43608,14.43608,0,0,0-3.80222-4.74746A6.14164,6.14164,0,0,0,58.32651,2.854c-2.58423,0-5.33345,1.79081-7.6987,4.82746-4.6966,6.02958-8.15912,16.87691-7.61556,21.97939.25969,2.43652,2.352,8.01713,4.51077,11.74635a12.5027,12.5027,0,0,0,3.111,3.85891,2.17254,2.17254,0,1,0,2.44137-3.59436c-.79223-.53773-1.67581-2.12112-2.58908-3.91376-1.54938-3.04151-2.96334-6.773-3.15349-8.55755-.40114-3.76648,1.89177-11.11673,5.073-16.41822a18.63831,18.63831,0,0,1,3.31535-4.25076A4.17318,4.17318,0,0,1,58.32661,7.1993a2.32089,2.32089,0,0,1,1.48038.77755,11.57983,11.57983,0,0,1,2.17467,2.99908A40.08924,40.08924,0,0,1,66.0076,25.66c.25656,3.14279.123,6.00388-.682,7.873a2.17256,2.17256,0,1,0,3.99063,1.719Z"/><path class="cls-1" d="M53.61868,42.20058c-1.7284-2.40369-6.8433-6.773-12.35243-9.8495C37.454,30.22187,33.45213,28.7403,30.24972,28.7403c-3.64608,0-11.49271,1.72581-15.87325,4.54262-2.48306,1.59667-3.8845,3.63021-3.8845,5.697a9.13575,9.13575,0,0,0,1.58673,4.72251A28.50122,28.50122,0,0,0,18.00743,50.077a48.88383,48.88383,0,0,0,12.08465,7.32931,15.97418,15.97418,0,0,0,7.46309,1.45079,2.17257,2.17257,0,0,0-.57185-4.30734A11.66533,11.66533,0,0,1,31.717,53.37638a44.29114,44.29114,0,0,1-10.94235-6.64959,24.08083,24.08083,0,0,1-5.015-5.33345,4.85522,4.85522,0,0,1-.923-2.41341c0-.42457.32555-.76426.702-1.12739a10.99777,10.99777,0,0,1,2.86292-1.835,33.05813,33.05813,0,0,1,11.84817-2.93192c2.59935,0,5.804,1.33082,8.89823,3.05879,4.85132,2.70938,9.42094,6.47628,10.94321,8.593a2.17254,2.17254,0,1,0,3.52763-2.53683Z"/><path class="cls-1" d="M27.92669,67.37946c-1.149.53384-3.42591.509-6.1003.25871A44.42138,44.42138,0,0,1,7.95828,64.08625a11.35289,11.35289,0,0,1-2.93268-1.8881c-.36442-.353-.68015-.66957-.68015-1.06455,0-1.92395,1.74352-3.77933,3.83537-5.47587,3.58324-2.90579,8.52753-5.16619,11.1095-5.16619a2.17251,2.17251,0,1,0,0-4.345c-3.19193,0-9.41706,2.54438-13.8463,6.13615C2.19238,54.91959,0,58.14338,0,61.1336a5.46057,5.46057,0,0,0,1.37564,3.51122,14.07924,14.07924,0,0,0,4.69605,3.35551A49.62609,49.62609,0,0,0,23.834,72.11622a14.30483,14.30483,0,0,0,5.9243-.79655,2.17252,2.17252,0,0,0-1.83141-3.94021Z"/></g></g></svg>