<svg xmlns="http://www.w3.org/2000/svg" viewBox="0 0 157.74854 122.56592"><g id="Capa_2" data-name="Capa 2"><g id="Capa_1-2" data-name="Capa 1"><path d="M78.87695,72.24561a18.40572,18.40572,0,0,1-13.80517-6.23389L12.05859,5.85938c-.08984-.07862-.16357-.14649-.23486-.21876L9.2124,3.001l3.42822-1.42627A20.42756,20.42756,0,0,1,20.52783,0h116.6958a20.37882,20.37882,0,0,1,8.21729,1.72168l4.59814,2.0127L145.6626,6.19189a3.11373,3.11373,0,0,0-.82715.64112L92.68066,66.01172A18.41253,18.41253,0,0,1,78.87695,72.24561ZM18.12842,5.18457,68.82324,62.70605a13.40122,13.40122,0,0,0,20.10694-.001L139.62256,5.186A15.44569,15.44569,0,0,0,137.22363,5H20.52783A15.629,15.629,0,0,0,18.12842,5.18457Zm-6.13574.60059.00341.00341Z"/><path d="M137.22363,122.56592H20.52783A20.55139,20.55139,0,0,1,0,102.03809V20.52539A20.49212,20.49212,0,0,1,2.9585,9.9458L4.88525,6.75146,7.10742,9.74854c.062.08349.11963.16845.17676.2539.00586.00928.00879.01465-.00391.001L60.3291,70.19385a24.72612,24.72612,0,0,0,37.09522-.00049l52.15673-59.17822a3.09417,3.09417,0,0,0,.56006-.95948l1.78858-4.67187,2.6626,4.23486a20.46782,20.46782,0,0,1,3.15625,10.90674v81.5127A20.54983,20.54983,0,0,1,137.22363,122.56592ZM5.74121,15.81934A15.37035,15.37035,0,0,0,5,20.52539v81.5127a15.5455,15.5455,0,0,0,15.52783,15.52783h116.6958a15.54394,15.54394,0,0,0,15.52491-15.52783V20.52539a15.38744,15.38744,0,0,0-.7378-4.70508L101.1748,73.49951A29.72571,29.72571,0,0,1,56.57812,73.5Z"/></g></g></svg>