<svg xmlns="http://www.w3.org/2000/svg" viewBox="0 0 151.58537 151.40751"><defs><style>.cls-1{fill-rule:evenodd;}</style></defs><g id="Capa_2" data-name="Capa 2"><g id="Tecnología"><path class="cls-1" d="M14.1071,33.49728a2.47124,2.47124,0,0,0-1.03745,1.55033C4.63237,47.96394,0,62.90916,0,77.08968c0,39.169,34.56172,74.31783,76.29,74.31783,82.7685,0,75.10847-91.36725,75.10847-91.36725a2.45979,2.45979,0,0,0-2.45036-2.24977H76.29a2.4588,2.4588,0,0,0-2.45873,2.45893V91.94873A2.45894,2.45894,0,0,0,76.29,94.40766h30.69009a40.48059,40.48059,0,0,1-12.19032,12.13657,2.481,2.481,0,0,0-.32651.20163A34.3159,34.3159,0,0,1,76.29,111.77752c-20.39291,0-36.91586-14.2943-36.91586-34.68784A39.05268,39.05268,0,0,1,42.5518,61.491c.03242-.06777.06233-.13637.08994-.20665,6.30715-14.3512,20.686-23.0926,33.6483-23.0926,10.005,0,20.46069,6.7899,20.46069,6.7899a2.45894,2.45894,0,0,0,2.9421-.20749L125.4481,22.486a2.45972,2.45972,0,0,0,.33236-3.36838S111.13706,0,76.29025,0C48.91752,0,27.2487,14.33112,14.10731,33.49728ZM37.82259,93.27106c6.381,14.28092,21.157,23.42518,38.46745,23.42518a39.0511,39.0511,0,0,0,19.22327-4.88609l22.654,22.65336c-10.0514,7.27139-23.61007,12.02528-41.87746,12.02528-24.705,0-46.747-13.15393-59.58616-32.09838L37.82218,93.27065ZM122.0475,131.388,99.755,109.096a45.92688,45.92688,0,0,0,13.6917-16.12742,2.45988,2.45988,0,0,0-2.23869-3.47924H78.74961V62.7092h67.8741c.37189,9.5538.156,47.24776-24.57642,68.67875ZM16.00046,39.53837,37.44547,60.984A43.96325,43.96325,0,0,0,34.45525,77.0901a40.41938,40.41938,0,0,0,1.51394,11.0786L14.02134,110.11718A65.909,65.909,0,0,1,4.9185,77.0901c0-12.61639,3.91452-25.88244,11.082-37.55173ZM39.649,56.23179,18.76415,35.3463C31.11741,17.87144,51.12316,4.91913,76.28983,4.91913c25.77493,0,39.607,11.15726,44.021,15.50788L97.81035,39.899c-3.607-2.03308-12.72682-6.62508-21.52031-6.62508-13.70613,0-28.87976,8.58872-36.641,22.9579Z"/></g></g></svg>