<svg xmlns="http://www.w3.org/2000/svg" viewBox="0 0 183.32681 176.09599"><defs><style>.cls-1{fill-rule:evenodd;}</style></defs><g id="Capa_2" data-name="Capa 2"><g id="Capa_1-2" data-name="Capa 1"><path class="cls-1" d="M105.728,167.53988a63.20263,63.20263,0,0,1-16.46452,2.85442,2.83742,2.83742,0,1,0,.2023,5.67123,69.15155,69.15155,0,0,0,19.53892-3.63275,16.396,16.396,0,0,0,8.32043,3.30356c9.38164,1.36936,24.16238-1.20711,34.47363-7.12294h0c18.61423-10.68073,27.19113-23.44581,30.21584-35.967,7.02336-29.06647-16.43408-57.29977-16.43408-57.29977a2.83661,2.83661,0,0,0-4.35312,0s-7.65579,9.21782-17.05891,12.3325c-37.87252,12.546-53.14336,51.09324-38.44049,79.86072ZM16.82554,79.05259A16.38972,16.38972,0,0,0,9.98927,84.833C4.35832,92.46106-.33764,106.7112.01907,118.59367h0c.64451,21.45119,7.859,35.03287,17.4756,43.60328,22.32284,19.89653,58.28063,12.51847,58.28063,12.51847a2.83571,2.83571,0,0,0,2.05124-3.83886s-4.51872-11.09674-2.83315-20.85792c6.78927-39.31439-20.00664-70.954-52.30863-71.549A63.21632,63.21632,0,0,1,27.92945,62.6035a2.837,2.837,0,1,0-5.0961-2.495,69.13468,69.13468,0,0,0-6.00781,18.9441Zm5.00927,5.08267a76.75981,76.75981,0,0,0,.40237,19.37242l17.9733,8.33766a2.83751,2.83751,0,0,1-2.38871,5.1478l-14.26648-6.61808a77.13646,77.13646,0,0,0,2.90387,9.47988,70.77751,70.77751,0,0,0,3.90108,8.56951c.03849.06422.07429.12935.10741.19626,4.24123,7.78938,9.81534,14.28841,16.40231,18.52986a2.83713,2.83713,0,0,1-3.07171,4.77093,52.37549,52.37549,0,0,1-14.25932-14.05567l-.88083,5.61641a2.83785,2.83785,0,0,1-5.60722-.879l1.91965-12.236a76.4311,76.4311,0,0,1-3.81872-8.5017,83.62278,83.62278,0,0,1-4.25063-15.812,2.6771,2.6771,0,0,1-.04923-.299,83.56408,83.56408,0,0,1-.91126-19.24016,25.93087,25.93087,0,0,0-3.41635,4.85552,56.27977,56.27977,0,0,0-6.83269,27.0535C6.27394,137.82958,12.57134,150.208,21.27,157.96064c16.58179,14.77873,41.42448,12.9383,50.16564,11.72649-1.37585-4.521-3.36309-12.9421-2.03513-20.63369,6.18281-35.8-18.07759-64.87029-47.56567-64.918Zm94.16771,85.55948a25.934,25.934,0,0,0,5.89233.72418,56.28747,56.28747,0,0,0,27.08013-6.728h0c16.83914-9.66227,24.78764-21.05061,27.52367-32.37741,5.2165-21.59039-8.11858-42.63159-13.30777-49.76953-3.33847,3.34473-9.827,9.06743-17.237,11.52216-34.4875,11.42393-48.68729,46.52461-34.82766,72.55159a76.70053,76.70053,0,0,0,16.8942-9.487l-1.11984-19.78106a2.83792,2.83792,0,0,1,5.66676-.32091l.888,15.70185a77.22047,77.22047,0,0,0,6.992-7.02962,70.90548,70.90548,0,0,0,5.71823-7.48056c.03849-.06333.07966-.12577.12263-.18709,4.87007-7.41185,7.974-15.39213,8.60823-23.201a2.83758,2.83758,0,0,1,5.65646.46033,52.37051,52.37051,0,0,1-5.67392,19.20145l5.36867-1.87065a2.83732,2.83732,0,1,1,1.86729,5.35861l-11.6956,4.07629a76.43027,76.43027,0,0,1-5.69764,7.37538,83.64724,83.64724,0,0,1-11.94,11.203,2.983,2.983,0,0,1-.24125.1844,83.5036,83.5036,0,0,1-16.53792,9.874ZM145.13075,52.3134a63.20629,63.20629,0,0,1,10.27947,13.17473,2.8372,2.8372,0,0,0,4.90588-2.8515,69.17115,69.17115,0,0,0-12.414-15.51947,16.40312,16.40312,0,0,0-1.00928-8.89512c-3.21584-8.91985-12.45559-20.74078-22.53365-27.04443v-.0009C106.1648-.20424,90.86353-1.74984,78.39452,1.48524,49.44979,8.99444,35.6094,42.99141,35.6094,42.99141A2.83755,2.83755,0,0,0,37.662,46.83026s11.73722,2.40617,18.91723,9.23047c28.91922,27.48619,70.11275,22.78105,88.55153-3.7471Zm-2.94236-10.07672a25.98613,25.98613,0,0,0-2.13942-5.5383,56.29205,56.29205,0,0,0-18.70016-20.71045h0C104.88966,5.69234,91.099,4.05142,79.8196,6.97834,58.3194,12.55614,46.05,34.23548,42.20085,42.17715c4.52365,1.36768,12.6297,4.39251,18.28795,9.77036,26.33312,25.02855,63.9823,21.00484,80.40251-3.48874a76.73494,76.73494,0,0,0-16.33159-10.42662L107.64315,48.34508a2.83779,2.83779,0,1,1-2.954-4.84624l13.42861-8.1866a77.54534,77.54534,0,0,0-9.49532-2.85173,70.85817,70.85817,0,0,0-9.293-1.516c-.0743-.0037-.14949-.011-.2229-.02026-8.83335-.801-17.33326.22457-24.52,3.34574a2.83753,2.83753,0,0,1-2.26026-5.20553,52.38907,52.38907,0,0,1,19.60875-4.048l-4.18081-3.85262a2.83766,2.83766,0,0,1,3.846-4.17342L100.708,25.384a76.41261,76.41261,0,0,1,9.191,1.54727,83.58636,83.58636,0,0,1,15.509,5.2495,2.97743,2.97743,0,0,1,.2757.12465,83.55343,83.55343,0,0,1,16.50481,9.93081Z"/></g></g></svg>