<svg xmlns="http://www.w3.org/2000/svg" viewBox="0 0 162.66064 202.00006"><defs><style>.cls-1{fill-rule:evenodd;}</style></defs><g id="Capa_2" data-name="Capa 2"><g id="Capa_1-2" data-name="Capa 1"><path class="cls-1" d="M162.66064,81.376A81.33033,81.33033,0,1,0,65.999,161.293l13.31787,38.76465A2.87711,2.87711,0,0,0,84.77,200.0249l12.85107-38.92236A81.36392,81.36392,0,0,0,162.66064,81.376Zm-5.75488,0a75.60976,75.60976,0,0,1-62.00537,74.39209,2.87554,2.87554,0,0,0-2.21484,1.92822s-6.79688,20.58594-10.70215,32.4126c-4.04688-11.77881-11.09082-32.28174-11.09082-32.28174a2.87841,2.87841,0,0,0-2.23779-1.90235,75.61647,75.61647,0,1,1,88.251-74.54882ZM93.917,71.93457a6.87053,6.87053,0,0,0-6.86719-6.86719h-7.979a6.87053,6.87053,0,0,0-6.86719,6.86719v41.53174a6.86979,6.86979,0,0,0,6.86719,6.8667h7.979a6.87011,6.87011,0,0,0,6.86719-6.8667V71.93457Zm-5.7539,0v41.53174a1.1132,1.1132,0,0,1-1.11329,1.1123h-7.979a1.11226,1.11226,0,0,1-1.11182-1.1123V71.93457a1.11226,1.11226,0,0,1,1.11182-1.1123h7.979a1.1132,1.1132,0,0,1,1.11329,1.1123ZM83.061,41.74365A10.85645,10.85645,0,1,0,93.917,52.60059,10.862,10.862,0,0,0,83.061,41.74365Zm0,5.75489a5.10156,5.10156,0,1,1-5.10206,5.102,5.10445,5.10445,0,0,1,5.10206-5.102Z"/></g></g></svg>