<svg xmlns="http://www.w3.org/2000/svg" viewBox="0 0 96.24993 126.46047"><defs><style>.cls-1{fill-rule:evenodd;}</style></defs><g id="Capa_2" data-name="Capa 2"><g id="Capa_1-2" data-name="Capa 1"><path class="cls-1" d="M15.44906,83.60786,4.184,112.31569a1.89733,1.89733,0,0,0,2.27945,2.51965l16.85489-4.74106c2.297,3.88244,9.13292,15.43529,9.13292,15.43529a1.89769,1.89769,0,0,0,3.39092-.25224L48.4123,94.32278q.28666.11393.57981.21889L61.474,125.27733a1.89743,1.89743,0,0,0,3.39061.25224s6.83557-11.55285,9.13292-15.43529c4.27671,1.20348,16.85458,4.74106,16.85458,4.74106a1.89785,1.89785,0,0,0,2.28007-2.51965L81.62932,83.00334a20.856,20.856,0,0,0,8.156-15.57114A20.882,20.882,0,0,0,93.45787,41.889,20.88251,20.88251,0,0,0,82.7377,18.41466,20.88391,20.88391,0,0,0,61.02814,4.46288a20.88428,20.88428,0,0,0-25.80626,0A20.88344,20.88344,0,0,0,13.51232,18.41527,20.88124,20.88124,0,0,0,2.79215,41.889a20.883,20.883,0,0,0,3.6725,25.54383,20.87115,20.87115,0,0,0,8.98441,16.175Zm3.33412,1.89074L9.11026,110.14893,23.695,106.047a1.89824,1.89824,0,0,1,2.14668.85984l7.92543,13.39481,10.1067-24.88745a21.19435,21.19435,0,0,1-9.3864-.56068,20.83612,20.83612,0,0,1-11.12308-7.918,19.3445,19.3445,0,0,1-4.58112-1.43689Zm59.58-.43132a19.65846,19.65846,0,0,1-5.4771,1.86821A20.83848,20.83848,0,0,1,61.763,94.8535a21.17826,21.17826,0,0,1-8.257.71691l10.04279,24.73122,7.92605-13.39481a1.89681,1.89681,0,0,1,2.14576-.85984l14.585,4.10195L78.36282,85.06728Zm-.00155-4.38383A17.32055,17.32055,0,0,0,81.8405,77.622a16.78588,16.78588,0,0,0,4.15629-11.01224A1.89574,1.89574,0,0,1,86.6822,65.108a17.01485,17.01485,0,0,0,3.14362-21.8627,1.89753,1.89753,0,0,1-.23526-1.63386,17.01457,17.01457,0,0,0-9.17522-20.09206,1.89771,1.89771,0,0,1-1.08122-1.24763A17.015,17.015,0,0,0,60.75275,8.33081a1.89921,1.89921,0,0,1-1.58416-.46559,17.01626,17.01626,0,0,0-22.08777,0,1.89768,1.89768,0,0,1-1.58385.46559A17.01381,17.01381,0,0,0,16.91621,20.27174,1.89851,1.89851,0,0,1,15.835,21.51937,17.0152,17.0152,0,0,0,6.65946,41.61143a1.89649,1.89649,0,0,1-.23526,1.63386A17.01539,17.01539,0,0,0,9.56813,65.108a1.89857,1.89857,0,0,1,.68541,1.50172A16.78017,16.78017,0,0,0,14.40922,77.622a17.33932,17.33932,0,0,0,4.24336,3.54283,1.891,1.891,0,0,1,.18123.1062,15.70419,15.70419,0,0,0,5.88433,2.03153,1.89774,1.89774,0,0,1,1.38842.89227,16.78066,16.78066,0,0,0,9.45,7.018A17.00971,17.00971,0,0,0,46.35761,90.829l.01637-.00648.017-.00679q.46775-.18525.90863-.39766a1.89734,1.89734,0,0,1,1.65084,0,14.04047,14.04047,0,0,0,1.959.76691c.04291.01143.08521.02409.12782.0386a17.20208,17.20208,0,0,0,9.65655-.01081,16.784,16.784,0,0,0,9.44969-7.01772,1.89653,1.89653,0,0,1,1.38872-.89227,15.9874,15.9874,0,0,0,6.66576-2.511,1.80785,1.80785,0,0,1,.16363-.10806Zm4.46813-29.03973a33.21887,33.21887,0,0,1-66.21051.318,1.89763,1.89763,0,0,0-3.78118.32665,37.014,37.014,0,0,0,73.77533-.35351,1.89741,1.89741,0,0,0-3.78364-.29114ZM47.60154,20.4962,42.20039,39.84542,22.129,39.00317a2.11369,2.11369,0,0,0-1.25813,3.87225l16.73325,11.116L30.60092,72.82008a2.11372,2.11372,0,0,0,3.29429,2.39337L49.6377,62.73437c3.83921,3.0439,15.74248,12.47908,15.74248,12.47908a2.11372,2.11372,0,0,0,3.29429-2.39337L61.671,53.9914l16.73293-11.116a2.11358,2.11358,0,0,0-1.25844-3.87225L57.075,39.84542,51.67355,20.4962a2.11393,2.11393,0,0,0-4.072,0ZM49.6377,27.316l4.18655,14.9978a1.89806,1.89806,0,0,0,1.9071,1.38594l15.55724-.653-12.97,8.6164a1.89664,1.89664,0,0,0-.72833,2.24147l5.42832,14.59427L50.81648,58.82662a1.89627,1.89627,0,0,0-2.35726,0L36.25709,68.49891l5.42832-14.59427a1.89743,1.89743,0,0,0-.72833-2.24147l-12.97-8.6164,15.55724.653a1.89806,1.89806,0,0,0,1.9071-1.38594L49.638,27.316ZM16.82853,44.33114a33.22145,33.22145,0,0,1,65.80266.27633,1.89739,1.89739,0,1,0,3.7611-.50449,37.01616,37.01616,0,0,0-73.32024-.30812,1.89728,1.89728,0,0,0,3.75648.53628Z"/></g></g></svg>