<svg xmlns="http://www.w3.org/2000/svg" viewBox="0 0 92.16995 137.45948"><g id="Capa_2" data-name="Capa 2"><g id="Capa_1-2" data-name="Capa 1"><path d="M63.51257,137.45948a4.53332,4.53332,0,0,1-3.16219-1.28533l-14.2303-13.79146L31.85644,136.16713a4.54268,4.54268,0,0,1-7.70844-3.25829V87.70567l-5.08425.15228a2.26725,2.26725,0,0,1-2.22486-1.61708l-4.01-13.752L.98318,64.43115a2.24643,2.24643,0,0,1-.85044-2.618l4.84992-13.483L.13274,34.84717a2.24644,2.24644,0,0,1,.85044-2.618l11.84571-8.05774,4.00825-13.752a2.28888,2.28888,0,0,1,2.224-1.61708l14.31806.42742L44.71233.46944a2.24587,2.24587,0,0,1,2.74881.00043L58.78991,9.22931l14.31981-.42874a2.269,2.269,0,0,1,2.22485,1.61752l4.00562,13.752,11.84658,8.05906a2.24664,2.24664,0,0,1,.85045,2.618l-4.8508,13.483,4.8508,13.48077a2.24706,2.24706,0,0,1-.85045,2.61849l-11.8457,8.05774-4.0065,13.75329A2.28087,2.28087,0,0,1,73.10972,87.858l-5.05178-.1514v45.2058a4.54821,4.54821,0,0,1-4.54537,4.54713ZM46.08586,117.8654a4.52831,4.52831,0,0,1,3.16394,1.29191l14.22941,13.79146.08514-.03642V87.57183l-4.77444-.14262L47.46114,96.1904a2.24586,2.24586,0,0,1-2.74881,0l-11.3314-8.76119-4.73934.14174v45.33789h0l.08513.03467h0l14.19519-13.78445A4.52487,4.52487,0,0,1,46.08586,117.8654Zm-11.9677-34.953a2.24532,2.24532,0,0,1,1.3744.46955l10.59417,8.19115,10.59154-8.19115a2.25592,2.25592,0,0,1,1.442-.46867l13.386.40109L75.253,70.45493a2.248,2.248,0,0,1,.89345-1.22915l11.0725-7.532L82.68405,49.09106a2.25312,2.25312,0,0,1,0-1.52141L87.2189,34.96477,76.14465,27.431a2.24378,2.24378,0,0,1-.89345-1.22916l-3.745-12.85764-13.386.40109a2.25853,2.25853,0,0,1-1.442-.46867L46.08673,5.08722,35.49081,13.27705a2.29031,2.29031,0,0,1-1.44111.46823L20.66459,13.346,16.917,26.204a2.25126,2.25126,0,0,1-.89345,1.22872l-11.07249,7.532L9.485,47.56965a2.25176,2.25176,0,0,1,0,1.521L4.95106,61.6955l11.07249,7.532a2.24974,2.24974,0,0,1,.89345,1.22872l3.74934,12.85808,13.38424-.40109ZM46.085,78.568A30.23871,30.23871,0,1,1,76.32457,48.32926,30.273,30.273,0,0,1,46.085,78.568Zm0-55.98383A25.74512,25.74512,0,1,0,71.831,48.32926,25.77408,25.77408,0,0,0,46.085,22.58414Z"/></g></g></svg>