<svg xmlns="http://www.w3.org/2000/svg" viewBox="0 0 171.34779 171.34758"><defs><style>.cls-1{fill-rule:evenodd;}</style></defs><g id="Capa_2" data-name="Capa 2"><g id="Tecnología"><path class="cls-1" d="M171.34758,44.181A44.20178,44.20178,0,0,0,127.16638,0H44.1812A44.20165,44.20165,0,0,0,0,44.181v82.98519a44.20227,44.20227,0,0,0,44.1812,44.1814h82.98539a44.2024,44.2024,0,0,0,44.1812-44.1814V44.181Zm-5.37678,0v82.98519a38.82239,38.82239,0,0,1-38.80421,38.8042H44.1812A38.82239,38.82239,0,0,1,5.377,127.16618V44.181A38.82267,38.82267,0,0,1,44.1812,5.37678h82.98539A38.82267,38.82267,0,0,1,165.9708,44.181ZM85.91789,41.69193a44.61208,44.61208,0,1,0,44.61123,44.61186A44.63351,44.63351,0,0,0,85.91789,41.69193Zm0,5.37678A39.23529,39.23529,0,1,1,46.6828,86.30379,39.25382,39.25382,0,0,1,85.91789,47.06871ZM128.26471,29.1659a10.22406,10.22406,0,1,1-.00021,0Zm0,5.37678a4.84739,4.84739,0,1,1-4.84739,4.8476,4.8495,4.8495,0,0,1,4.84739-4.8476Z"/></g></g></svg>