<svg xmlns="http://www.w3.org/2000/svg" viewBox="0 0 104.65824 147.90527"><g id="Capa_2" data-name="Capa 2"><g id="Capa_1-2" data-name="Capa 1"><path d="M100.55493,147.90527H5.88013A5.88658,5.88658,0,0,1,0,142.02539V46.28271l.00049-.05761a2.48714,2.48714,0,0,1,.47705-1.42041L14.84521,24.53662V4.76953A4.77526,4.77526,0,0,1,19.61523,0H83.9873a4.77525,4.77525,0,0,1,4.77,4.76953V24.35889L104.15405,44.769c.01807.02393.03589.04834.053.07276A2.50131,2.50131,0,0,1,104.658,46.311v97.49169A4.10737,4.10737,0,0,1,100.55493,147.90527Zm-27.95776-5H99.658V48.77441H72.59717ZM5,48.77441v93.251a.88086.88086,0,0,0,.88013.87988h61.717V48.77441Zm70.17041-5H97.14062L86.25537,29.34521Zm-67.83374,0h61.5271L81.19043,27.69629h-62.456ZM19.84521,22.69629H83.75732V5H19.84521ZM37.79932,130.33887a23.83882,23.83882,0,0,1-8.31787-46.17725l-1.37256-3.146a4.33456,4.33456,0,0,1,7.94555-3.46728l.36451.83594c1.26635-2.45948,3.324-5.501,6.30566-7.169,4.2876-2.395,12.67432-2.62256,16.76025-1.21484a4.04667,4.04667,0,0,1,2.52954,6.37793c-1.53759,3-6.02661,7.73242-10.69775,10.333a24.719,24.719,0,0,1,10.31567,19.79345A23.86047,23.86047,0,0,1,37.79932,130.33887Zm-6.314-41.58448a18.83649,18.83649,0,1,0,25.147,17.75049A19.55189,19.55189,0,0,0,44.87549,88.79541a20.2412,20.2412,0,0,1-3.81812.21777l.85132,1.95118a4.94636,4.94636,0,0,1-1.84253,9.53662H35.10522a4.94544,4.94544,0,0,1-2.51147-9.20606Zm7.98-4.49316h0Zm.123-.51562c.37549.13867,2.30591.707,6.581-.28028,4.17774-.96387,9.58521-6.30371,11.16407-8.90137-2.6023-.62011-9.07251-.71435-12.169,1.01612-3.06811,1.71582-5.05,6.39941-5.55469,8.05908-.00634.02148-.01318.04248-.02.06348l-.01172.03515Z"/></g></g></svg>