<svg xmlns="http://www.w3.org/2000/svg" viewBox="0 0 141.22957 140.02526"><defs><style>.cls-1{fill-rule:evenodd;}</style></defs><g id="Capa_2" data-name="Capa 2"><g id="Capa_1-2" data-name="Capa 1"><path class="cls-1" d="M46.056,0H12.60287a2.38009,2.38009,0,0,0-2.38035,2.38V40.77884a11.25294,11.25294,0,0,0-1.24778.428l-2.0614.84371A11.1359,11.1359,0,0,0,.83169,56.56822l3.01176,7.3537a2.36289,2.36289,0,0,0,.15965.75893S12.23743,85.85449,14.374,91.34917c2.55128,6.55956,8.75908,10.40751,12.8012,10.40751h16.669V137.6449a2.38032,2.38032,0,0,0,2.38,2.38036h92.625a2.38016,2.38016,0,0,0,2.38036-2.38036V106.99531a33.12066,33.12066,0,0,0-22.78311-31.20888,18.4209,18.4209,0,0,0,.62047-9.66568,13.82848,13.82848,0,0,0-4.52175-7.34037c2.27951-4.598,2.661-8.61755,1.79988-12.1968a17.6339,17.6339,0,0,0-3.17791-6.49017H116.168a8.16339,8.16339,0,0,0,0-16.32678h-7.9981V13.02751A11.13165,11.13165,0,0,0,97.04344,1.90175H67.00235a11.13158,11.13158,0,0,0-11.1261,11.12576V23.76663H48.82851c-.10632,0-.21264.00205-.31827.00615a2.38826,2.38826,0,0,0-.53364-.8143l-9.56655-9.56655,9.3293-9.329A2.38,2.38,0,0,0,46.056,0Zm75.44184,82.23934a28.43644,28.43644,0,0,1,14.972,24.75665v28.26924h-14.972V82.23934Zm-12.43883-3.30987a30.06865,30.06865,0,0,1,7.67812,1.32505v55.01071h-8.78505V81.14335l1.10693-2.21353Zm-59.07711-.03213h-1.377v56.36789h8.44594V118.55147a2.38,2.38,0,1,1,4.76,0v16.71376h41.38119V120.38211H91.30638a2.38018,2.38018,0,0,1,0-4.76036h11.88571V90.66408L97.51246,102.022a3.07294,3.07294,0,0,1-5.12923.5692l-9.64756-11.8129-9.1888,11.73051a3.04717,3.04717,0,0,1-5.18564-.64851L61.8109,87.03013v16.11552a2.38,2.38,0,1,1-4.76,0V78.89734H49.98194Zm42.0608,0L85.745,86.93715,94.4207,97.5614,103.19209,80.02V78.89768H92.04274Zm-12.393,8.10134L73.0334,78.89734H63.42378l8.13827,18.42681,8.08767-10.32547ZM23.28217,59.4012l7.62718,18.04256a2.37829,2.37829,0,0,0,2.19234,1.45358H43.84422V96.99665H27.1749a6.605,6.605,0,0,1-3.30542-1.18214,12.95318,12.95318,0,0,1-5.05881-6.19036L9.28583,65.1321l13.99634-5.7309ZM85.99528,78.89734h-6.816l3.47874,4.26023,3.33722-4.26023Zm20.772-38.80358h-1.29086V53.55782A18.24212,18.24212,0,0,1,92.95892,70.86915v3.26816H107.6041a36.72949,36.72949,0,0,1,6.20814.51826c1.91885-6.08438.52441-10.38222-3.67018-13.276a2.38014,2.38014,0,0,1-.70081-3.1639c2.37249-4.04246,3.00835-7.47437,2.2754-10.51828a15.78246,15.78246,0,0,0-4.94941-7.60359ZM42.30791,27.0218H14.98254v13.5a11.127,11.127,0,0,1,8.50918,6.76673l3.31568,8.09656a2.39081,2.39081,0,0,1,.134.44476l7.73829,18.3075H46.60643a15.21416,15.21416,0,0,1-.23041-8.30646,14.27472,14.27472,0,0,1,5.17231-7.42651c-2.35232-3.47054-3.21415-6.67717-2.91092-9.585.32887-3.14988,2.0802-6.08507,5.17333-8.72557H48.82851a8.16239,8.16239,0,0,1-6.52128-13.072ZM59.67907,41.66972c-3.70915,2.22481-5.99652,4.66909-6.30727,7.64394-.25571,2.4518.91071,5.1053,3.394,8.11707a2.37979,2.37979,0,0,1-.58868,3.54062c-2.77383,1.70758-4.54739,3.715-5.2123,6.1254a11.40563,11.40563,0,0,0,.64508,7.04056H71.7822V70.72762A18.24361,18.24361,0,0,1,59.67907,53.55748V41.66972ZM76.54223,71.73234v2.405H88.19889V71.758c-.31314.01641-.6297.02462-.94728.02462h-9.3481q-.68713,0-1.36128-.05026Zm24.17413-31.63858H64.43978V53.55782A13.47082,13.47082,0,0,0,77.90351,67.02257h9.34844a13.501,13.501,0,0,0,2.408-.21537,2.37494,2.37494,0,0,1,.85362-.18358,13.47719,13.47719,0,0,0,10.20275-13.0658V40.09376ZM21.38486,54.70407,7.635,60.61958,5.23687,54.76424a6.37319,6.37319,0,0,1,3.48147-8.30851l2.06072-.84337a6.37157,6.37157,0,0,1,8.30783,3.48046l2.298,5.61125ZM62.09054,35.33373h54.07778a3.4032,3.4032,0,0,0,0-6.80639H48.82851a3.4032,3.4032,0,0,0,0,6.80639H62.02182c.02291-.00068.04615-.00068.06872,0Zm41.319-11.56676H60.63627V13.02786a6.36914,6.36914,0,0,1,6.36608-6.36574H97.04344a6.36891,6.36891,0,0,1,6.36607,6.36574V23.767Zm-88.427-1.5052V4.76071H40.3101l-6.9486,6.9486a2.37981,2.37981,0,0,0,0,3.36627l7.18585,7.18619Z"/></g></g></svg>