<svg xmlns="http://www.w3.org/2000/svg" viewBox="0 0 156.07355 151.5853"><defs><style>.cls-1{fill-rule:evenodd;}</style></defs><g id="Capa_2" data-name="Capa 2"><g id="Tecnología"><path class="cls-1" d="M39.86048,52.028a5.85138,5.85138,0,0,0-5.848-5.84824H5.84719A5.8508,5.8508,0,0,0,0,52.028v93.70989a5.84982,5.84982,0,0,0,5.84719,5.84741H34.01245a5.85053,5.85053,0,0,0,5.848-5.84741V52.028Zm22.13714-5.84824a2.32665,2.32665,0,0,0-2.32675,2.32675v100.752a2.32665,2.32665,0,0,0,2.32675,2.32675h28.808a2.32593,2.32593,0,0,0,2.32591-2.32675V95.12343c0-3.78588,2.14875-6.94176,4.98816-9.18986a16.77621,16.77621,0,0,1,9.87382-3.73484c3.82018,0,8.50923,2.61749,11.68769,6.01013,1.97891,2.11215,3.41482,4.53678,3.41482,6.91457v54.13512a2.32682,2.32682,0,0,0,2.327,2.32675h28.32359a2.32682,2.32682,0,0,0,2.327-2.32675V95.12343c0-17.18078-4.87918-31.26257-14.42148-39.81824-6.46841-5.79971-15.08975-9.12543-25.91192-9.12543-11.26435,0-18.515,3.83608-22.6086,7.04257V48.50651a2.32593,2.32593,0,0,0-2.32591-2.32675Zm2.32612,4.65391H88.47848v7.978a2.32683,2.32683,0,0,0,4.24959,1.30978s6.5343-9.28774,23.01208-9.28774c9.51238,0,17.12011,2.83837,22.80541,7.937,8.69,7.791,12.87408,20.70729,12.87408,36.3528v51.80838h-23.6699V95.12343c0-3.43114-1.818-7.04927-4.67252-10.09679-4.072-4.34644-10.189-7.4814-15.08369-7.4814a21.605,21.605,0,0,0-12.762,4.73883c-3.93919,3.11864-6.75287,7.58765-6.75287,12.83936v51.80838H64.324V50.83325h0ZM35.20657,52.028v93.70989a1.19461,1.19461,0,0,1-1.19433,1.19433H5.847a1.19439,1.19439,0,0,1-1.19329-1.19433V52.028A1.19386,1.19386,0,0,1,5.847,50.83367H34.01224A1.19394,1.19394,0,0,1,35.20657,52.028ZM19.93,0A19.93024,19.93024,0,1,0,39.86027,19.93045,19.94,19.94,0,0,0,19.93,0Zm0,4.65307A15.27654,15.27654,0,1,1,4.6537,19.92961,15.28409,15.28409,0,0,1,19.93,4.65307Z"/></g></g></svg>