<svg xmlns="http://www.w3.org/2000/svg" viewBox="0 0 145.95721 146.52914"><defs><style>.cls-1{fill-rule:evenodd;}</style></defs><g id="Capa_2" data-name="Capa 2"><g id="Capa_1-2" data-name="Capa 1"><path class="cls-1" d="M118.18391,135.05672a11.47756,11.47756,0,0,0-11.47232-11.4719H39.06515a11.47216,11.47216,0,0,0,0,22.94432h67.64644a11.478,11.478,0,0,0,11.47232-11.47242Zm-4.67925,0a6.79641,6.79641,0,0,1-6.79307,6.79307H39.06515a6.793,6.793,0,0,1,0-13.586h67.64644a6.79633,6.79633,0,0,1,6.79307,6.793Z"/><path class="cls-1" d="M109.05132,113.481A14.78979,14.78979,0,0,0,94.26869,98.6982H50.04785A14.78978,14.78978,0,0,0,35.26523,113.481v12.4431a2.33968,2.33968,0,0,0,2.33972,2.33962H106.7118a2.33964,2.33964,0,0,0,2.33952-2.33962V113.481Zm-4.67925,0v10.10379H39.94467V113.481a10.10822,10.10822,0,0,1,10.10339-10.1038H94.26869a10.10821,10.10821,0,0,1,10.10338,10.1038Z"/><path class="cls-1" d="M108.92593,52.43444A18.54918,18.54918,0,0,0,90.38532,33.89372H54.07058A18.54918,18.54918,0,0,0,35.53,52.43444V84.83673a18.54916,18.54916,0,0,0,18.54061,18.54061H90.38532a18.54916,18.54916,0,0,0,18.54061-18.54061V52.43444Zm-4.679,0V84.83673A13.86818,13.86818,0,0,1,90.38532,98.6984H54.07058A13.86841,13.86841,0,0,1,40.2088,84.83673V52.43444A13.86844,13.86844,0,0,1,54.07058,38.57266H90.38532A13.86827,13.86827,0,0,1,104.2469,52.43444Z"/><path class="cls-1" d="M94.865,19.35642A19.36578,19.36578,0,0,0,75.50815,0H68.05651A19.36574,19.36574,0,0,0,48.69988,19.35642V36.37363a2.33974,2.33974,0,0,0,2.33973,2.33962H92.52546A2.33983,2.33983,0,0,0,94.865,36.37363V19.35642Zm-4.67924,0V34.03391H53.37892V19.35642A14.68484,14.68484,0,0,1,68.05651,4.67883h7.45184A14.68454,14.68454,0,0,1,90.18574,19.35642Z"/><path class="cls-1" d="M73.94785,53.16289a2.3387,2.3387,0,0,0-3.4398,0s-9.066,9.8407-14.50863,18.69436c-2.56233,4.16826-4.26856,8.18759-4.26856,11.0232a20.4971,20.4971,0,0,0,40.99419,0c0-2.83561-1.70624-6.85494-4.26857-11.0232-5.44243-8.85366-14.50863-18.69436-14.50863-18.69436Zm-1.72021,5.09455A131.68619,131.68619,0,0,1,84.46993,74.30725c2.01373,3.27588,3.57567,6.34508,3.57567,8.5732a15.81775,15.81775,0,1,1-31.6355,0c0-2.22812,1.56194-5.29732,3.57526-8.5732A131.791,131.791,0,0,1,72.22764,58.25744Z"/><path class="cls-1" d="M73.94785,76.532a2.33956,2.33956,0,0,0-3.4398,0,74.82043,74.82043,0,0,0-7.32173,9.43865,13.227,13.227,0,0,0-2.28855,6.07654,11.33008,11.33008,0,0,0,22.66015,0,13.22465,13.22465,0,0,0-2.28854-6.07654A74.80642,74.80642,0,0,0,73.94785,76.532Zm-1.72021,5.12856a59.09134,59.09134,0,0,1,5.0558,6.7606,8.57456,8.57456,0,0,1,1.59545,3.62613,6.65094,6.65094,0,1,1-13.30188,0,8.5737,8.5737,0,0,1,1.59524-3.62613,59.1418,59.1418,0,0,1,5.05539-6.7606Z"/><path class="cls-1" d="M118.85871,89.54094l9.19857,9.19826A2.33943,2.33943,0,0,0,131.366,95.431l-9.19878-9.19878a2.33947,2.33947,0,0,0-3.30825,3.30877Z"/><path class="cls-1" d="M125.10215,75.60373h18.51574a2.33947,2.33947,0,0,0,0-4.67894H125.10215a2.33947,2.33947,0,1,0,0,4.67894Z"/><path class="cls-1" d="M121.93449,60.66355l9.89763-9.89711a2.33958,2.33958,0,1,0-3.30866-3.30867l-9.89763,9.89753a2.33943,2.33943,0,0,0,3.30866,3.30825Z"/><path class="cls-1" d="M23.79,86.232l-9.19878,9.19877a2.33954,2.33954,0,0,0,3.30887,3.30836l9.19857-9.19836A2.33961,2.33961,0,0,0,23.79,86.232Z"/><path class="cls-1" d="M20.855,70.92479H2.33972a2.33947,2.33947,0,1,0,0,4.67894H20.855a2.33947,2.33947,0,1,0,0-4.67894Z"/><path class="cls-1" d="M27.33117,57.3552l-9.897-9.89753a2.33962,2.33962,0,1,0-3.30867,3.30877l9.897,9.89711a2.33947,2.33947,0,1,0,3.30866-3.30835Z"/><path class="cls-1" d="M51.03961,29.315H67.50585a2.33947,2.33947,0,1,0,0-4.67893H51.03961a2.33947,2.33947,0,1,0,0,4.67893Z"/><path class="cls-1" d="M85.52582,29.315h7.08083a2.33947,2.33947,0,0,0,0-4.67893H85.52582a2.33947,2.33947,0,1,0,0,4.67893Z"/></g></g></svg>