<svg xmlns="http://www.w3.org/2000/svg" viewBox="0 0 128.98437 96.39572"><defs><style>.cls-1{fill-rule:evenodd;}</style></defs><g id="Capa_2" data-name="Capa 2"><g id="Capa_1-2" data-name="Capa 1"><path class="cls-1" d="M26.26672,43.86243A26.26665,26.26665,0,1,0,52.53371,70.129a26.2791,26.2791,0,0,0-26.267-26.26658Zm0,4.12A22.14675,22.14675,0,1,1,4.11984,70.129,22.15731,22.15731,0,0,1,26.26672,47.9824Z"/><path class="cls-1" d="M26.37852,50.44715a19.06115,19.06115,0,0,0,0,38.10794,19.06116,19.06116,0,0,0,0-38.10794Zm0,4.11983a14.94324,14.94324,0,0,1,0,29.868,14.94324,14.94324,0,0,1,0-29.868Z"/><path class="cls-1" d="M27.55086,57.45789c-5.90795,0-10.77409,5.058-10.77409,11.3688,0,6.31111,4.86614,11.36893,10.77409,11.36893S38.32523,75.1378,38.32523,68.82669c0-6.31084-4.86642-11.3688-10.77437-11.3688Zm0,4.12c3.71171,0,6.65453,3.2843,6.65453,7.24882,0,3.96465-2.94282,7.24882-6.65453,7.24882-3.71143,0-6.654-3.28417-6.654-7.24882,0-3.96452,2.94255-7.24882,6.654-7.24882Z"/><path class="cls-1" d="M37.28205,93.96926,126.39693,43.3984a2.05958,2.05958,0,0,0,.89227-1.01826,32.64376,32.64376,0,0,0-3.59935-28.24044A31.88839,31.88839,0,0,0,102.43138.01577a2.06006,2.06006,0,0,0-1.22714.2283l-86.163,46.13777a2.05995,2.05995,0,1,0,1.94481,3.632S94.78352,8.35568,102.52942,4.20776A27.7816,27.7816,0,0,1,120.20974,16.345a28.87223,28.87223,0,0,1,3.482,23.85127L35.24857,90.386a2.06008,2.06008,0,1,0,2.03348,3.58338Z"/><path class="cls-1" d="M45.0979,34.37538c1.47333.58961,8.16366,3.85711,8.16366,3.85711a2.06012,2.06012,0,0,0,2.9632-1.85159c0-6.054,1.35492-11.89506,3.97223-16.215,2.397-3.95681,5.87049-6.6062,10.3756-6.6062a22.71978,22.71978,0,0,1,8.68911,2.21552,2.06,2.06,0,0,0,1.65179-3.77436,26.94439,26.94439,0,0,0-10.3409-2.56113,15.23525,15.23525,0,0,0-11.87923,5.76832c-3.68555,4.35075-5.94127,10.87984-6.46892,17.94677-1.53777-.73888-3.36389-1.60856-4.57285-2.15714C48.08505,16.85863,55.202,4.12018,67.61407,4.12018c6.34775,0,12.6663,3.7672,16.809,8.07844a2.06,2.06,0,0,0,2.97064-2.8547C82.53471,4.28707,75.0598.00007,67.61407.00007c-14.944,0-24.1038,15.25455-24.1038,32.37074a2.06027,2.06027,0,0,0,1.272,1.90336,1.98872,1.98872,0,0,0,.3156.10121Zm.91016.00771a1.96339,1.96339,0,0,0,1.01922-.55533,2.049,2.049,0,0,1-1.01922.55533Z"/><path class="cls-1" d="M72.56779,72.72676c-.20792-22.4611-9.17022-36.41429-26.32427-42.306a2.06,2.06,0,1,0-1.3384,3.8965q23.28149,7.99589,23.54311,38.4475a2.06,2.06,0,0,0,4.11984-.038Z"/><path class="cls-1" d="M62.96,78.27808c.86775-22.04072-6.64875-37.22188-25.01644-43.42187a2.06,2.06,0,1,0-1.31775,3.90365C53.19051,44.35138,59.62556,58.23876,58.84345,78.116a2.05986,2.05986,0,1,0,4.11653.16207Z"/><path class="cls-1" d="M46.11326,42.26227l8.23-4.45719a2.06012,2.06012,0,1,0-1.96216-3.623l-8.22976,4.45747a2.05993,2.05993,0,1,0,1.96188,3.62275Z"/><path class="cls-1" d="M79.35423,15.813c17.65306,6.72848,26.51237,18.56433,25.46919,36.17058a2.05995,2.05995,0,1,0,4.11268.24372c1.15829-19.54472-8.51782-32.79484-28.11459-40.26425a2.06,2.06,0,1,0-1.46728,3.85Z"/><path class="cls-1" d="M89.111,10.56721c15.37586,6.07,24.14456,17.7135,24.1878,36.73126a2.05992,2.05992,0,0,0,4.11983-.00922C117.371,26.27092,107.617,13.44352,90.624,6.735a2.06,2.06,0,1,0-1.513,3.8322Z"/></g></g></svg>