<svg xmlns="http://www.w3.org/2000/svg" viewBox="0 0 173.59702 140.89585"><defs><style>.cls-1{fill-rule:evenodd;}</style></defs><g id="Capa_2" data-name="Capa 2"><g id="Capa_1-2" data-name="Capa 1"><path class="cls-1" d="M124.82753,27.41782V2.89554A2.89565,2.89565,0,0,0,121.932,0H56.78521A2.88092,2.88092,0,0,0,53.9045,2.88071V27.41782H13.11937A13.12542,13.12542,0,0,0,0,40.53762v87.23843a13.12624,13.12624,0,0,0,13.11937,13.1198H160.47722a13.12633,13.12633,0,0,0,13.1198-13.1198V40.53762a13.12552,13.12552,0,0,0-13.1198-13.1198ZM20.2188,31.84717v104.6189H13.11959a8.69389,8.69389,0,0,1-8.69024-8.69V40.53719a8.69425,8.69425,0,0,1,8.69024-8.69044H20.2188Zm4.42956,0v104.6189h9.20581V31.84717Zm13.635,0v104.6189h97.83226V31.84717Zm102.26183,0v104.6189h8.00195V31.84717Zm12.43172,0h7.50036a8.69412,8.69412,0,0,1,8.6896,8.69045v87.23843a8.694,8.694,0,0,1-8.6896,8.69h-7.50036V31.84717Zm-43.31067,71.08705a2.21443,2.21443,0,0,0-2.21489-2.214H72.96266a2.21389,2.21389,0,0,0-2.21425,2.214v21.25461a2.21489,2.21489,0,0,0,2.21425,2.21489H107.4513a2.21543,2.21543,0,0,0,2.21489-2.21489V102.93422Zm-4.42978,2.21531v16.82526H75.178V105.14953Zm10.7375-45.00681a2.21469,2.21469,0,0,0-4.2132,0l-3.28355,10.1077H97.84879a2.2149,2.2149,0,0,0-1.302,4.00681l8.59805,6.24669-3.28334,10.1077A2.2145,2.2145,0,0,0,105.269,93.088l8.59827-6.2467,8.59826,6.2467a2.215,2.215,0,0,0,3.40858-2.47639l-3.2844-10.1077,8.59827-6.24669a2.2149,2.2149,0,0,0-1.302-4.00681H119.25852l-3.28461-10.1077ZM70.35638,52.41943a12.98255,12.98255,0,0,0-18.19124-1.54567c-4.7879,4.273-5.24944,12.80956-.47214,21.35591,3.09178,5.8839,10.9367,11.842,17.53051,15.76486a2.21147,2.21147,0,0,0,2.26553,0c6.59508-3.92289,14.43979-9.88181,17.53241-15.76783,4.77561-8.54423,4.31407-17.08083-.47383-21.35294a12.98255,12.98255,0,0,0-18.19124,1.54567ZM113.8671,67.99358l1.67536,5.15578a2.21511,2.21511,0,0,0,2.1066,1.53042h5.42046l-4.38485,3.18628a2.21411,2.21411,0,0,0-.80484,2.47639l1.67537,5.15493-4.38612-3.18544a2.21491,2.21491,0,0,0-2.604,0l-4.38485,3.18544,1.67515-5.15493a2.21624,2.21624,0,0,0-.80462-2.47639l-4.38591-3.18628h5.4213a2.21406,2.21406,0,0,0,2.10576-1.53042l1.67515-5.15578ZM68.42418,57.33745a2.214,2.214,0,0,0,3.86419,0c3.33822-5.9568,9.97229-6.13862,13.30967-3.15958h0a8.12766,8.12766,0,0,1,2.3948,6.273,20.231,20.231,0,0,1-2.85232,9.6398c-.01038.01823-.02077.0373-.0303.05637-2.59442,4.96082-9.06786,9.85511-14.75384,13.35587-5.68556-3.50076-12.15985-8.395-14.754-13.35587-.00975-.01907-.02013-.03814-.03052-.05637a20.2287,20.2287,0,0,1-2.85125-9.6398,8.13012,8.13012,0,0,1,2.394-6.273c3.33822-2.97862,9.97229-2.79722,13.30967,3.15958Zm2.28906-29.91963h37.83618V17.33893H70.71324V27.41782ZM58.33385,4.42935h62.06433V27.41782h-7.41941V15.7619a2.85225,2.85225,0,0,0-2.85232-2.85232H69.13577a2.85207,2.85207,0,0,0-2.8521,2.85232V27.41782H58.33385V4.42935Z"/></g></g></svg>