<svg xmlns="http://www.w3.org/2000/svg" viewBox="0 0 201 172.45437"><defs><style>.cls-1{fill-rule:evenodd;}</style></defs><g id="Capa_2" data-name="Capa 2"><g id="Capa_1-2" data-name="Capa 1"><path class="cls-1" d="M100.49658,4.20535A12.101,12.101,0,0,0,94.7251.59109,14.88174,14.88174,0,0,0,76.356,10.37331C74.84424,14.83327,57.14014,77.45,53.32178,89.929c-.07569.24707-.15039.48633-.21973.7041l-45.91894,17.977a11.476,11.476,0,0,0-5.353,3.72022A10.61448,10.61448,0,0,0,0,118.91531v42.41894A10.5884,10.5884,0,0,0,2.67432,168.763c2.28466,2.49317,5.84472,3.69141,9.65234,3.69141,1.15918,0,3.998-.94141,7.69238-2.73438,11.11524-5.395,32.186-18.04785,36.38867-20.58593h25.0752c2.59033,0,8.11816-2.24707,12.88623-6.249a28.12409,28.12409,0,0,0,6.13086-7.0747,28.11621,28.11621,0,0,0,6.13135,7.0747c4.76758,4.002,10.2959,6.249,12.88574,6.249h25.0752c4.20312,2.53808,25.27392,15.19091,36.38867,20.58593,3.69433,1.793,6.5332,2.73438,7.69238,2.73438,3.80762,0,7.36816-1.19824,9.65283-3.69141A10.5904,10.5904,0,0,0,201,161.33425V118.91531a10.61766,10.61766,0,0,0-1.82959-6.585,11.48026,11.48026,0,0,0-5.35352-3.72022L147.898,90.63308c-.06836-.21777-.14356-.457-.21973-.7041-3.81836-12.47852-21.522-75.09571-23.0332-79.55567A14.83443,14.83443,0,0,0,109.73.01492a12.8287,12.8287,0,0,0-9.23242,4.19043Zm88.27149,162.08984c-.14942-.04492-1.18262-.36035-1.977-.68994-2.06592-.85889-4.915-2.2793-8.14112-3.98828-10.707-5.6709-25.45117-14.48584-30.12109-17.29883V97.49294l43.042,16.85108a5.6456,5.6456,0,0,1,2.63672,1.63281,4.84914,4.84914,0,0,1,.63379,2.93848v42.41894a4.66821,4.66821,0,0,1-1.05713,3.26856c-1.1709,1.27832-3.06592,1.68017-5.01611,1.69238Zm-176.53809,0c-1.94971-.01221-3.84473-.41406-5.01562-1.6919a4.66814,4.66814,0,0,1-1.05762-3.269V118.91531a4.84384,4.84384,0,0,1,.63428-2.938,5.64419,5.64419,0,0,1,2.63623-1.6333l43.042-16.85059v46.82471c-4.66992,2.813-19.41406,11.62793-30.1211,17.29931-3.22558,1.7085-6.07519,3.12891-8.14062,3.9878-.79443.33008-1.82813.645-1.97754.68994ZM142.37109,93.51638c-.15673-.4458-.355-1.04395-.58154-1.78467C137.979,79.27956,120.32031,16.80056,118.811,12.34939a8.78,8.78,0,0,0-10.78174-5.855,5.03781,5.03781,0,0,0-3.9292,4.86719V64.35525a13.13507,13.13507,0,0,1,3.61035-1.5918,14.01715,14.01715,0,0,1,17.69922,13.96826v28.03565a3.07911,3.07911,0,0,1-6.15821,0V76.73171a7.9376,7.9376,0,0,0-9.918-8.02832c-2.98145.814-5.23291,3.65235-5.23291,8.51074v49.94434c0,4.34473,3.105,8.16895,6.48974,11.00977,3.375,2.834,7.09229,4.8081,8.92627,4.8081h22.855v-49.46ZM96.89893,64.13406v-52.773a5.03718,5.03718,0,0,0-3.92969-4.8667,8.77865,8.77865,0,0,0-10.78125,5.855C80.67871,16.80007,63.02,79.27908,59.20947,91.73122c-.22656.74073-.4248,1.33887-.582,1.78516v49.46H81.48291c1.834,0,5.55078-1.97412,8.92578-4.8081,3.38526-2.84082,6.49024-6.665,6.49024-11.00977V74.10134a6.97992,6.97992,0,0,0-4.874-5.39795,7.93728,7.93728,0,0,0-9.918,8.02783v28.03614a3.0791,3.0791,0,0,1-6.1582,0V76.73122A14.01705,14.01705,0,0,1,93.648,62.76345a13.19537,13.19537,0,0,1,3.251,1.37061Z"/></g></g></svg>