<svg xmlns="http://www.w3.org/2000/svg" viewBox="0 0 140.02492 142.98725"><defs><style>.cls-1{fill-rule:evenodd;}</style></defs><g id="Capa_2" data-name="Capa 2"><g id="Capa_1-2" data-name="Capa 1"><path class="cls-1" d="M68.75442,17.56684a2.09223,2.09223,0,0,0-.29878.03008L2.60085.06988A2.07,2.07,0,0,0,0,2.06975V123.45727a2.0694,2.0694,0,0,0,1.54383,2.00089l66.423,17.45149a2.06351,2.06351,0,0,0,.52783.0776h.06359l.0082-.00068a2.05575,2.05575,0,0,0,.59449-.09743l69.38652-20.68239a2.06874,2.06874,0,0,0,1.47751-1.98277V2.06906A2.06965,2.06965,0,0,0,137.44526.06373L68.75442,17.56616ZM66.747,21.42436,4.13785,4.76085V121.86147h0l62.3251,16.3743v-9.10572l-51.894-13.634a2.06827,2.06827,0,0,1-1.5428-2.00123V15.37827A2.069,2.069,0,0,1,15.627,13.37908l51.12,13.6056V21.42436Zm4.13717-.13093v5.72065l53.53628-13.64047a2.0679,2.0679,0,0,1,2.579,2.00466v95.50444a2.06821,2.06821,0,0,1-1.47785,1.98278L70.60045,129.23637v8.9071l65.2873-19.46059V4.73145l-65.0039,16.562ZM122.86229,35.621l-1.2806-.03384c-1.49665,4.30569-4.91625,18.6562-4.91625,18.6562a2.071,2.071,0,0,1-.883,1.25256l-8.4897,5.53126a42.96534,42.96534,0,0,1-2.218,7.31541,4.06,4.06,0,0,1-2.05559,2.15,12.08692,12.08692,0,0,1-3.047.31382c-1.61493.0147-3.58677-.07145-4.83386-.13811C94.017,72.44047,91.689,76.192,90.23539,79.06157a25.441,25.441,0,0,0-1.02078,2.40395c.8796,2.33283,5.29947,11.12712,5.29947,11.12712a2.07207,2.07207,0,0,1,.14564,1.46965L91.023,107.39474a2.06822,2.06822,0,0,1-1.64433,1.49392l-26.1446,4.50226a2.06936,2.06936,0,0,1-1.63579-.41706l-7.446-5.89705a2.069,2.069,0,0,1-.77978-1.74826s.42493-6.89664.50288-9.18982a30.97059,30.97059,0,0,0-3.84659-2.54752,19.78877,19.78877,0,0,0-1.89389-.78559c-.55039.24716-2.26207,1.02421-3.6777,1.75886-3.0692,1.59271-6.71546,3.5078-8.1704,3.99837a22.72276,22.72276,0,0,0-1.5705,1.85731c-2.40941,3.29687-5.57364,8.81377-6.40778,10.24274a.97533.97533,0,0,0-.04307.47689,6.5778,6.5778,0,0,0,.21674,1.429,17.42247,17.42247,0,0,0,.86695,2.53248L68.7804,125.46158l54.08155-16.121V35.621ZM69.36566,31.67155a2.07579,2.07579,0,0,1-.5268.0735h-.06735a2.07871,2.07871,0,0,1-.52714-.07966L17.16331,18.0704v93.83l7.3766,1.93765a13.25039,13.25039,0,0,1-.3063-1.429,5.98432,5.98432,0,0,1,.5015-3.83086c.99447-1.70416,5.18223-8.968,7.72154-11.99032a5.63021,5.63021,0,0,1,2.66273-1.9814c1.14967-.23042,5.8068-2.91263,8.96727-4.50022A15.29065,15.29065,0,0,1,47.82589,88.624a5.98423,5.98423,0,0,1,2.37318.50663,26.61048,26.61048,0,0,1,5.55074,3.126,7.6632,7.6632,0,0,1,1.80911,1.81868,2.85876,2.85876,0,0,1,.4663,1.52058c0,1.09429-.31827,6.55649-.45843,8.90745l5.87516,4.65336c3.91735-.67448,19.34094-3.33072,23.9362-4.12177l3.08253-11.30216c-1.16916-2.365-4.87148-9.89883-5.31965-11.39412A5.88424,5.88424,0,0,1,85.742,78.89c1.68433-3.93,6.5705-11.48368,6.5705-11.48368a2.06878,2.06878,0,0,1,1.87475-.93875s3.30269.22324,5.74731.201c.51894-.00479.988-.00137,1.33461-.028a17.748,17.748,0,0,0,.69466-1.68091c.815-2.45556,1.46452-5.62185,1.46452-5.62185a2.06963,2.06963,0,0,1,.89771-1.31615l8.50816-5.54357c.69739-2.88117,3.11261-12.767,4.5156-17.25629a14.09507,14.09507,0,0,1,.9948-2.56393,2.28474,2.28474,0,0,1,1.08677-.95857,6.67944,6.67944,0,0,1,2.1537-.31041c.4051-.00513.84781.0041,1.2765.02086v-13.369L69.36532,31.67155Zm-29.84828,69.766v7.38481a2.06876,2.06876,0,1,0,4.13751,0v-7.38481a2.06876,2.06876,0,1,0-4.13751,0Zm67.34631-2.5465-2.87126,2.87058a2.06873,2.06873,0,0,0,2.92562,2.92562l2.8716-2.87127,2.87024,2.87127a2.06873,2.06873,0,1,0,2.92562-2.92562L112.71527,98.891l2.87024-2.87126a2.06873,2.06873,0,0,0-2.92562-2.92562l-2.87024,2.87092-2.8716-2.87092a2.06873,2.06873,0,0,0-2.92562,2.92562l2.87126,2.87126Zm5.547-20.03115v7.38481a2.06875,2.06875,0,1,0,4.1375,0V78.85988a2.06875,2.06875,0,1,0-4.1375,0ZM22.67952,81.23305H21.32816a2.06876,2.06876,0,1,0,0,4.13751H49.37724a2.06876,2.06876,0,1,0,0-4.13751H47.83957l-3.43841-9.7026A2.06643,2.06643,0,0,0,43.353,70.35924l-7.618-3.689a2.06845,2.06845,0,0,0-1.803-.00035L26.6608,70.18558A2.06917,2.06917,0,0,0,25.57745,71.46l-2.89861,9.773Zm82.11286-5.31657v7.38481a2.06892,2.06892,0,0,0,4.13784,0V75.91648a2.06892,2.06892,0,0,0-4.13784,0ZM43.45011,81.23305l-2.66443-7.5195-5.95243-2.88323-5.548,2.6829-2.2901,7.71983H33.111V78.45478a2.06875,2.06875,0,1,1,4.1375,0v2.77827ZM55.0996,69.10326v6.81322a2.06893,2.06893,0,0,0,4.13785,0V69.10326a2.06893,2.06893,0,0,0-4.13785,0Zm23.54853-9.289V69.856a2.06875,2.06875,0,0,0,4.1375,0V59.8143a2.06875,2.06875,0,1,0-4.1375,0ZM36.01129,57.51155H34.65993a2.06892,2.06892,0,1,0,0,4.13784H62.70969a2.06892,2.06892,0,1,0,0-4.13784H61.17133L57.734,47.80962a2.06913,2.06913,0,0,0-1.0478-1.17086l-7.619-3.68967a2.06962,2.06962,0,0,0-1.80193-.00068l-7.27234,3.517a2.06841,2.06841,0,0,0-1.08335,1.27376l-2.89827,9.77235Zm20.77025,0-2.6641-7.51916L48.16433,47.1095l-5.54766,2.6829-2.28943,7.71915h6.1155V54.73361a2.06892,2.06892,0,0,1,4.13784,0v2.77794Zm23.901-12.81283h-1.351a2.06893,2.06893,0,0,0,0,4.13785h28.04942a2.06893,2.06893,0,1,0,0-4.13785h-1.538l-3.43738-9.70158a2.07242,2.07242,0,0,0-1.04814-1.1712l-7.61864-3.68967a2.0704,2.0704,0,0,0-1.80227-.00069l-7.272,3.51669a2.06871,2.06871,0,0,0-1.08335,1.27411l-2.89861,9.77234Zm20.77059,0-2.66444-7.5195L92.8359,34.297l-5.548,2.68221-2.28908,7.71949H91.114V41.92078a2.06892,2.06892,0,0,1,4.13784,0v2.77794ZM40.20965,32.2845v4.26775a2.06875,2.06875,0,1,0,4.1375,0V32.2845a2.06875,2.06875,0,1,0-4.1375,0Z"/></g></g></svg>