<svg xmlns="http://www.w3.org/2000/svg" viewBox="0 0 158.31998 171.34718"><defs><style>.cls-1{fill-rule:evenodd;}</style></defs><g id="Capa_2" data-name="Capa 2"><g id="Tecnología"><path class="cls-1" d="M158.32,27.49259A27.50558,27.50558,0,0,0,130.82718,0H27.49259A27.50553,27.50553,0,0,0,0,27.49259V102.2961a27.50553,27.50553,0,0,0,27.49259,27.49258H50.275l-13.36184,38.155a2.5578,2.5578,0,0,0,4.31192,2.56017l36.773-40.71513H130.827a27.50558,27.50558,0,0,0,27.4928-27.49258V27.49259Zm-5.11554,0V102.2961a22.38788,22.38788,0,0,1-22.37726,22.37725H76.86211a2.55927,2.55927,0,0,0-1.89838.84252S57.01072,145.394,45.93734,157.654c4.299-12.27587,10.35783-29.57712,10.35783-29.57712a2.55691,2.55691,0,0,0-2.41334-3.40353H27.49259A22.387,22.387,0,0,1,5.11637,102.2961V27.49259A22.3869,22.3869,0,0,1,27.49259,5.11575H130.82718a22.38779,22.38779,0,0,1,22.37726,22.37684ZM79.24805,38.74271c-9.7933-12.70549-26.402-11.99935-35.00892-4.55226-9.071,7.85036-9.6178,23.54272-.55951,39.2422,6.03063,11.148,21.4082,22.384,34.29022,29.8164a2.56175,2.56175,0,0,0,2.55641,0C93.41,95.81576,108.78773,84.57986,114.81815,73.431c9.05745-15.69863,8.5109-31.39016-.56119-39.24052-8.6067-7.44709-25.21458-8.15323-35.00891,4.55226Zm-2.21464,5.87418a2.55836,2.55836,0,0,0,4.43032,0c7.37054-12.7582,22.07459-12.93641,29.446-6.55731h0c3.63172,3.14332,5.36653,7.89052,5.36653,13.39113,0,5.92479-1.99543,12.68374-5.90806,19.45439-.01213.02134-.02489.04393-.036.0661-5.4523,10.10976-19.24565,20.135-31.08415,27.101-11.83767-6.966-25.631-16.99169-31.08332-27.101-.01213-.02217-.02384-.04476-.03681-.0661-3.91179-6.77065-5.90722-13.5296-5.90722-19.45439,0-5.50061,1.735-10.24781,5.36653-13.39113,7.37138-6.3791,22.07481-6.20089,29.446,6.55731Z"/></g></g></svg>