<svg xmlns="http://www.w3.org/2000/svg" viewBox="0 0 129.14747 137.42397"><defs><style>.cls-1{fill:none;stroke:#000;stroke-linecap:round;stroke-linejoin:round;stroke-width:5px;}</style></defs><g id="Capa_2" data-name="Capa 2"><g id="Capa_1-2" data-name="Capa 1"><polyline class="cls-1" points="2.5 134.924 31.468 134.924 31.468 52.159 2.5 52.159"/><path class="cls-1" d="M85.265,52.159l20.29356-.00166,13.021.00166a8.21313,8.21313,0,0,1,8.06793,8.35057v3.98927a8.21278,8.21278,0,0,1-8.06793,8.35016H118.371"/><path class="cls-1" d="M31.46774,60.43549c8.2765-4.593,24.8295-16.553,30.25391-27.99733,1.93505-4.08279,2.61-14.47352,2.401-21.984C64.00141,6.09366,67.149,2.5,71.07948,2.5h.61c9.78324,0,17.71378,8.80206,17.71378,19.66041v.68943c0,3.736-4.13825,29.30915-4.13825,29.30915"/><path class="cls-1" d="M118.371,72.85023h.20857a8.10448,8.10448,0,0,1,8.06793,8.14035v4.41055a8.10448,8.10448,0,0,1-8.06793,8.14035h-4.34682"/><path class="cls-1" d="M114.23272,93.54148h.20857a8.10447,8.10447,0,0,1,8.06793,8.14035v4.41054a8.10447,8.10447,0,0,1-8.06793,8.14035h-4.34682"/><path class="cls-1" d="M110.303,114.23272h0a8.21288,8.21288,0,0,1,8.06793,8.35057v3.9901A8.21288,8.21288,0,0,1,110.303,134.924h-6.44243l-54.84007-.03807a40.35005,40.35005,0,0,1-16.68666-3.59573"/></g></g></svg>