<svg xmlns="http://www.w3.org/2000/svg" viewBox="0 0 99.95748 140.92529"><defs><style>.cls-1{fill-rule:evenodd;}</style></defs><g id="Capa_2" data-name="Capa 2"><g id="Capa_1-2" data-name="Capa 1"><path class="cls-1" d="M7.143,16.4563a2.24024,2.24024,0,0,0-1.07014,1.16654L.58738,23.60034a2.23211,2.23211,0,0,0,.12821,3.14682L32.89268,56.52559l.02856.02662L47.12072,69.69355V74.5613a33.20194,33.20194,0,1,0,4.46365.04122V69.71075L99.22,26.767a2.23152,2.23152,0,0,0,.16229-3.153L78.73076.7355A2.232,2.232,0,0,0,77.0741,0H23.22468A2.23039,2.23039,0,0,0,21.58.72252L7.14328,16.4563ZM49.039,78.9701A28.74577,28.74577,0,1,1,20.29274,107.716,28.75959,28.75959,0,0,1,49.039,78.9701Zm-1.40577,36.84H41.92351a2.2315,2.2315,0,1,0,0,4.463H56.42226a2.2315,2.2315,0,1,0,0-4.463h-4.326v-22.131a2.23122,2.23122,0,0,0-3.80961-1.57779L41.114,99.273a2.2318,2.2318,0,0,0,3.15623,3.15624l3.363-3.36235v16.74323ZM90.72244,20.682H74.65564L50.065,43.455l-.02824.02564L37.70655,54.89911,49.372,65.69568h0L94.57263,24.947l-3.85019-4.265ZM34.42081,51.85843,45.25405,41.82626,22.48658,20.682H9.32349L5.37885,24.98079l29.042,26.87764ZM29.04573,20.682l19.49211,18.1029L68.08675,20.682Zm57.648-4.46365h-73.275L24.20557,4.463H76.08218L86.69373,16.21838Z"/></g></g></svg>