<svg xmlns="http://www.w3.org/2000/svg" viewBox="0 0 153.97696 137.42397"><defs><style>.cls-1{fill:none;stroke:#000;stroke-linecap:round;stroke-linejoin:round;stroke-width:5px;}</style></defs><g id="Capa_2" data-name="Capa 2"><g id="Capa_1-2" data-name="Capa 1"><rect class="cls-1" x="114.23272" y="2.5" width="20.69124" height="107.59447" rx="5.5316"/><path class="cls-1" d="M134.924,48.02074h7.43312a9.12,9.12,0,0,1,9.11987,9.11987v2.4515a9.12,9.12,0,0,1-9.11987,9.11987H134.924"/><path class="cls-1" d="M114.19589,104.60633c-5.30151-4.459-31.09356-23.85618-78.5899-23.85618V35.606c46.211,0,69.6368-16.96309,77.00123-23.56153"/><path class="cls-1" d="M35.606,35.606H25.26037A22.76019,22.76019,0,0,0,2.5,58.36636h0A22.76018,22.76018,0,0,0,25.26037,81.12673H35.606"/><path class="cls-1" d="M31.95275,81.12673,43.38631,128.436a8.48,8.48,0,0,0,8.24257,6.48795h0a8.48016,8.48016,0,0,0,8.245-10.46357l-5.48774-22.81458c-1.82745-7.59658,4.85376-17.68149,13.331-17.68149"/></g></g></svg>