<svg xmlns="http://www.w3.org/2000/svg" viewBox="0 0 103.3397 185.7685"><defs><style>.cls-1{fill-rule:evenodd;}</style></defs><g id="Capa_2" data-name="Capa 2"><g id="Capa_1-2" data-name="Capa 1"><path d="M16.29149,66.27317a2.18639,2.18639,0,0,1-1.637-.58521,2.2619,2.2619,0,0,1-.57229-1.65052V49.26507a2.16789,2.16789,0,0,1,.61236-1.664,2.43857,2.43857,0,0,1,1.72993-.57172,2.6548,2.6548,0,0,1,1.477.35889,3.25319,3.25319,0,0,1,.99824,1.18464l5.72288,10.27406h-.93174l5.69589-10.27406A3.46873,3.46873,0,0,1,30.412,47.38822a2.6548,2.6548,0,0,1,1.477-.35889,2.21667,2.21667,0,0,1,1.637.57172,2.25651,2.25651,0,0,1,.57229,1.664V64.03744A2.2941,2.2941,0,0,1,33.539,65.688a2.60052,2.60052,0,0,1-3.2871,0,2.26184,2.26184,0,0,1-.57215-1.65052V54.881h.55865l-4.28506,7.453a3.08794,3.08794,0,0,1-.78526.87818,2.20389,2.20389,0,0,1-2.19595,0,2.718,2.718,0,0,1-.77177-.87818l-4.31162-7.47939h.61178v9.1829a2.29458,2.29458,0,0,1-.55893,1.65052,2.17864,2.17864,0,0,1-1.65009.58521Z"/><path d="M40.11364,66.03377a2.5784,2.5784,0,0,1-1.90285-.65228,2.54,2.54,0,0,1-.65228-1.87656V49.79743a2.54178,2.54178,0,0,1,.65228-1.877,2.57763,2.57763,0,0,1,1.90285-.65171h9.02349a1.95122,1.95122,0,0,1,1.43711.4788,1.87451,1.87451,0,0,1,.47937,1.384,1.96077,1.96077,0,0,1-.47937,1.42419,1.91956,1.91956,0,0,1-1.43711.49229h-6.894v3.567h6.3081a1.96082,1.96082,0,0,1,1.42419.47879,2.268,2.268,0,0,1,0,2.82181,1.96082,1.96082,0,0,1-1.42419.4788H42.2431v3.8594h6.894a1.99967,1.99967,0,0,1,1.43711,3.30046,1.95138,1.95138,0,0,1-1.43711.47937H40.11364Z"/><path d="M56.19057,66.27317a2.30876,2.30876,0,0,1-1.70351-.58521,2.34754,2.34754,0,0,1-.58593-1.73065V49.451a2.531,2.531,0,0,1,.58593-1.79642,2.01436,2.01436,0,0,1,1.54353-.62529,2.38016,2.38016,0,0,1,1.331.31939A4.97028,4.97028,0,0,1,58.4263,48.4136L66.864,58.95348h-.74534V49.3182a2.33877,2.33877,0,0,1,.57229-1.70351,2.73265,2.73265,0,0,1,3.37987,0,2.33946,2.33946,0,0,1,.57244,1.70351V64.064a2.334,2.334,0,0,1-.53251,1.61059,1.82546,1.82546,0,0,1-1.437.59872,2.62032,2.62032,0,0,1-1.424-.333,4.94687,4.94687,0,0,1-1.10466-1.05123l-8.4377-10.56688h.74534v9.63528a2.38064,2.38064,0,0,1-.57244,1.73065,2.26215,2.26215,0,0,1-1.68986.58522Z"/><path d="M82.38143,66.32674a11.5366,11.5366,0,0,1-3.61985-.5193,6.84734,6.84734,0,0,1-2.64832-1.557,6.53136,6.53136,0,0,1-1.62352-2.59534,10.88463,10.88463,0,0,1-.54587-3.60649v-8.544a2.58476,2.58476,0,0,1,4.27228-1.85,2.50889,2.50889,0,0,1,.62528,1.85v8.597a4.58054,4.58054,0,0,0,.90532,3.08763,3.82913,3.82913,0,0,0,5.24352,0,4.58333,4.58333,0,0,0,.9046-3.08763v-8.597a2.509,2.509,0,0,1,.62586-1.85,2.43059,2.43059,0,0,1,1.79642-.62529,2.38606,2.38606,0,0,1,1.78365.62529,2.54487,2.54487,0,0,1,.61178,1.85v8.544a10.024,10.024,0,0,1-.94482,4.59109,6.1031,6.1031,0,0,1-2.80816,2.76824,10.29,10.29,0,0,1-4.57817.91882Z"/><path class="cls-1" d="M103.3397,21.48192a2.692,2.692,0,0,0-2.69184-2.6917H2.69184A2.69181,2.69181,0,0,0,0,21.48192V183.0768a2.69181,2.69181,0,0,0,2.69184,2.6917h97.956a2.692,2.692,0,0,0,2.69184-2.6917V21.48192ZM97.956,24.17376V180.38511H5.38339V24.17376Z"/><path class="cls-1" d="M2.28872,18.82009a2.69195,2.69195,0,0,0,.403,5.35352c.07884,0,1.12878-.17175,2.92865-.59878C16.64965,20.95609,63.93693,9.33094,76.96559,6.1262V21.48192a2.69184,2.69184,0,0,0,5.38367,0V2.69211A2.69242,2.69242,0,0,0,79.01391.07789S17.19566,15.29366,4.377,18.33649c-1.09.25878-1.94708.4523-2.0881.48346Z"/><path class="cls-1" d="M16.68584,92.64125H68.59236a2.69177,2.69177,0,0,0,0-5.38353H16.68584a2.69177,2.69177,0,1,0,0,5.38353Z"/><path class="cls-1" d="M77.53156,92.64125H87.95267a2.69177,2.69177,0,1,0,0-5.38353H77.53156a2.69177,2.69177,0,0,0,0,5.38353Z"/><path class="cls-1" d="M16.68584,122.01022h46.77a2.69141,2.69141,0,1,0,0-5.38282h-46.77a2.69141,2.69141,0,1,0,0,5.38282Z"/><path class="cls-1" d="M77.53156,122.01022H88.74267a2.69141,2.69141,0,1,0,0-5.38282H77.53156a2.69141,2.69141,0,0,0,0,5.38282Z"/><path class="cls-1" d="M16.68584,151.11652H53.4466a2.69148,2.69148,0,1,0,0-5.383H16.68584a2.69148,2.69148,0,1,0,0,5.383Z"/><path class="cls-1" d="M77.53156,151.11652H88.47914a2.69148,2.69148,0,1,0,0-5.383H77.53156a2.69148,2.69148,0,0,0,0,5.383Z"/><path class="cls-1" d="M16.68584,108.18166H56.60776a2.69149,2.69149,0,1,0,0-5.383H16.68584a2.69149,2.69149,0,1,0,0,5.383Z"/><path class="cls-1" d="M77.53156,108.18166H88.21562a2.69149,2.69149,0,1,0,0-5.383H77.53156a2.69149,2.69149,0,0,0,0,5.383Z"/><path class="cls-1" d="M16.68584,137.02013H40.40861a2.69149,2.69149,0,0,0,0-5.383H16.68584a2.69149,2.69149,0,1,0,0,5.383Z"/><path class="cls-1" d="M77.53156,137.02013H88.47914a2.69149,2.69149,0,1,0,0-5.383H77.53156a2.69149,2.69149,0,0,0,0,5.383Z"/></g></g></svg>