<svg xmlns="http://www.w3.org/2000/svg" viewBox="0 0 173.26261 159.27935"><defs><style>.cls-1{fill-rule:evenodd;}</style></defs><g id="Capa_2" data-name="Capa 2"><g id="Capa_1-2" data-name="Capa 1"><path class="cls-1" d="M84.0239,43.70693a9.19145,9.19145,0,0,0-4.48384,4.3635C78.11115,50.93015,73.7009,61.6273,70.5656,69.322c-.36548-.76394-.71065-1.49849-.99153-2.11269a5.75491,5.75491,0,0,0-5.28586-3.51136,6.23446,6.23446,0,0,0-5.44745,3.29816c-1.43314,2.508-24.84643,50.49806-27.76263,56.47828-4.77064,3.07376-8.82894,6.1084-10.65463,8.94908-2.566,3.99021-9.50322,17.26578-11.77729,21.64154H2.6074a2.60719,2.60719,0,1,0,0,5.21438H170.65521a2.60719,2.60719,0,1,0,0-5.21438h-5.85777c-5.0752-7.77778-33.56286-51.41322-36.48244-55.45609-1.8426-2.55219-4.06761-3.78567-6.318-3.888a7.69435,7.69435,0,0,0-4.7791,1.56279c-4.99315-10.90527-20.67561-45.14536-22.13582-48.1783A8.63749,8.63749,0,0,0,89.2387,43.19V24.97566h21.93109a2.60685,2.60685,0,0,0,1.84345-4.45011l-6.28246-6.28331,6.34338-6.34411a2.60692,2.60692,0,0,0-1.84346-4.45107H89.2387v-.8404a2.6074,2.6074,0,0,0-5.2148,0V43.70693Zm74.54776,110.35783c-8.03031-12.30329-31.83108-48.73285-34.48332-52.40326-.71995-.99808-1.44667-1.692-2.32567-1.73178a2.871,2.871,0,0,0-1.86292.80984,9.298,9.298,0,0,0-1.40352,1.44858,2.16,2.16,0,0,1-.15482.19839,19.18275,19.18275,0,0,0-1.43991,2.22542c-3.17592,5.65705-11.42535,19.06418-13.5133,21.749-2.26138,2.90646-8.23251,5.65958-15.196,8.0834-9.24349,3.21843-20.30675,6.04938-24.37944,9.33634-3.52362,2.84407-7.873,6.77886-11.37712,10.28408ZM108.81027,90.44723c-2.5854,3.61161-6.45082,4.72919-9.27818,3.97708a6.5016,6.5016,0,0,1-4.46354-4.03525c-.21235-.54229-.9746-.69647-1.64295-.73877-.58628-.03723-1.25463.06493-1.48475.69055-1.34177,3.64038-3.25628,7.85646-4.78925,11.68909a7.88708,7.88708,0,0,1-7.45,4.99949,6.0487,6.0487,0,0,1-5.23765-2.95934c-.9839-1.72311-5.56927-7.62529-8.57683-11.44311-2.57441,5.832-5.84254,13.16982-7.57347,16.79793-1.74786,3.66025-6.895,7.59842-12.95409,11.39108-3.51432,2.19962-7.31882,4.39756-10.768,6.565-.04992.03469-.10068.06684-.154.09771-1.36039.857-2.66324,1.71021-3.86965,2.5558-2.55664,1.795-4.66405,3.50776-5.75794,5.20908-2.14547,3.33688-7.40088,13.2944-10.28577,18.82159H45.2344a152.4171,152.4171,0,0,1,15.30261-14.342c4.34933-3.50924,16.07078-6.766,25.94032-10.20265a66.04419,66.04419,0,0,0,9.61066-3.9919,10.44,10.44,0,0,0,3.18353-2.36861c2.0245-2.60317,10.00406-15.61521,13.08184-21.09988q.5-.88863,1.01521-1.65733c-.85193-1.8608-2.50757-5.47749-4.55915-9.95562ZM67.92943,75.81762c-.77833-1.5759-2.24361-4.56464-3.10062-6.44722a.66856.66856,0,0,0-.56513-.45833,1.12106,1.12106,0,0,0-.89593.67046c-1.15226,2.01773-16.60038,33.62843-24.00211,48.79441A93.75715,93.75715,0,0,0,49.79693,111.391a13.80786,13.80786,0,0,0,3.80957-4.21291c2.13871-4.48068,6.6361-14.65816,9.235-20.57494.01015-.02411.022-.04928.03214-.0736,1.16242-2.64483,1.93736-4.42082,1.93736-4.42082a2.60837,2.60837,0,0,1,3.401-1.361,2.60782,2.60782,0,0,1-.99829-3.15858s.26311-.655.714-1.77154Zm38.0484,8.4474C99.5414,70.21958,91.41464,52.50775,90.3842,50.36714a3.2674,3.2674,0,0,0-6.17925.03553c-1.79185,3.58115-8.31457,19.63057-10.993,26.25694a.52589.52589,0,0,1-.022.05457c-.70388,1.744-1.137,2.82-1.137,2.82a2.6088,2.6088,0,0,1-3.39165,1.44667c-.01269-.00529-.02538-.01036-.03807-.0165A2.609,2.609,0,0,1,69.591,84.194s-.51183,1.17363-1.32823,3.03464c2.58371,3.27193,9.47022,12.05033,10.72908,14.25334a.91589.91589,0,0,0,.83586.33354,2.66254,2.66254,0,0,0,2.483-1.72226c1.5152-3.78906,3.41026-7.95608,4.7368-11.55564a6.38634,6.38634,0,0,1,6.7097-4.09151,7.1321,7.1321,0,0,1,6.1674,4.04223c.56429,1.44414,2.38575,1.14613,3.75036-.07275a7.787,7.787,0,0,0,2.17086-3.78484,2.59211,2.59211,0,0,1,.13113-.36568ZM89.23955,8.661V19.76107h15.63593l-3.6759-3.67559a2.60794,2.60794,0,0,1,0-3.68711l3.73766-3.73714H89.23955Z"/></g></g></svg>