<svg xmlns="http://www.w3.org/2000/svg" viewBox="0 0 173.2632 148.36372"><defs><style>.cls-1{fill-rule:evenodd;}</style></defs><g id="Capa_2" data-name="Capa 2"><g id="Capa_1-2" data-name="Capa 1"><path class="cls-1" d="M34.68382,104.2708l-1.4306-2.75736a2.51131,2.51131,0,0,0-4.46354.00952l-12.334,24.03236c-.01438.02686-.02877.05457-.0423.08143l-9.08614,17.704H2.5118a2.51148,2.51148,0,1,0,0,5.023H170.04524a2.5113,2.5113,0,0,0,1.46359-4.55237c.05668-.07466.11337-.14911.16751-.22356,1.69117-2.31574,2.32229-5.0714.42554-7.77778a8.05644,8.05644,0,0,0-6.90512-3.39842,12.04125,12.04125,0,0,0-1.58881.10385,8.11688,8.11688,0,0,0-3.54816-7.005,7.70632,7.70632,0,0,0-3.60569-1.53529L133.28869,80.55463c-.01354-.0258-.02707-.05266-.0423-.07868l-16.12408-30.223a2.51195,2.51195,0,0,0-4.46947.07276l-10.911,22.17072L84.69564,41.64161a2.51156,2.51156,0,0,0-4.34426-.09094L64.52678,67.56438,59.867,63.38615a2.51176,2.51176,0,0,0-3.89587.69479L34.68382,104.2708Zm20.267,39.07h11.9025l31.6475-66.32414L82.39365,47.86,67.24755,72.75718a2.51207,2.51207,0,0,1-3.82227.56471L58.90675,69.271l-21.41,40.4223,5.26133,10.14111c.00846.01734.01777.03384.02623.05118L54.95166,143.341ZM40.08644,125.59361a21.25271,21.25271,0,0,1-1.791,1.80347,6.61,6.61,0,0,1-3.93479,1.85826,4.18875,4.18875,0,0,1-2.50165-.88006,10.92753,10.92753,0,0,1-2.01181-2.11735c-.58036-.75633-1.1658-1.61312-1.79269-2.27491a5.40593,5.40593,0,0,0-.5-.43422,3.93232,3.93232,0,0,0-.69965.319,17.29269,17.29269,0,0,0-2.05242,1.23877,49.83878,49.83878,0,0,0-4.11837,3.21039l-7.71052,15.02363h36.32l-9.20627-17.74715Zm61.93376,17.74715h0a13.81693,13.81693,0,0,1-3.97878-2.20555c-.48983-.427-1.08458-.85764-.77409-1.49257.37224-.76056.71149-1.25019,1.17256-1.4122.66835-.23392,1.32739.22271,1.88322.57529a9.04324,9.04324,0,0,1,1.6844,1.40268,2.51148,2.51148,0,0,0,4.362-2.0281,13.964,13.964,0,0,1,.15312-4.23617c.34687-1.69371,1.14973-3.5875,3.46526-3.94177,1.70386-.26078,2.49149,1.173,3.02532,2.43883a14.32374,14.32374,0,0,1,.96191,3.87049,2.51128,2.51128,0,0,0,4.56253,1.23179,5.21615,5.21615,0,0,1,2.77237-2.24023,6.72894,6.72894,0,0,1,4.47031.673,2.51224,2.51224,0,0,0,3.51348-2.34768s-.143-8.86659,8.80018-9.91162a5.291,5.291,0,0,1,5.76809,3.26517,13.21179,13.21179,0,0,1,1.16326,4.51451,2.51141,2.51141,0,0,0,4.50923,1.405,13.24567,13.24567,0,0,1,4.03123-3.44177,3.13524,3.13524,0,0,1,3.48133.06852c2.84259,2.13194.88746,5.27233.88746,5.27233a2.51153,2.51153,0,0,0,3.24021,3.56572,11.19989,11.19989,0,0,1,3.038-.86864c1.27071-.16371,2.83244-.1525,3.77658,1.19456.47884.68358.05838,1.34875-.3697,1.93355a11.9499,11.9499,0,0,1-3.04225,2.71506H102.0202Zm28.49274-57.31858a39.93767,39.93767,0,0,1-4.43563,4.03525,9.69348,9.69348,0,0,1-5.21311,2.25588,6.08762,6.08762,0,0,1-3.57184-1.33416,24.5284,24.5284,0,0,1-3.58031-3.58475,31.159,31.159,0,0,0-2.36967-2.56869,6.79129,6.79129,0,0,0-.73349-.54314,4.56817,4.56817,0,0,0-.51607.39763,16.1093,16.1093,0,0,0-1.83161,2.255,37.36566,37.36566,0,0,1-2.94242,3.89312,5.263,5.263,0,0,1-1.994,1.3496,4.53359,4.53359,0,0,1-4.13191-.88027,8.53054,8.53054,0,0,1-.78256-.65841L72.4725,143.34033H93.28178a5.47274,5.47274,0,0,1-.52791-5.90472,7.67658,7.67658,0,0,1,3.20214-3.5839,6.2919,6.2919,0,0,1,5.50921-.09983,13.89667,13.89667,0,0,1,.67681-2.74445,8.61553,8.61553,0,0,1,7.08532-5.97134c3.63023-.55541,6.04643,1.27768,7.57686,3.80132a13.36825,13.36825,0,0,1,1.14465,2.47162,8.76932,8.76932,0,0,1,1.99658-.84051,9.9078,9.9078,0,0,1,4.71988-.10744c.879-4.08284,3.71652-10.56729,12.84495-11.63368,6.02189-.7043,9.2105,2.59365,10.88137,6.08682a15.38743,15.38743,0,0,1,.654,1.59409,14.14566,14.14566,0,0,1,2.25123-1.43018L130.51294,86.02175ZM25.45556,119.021a6.4658,6.4658,0,0,1,2.23262-.51289c1.69032,0,3.39672,1.17891,4.82056,2.9549.53129.66285,1.04312,1.39041,1.54819,2.0264.12013.15.28172.32677.42893.47905a12.03752,12.03752,0,0,0,1.18864-1.00336,27.3879,27.3879,0,0,0,1.91113-2.19265l-5.15388-9.93553L31.03668,108.147l-5.58112,10.874ZM100.8544,85.673l1.15481,1.2927c.19881-.22631.42131-.49132.5922-.72249.7741-1.05265,1.60488-2.328,2.47119-3.44178,1.69625-2.18312,3.71906-3.6133,5.54475-3.6133a5.27074,5.27074,0,0,1,2.91365.97883,16.50823,16.50823,0,0,1,2.90858,2.71505c.9966,1.11843,2.01265,2.38152,3.02956,3.36035a7.43324,7.43324,0,0,0,.94076.79187c.165.11273.29356.25634.4543.25634a2.53546,2.53546,0,0,0,1.08205-.48836,17.05137,17.05137,0,0,0,2.32906-1.74913,46.3522,46.3522,0,0,0,3.74275-3.70615L114.99629,56.93957l-14.141,28.73384ZM50.33414,53.63231V47.20518a2.5118,2.5118,0,0,0-5.0236,0v6.42713a2.5118,2.5118,0,0,0,5.0236,0ZM59.57594,43.377l4.54391,4.54455a2.5117,2.5117,0,0,0,3.5524-3.55176L63.12664,39.825a2.51117,2.51117,0,0,0-3.5507,3.552ZM31.524,47.92175l4.54476-4.54455a2.51147,2.51147,0,1,0-3.55154-3.552L27.97244,44.37A2.5114,2.5114,0,0,0,31.524,47.92175ZM47.5973,13.22841A15.14229,15.14229,0,1,0,62.74,28.37069,15.14938,15.14938,0,0,0,47.5973,13.22841Zm0,5.02286A10.11938,10.11938,0,1,1,37.47819,28.37069,10.12444,10.12444,0,0,1,47.5973,18.25127ZM66.95568,30.58322h6.428a2.51143,2.51143,0,1,0,0-5.02286h-6.428a2.51143,2.51143,0,1,0,0,5.02286Zm-44.69465,0h6.428a2.51143,2.51143,0,1,0,0-5.02286H22.261a2.51143,2.51143,0,0,0,0,5.02286ZM27.97244,11.773l4.5456,4.5455a2.5111,2.5111,0,1,0,3.5507-3.55175L31.524,8.22194a2.51113,2.51113,0,0,0-3.55154,3.551Zm35.15335,4.54571,4.54646-4.5455a2.51143,2.51143,0,0,0-3.5524-3.551L59.5751,12.76691a2.51109,2.51109,0,0,0,3.55069,3.55175ZM50.33414,8.93851V2.51138a2.5118,2.5118,0,0,0-5.0236,0V8.93851a2.5118,2.5118,0,0,0,5.0236,0Z"/></g></g></svg>