<svg xmlns="http://www.w3.org/2000/svg" viewBox="0 0 173.26457 172.20475"><defs><style>.cls-1{fill-rule:evenodd;}</style></defs><g id="Capa_2" data-name="Capa 2"><g id="Capa_1-2" data-name="Capa 1"><path class="cls-1" d="M47.06713,108.90386a82.14939,82.14939,0,0,0-4.8451-9.3355,13.7152,13.7152,0,0,0-3.291-3.84024,4.12354,4.12354,0,0,0-2.34683-.78933,5.1402,5.1402,0,0,0-3.23514,1.34452c-1.51943,1.26246-3.43564,3.86372-5.50752,7.44425C17.29015,121.95651.78452,167.0143.17539,168.68454a2.57443,2.57443,0,0,0-.15651,1.239,2.54891,2.54891,0,0,0,.18443.69816l.00085.0036a2.58491,2.58491,0,0,0,.43569.69563l.00593.00677a2.576,2.576,0,0,0,.56.47736l.011.007a2.51383,2.51383,0,0,0,.3917.20008l.00931.00444a2.58872,2.58872,0,0,0,1.0169.18782H169.62758a2.56819,2.56819,0,0,0,.47461-.03554l.01015-.00169a2.565,2.565,0,0,0,.714-.232c.02792-.014.05584-.02791.08206-.04251l.02792-.01565.02792-.01565.02707-.01565.02623-.0165.02707-.01628.02623-.0165.02707-.01735.02792-.01818.02623-.019.02791-.01925.02115-.01565.02538-.019.02623-.019.02538-.01988.02453-.01988.02539-.01988.02368-.02073.02538-.02178.02369-.02073.02369-.02179.02369-.02241.01946-.01735a2.60618,2.60618,0,0,0,.659-1.03509l.00846-.02411a2.58482,2.58482,0,0,0,.09306-1.23264l-.00169-.01036a2.48142,2.48142,0,0,0-.12267-.46171c-.676-1.94053-21.64514-62.0264-34.55439-86.29861-2.46611-4.6374-4.708-8.0246-6.45589-9.6593a5.439,5.439,0,0,0-3.61077-1.69287,5.09057,5.09057,0,0,0-2.85274.96593,19.82721,19.82721,0,0,0-4.77318,5.56526,88.93829,88.93829,0,0,0-4.39079,7.90066C108.93152,69.05981,99.08905,45.588,92.72538,36.1122a16.8944,16.8944,0,0,0-3.9644-4.46587,4.10995,4.10995,0,0,0-5.40431.36728,26.7704,26.7704,0,0,0-4.631,6.18728c-8.45924,14.14347-23.06728,49.33046-31.65934,70.70339Zm47.89763,36.23773c-4.45254-.42893-9.05145-.66538-13.77556-.66538-37.46889,0-61.67066,14.91978-71.6028,22.55459H161.00167A161.48933,161.48933,0,0,0,95.128,145.15724c-.05414-.00338-.10913-.00867-.16328-.01565Zm69.7069,18.07138c-6.04051-16.93138-21.42771-59.06516-31.6898-78.36241a44.10134,44.10134,0,0,0-4.88063-7.74479,7.37564,7.37564,0,0,0-.68442-.66179,9.05511,9.05511,0,0,0-1.00929.93463,47.52293,47.52293,0,0,0-5.46521,8.75936c-1.0812,2.07484-2.19793,4.3671-3.33412,6.81355-.02285.05541-.04907.11-.07614.16349-6.85268,14.78718-14.37623,35.12058-18.70441,47.24113a167.30943,167.30943,0,0,1,65.844,22.85683Zm-119.926-46.78005c-1.65733-3.90032-3.302-7.51277-4.82141-10.44081a42.75544,42.75544,0,0,0-3.516-5.46733,7.92693,7.92693,0,0,0-.68019.69119,36.818,36.818,0,0,0-3.40942,5.1027c-7.66484,13.24342-18.49713,40.83473-23.92428,55.14074a117.32247,117.32247,0,0,1,46.16924-19.609c-2.52957-7.02928-6.13272-16.71376-9.69188-25.12054a2.69573,2.69573,0,0,1-.126-.297Zm67.67647-24.555c-5.49567-14.02555-14.51159-36.172-21.2805-48.37658A39.43325,39.43325,0,0,0,86.684,36.6913c-.09053-.09867-.19374-.20178-.2978-.29886a37.83,37.83,0,0,0-3.22075,4.46323c-9.02692,15.09565-25.10109,54.41645-33.19062,74.70395,3.637,8.664,7.27229,18.45251,9.75786,25.37942a139.05111,139.05111,0,0,1,21.45733-1.63554c4.21143,0,8.32557.18189,12.33819.51627,4.19874-11.801,11.845-32.53855,18.89391-47.94163ZM14.0474,48.56577C9.918,48.82835.21431,49.95968.21431,61.31713c0,8.06014,7.53456,11.26821,13.817,11.26821h22.5529c8.38395,0,15.32714-2.88489,15.32714-11.26821,0-7.2321-4.4187-10.24263-8.65213-11.59666a28.06713,28.06713,0,0,0-4.87132-.99184,14.01955,14.01955,0,0,0-3.8375-5.20211,13.79031,13.79031,0,0,0-8.62929-2.53739c-4.12852,0-6.78837,1.19974-8.5633,2.65086a12.307,12.307,0,0,0-3.31043,4.92578Zm-.01692,18.84686c-3.72667,0-8.64367-1.31428-8.64367-6.09529A7.5494,7.5494,0,0,1,6.699,56.61925c2.05918-2.70639,5.862-2.81552,7.79512-2.9107A14.75774,14.75774,0,0,0,16.39,53.5457a2.74234,2.74234,0,0,0,1.357-.739,3.37589,3.37589,0,0,0,.77833-1.35214,6.84818,6.84818,0,0,1,2.10656-3.80936,8.11694,8.11694,0,0,1,5.28924-1.48316,9.34973,9.34973,0,0,1,5.14035,1.23528,6.88036,6.88036,0,0,1,2.637,3.512,6.40112,6.40112,0,0,0,1.05667,1.89718,3.05869,3.05869,0,0,0,1.38153.77367c.5186.14382,1.65987.25211,3.07863.48942C42.0816,54.5497,46.738,55.707,46.738,61.31734c0,5.21861-4.93393,6.09529-10.1538,6.09529H14.03048ZM117.53966,34.20424a16.818,16.818,0,0,0-.566,4.50912c0,8.69348,8.1496,12.12595,14.92529,12.12595h24.78129c9.054,0,16.58431-3.071,16.58431-12.12595,0-7.79491-4.76641-11.03777-9.32894-12.49819a31.47836,31.47836,0,0,0-5.45-1.10034,15.20665,15.20665,0,0,0-4.19536-5.7444,13.26232,13.26232,0,0,0-5.675-2.41789,12.1955,12.1955,0,0,0-7.461-7.02748,31.62134,31.62134,0,0,0-6.444-1.47269,15.183,15.183,0,0,0-4.18352-5.71585A14.9075,14.9075,0,0,0,121.20034,0c-4.45847,0-7.33151,1.2872-9.24857,2.85454a13.37814,13.37814,0,0,0-3.61922,5.457C103.94684,8.57567,93.211,9.669,93.211,22.07893c0,8.69348,8.14876,12.126,14.92445,12.126h9.40508Zm28.766-12.345q-.63578-.052-1.34177-.052c-2.85866,0-4.74357.68189-5.97367,1.68589a7.79068,7.79068,0,0,0-2.39589,4.3047,3.469,3.469,0,0,1-.79271,1.38439,2.75264,2.75264,0,0,1-1.36631.74332,15.82407,15.82407,0,0,1-2.03888.17322c-2.17424.1066-6.43982.25455-8.75619,3.298a8.53949,8.53949,0,0,0-1.49405,5.31663c0,5.41457,5.5329,6.953,9.75279,6.953h24.78129c5.88822,0,11.411-1.06375,11.411-6.953,0-6.34052-5.24018-7.673-8.47871-8.21442-1.5465-.25909-2.79267-.37606-3.357-.532a3.11164,3.11164,0,0,1-1.40437-.78488,6.73805,6.73805,0,0,1-1.10489-1.99944,7.82375,7.82375,0,0,0-2.99656-3.979,9.38782,9.38782,0,0,0-4.26135-1.328c-.06176-.00349-.12267-.00878-.18274-.0165ZM52.74977,10.63433A16.71888,16.71888,0,1,0,69.46859,27.35316,16.7266,16.7266,0,0,0,52.74977,10.63433Zm0,5.17271A11.54617,11.54617,0,1,1,41.20344,27.35316,11.552,11.552,0,0,1,52.74977,15.807Zm89.77338.96688c-1.93906-2.1147-5.03291-2.66133-7.10056-2.97763-1.40183-.21489-2.505-.33608-3.01094-.48688a3.07628,3.07628,0,0,1-1.32485-.76141,6.76936,6.76936,0,0,1-1.10489-1.99943,7.82,7.82,0,0,0-2.99656-3.979,10.516,10.516,0,0,0-5.78586-1.39729c-2.85866,0-4.74357.68177-5.97366,1.68662a7.78331,7.78331,0,0,0-2.395,4.30386,3.47477,3.47477,0,0,1-.79356,1.38523,2.75421,2.75421,0,0,1-1.36631.74248,15.82407,15.82407,0,0,1-2.03888.17322c-2.17424.1066-6.43982.2556-8.7545,3.2988a8.52591,8.52591,0,0,0-1.49489,5.31569c0,5.41445,5.532,6.95292,9.75194,6.95292h12.40587c3.53124-3.42634,8.7985-3.92009,11.55479-4.08643a13.37775,13.37775,0,0,1,3.62007-5.45591,12.86874,12.86874,0,0,1,6.80784-2.71506Z"/></g></g></svg>