<svg xmlns="http://www.w3.org/2000/svg" viewBox="0 0 198.87195 171.45386"><defs><style>.cls-1{fill-rule:evenodd;}</style></defs><g id="Capa_2" data-name="Capa 2"><g id="Capa_1-2" data-name="Capa 1"><path class="cls-1" d="M105.28949,37.066l-.01554.004a2.8558,2.8558,0,0,0-1.32743.72987l-.01165.0119a2.82618,2.82618,0,0,0-.47484.61249L63.39141,105.11482l-11.005-5.24806a2.85639,2.85639,0,0,0-3.80265,1.33836L35.11624,129.14381l-2.4791-5.63309a2.85677,2.85677,0,0,0-5.28545.13643L11.36716,165.74042H2.85684a2.85672,2.85672,0,1,0,0,5.71344H196.01511a2.85672,2.85672,0,1,0,0-5.71344H186.658L164.80348,103.4247a2.85734,2.85734,0,0,0-5.28254-.26728l-4.4047,9.39374L142.55662,76.99381a2.85676,2.85676,0,0,0-1.50708-1.64666l-18.54228-8.47706L108.49786,38.5806a2.90036,2.90036,0,0,0-.503-.71288l-.00971-.01189a2.83543,2.83543,0,0,0-1.10215-.70317l-.01262-.004a2.87031,2.87031,0,0,0-.27578-.0806l-.01748-.00388a2.84531,2.84531,0,0,0-1.28859.00206Zm1.34394,10.62552-9.13374,31.4408,12.0906,3.87791a2.85629,2.85629,0,0,1,1.06816,4.81764S94.0777,103.173,87.3279,109.42048l13.5666,8.05732a2.85584,2.85584,0,0,1,.50689,4.52924L78.50781,143.72079,84.69537,150.55a2.85489,2.85489,0,0,1-.07866,3.92063L73.54184,165.73969h28.20525L132.86744,125.147a2.85627,2.85627,0,0,1,4.51152-.02889l7.42468,9.42967,6.85661-14.626-14.088-39.8829-18.36361-8.39428a2.85717,2.85717,0,0,1-1.3721-1.33059L106.63343,47.69128ZM97.05592,60.18,66.9542,110.28278a2.85817,2.85817,0,0,1-3.67932,1.10675L52.49617,106.25,38.145,136.024l5.6729,12.892,8.084-2.76556a2.85767,2.85767,0,0,1,3.75895,2.34388l2.18682,17.24617h7.68492l13.12089-13.35127-6.25359-6.89982a2.85559,2.85559,0,0,1,.14954-3.99128s15.70389-14.89452,22.17985-21.03692L81.12,112.38a2.8572,2.8572,0,0,1-.4797-4.553l22.54788-20.86966L93.10858,83.72468a2.857,2.857,0,0,1-1.87122-3.51813l5.81953-20.0263ZM17.479,165.73994H52.08542l-1.65468-13.04782-7.248,2.47983a2.85836,2.85836,0,0,1-3.54046-1.55344l-6.50024-14.77314a2.86307,2.86307,0,0,1-1.22062-2.77333l-1.70517-3.876L17.479,165.73994Zm163.12452,0-18.87632-53.82579-13.71518,29.254a2.85759,2.85759,0,0,1-4.832.554l-8.01412-10.18-26.21847,34.19787h71.656ZM40.35314,64.92215V76.83942a2.85684,2.85684,0,1,0,5.71368,0V64.92215a2.85684,2.85684,0,1,0-5.71368,0Zm18.56656-5.3238,8.42681,8.42705A2.85719,2.85719,0,1,0,71.388,63.98557l-8.42778-8.4273a2.85694,2.85694,0,1,0-4.04056,4.04008ZM19.07345,68.0254l8.42681-8.42705a2.85694,2.85694,0,0,0-4.04056-4.04008l-8.42778,8.4273a2.85719,2.85719,0,1,0,4.04153,4.03983ZM43.208,18.51425a21.33455,21.33455,0,1,0,21.336,21.33394A21.34416,21.34416,0,0,0,43.208,18.51425Zm0,5.71356A15.62081,15.62081,0,1,1,27.58766,39.84819,15.62783,15.62783,0,0,1,43.208,24.22781Zm0,3.52517A12.09588,12.09588,0,1,0,55.30349,39.84843,12.10192,12.10192,0,0,0,43.208,27.753Zm0,5.71344a6.38232,6.38232,0,1,1-6.38177,6.38177A6.38449,6.38449,0,0,1,43.208,33.46642ZM6.21863,42.70612H18.13638a2.85727,2.85727,0,0,0,0-5.71453H6.21863a2.85727,2.85727,0,0,0,0,5.71453Zm62.064,0H80.20036a2.85727,2.85727,0,0,0,0-5.71453H68.28261a2.85727,2.85727,0,0,0,0,5.71453ZM15.03192,15.712l8.42681,8.42717a2.85723,2.85723,0,0,0,4.04153-4.03995l-8.42778-8.42718a2.8569,2.8569,0,0,0-4.04056,4.04ZM62.95929,24.1392,71.3861,15.712a2.8569,2.8569,0,1,0-4.04056-4.04l-8.42778,8.42718a2.85723,2.85723,0,1,0,4.04153,4.03995ZM40.35314,2.85684V14.7752a2.85684,2.85684,0,0,0,5.71368,0V2.85684a2.85684,2.85684,0,0,0-5.71368,0Z"/></g></g></svg>