<svg xmlns="http://www.w3.org/2000/svg" viewBox="0 0 131.67848 182.05256"><defs><style>.cls-1{fill-rule:evenodd;}</style></defs><g id="Capa_2" data-name="Capa 2"><g id="Capa_1-2" data-name="Capa 1"><path class="cls-1" d="M10.1254,80.17293C4.70712,83.21817,1.63921,87.94005.10251,93.7577a2.81194,2.81194,0,0,0-.05039,1.29114l.00528.02377.00353.01848,15.79278,75.1356a2.8253,2.8253,0,0,0,1.69711,2.03574c31.814,13.0074,63.84357,13.09894,96.0932.00176a2.824,2.824,0,0,0,1.69865-2.02033L131.614,95.10869l.00881-.04048.00352-.01761a2.82184,2.82184,0,0,0-.02421-1.19213c-1.42668-6.38752-4.79537-10.83569-9.82618-13.62217,1.56267-10.77672-1.79634-18.41227-10.16525-22.78034a18.6954,18.6954,0,0,0-5.20838-11.15386A19.59364,19.59364,0,0,0,96.2516,41.26777c.62379-5.46163-.23609-9.94544-2.59836-13.29344a15.13216,15.13216,0,0,0-7.38295-5.43567C84.38748,14.27074,80.021,7.3591,74.63765,1.00018a2.82711,2.82711,0,0,0-4.82706.896c-6.00115,17.21265-19.73092,28.7586-38.20017,36.8725a2.71326,2.71326,0,0,0-.43633.23983c-6.45023,4.31967-8.52865,9.14937-7.98957,14.185-3.19135,2.504-4.94236,5.253-5.36614,8.08133a9.84544,9.84544,0,0,0,.37955,4.47985,15.74644,15.74644,0,0,0-6.44847,5.81764,13.33189,13.33189,0,0,0-1.62406,8.60061Zm52.88709,33.46421v62.717q-4.86359-.10826-9.72519-.63721l-6.753-62.03139,6.94046,5.11354a2.82511,2.82511,0,0,0,3.48949-.10605l6.04824-5.05589Zm5.65349-.11178,6.399,5.19407a2.82861,2.82861,0,0,0,3.50225.048l6.3521-4.87327-7.13431,61.821q-4.56259.4964-9.119.62313V113.52536Zm-44.2-1.667,4.67216,4.34343a2.82544,2.82544,0,0,0,3.28045.4097l8.25626-4.51242,6.84167,62.84243q-4.73817-.75912-9.46665-1.91516L24.466,111.8584Zm83.34059-.441L93.08644,173.0167q-4.76556,1.16309-9.521,1.92264l7.25071-62.82967,8.11038,4.49438a2.82856,2.82856,0,0,0,3.21026-.32653l5.66978-4.86007Zm-89.90722-3.04876L31.8859,171.34974q-5.40751-1.6212-10.80951-3.76255h0L8.78695,109.11944l.90939,1.42669a2.82582,2.82582,0,0,0,4.01668.78683l4.18633-2.96427Zm96.42567.09506,3.72932,2.81816a2.82684,2.82684,0,0,0,4.09985-.75514l.51378-.82028-.48759,2.25136L110.135,167.57839q-5.41938,2.13608-10.833,3.752l15.0229-62.86662Zm11.492-14.43409a14.08436,14.08436,0,0,0-7.49032-9.21582c-40.58884,15.25085-75.827,15.73492-105.111.11706a15.08415,15.08415,0,0,0-7.31738,9.13836L12.86766,105.004l5.19759-3.68158a2.81551,2.81551,0,0,1,.6579-.35821l.02244-.00924a2.85965,2.85965,0,0,1,.62181-.15534,2.8296,2.8296,0,0,1,2.29383.73314l9.83345,9.14057,10.13555-5.54a2.81366,2.81366,0,0,1,.91577-.32828l.018-.00264c.081-.01321.163-.02333.24512-.02993l.01716-.00176a2.796,2.796,0,0,1,1.28235.20859l.018.007a2.87081,2.87081,0,0,1,.5778.32873L55.041,112.93171l8.98544-7.51012a2.83153,2.83153,0,0,1,.60729-.3877l.02244-.01056a2.81348,2.81348,0,0,1,1.13207-.25876h.03146l.03169-.00088h.02882a2.80552,2.80552,0,0,1,1.15891.26668l.02442.01056a2.8408,2.8408,0,0,1,.5569.35469l9.27567,7.52685,9.875-7.57614a2.83582,2.83582,0,0,1,.65261-.374,2.80627,2.80627,0,0,1,1.26166-.20243l.02267.00176a2.85607,2.85607,0,0,1,.2867.03609l.02244.0044a2.82881,2.82881,0,0,1,.88585.32829l10.04534,5.565L110.74,101.45529a2.8404,2.8404,0,0,1,1.12392-.5888l.01981-.0044a2.84644,2.84644,0,0,1,1.72307.10561l.01892.007a2.819,2.819,0,0,1,.69288.3987l4.68228,3.53723,6.81614-10.88189ZM109.51864,62.764c-19.78328,19.31439-45.52481,26.35541-75.579,24.4341,24.00856,6.74881,51.50551,3.9016,82.214-7.60739,1.14461-7.786-.87506-13.49631-6.63484-16.82671ZM93.846,46.58858C70.00884,65.1958,46.13384,73.278,22.29559,70.0607c-2.68109,1.13757-4.6,2.55237-5.67331,4.37732a7.74656,7.74656,0,0,0-.90477,4.875c36.55126,6.31756,67.6378,1.41745,90.29977-21.03416a13.20944,13.20944,0,0,0-3.5786-7.9458c-2.05158-2.01637-4.93268-3.22126-8.59269-3.74494ZM84.591,27.94924c-16.7343,16.421-35.40731,27.43842-57.35087,29.262-2.166,1.54551-3.56187,3.10245-3.83119,4.90055a4.56255,4.56255,0,0,0,.36129,2.43971c22.2329,2.77153,44.43148-5.09637,66.66262-22.47053.75449-4.49481.48055-8.18167-1.3994-10.84757A9.46958,9.46958,0,0,0,84.591,27.9488Zm-3.83471-4.159A41.07091,41.07091,0,0,0,73.30668,8.40557C66.1211,24.50046,52.33258,35.79514,34.12032,43.84082c-3.46,2.36843-5.10914,4.86491-5.30651,7.537C48.62064,49.15459,65.51007,38.78933,80.7563,23.7902Z"/></g></g></svg>