<svg xmlns="http://www.w3.org/2000/svg" viewBox="0 0 147.30845 147.4808"><g id="Capa_2" data-name="Capa 2"><g id="Capa_1-2" data-name="Capa 1"><path d="M18.1294,57.01854a1.77458,1.77458,0,1,0-1.772,1.773,1.77374,1.77374,0,0,0,1.772-1.773"/><path d="M27.40877,42.2938a1.77609,1.77609,0,1,0-1.77508,1.77406,1.77428,1.77428,0,0,0,1.77508-1.77406"/><path d="M42.72149,48.872a1.77457,1.77457,0,1,0-1.772,1.77407,1.77407,1.77407,0,0,0,1.772-1.77407"/><path d="M42.09651,87.55679a1.77483,1.77483,0,1,0-1.77508,1.772,1.77374,1.77374,0,0,0,1.77508-1.772"/><path d="M50.88777,89.32883a1.7761,1.7761,0,1,0-1.77508,1.77406,1.77223,1.77223,0,0,0,1.77508-1.77406"/><path d="M51.21622,104.96088a1.77609,1.77609,0,1,0-1.77508,1.77406,1.77482,1.77482,0,0,0,1.77508-1.77406"/><path d="M59.73224,98.16469a1.77457,1.77457,0,1,0-1.772,1.77406,1.77406,1.77406,0,0,0,1.772-1.77406"/><path d="M116.50588,69.62555a1.77458,1.77458,0,1,0-1.77153,1.7761,1.77222,1.77222,0,0,0,1.77153-1.7761"/><path d="M132.773,49.57558a1.77457,1.77457,0,1,0-1.772,1.77609,1.77407,1.77407,0,0,0,1.772-1.77609"/><path d="M123.90778,58.8879A1.77457,1.77457,0,1,0,122.1327,60.662a1.77234,1.77234,0,0,0,1.77508-1.77406"/><path d="M128.01855,35.91527a1.7761,1.7761,0,1,0-1.77711,1.77508,1.77483,1.77483,0,0,0,1.77711-1.77508"/><path d="M117.34171,44.41964a1.77457,1.77457,0,1,0-1.77507,1.77406,1.77666,1.77666,0,0,0,1.77507-1.77406"/><path d="M109.5338,52.33805a1.7761,1.7761,0,1,0-1.77609,1.77406,1.77493,1.77493,0,0,0,1.77609-1.77406"/><path d="M104.56186,64.29525a1.77458,1.77458,0,1,0-1.77508,1.77609,1.77094,1.77094,0,0,0,1.77508-1.77609"/><path d="M93.30617,74.009a1.77457,1.77457,0,1,0-1.77153,1.77406A1.7719,1.7719,0,0,0,93.30617,74.009"/><path d="M116.33,85.84963a1.77457,1.77457,0,1,0-1.77508,1.77407A1.77125,1.77125,0,0,0,116.33,85.84963"/><path d="M122.1327,105.57521a1.77432,1.77432,0,1,0-1.77254,1.77407,1.77243,1.77243,0,0,0,1.77254-1.77407"/><path d="M80.99771,11.0074a1.77458,1.77458,0,1,0-1.77407,1.77406,1.77234,1.77234,0,0,0,1.77407-1.77406"/><path d="M31.08971,56.94352a1.7761,1.7761,0,1,0-1.77508,1.77407,1.776,1.776,0,0,0,1.77508-1.77407"/><path d="M127.63332,89.32883a1.77356,1.77356,0,1,0-1.77508,1.77406,1.77126,1.77126,0,0,0,1.77508-1.77406"/><path d="M52.84583,43.02877a1.77458,1.77458,0,1,0-1.7761,1.77406,1.77655,1.77655,0,0,0,1.7761-1.77406"/><path d="M115.56562,113.75821a1.77457,1.77457,0,1,0-1.77406,1.7761,1.77168,1.77168,0,0,0,1.77406-1.7761"/><path d="M98.17269,55.60132a1.77458,1.77458,0,1,0-1.772,1.772,1.77255,1.77255,0,0,0,1.772-1.772"/><path d="M73.78081,16.436a1.77356,1.77356,0,1,0-1.77508,1.77406A1.773,1.773,0,0,0,73.78081,16.436"/><path d="M52.59138,117.15834a1.77407,1.77407,0,1,0-1.77508,1.77609,1.77384,1.77384,0,0,0,1.77508-1.77609"/><path d="M62.61332,109.27034a1.77457,1.77457,0,1,0-1.77508,1.77508,1.77472,1.77472,0,0,0,1.77508-1.77508"/><path d="M40.32042,96.3886a1.77305,1.77305,0,1,0-1.77407,1.77609,1.77483,1.77483,0,0,0,1.77407-1.77609"/><path d="M73.64111,147.4808a73.307,73.307,0,0,1-24.95019-4.35059c-.04834-.01514-.09619-.03125-.144-.04834l-.61963-.22607q-.1128-.041-.2212-.08936A73.62515,73.62515,0,0,1,8.00293,40.472a3.456,3.456,0,0,1,.14844-.34082A73.60631,73.60631,0,0,1,26.4751,17.28353a3.31187,3.31187,0,0,1,.41162-.29736A73.36429,73.36429,0,0,1,61.54443,1.19271q.16334-.05419.33106-.09473c10.57373-2.519,23.7583-.02783,27.54785.79492q.12378.02711.24463.063A73.48031,73.48031,0,0,1,121.87891,18.242a4.51791,4.51791,0,0,1,.36572.29345q1.50805,1.344,2.8999,2.71924a73.42646,73.42646,0,0,1,22.07324,49.51416,58.24833,58.24833,0,0,1,.01661,6.22315c-.00684.11474-.01856.22851-.03467.34033A73.73088,73.73088,0,0,1,73.64111,147.4808Zm-20.5708-8.14795a68.66436,68.66436,0,0,0,88.876-58.68555h-1.20361l-.38086.31738a4.48821,4.48821,0,0,1-2.877,1.043h-.99023a4.51449,4.51449,0,0,1-2.64209-.86182l-2.9082-2.11084,1.74072,2.05762a1.03309,1.03309,0,0,0,.667.355l.48145.05664a3.88454,3.88454,0,0,1,3.42773,3.856v1.96728a3.89553,3.89553,0,0,1-1.26367,2.86622L133.71631,92.266a3.03762,3.03762,0,0,0-.9082,1.54l-2.84571,11.9917a7.82189,7.82189,0,0,1-.97265,2.333l-8.73731,14.0083a6.94159,6.94159,0,0,1-5.93164,3.28857,6.73069,6.73069,0,0,1-5.54443-2.90771l-1.20948-1.74658a7.62671,7.62671,0,0,1-1.32861-3.74463L104.60645,95.4764l-3.60352-3.22607H92.70947a3.86907,3.86907,0,0,1-3.22412-1.72071l-5.40576-8.02588a3.86718,3.86718,0,0,1-.60107-1.48779L82.2124,74.04818a3.87013,3.87013,0,0,1,1.07276-3.44043l7.459-7.459V61.13119l-1.582-1.41748a3.87314,3.87314,0,0,1-.80859-4.76709L90.8457,50.4515A3.87325,3.87325,0,0,1,94.23682,48.45h.21289a6.81337,6.81337,0,0,1-1.16211-.31591l-3.25391-1.21387a3.88055,3.88055,0,0,1,.27-7.36133l1.5293-.44971v-.8247a3.88653,3.88653,0,0,1,3.88183-3.88282h2.82178a4.38755,4.38755,0,0,1,1.45264.24463c-.00147-.0415-.002-.08252-.002-.124v-.53418a3.88839,3.88839,0,0,1,1.96338-3.374l1.84815-1.05567v-.41015a5.02729,5.02729,0,0,1,2.34131-4.27l8.92724-5.73487A68.44672,68.44672,0,0,0,91.79785,7.63656l-.16211.61865a4.12226,4.12226,0,0,1-1.51367,2.25049l-1.45019,1.08545v3.70654a4.85357,4.85357,0,0,1-1.563,3.5625L77.09131,28.08138a6.43686,6.43686,0,0,0-.835.939l-4.231,5.81591a4.27645,4.27645,0,0,1-6.00928.917l-7.31738-5.4375a4.97533,4.97533,0,0,1-1.60059-2.02686c-.0288.02051-.05761.041-.0874.061L55.251,29.52181a4.50428,4.50428,0,0,1-2.50782.7583H50.99268a4.49742,4.49742,0,0,1-2.78516-.96972l-2.92773-2.29151-6.313,5.92041,1.4165,1.877,1.71289.05225,4.648-3.18945a4.32213,4.32213,0,0,1,2.34229-.75879l3.07519-.07813a4.16875,4.16875,0,0,1,3.24707,1.39014l6.68457,7.269A4.81323,4.81323,0,0,1,63.28711,41.909l.79785,4.34521a3.36371,3.36371,0,0,1-1.22558,3.27051L59.584,52.16292a4.483,4.483,0,0,1-1.81054.88868l-7.53858,1.82714a3.29806,3.29806,0,0,1-1.15771,2.21241l-8.189,6.93994-.02929.8457a3.98894,3.98894,0,0,1-3.65674,3.83985l-8.28906.68261-.34717.64893,9.03027,10.09228,13.23584.19483a6.2883,6.2883,0,0,1,3.61914,1.21679L63.55811,88.263a1.86711,1.86711,0,0,0,.63476.30371l1.15332.3086a5.79728,5.79728,0,0,1,3.69092,3.00732l3.27246,6.54981a5.19019,5.19019,0,0,1,.5166,2.9165l-.84668,7.63623a6.43158,6.43158,0,0,1-.67187,2.2334c-.42627.831-1.144,2.21875-1.79981,3.48681l-1.0708,2.07276a6.66792,6.66792,0,0,1-1.81885,2.18994l-4.40576,3.44434a2.77223,2.77223,0,0,0-.85254,1.126l-.01757.04639a6.6579,6.6579,0,0,1-2.31543,2.93359L53.396,130.49691a1.66836,1.66836,0,0,0-.70557,1.45361ZM7.78516,54.46078a68.668,68.668,0,0,0,37.26709,81.77978L42.41113,120.9432a.61848.61848,0,0,0-.168-.32324l-.873-.87256a5.87006,5.87006,0,0,1-1.70948-4.125v-3.7627a.6534.6534,0,0,0-.19189-.458l-4.69238-4.69336a4.93,4.93,0,0,1-1.44922-3.499.18872.18872,0,0,0-.10645-.1709,3.8959,3.8959,0,0,1-2.26513-3.5039V95.54818a4.63473,4.63473,0,0,1,1.19189-3.11133L33.292,91.15267a.93909.93909,0,0,0,.22119-.7959l-.32666-1.76221a1.11566,1.11566,0,0,0-.45361-.70361L21.80518,80.16927a6.6422,6.6422,0,0,1-.60059-.47851L9.92676,69.50179a6.54237,6.54237,0,0,1-2.1416-4.82324ZM35.95557,98.8597a5.21659,5.21659,0,0,1,2.37158,4.34961l4.67724,4.65723a5.68967,5.68967,0,0,1,1.65625,3.99316v3.7627a.8377.8377,0,0,0,.24366.58838l.87256.87255a5.5898,5.5898,0,0,1,1.56005,3.00147l1.40967,8.16553a6.69869,6.69869,0,0,1,1.7627-1.83594l5.62744-3.97608a1.62507,1.62507,0,0,0,.56152-.70507l.01807-.04834a7.82529,7.82529,0,0,1,2.41455-3.21l4.4082-3.44629a1.694,1.694,0,0,0,.45948-.55274l1.06787-2.06689c.65332-1.26319,1.36767-2.645,1.79394-3.47608a1.41558,1.41558,0,0,0,.1499-.50244l.84717-7.64209a.214.214,0,0,0-.02051-.12158l-3.272-6.54883a.79555.79555,0,0,0-.5083-.41162l-1.1582-.31006a6.82532,6.82532,0,0,1-2.313-1.11328l-9.09863-6.70459a1.25375,1.25375,0,0,0-.7212-.24365L36.9834,85.13167a6.10355,6.10355,0,0,1,1.11767,2.54346l.32813,1.76856a5.9704,5.9704,0,0,1-1.40674,5.03808l-1.06689,1.19678ZM93.30518,87.25033h8.12451a3.897,3.897,0,0,1,2.57373.97558l4.27148,3.82324a3.9005,3.9005,0,0,1,1.28272,2.59034l1.666,22.01025a2.62123,2.62123,0,0,0,.45655,1.28125l1.20947,1.74658a1.73541,1.73541,0,0,0,1.43115.75,1.97249,1.97249,0,0,0,1.6875-.93213l8.73877-14.01074a2.80754,2.80754,0,0,0,.3501-.8418l2.84765-11.99853a8.031,8.031,0,0,1,2.40625-4.07666l1.91016-1.73486v-.501a6.01908,6.01908,0,0,1-3.38428-1.999l-4.69677-5.52832A5.06733,5.06733,0,0,1,122.98,75.742l-.11523-2.57569a4.20832,4.20832,0,0,1,1.12011-3.03808l1.48145-1.57373a3.8972,3.8972,0,0,1,5.47949-.17725l.564.53223a3.88848,3.88848,0,0,1,1.21972,2.8247v2.41846l3.93311,2.855h.6372l.39356-.32764a4.446,4.446,0,0,1,2.85449-1.03271h1.71c.01563-.59912.02344-1.20361.02344-1.80664q0-1.78491-.09033-3.54688a69.91447,69.91447,0,0,0-20.94385-45.85791q-1.03857-1.00049-2.11865-1.95849l-10.29883,6.61621-.03076.54883a4.86873,4.86873,0,0,1-1.78711,3.76172h2.74121l2.69434-3.23682a4.60563,4.60563,0,0,1,3.53808-1.65869h1.23535a4.65641,4.65641,0,0,1,4.65039,4.65234v1.64014a4.53989,4.53989,0,0,1-2.03955,3.79687l-3.90381,2.59375a4.97013,4.97013,0,0,1-2.77392.83936h-6.13965l-.876,1.50976a3.88469,3.88469,0,0,1-3.355,1.93409h-.54394a3.88528,3.88528,0,0,1-3.87793-3.88379V39.48226l-.08008-.08057H96.833v.54541a3.91081,3.91081,0,0,1-2.03858,3.4126l.23145.08643a1.8026,1.8026,0,0,0,.62158.10986h.38525a3.88653,3.88653,0,0,1,3.88086,3.88379v2.12891A3.88538,3.88538,0,0,1,96.03271,53.45H94.90039L93.16211,56.5848l1.2915,1.15723a3.90078,3.90078,0,0,1,1.29053,2.89355v2.98047A3.85318,3.85318,0,0,1,94.605,66.35872l-7.36865,7.36915,1.12207,6.17822Zm-57.4336,8.52246-.002.00244ZM93.6333,87.73763l.0044.00635ZM12.78516,42.10775v22.5708a1.52581,1.52581,0,0,0,.50244,1.12158L24.54346,75.96956a1.77147,1.77147,0,0,0,.1416.1128l6.98974,4.93847L24.398,72.889a4.06955,4.06955,0,0,1-.55274-4.61572l.94336-1.76465a3.86233,3.86233,0,0,1,3.11426-2.04346l7.98975-.65771.00879-.25A4.344,4.344,0,0,1,37.4292,60.408l7.54932-6.398a3.31171,3.31171,0,0,1,2.51806-3.6123l9.02393-2.1875,2.47412-1.99268-.61914-3.37207L51.94189,35.849l-2.53125.06445L44.86035,39.036a4.723,4.723,0,0,1-2.83887.83252l-1.978-.06006a4.59488,4.59488,0,0,1-3.541-1.83447l-1.645-2.17969a4.4548,4.4548,0,0,1-.89062-2.666v-.45411a4.40653,4.40653,0,0,1,1.40088-3.21777l6.82812-6.3999a3.88707,3.88707,0,0,1,2.66943-1.05713h.74854a3.98007,3.98007,0,0,1,2.44873.84863l3.1084,2.43213h1.4292l.19336-.1289-3.606-4.67334L38.70557,21.71712a11.579,11.579,0,0,1-1.394.08057l-8.05371-.2793A69.10719,69.10719,0,0,0,12.78516,42.10775ZM140.90234,80.51449l-.00439.00341Zm-52.5039-.38965.002.01074Zm48.75976-2.999-.00293.00245Zm-.36572-.02392.00195.00146ZM87.13037,73.14583l.00147.00733ZM28.312,69.44857l-.00488.00049Zm.88916-.58838-.00293.00488Zm19.47656-13.604-.01318.00341ZM45.854,53.26839l-.01269.01075Zm49.36817-.39892-.00293.00537Zm-45.5835-.24121.02344.03271Zm6.7959-4.34864-.01123.00928Zm.1792-.09179-.00488.001ZM59.166,47.15072l.00488.02588Zm.57373-1.53321-.021.01661ZM91.7124,44.35628l-.00586.00147Zm10.1001-3.32373-.00244.00489Zm-3.22559-1.32422.0083.00782Zm-.49023-.49121.00146.00147Zm5.1875-.85742c.01611.08447.03027.16944.0415.2544.06885-.07715.13965-.15186.21338-.22413C103.45312,38.38265,103.36816,38.37289,103.28418,38.3597Zm12.8877-4.85107L113.606,36.59456q-.14868.17945-.31153.34327l3.57666-2.376V33.50863ZM51.71045,35.59749l.00976.01075Zm52.71973-.64111-.0044.00244Zm-62.4043-.03955-.00147.001Zm.15527-.0459h0Zm74.8877-.44043-.00147.001ZM38.78271,33.10824l-.00341.00341ZM59.98633,10.09261a4.88864,4.88864,0,0,1,1.94873,1.59473l1.4043,1.94092A4.61613,4.61613,0,0,1,63.98,17.76205L61.69922,24.6766l-.00928,1.6416,6.72168,4.98633,3.79785-5.22022A11.39033,11.39033,0,0,1,73.69922,24.408l9.97266-9.18017V11.17855a4.20567,4.20567,0,0,1,1.65771-3.33106L86.87744,6.6888l.05176-.19824a69.08879,69.08879,0,0,0-23.64453-.51123ZM44.97754,26.78255l.00293.00244Zm6.32031-1.40283.0044.00342ZM49.457,15.44124a4.40141,4.40141,0,0,1,3.48535,1.71827l4.18311,5.42138,2.0415-6.18945-1.25683-1.7373h-.18995a3.78463,3.78463,0,0,1-3.78173-3.7793,3.34408,3.34408,0,0,1,.7124-2.1211l.91357-1.13916a68.33857,68.33857,0,0,0-19.97412,9.12159l1.80811.063a6.74278,6.74278,0,0,0,.71289-.04687l10.83154-1.28076A4.32871,4.32871,0,0,1,49.457,15.44124Zm-.48047,4.76368.00342.0039Z"/></g></g></svg>