<svg xmlns="http://www.w3.org/2000/svg" viewBox="0 0 148.73574 150.99789"><defs><style>.cls-1{fill-rule:evenodd;}</style></defs><g id="Capa_2" data-name="Capa 2"><g id="Capa_1-2" data-name="Capa 1"><path class="cls-1" d="M10.90243,35.60466l-.01053.0178-.00363.00508A73.9699,73.9699,0,0,0,0,74.32856v.07009A74.25909,74.25909,0,0,0,3.20457,96.01142a2.45426,2.45426,0,0,0,4.69628-1.4278,69.21776,69.21776,0,0,1-2.9591-18.0567l10.73268-1.35409a2.455,2.455,0,0,0,2.147-2.43475V64.62916L24.667,57.06275a2.45336,2.45336,0,0,0,.34569-2.8L15.81877,37.00124A69.77506,69.77506,0,0,1,48.61485,9.84683l14.286,8.90925a2.45764,2.45764,0,0,0,2.14044.223l16.55718-6.04093a2.45554,2.45554,0,0,0,1.613-2.3062V5.46719a69.34816,69.34816,0,0,1,43.00023,22.69416h-8.09712a2.45354,2.45354,0,0,0-1.83849.82756l-8.32172,9.40745h-15.035a2.455,2.455,0,0,0-2.45417,2.45436v17.715a2.45426,2.45426,0,0,0,2.45417,2.45435h9.84175a2.45433,2.45433,0,0,0,1.95215-.96663l5.56215-7.29988h10.6822l8.36638,16.01194a2.45417,2.45417,0,0,0,2.17511,1.31778H143.697q.12936,2.12973.13018,4.2845A69.45522,69.45522,0,0,1,16.69934,113.07461a2.45433,2.45433,0,0,0-4.07243,2.7405,74.75415,74.75415,0,0,0,29.16938,25.4165,50.70637,50.70637,0,0,1-14.84378,4.71879c-4.721.58245-8.374-.14561-11.07274-2.01534C10.251,140.03475,8.89,131.65022,9.85446,121.917c1.2486-12.59785,6.67748-27.44381,13.96937-39.083,4.74531-7.57622,10.259-13.802,15.97183-17.01018a2.45441,2.45441,0,0,0-2.40352-4.28014c-6.30565,3.54154-12.49,10.32252-17.72862,18.68417C11.97855,92.49638,6.2864,108.15465,4.97008,121.433c-1.17217,11.83167,1.27166,21.7947,8.11346,26.53564,6.57345,4.555,17.693,4.58553,34.60407-4.16975A74.39868,74.39868,0,0,0,148.73574,74.36778q0-3.51486-.32209-6.95346a.31241.31241,0,0,0-.0029-.03631A73.98883,73.98883,0,0,0,133.3825,29.13125l-.00527-.00762-.00889-.0109A74.29775,74.29775,0,0,0,80.98517.29159L80.977.29086,80.96356.28941Q77.70961.00236,74.36778,0A74.35389,74.35389,0,0,0,10.90243,35.605Zm39.80292,93.42743a2.4538,2.4538,0,0,0,3.85075,2.01752l10.23519-7.086a2.45369,2.45369,0,0,0,1.0576-2.01752V113.811L76.566,106.66656a2.45353,2.45353,0,0,0,1.09246-2.0422V92.02722a2.4538,2.4538,0,0,0-2.45417-2.45435H60.25334l-5.1678-6.5464a2.45551,2.45551,0,0,0-1.926-.93323H38.98716a2.45381,2.45381,0,0,0-2.454,2.454v20.07713a2.45357,2.45357,0,0,0,2.454,2.454H50.70535v21.95374Zm4.90853-4.68357v-19.7238a2.45473,2.45473,0,0,0-2.45417-2.45436H41.44152V87.00195H51.96975l5.16853,6.5464a2.4555,2.4555,0,0,0,1.926.93323h13.686v8.82972l-10.71706,7.14446a2.4545,2.4545,0,0,0-1.09246,2.04221v8.16266l-5.32685,3.68789Zm39.57525-2.79642a2.45419,2.45419,0,0,0,2.45417,2.454h12.59786a2.45753,2.45753,0,0,0,1.50224-.5131l12.20387-9.44848a2.45422,2.45422,0,0,0,.95175-1.94017v-10.775l8.74057-15.58092a2.45487,2.45487,0,0,0-2.14043-3.65521h-7.65084l-7.16171-12.17482a2.45429,2.45429,0,0,0-2.115-1.20993H88.98316A2.45427,2.45427,0,0,0,86.529,71.16285v21.258a2.45372,2.45372,0,0,0,2.45418,2.454h6.206V121.5521Zm4.90834-2.454V92.42085a2.45418,2.45418,0,0,0-2.45417-2.454h-6.206V73.6172h21.73024L120.32928,85.792a2.45478,2.45478,0,0,0,2.11575,1.20993h4.86368L120.30405,99.4876a2.45637,2.45637,0,0,0-.3132,1.20086v10.21213l-10.58851,8.19752ZM61.91263,30.58774,38.88985,23.74286a2.45614,2.45614,0,0,0-2.39771.57991L30.5064,30.0594a2.45424,2.45424,0,0,0,.68268,4.00635l19.436,8.83262-2.5642,2.79678-9.63948-2.53206a2.45452,2.45452,0,0,0-2.32327.60315L30.505,49.13575a2.45393,2.45393,0,0,0,.44192,3.87816L43.172,60.30653l7.29025,12.12108a2.45365,2.45365,0,0,0,3.82188.48695l5.59393-5.48971a2.45331,2.45331,0,0,0,.64618-2.40569l-2.52989-9.14492L60.70869,53.133l8.39906,19.02079a2.454,2.454,0,0,0,3.78974.9158l6.57636-5.3292a2.45571,2.45571,0,0,0,.79215-2.65734L72.57631,41.1463l6.7926-6.8605a2.5295,2.5295,0,0,0,.29449-.35986s4.64127-7.01882,5.59392-10.73866a4.35587,4.35587,0,0,0-.75112-4.22168,4.60508,4.60508,0,0,0-4.25981-.79379c-3.98746.88276-11.69059,5.33211-11.69059,5.33211a2.43535,2.43535,0,0,0-.571.46044l-6.07216,6.62338ZM12.91323,41.9862a69.06238,69.06238,0,0,0-7.95,29.59061l7.95005-1.00295V63.68359a2.45229,2.45229,0,0,1,.6342-1.64641l6.32271-6.989L12.91323,41.9862ZM68.6838,45.07748l-4.26507,4.30737L72.30106,67.2353l2.77772-2.251-6.395-19.90682Zm-.62766-6.342L75.71388,31.001a56.272,56.272,0,0,0,4.30066-7.65247,63.51735,63.51735,0,0,0-8.66686,4.21078l-6.83145,7.45094-.01489.01707-.02.02142-.00745.00835-7.91337,8.6311c-.02016.02215-.041.04539-.06173.06681l-5.82016,6.34886a2.45549,2.45549,0,0,1-2.43256.71463l-9.74135-2.55894L36.226,50.44736l9.98918,5.9585a2.46009,2.46009,0,0,1,.84571.84317L53.066,67.23312l2.34179-2.29894-2.52335-9.1224a2.45357,2.45357,0,0,1,.62167-2.38064L59.727,47.14765c.01852-.01925.03794-.03849.05719-.05774L68.028,38.76348l.02814-.028Zm62.14993-5.66619H119.21976l-8.32171,9.40745a2.4529,2.4529,0,0,1-1.83777.82756H95.37377v12.807h6.17238l5.562-7.29988a2.45277,2.45277,0,0,1,1.95216-.96663H122.445a2.453,2.453,0,0,1,2.17456,1.31705L132.986,65.17457h10.23664a69.11013,69.11013,0,0,0-13.01654-32.10524ZM58.22329,34.61188,38.85862,28.85419l-2.34034,2.24229,17.59626,7.996,4.10875-4.48059ZM78.30332,5.018q-1.95978-.10948-3.93554-.11039a69.35654,69.35654,0,0,0-19.79806,2.868l9.9131,6.18182,13.8205-5.042V5.018Z"/></g></g></svg>