<svg xmlns="http://www.w3.org/2000/svg" viewBox="0 0 188.32789 155.13784"><defs><style>.cls-1{fill-rule:evenodd;}</style></defs><g id="Capa_2" data-name="Capa 2"><g id="Capa_1-2" data-name="Capa 1"><path class="cls-1" d="M89.10927,145.14582a70.18721,70.18721,0,1,1,57.23144-68.98663,70.92905,70.92905,0,0,1-.47859,8.23333,2.9889,2.9889,0,0,0,5.93721.69535,76.09261,76.09261,0,1,0-61.59188,65.93442,2.9891,2.9891,0,0,0-1.09818-5.87647Z"/><path class="cls-1" d="M89.51785,25.51108A52.5293,52.5293,0,0,1,125.693,59.12665a2.98864,2.98864,0,1,0,5.65172-1.94572A58.524,58.524,0,0,0,91.04076,19.7302a2.98906,2.98906,0,0,0-1.52291,5.78088Z"/><path class="cls-1" d="M36.89653,84.8903c0,12.78687,5.40427,26.65625,14.66129,38.66625,13.76677,17.86184,36.01015,31.58129,61.05447,31.58129,41.8505,0,75.7156-33.6696,75.7156-70.24754a2.78768,2.78768,0,0,0-1.91967-2.79869,11.35586,11.35586,0,0,0-2.68711-.30851c-9.86541-.27751-59.18979.118-59.18979.118a2.9894,2.9894,0,0,0-2.09965.8859c-2.90259,2.93136-5.62039,4.58519-8.34363,4.59254-2.62749.007-5.06842-1.58285-7.529-4.44a2.98805,2.98805,0,0,0-2.253-1.03839s-52.21529-.20493-62.65793-.06075a22.919,22.919,0,0,0-2.30331.10646A2.832,2.832,0,0,0,36.89653,84.89Zm145.3776,2.84088c-1.70178,32.45825-32.322,61.42916-69.66184,61.42916-23.12258,0-43.60919-12.76193-56.31933-29.25257-7.69527-9.98435-12.55813-21.34566-13.31375-32.10242,11.52309-.10614,52.13665.039,59.98522.06842,3.584,3.76675,7.34631,5.49443,11.13991,5.48356,3.74725-.01023,7.68552-1.75389,11.67431-5.4874,7.267-.05626,45.474-.337,56.49548-.13875Z"/><path class="cls-1" d="M165.43917,84.83978c0,25.42924-23.73288,48.63046-52.82688,48.63046-17.52249,0-33.04138-9.68319-42.67342-22.17977-6.342-8.22885-10.15331-17.68953-10.15331-26.45069a2.989,2.989,0,0,0-5.978,0c0,9.95238,4.19163,20.75229,11.39664,30.09947C75.893,128.807,93.16807,139.44838,112.61229,139.44838c32.51707,0,58.80471-26.18757,58.80471-54.6086a2.98892,2.98892,0,0,0-5.97783,0Z"/><path class="cls-1" d="M156.79886,115.48147,120.58058,86.899a2.98894,2.98894,0,1,0-3.70328,4.69262l36.21843,28.58247a2.98889,2.98889,0,1,0,3.70313-4.69261Z"/><path class="cls-1" d="M74.18741,120.15586,110.40569,90.9912a2.98881,2.98881,0,1,0-3.749-4.65584L70.43841,115.5a2.98881,2.98881,0,1,0,3.749,4.65585Z"/><path class="cls-1" d="M115.9842,136.43038V90.35531a2.98891,2.98891,0,0,0-5.97782,0v46.07507a2.98891,2.98891,0,1,0,5.97782,0Z"/></g></g></svg>