<svg xmlns="http://www.w3.org/2000/svg" viewBox="0 0 91.97559 163.85686"><g id="Capa_2" data-name="Capa 2"><g id="Capa_1-2" data-name="Capa 1"><path d="M83.148,139.61719c-2.80713,0-3.333-2.84278-4.06055-6.77783-1.69824-9.18409-4.39453-18.94825-14.72021-20.02393-.625,2.54492-1.19678,4.84375-1.68311,6.7876a6.91605,6.91605,0,0,1-6.73047,5.26758c-5.0122,0-14.24756,0-19.25293-.00342a7.03487,7.03487,0,0,1-6.77783-5.188c-.52734-1.93311-1.15576-4.26318-1.84375-6.86816-10.437,1.05468-13.41846,10.86572-15.37988,20.09375-.85889,4.042-1.42676,6.7124-4.17822,6.7124-1.39307,0-3.3003,0-5.96924-11.70166A102.11648,102.11648,0,0,1,0,106.08984c0-8.86035,1.4707-16.0249,4.37158-21.29443a18.98846,18.98846,0,0,1,14.87256-10.167,84.32127,84.32127,0,0,1-1.55859-13.29883c0-12.16748,3.32129-26.1333,9.166-38.72705.00879-.01953.01758-.03858.02686-.05762q.57788-1.24438,1.18945-2.47021C32.90771,10.37012,40.24756,0,46.332,0c9.103,0,28.647,41.8418,28.647,61.32959a89.10552,89.10552,0,0,1-1.93115,13.30322,18.73826,18.73826,0,0,1,14.59229,9.87744c2.87695,5.14551,4.33545,12.15821,4.33545,20.84278a101.82866,101.82866,0,0,1-2.7002,22.29541C86.46826,139.61719,84.54932,139.61719,83.148,139.61719ZM20.17383,79.55127c-5.32813.53418-9.17432,3.23535-11.71778,8.21338-5.98925,11.71973-2.97021,32.48681-.26855,42.3457,1.707-7.69433,5.37354-20.43066,18.61426-22.189C24.57324,99.28369,22.01318,88.791,20.17383,79.55127ZM65.603,107.92041c12.977,1.72168,16.43261,14.02,17.97656,21.77588,2.72266-9.88623,6.08594-30.14893.085-42.01514-2.49463-4.93359-6.30517-7.6084-11.61084-8.13281-1.82666,8.75391-4.21973,18.98193-6.30957,27.62109A2.48253,2.48253,0,0,1,65.603,107.92041Zm-33.18457,1.71973c.94824,3.62841,1.76562,6.66064,2.3291,8.72656l.002.00635a2.02561,2.02561,0,0,0,1.95264,1.49414c5.00683.00342,14.24023.00342,19.25146.00342a1.92872,1.92872,0,0,0,1.87744-1.47168c.71143-2.84229,1.4292-5.74268,2.14014-8.65332.01026-.05372.02246-.10694.03613-.15918H32.40479C32.40967,109.604,32.41406,109.62207,32.41846,109.64014Zm-1.30469-5.05371h30.1084C65.88916,85.187,69.979,66.40674,69.979,61.32959c0-9.8584-4.84765-23.7002-10.26562-35.2041H30.69629c-4.44287,9.93408-8.01074,22.39844-8.01074,35.2041a91.64,91.64,0,0,0,1.94873,14.9751,2.54049,2.54049,0,0,1,.06738.35156C26.41309,85.56348,28.93262,96.02637,31.11377,104.58643Zm1.99609-83.46094H57.25049c-4.52783-8.78711-9.00684-15.3418-11.03906-16.1211C43.60986,5.19629,38.12793,11.47656,33.10986,21.12549ZM46.13525,4.97754ZM46.332,63.83105A15.57349,15.57349,0,1,1,61.90479,48.25732,15.59134,15.59134,0,0,1,46.332,63.83105Zm0-26.147A10.57349,10.57349,0,1,0,56.90479,48.25732,10.58536,10.58536,0,0,0,46.332,37.68408Z"/><path d="M37.18165,132.6489a2.68507,2.68507,0,0,0-5.37013,0v12.05889a2.68507,2.68507,0,0,0,5.37013,0V132.6489Z"/><path d="M60.22642,132.6489a2.68494,2.68494,0,0,0-5.36987,0v12.05889a2.68494,2.68494,0,0,0,5.36987,0V132.6489Z"/><path d="M48.76452,132.6489a2.68546,2.68546,0,0,0-5.37092,0v20.74631a2.68546,2.68546,0,0,0,5.37092,0V132.6489Z"/><path d="M34.619,150.03577a2.808,2.808,0,1,1-2.80774,2.80852,2.81008,2.81008,0,0,1,2.80774-2.80852Z"/><path d="M57.78552,150.03577a2.808,2.808,0,1,1-2.809,2.80852,2.80913,2.80913,0,0,1,2.809-2.80852Z"/><path d="M46.20213,158.23982a2.80852,2.80852,0,1,1-2.809,2.809,2.8098,2.8098,0,0,1,2.809-2.809Z"/></g></g></svg>