<svg xmlns="http://www.w3.org/2000/svg" viewBox="0 0 157.52956 200"><defs><style>.cls-1{fill-rule:evenodd;}</style></defs><g id="Capa_2" data-name="Capa 2"><g id="Capa_1-2" data-name="Capa 1"><path class="cls-1" d="M63.87367,42.939,21.881,81.512a2.62115,2.62115,0,0,0,1.77295,4.552h23.3833L10.58118,120.772a2.62173,2.62173,0,0,0,1.80713,4.52H40.505L.85755,161.35791a2.62164,2.62164,0,0,0,1.76367,4.561H28.24427a11.11438,11.11438,0,0,0,9.47559,7.427h.002c.03711.00293.07324.00586.10937.009l.05909.00488.02539.002.02929.00219.05909.00391.104.0061.063.00293.05566.00293.05908.002.05176.00195.061.0022.0542.00195.0581.001.05908.001h.28272l.0542-.001.06006-.001.05078-.001.061-.00195.05371-.0022.05762-.00195.05811-.002.05273-.00293.05908-.00318.104-.00586.061-.0039.02735-.0022.02783-.00195.05713-.00489.10937-.009h.002a11.11316,11.11316,0,0,0,9.47558-7.427h8.57227v26.3479A7.73679,7.73679,0,0,0,65.52943,200H91.51527a7.738,7.738,0,0,0,7.73437-7.73413V165.918h55.65869a2.62164,2.62164,0,0,0,1.76368-4.561s-29.9126-27.21-37.415-34.03491l.00439-.009a10.95,10.95,0,0,0,.835-2.022h28.583a2.62173,2.62173,0,0,0,1.8081-4.52l-36.457-34.708h20.11524a2.62112,2.62112,0,0,0,1.7749-4.55L93.99964,42.94287l-3.83105-13.939,11.791-8.60889a2.62176,2.62176,0,0,0-1.5459-4.739H85.94056L81.46449,1.81494a2.62123,2.62123,0,0,0-4.98829,0L72.00111,15.656H57.527a2.62176,2.62176,0,0,0-1.5459,4.739l11.78467,8.604L63.87367,42.938Zm-.83545,122.98023v26.34814a2.49231,2.49231,0,0,0,2.49072,2.491H91.51527a2.492,2.492,0,0,0,2.49072-2.491V165.91919Zm-23.55811,2.18286-.03906.00391-.03711.00512-.03711.00391-.03565.00391-.03613.00317c-.04931.00488-.09814.009-.14746.012l-.0459.00293-.03808.002-.03662.00195-.03711.0022-.03711.00195h-.25635l-.03613-.001h-.03614l-.03711-.001-.03613-.00122-.03711-.001-.03711-.00195-.0498-.002-.03613-.00195-.03614-.00195-.03613-.00293c-.04932-.00318-.09814-.00708-.147-.01221l-.04-.00391-.03711-.0039-.03613-.00415-.03614-.00391-.03613-.00415a5.85278,5.85278,0,1,1,1.4917,0ZM27.756,160.676a11.09734,11.09734,0,0,1,21.95654,0H148.13l-32.36718-29.4441a11.095,11.095,0,0,1-16.91358-5.91284h-50.583L9.39857,160.676H27.756Zm64.00586-23.957a7.032,7.032,0,1,0,7.03223,7.032,7.03541,7.03541,0,0,0-7.03223-7.032ZM57.588,133.02515a7.38794,7.38794,0,1,0,7.3877,7.38794,7.391,7.391,0,0,0-7.3877-7.38794Zm34.17383,8.936a1.78955,1.78955,0,1,1-1.79,1.79,1.79083,1.79083,0,0,1,1.79-1.79ZM57.588,138.26685a2.14551,2.14551,0,1,1-2.146,2.146,2.14675,2.14675,0,0,1,2.146-2.146ZM114.84779,124.405l-.01465.03418-.01319.02978-.01318.02808-.01221.0271a5.83837,5.83837,0,0,1-.95214,1.458l-.02686.032a5.82962,5.82962,0,1,1,1.03174-1.60913ZM54.62464,86.0791l-35.68066,33.97H47.28187a2.50154,2.50154,0,0,1,.37939.02808h50.896a11.09718,11.09718,0,0,1,21.81787-.02808h21.749l-35.68066-33.97H81.80531a11.09725,11.09725,0,0,1-21.95313,0H54.62464ZM87.30384,99.301a6.71448,6.71448,0,1,0,6.71387,6.71386A6.71777,6.71777,0,0,0,87.30384,99.301Zm-31.78271-.88916A6.7146,6.7146,0,1,0,62.236,105.126a6.71778,6.71778,0,0,0-6.71484-6.71411Zm31.78271,6.13232a1.47144,1.47144,0,1,1-1.47217,1.471,1.47121,1.47121,0,0,1,1.47217-1.471ZM55.52113,103.655a1.47144,1.47144,0,1,1-1.47071,1.471,1.47142,1.47142,0,0,1,1.47071-1.471Zm15.3081-25.05884a5.85254,5.85254,0,1,1-5.853,5.852,5.85505,5.85505,0,0,1,5.853-5.852Zm8.12451-42.37036L67.97132,46.29492,30.38294,80.822H53.59339a2.5996,2.5996,0,0,1,.27979.01489h6.46191a11.09853,11.09853,0,0,1,20.98682,0h25.87256a2.61076,2.61076,0,0,1,.28076-.01489H127.424L78.95374,36.22583ZM93.66908,59.78809a6.714,6.714,0,1,0,6.71386,6.71411,6.71652,6.71652,0,0,0-6.71386-6.71411Zm0,5.24267a1.47156,1.47156,0,1,1-1.47217,1.47119,1.47173,1.47173,0,0,1,1.47217-1.47119ZM71.89515,51.99512a7.38806,7.38806,0,1,0,7.3877,7.38794,7.39165,7.39165,0,0,0-7.3877-7.38794Zm0,5.24194a2.14551,2.14551,0,1,1-2.145,2.146,2.14743,2.14743,0,0,1,2.145-2.146Zm7.06152-27.20288a2.61426,2.61426,0,0,1,1.79.69409l5.97022,5.50391-2.084-7.582a2.6193,2.6193,0,0,1,.98194-2.812l6.7622-4.938H84.03187a2.62121,2.62121,0,0,1-2.49414-1.81494l-2.56787-7.9419L76.402,19.08521a2.62032,2.62032,0,0,1-2.49414,1.81494H65.56263l6.76221,4.938a2.62116,2.62116,0,0,1,.97949,2.822L71.195,36.21533l5.97706-5.49a2.61284,2.61284,0,0,1,1.78515-.69116Z"/></g></g></svg>