<svg xmlns="http://www.w3.org/2000/svg" viewBox="0 0 183.32704 177.88998"><defs><style>.cls-1{fill-rule:evenodd;}</style></defs><g id="Capa_2" data-name="Capa 2"><g id="Capa_1-2" data-name="Capa 1"><path class="cls-1" d="M42.89544,149.94469v22.20244a2.6125,2.6125,0,1,0,5.225,0V149.94469H95.72952v23.06537a4.88177,4.88177,0,0,0,4.88037,4.87992H166.6864a4.88444,4.88444,0,0,0,4.88081-4.87992v-65.1187H178.63a4.69008,4.69008,0,0,0,3.63655-7.64951L168.94576,83.89459a4.68367,4.68367,0,0,0-3.63521-1.729H102.74438a4.60323,4.60323,0,0,0-.50442.02775L87.97483,56.98051a2.61165,2.61165,0,0,0-4.53037-.02954s-9.77326,16.7653-14.5753,25.00382c-6.15327-14.20739-24.02408-55.4694-24.02408-55.4694a2.612,2.612,0,0,0-4.87544.21483L.1336,146.50775a2.61164,2.61164,0,0,0,2.47868,3.436H42.895Zm123.44812-42.05333h-65.389v64.77407H120.463a5.67671,5.67671,0,0,1-.05684-.80475V143.00637a5.64955,5.64955,0,0,1,5.65019-5.64706h14.42537a5.64984,5.64984,0,0,1,5.6502,5.64706v28.85431a5.678,5.678,0,0,1-.05729.80475h20.26892V107.89136Zm-25.86183,34.69295a.42387.42387,0,0,1,.4252.42251v28.85386a.42444.42444,0,0,1-.4252.4252H126.05636a.42443.42443,0,0,1-.42519-.4252V143.00682a.42386.42386,0,0,1,.42519-.42251ZM97.98307,85.278,85.668,63.51154,70.78165,89.04842a2.61217,2.61217,0,0,1-4.65389-.27749S49.44885,50.26061,42.76967,34.83805L6.23406,144.71969H42.89589v-13.1829c-9.85293-1.00257-17.21511-7.594-17.21511-15.11284,0-5.11445,3.91674-21.23568,9.70523-30.43918,2.95356-4.69507,6.56639-7.543,10.12238-7.543,3.55688,0,7.17061,2.84837,10.12416,7.543,5.7894,9.204,9.70524,25.32473,9.70524,30.43918,0,7.51838-7.36039,14.11027-17.2169,15.11284v13.1829H95.72952V107.89136H89.42318a4.68846,4.68846,0,0,1-3.63252-7.65L97.98262,85.278Zm59.77151,46.86476a4.1284,4.1284,0,0,0,4.13246-4.12754V116.05336a4.1351,4.1351,0,0,0-4.13246-4.128H109.54171a4.12861,4.12861,0,0,0-4.13023,4.128v11.96191a4.12137,4.12137,0,0,0,4.13023,4.12754ZM110.636,117.149v9.76879h46.0269V117.149Zm-50.52281-.72462a7.97076,7.97076,0,0,1-2.55744,5.61349c-2.71052,2.71321-7.11064,4.40639-12.04785,4.40639-4.935,0-9.33464-1.69318-12.04516-4.40639a7.97361,7.97361,0,0,1-2.55834-5.61349c0-4.65076,3.63879-19.28739,8.90407-27.6584A16.91806,16.91806,0,0,1,43.049,84.80541a3.96686,3.96686,0,0,1,2.459-1.13953,3.97567,3.97567,0,0,1,2.46167,1.13953,16.90622,16.90622,0,0,1,3.24,3.96059c5.26618,8.371,8.90362,23.00764,8.90362,27.6584ZM166.75,102.66771h10.753L165.05633,87.39105H103.00084l-12.448,15.27666h9.99347c.02059-.0009.04208-.0009.064-.0009H166.75ZM139.01279,58.99192v10.809a2.61205,2.61205,0,1,0,5.2241,0v-10.809a2.61205,2.61205,0,1,0-5.2241,0Zm15.92743-3.893,6.95,8.27925a2.61238,2.61238,0,0,0,4.00222-3.35861l-6.95-8.27925a2.61238,2.61238,0,0,0-4.00222,3.35861Zm-30.633-3.35861-6.95,8.27925a2.61238,2.61238,0,0,0,4.00222,3.35861l6.94907-8.27925a2.612,2.612,0,1,0-4.00133-3.35861ZM161.31415,35.163a19.68931,19.68931,0,1,0-19.68931,19.69154A19.699,19.699,0,0,0,161.31415,35.163Zm-5.22366,0a14.4652,14.4652,0,1,1-14.46565-14.46521A14.47321,14.47321,0,0,1,156.09049,35.163Zm8.54959,6.71095,10.64514,1.87579a2.61206,2.61206,0,1,0,.90635-5.14489l-10.6447-1.87579a2.6121,2.6121,0,0,0-.90679,5.14489Zm-46.935-5.14444-10.64649,1.87534a2.61223,2.61223,0,1,0,.9059,5.14533l10.64693-1.87534a2.61227,2.61227,0,0,0-.90634-5.14533Zm4.58989-15.74124-9.36284-5.40851a2.61251,2.61251,0,0,0-2.6125,4.525l9.36284,5.40671a2.61173,2.61173,0,1,0,2.6125-4.5232Zm41.27365,4.5232,9.3606-5.40761a2.61184,2.61184,0,0,0-2.613-4.5232l-9.3606,5.40716a2.612,2.612,0,0,0,2.613,4.52365ZM152.22925,13.66413l3.69922-10.15728a2.61218,2.61218,0,1,0-4.909-1.78762l-3.69877,10.15728a2.612,2.612,0,1,0,4.90856,1.78762Zm-16.29936-1.78762-3.697-10.15728a2.61239,2.61239,0,1,0-4.90946,1.78762L131.02,13.66413a2.6126,2.6126,0,0,0,4.90991-1.78762Z"/></g></g></svg>