<svg xmlns="http://www.w3.org/2000/svg" viewBox="0 0 147.65838 173.26299"><defs><style>.cls-1{fill-rule:evenodd;}</style></defs><g id="Capa_2" data-name="Capa 2"><g id="Capa_1-2" data-name="Capa 1"><path class="cls-1" d="M73.81077,28.89939l1.22587,3.02353C57.88127-13.4018,12.02548,3.28943,12.02548,3.28943a2.59945,2.59945,0,0,0-.51311,4.63063l15.40329,9.86721a2.59987,2.59987,0,0,0,2.76983.02168l4.09553-2.5357v4.96131A2.59787,2.59787,0,0,0,34.90748,22.376L40.684,26.34708a2.59814,2.59814,0,0,0,2.92084.0165L47.98,23.425v4.87216a2.59926,2.59926,0,0,0,1.453,2.33213l1.93609.95208a52.2834,52.2834,0,0,0-21.3833,3.4073C7.61566,43.76186.13356,66.24169.13356,66.24169a2.59841,2.59841,0,0,0,3.247,3.29985L23.01217,63.35a2.598,2.598,0,0,0,1.77324-2.00547l1-5.39626,4.29349,3.55514a2.59809,2.59809,0,0,0,2.48812.46171l9.24349-3.11522a42.82463,42.82463,0,0,0-3.74613,5.9265c-10.257,19.64877-.99617,40.177-.99617,40.177a2.59879,2.59879,0,0,0,4.62259.2242l8.87336-15.461a2.60008,2.60008,0,0,0,.01861-2.55558l-2.15816-3.88466L54.54,80.53289a2.59929,2.59929,0,0,0,2.02323-1.44308l.71445-1.46846c-1.192,5.47262-2.35021,11.51587-3.2529,17.69343-.34729,2.37623-.65058,5.03079-.90734,7.881-.00762.063-.01354.12733-.01692.19226a287.91076,287.91076,0,0,0-.835,32.81859v.04758c0,.07276.00253.14552.00846.21658.19838,6.07561.60066,11.846,1.22586,16.76324a58.63591,58.63591,0,0,0,2.23262,10.88433,12.51489,12.51489,0,0,0,2.6239,4.769c2.942,2.94221,7.40638,4.33686,12.19225,4.37493,6.79937.05287,14.16727-2.63088,18.07752-6.54156a6.47068,6.47068,0,0,0,1.66156-4.1704,33.25714,33.25714,0,0,0-.71657-7.90764c-.23181-1.29884-.511-2.71-.82528-4.22772-.01227-.07614-.02792-.15059-.04611-.22419-1.66664-8.02905-4.26811-19.00094-5.895-32.09017a2.58826,2.58826,0,0,0-.03553-.28849,187.46377,187.46377,0,0,1-1.44456-22.1318c-.00973-2.25673.04695-4.75605.1472-7.36451.00381-.04421.0055-.089.00635-.13409.324-8.27418,1.09474-17.6304,1.66748-23.86951l.02623-.00423.03469-.00423.02284-.00359.555.96508a2.5961,2.5961,0,0,0,1.83838,1.27092l5.49313.88894-2.37813,4.29519a2.6001,2.6001,0,0,0-.063,2.39526l2.42044,4.97432a2.598,2.598,0,0,0,2.0228,1.44308l6.11538.74343L97.076,85.161a2.599,2.599,0,0,0,.01735,2.55558l8.87336,15.461a2.59879,2.59879,0,0,0,4.62259-.2242s9.26126-20.52819-.99617-40.177a42.82077,42.82077,0,0,0-3.74571-5.9265l9.24434,3.11522a2.59708,2.59708,0,0,0,2.48727-.46171l4.29349-3.55514,1,5.39626A2.59864,2.59864,0,0,0,124.6466,63.35l19.63078,6.19151a2.59914,2.59914,0,0,0,3.24783-3.29985s-7.48295-22.48-29.85311-31.25305a51.67725,51.67725,0,0,0-19.531-3.45235,2.59937,2.59937,0,0,0,1.23179-1.945l.74406-6.99375,4.71439,3.21145a2.5996,2.5996,0,0,0,2.84936.05023l5.53585-3.48947a2.60068,2.60068,0,0,0,1.21276-2.19877V15.10838l4.59806,3.14388a2.59984,2.59984,0,0,0,2.94834-.00952L136.8968,7.89362a2.59855,2.59855,0,0,0-.50506-4.54381S114.85743-5.362,95.07563,5.31277C87.23947,9.54133,79.63893,16.794,73.81077,28.899ZM73.634,61.1356a11.2543,11.2543,0,0,1-7.444,2.80071c-.07867,0-.15693-.00084-.236-.0019-.34475,1.28234-.71276,2.6865-1.09558,4.19663l5.85692.24428a2.599,2.599,0,0,1-.21658,5.19344l-6.90428-.28849c-1.57611,6.65513-3.22964,14.6-4.42632,22.78661-.22081,1.51267-.423,3.13954-.607,4.86011h8.57134a2.59894,2.59894,0,0,1,0,5.19788H58.08516c-.65312,8.39642-.90861,18.23149-.69627,27.53039h13.99a2.59894,2.59894,0,1,1,0,5.19788H57.56021c.21573,4.95973.577,9.64387,1.096,13.725a53.56463,53.56463,0,0,0,1.99827,9.87,7.475,7.475,0,0,0,1.3773,2.76349c2.049,2.049,5.22495,2.82693,8.55738,2.85274,5.35693.04166,11.21469-1.90754,14.31955-4.97876a3.1263,3.1263,0,0,0,.12817-.42618,6.84258,6.84258,0,0,0,.09856-1.26034,34.88359,34.88359,0,0,0-.68189-5.84339c-.121-.67913-.25549-1.38787-.39931-2.12517H72.15133a2.59894,2.59894,0,1,1,0-5.19788H82.98108c-1.549-7.29175-3.5968-16.56887-5.0494-27.35633H67.71063a2.59894,2.59894,0,0,1,0-5.19788h9.584a189.34053,189.34053,0,0,1-1.1675-19.97723c-.00676-1.55242.01692-3.21843.06515-4.957H67.90394a2.59894,2.59894,0,0,1,0-5.19788h8.488c.371-7.73527,1.05625-16.019,1.57866-21.723a11.32047,11.32047,0,0,1-4.33664-2.688Zm19.0868-9.97212a11.3099,11.3099,0,0,1-3.88783,10.62714l6.76172,1.09326a2.6,2.6,0,0,1,1.85911,3.8248l-3.5139,6.3474,1.21064,2.48811,8.54426,1.0389a2.59828,2.59828,0,0,1,1.95767,3.84215l-3.32059,5.97747,5.27783,9.19506c1.77916-6.656,3.48513-18.7116-2.62432-30.41634a41.50118,41.50118,0,0,0-12.26459-14.018Zm-37.72819-.04166a41.53448,41.53448,0,0,0-12.32,14.05961c-6.109,11.70474-4.403,23.76037-2.6239,30.41634l5.27783-9.19506-3.32058-5.97747a2.59827,2.59827,0,0,1,1.95766-3.84215l8.54427-1.0389,1.21021-2.48811-3.51347-6.3474a2.59947,2.59947,0,0,1,1.8591-3.8248l7.37-1.192a11.3157,11.3157,0,0,1-4.4407-10.57ZM56.542,67.425l2.17,3.91914c.10575-.44268.2115-.88028.31641-1.30984.00761-.03912.01734-.07719.02792-.11442q.382-1.57072.75168-3.02342l-3.266.52854Zm37.85043-21.4716,5.30871-3.90264a2.59947,2.59947,0,0,1,3.97286,1.18167l3.17676,8.47077,8.52819,2.87368,6.5866-5.45433a2.59891,2.59891,0,0,1,4.21271,1.52885l1.52112,8.21093L140.36417,62.857C137,56.35184,129.5103,45.21445,115.77366,39.8277c-8.06331-3.163-18.26153-4.31242-31.01384-1.47364a11.2748,11.2748,0,0,1,.39424,2.19529,68.51875,68.51875,0,0,1,9.23841,5.40388ZM63.01528,38.38018c-12.80689-2.87177-23.04317-1.7248-31.131,1.44774-13.7358,5.38675-21.22636,16.52392-24.5901,23.02931L19.9585,58.86259l1.52113-8.21094a2.5991,2.5991,0,0,1,4.2127-1.52885l6.587,5.45433,8.52777-2.87368,3.17676-8.47077A2.59946,2.59946,0,0,1,47.95674,42.051l5.30871,3.90263a68.68171,68.68171,0,0,1,9.36743-5.46733,11.25446,11.25446,0,0,1,.382-2.10593Zm18.84865,8.646c-.0901-.00433-.1802-.00613-.27072-.00613a6.10082,6.10082,0,0,0-5.27191,3.0304c-.02665.05108-.05456.10057-.085.14985a6.1018,6.1018,0,0,0-.17047,5.50287c.02538.04928.04949.09961.07276.14974A6.09989,6.09989,0,0,0,81.015,59.19338c.19078.01734.38282.02686.57825.02686A6.10042,6.10042,0,0,0,81.98449,47.032c-.03977-.00074-.07995-.00339-.12056-.006Zm-10.7883,1.96137a6.097,6.097,0,0,0-4.88613-2.44909c-.11336,0-.22631.00349-.338.00952-.07022.00772-.14044.013-.20981.0148a6.1003,6.1003,0,1,0,5.19576,10.0251,11.32941,11.32941,0,0,1,.23816-7.60012ZM46.37809,51.65121q1.2322-1.21128,2.61036-2.39019l-1.34388-.98761-1.26648,3.3778ZM98.66947,49.261q1.38006,1.17876,2.61121,2.39019l-1.26732-3.3778-1.34389.98761ZM74.56034,35.38373a6.3303,6.3303,0,0,0-.6692-.03638,6.08088,6.08088,0,0,0-.88408.06419l-.04145.00613A6.1003,6.1003,0,0,0,68.997,37.80786c-.019.026-.03722.05192-.05753.07709a6.07754,6.07754,0,0,0-1.1493,3.56328v.006a11.2676,11.2676,0,0,1,6.3586,3.16894,11.26179,11.26179,0,0,1,5.82266-2.68566v-.00433c.01269-.16011.01861-.32222.01861-.485A6.06877,6.06877,0,0,0,79.11525,38.3l-.02411-.04082c-.03892-.06313-.07995-.12647-.12141-.18887-.01861-.02675-.0368-.05372-.05414-.08058a6.099,6.099,0,0,0-4.29265-2.59809l-.0626-.00772Zm7.57981-1.7579L94.3561,27.61694l1.05159-9.88635a2.598,2.598,0,0,1,4.0473-1.87306l6.895,4.6964,2.88151-1.81659v-8.554A2.59859,2.59859,0,0,1,113.297,8.03839l7.18685,4.91278,9.05652-6.28067C122.69908,4.995,109.74753,3.30223,97.5447,9.88714c-7.04556,3.80217-13.80094,10.3801-19.039,21.24634a11.34106,11.34106,0,0,1,3.55366,2.51223l.08037-.01988ZM69.13911,31.196a11.34178,11.34178,0,0,0-2.873,1.91716L53.17873,26.67893V18.55027a2.59893,2.59893,0,0,0-4.04815-2.15786L42.173,21.06355l-3.1941-2.19614V10.60815a2.5989,2.5989,0,0,0-3.96694-2.21L28.3416,12.52785l-9.08317-5.819c11.35386-2.38331,37.50019-4.27181,49.88068,24.4873Z"/></g></g></svg>