<svg xmlns="http://www.w3.org/2000/svg" viewBox="0 0 209.96688 160.724"><g id="Capa_2" data-name="Capa 2"><g id="Capa_1-2" data-name="Capa 1"><path d="M114.66582,160.724H2.4998A2.50028,2.50028,0,0,1,1.034,156.19861l46.877-33.92676-9.75781-9.36572c-14.65234-14.65625-15.22461-36.4209-1.751-51.60205l-7.18261-7.186a37.69762,37.69762,0,0,1-11.417-26.69092A37.70649,37.70649,0,0,1,29.2205.73181,2.5,2.5,0,0,1,32.75566.7323l75.06543,75.06787,6.16894-29.313c2.90235-12.96093,11.12891-19.79492,23.79688-19.79492h.01465c12.74609,0,21.20508,7.02783,23.8164,19.78809l.71094,3.769,10.08887,3.55908a99.43392,99.43392,0,0,1-.61621-10.61523,2.49981,2.49981,0,0,1,2.5-2.5h5.3418a2.49982,2.49982,0,0,1,2.5,2.5,77.91486,77.91486,0,0,0,1.77343,16.25244,16.87983,16.87983,0,0,1,9.08106-2.47217h0A16.58327,16.58327,0,0,1,207.69023,65.475a2.5007,2.5007,0,0,1,0,2.23535,16.58328,16.58328,0,0,1-14.69238,8.502q-.33839,0-.67188-.01172.83057.97706,1.73926,1.93164a16.74248,16.74248,0,0,1,11.37891,4.49707l.00195.00147c6.22461,6.228,4.23926,16.01074,4.15137,16.42431a2.5,2.5,0,0,1-1.92969,1.92823c-.415.0874-10.21,2.0625-16.4375-4.1626-3.43457-3.4292-4.37988-7.94824-4.50391-11.45947a50.443,50.443,0,0,1-12.26367-21.20459l-8.90723,3.10254,6.75391,35.7871c3.06836,13.80957.2959,26.63965-8.03516,37.02393C153.74394,153.19617,135.66289,160.724,114.66582,160.724Zm-104.44727-5H114.66582c19.47265,0,36.13183-6.84619,45.708-18.78272,7.34961-9.16015,9.78321-20.5332,7.03809-32.88964L160.243,66.07019a2.50024,2.50024,0,0,1,1.63477-2.82422l11.20215-3.90234-13.77246-4.8584a2.50238,2.50238,0,0,1-1.625-1.894l-.97071-5.146c-2.13671-10.43994-8.502-15.75293-18.91113-15.75293h-.01367c-10.33594,0-16.52148,5.18652-18.91113,15.856l-7.11231,33.79834a2.49935,2.49935,0,0,1-4.21386,1.25293l-76.502-76.5044a32.412,32.412,0,0,0-8.24512,21.332,32.734,32.734,0,0,0,9.95313,23.15577l8.89746,8.90234a2.49938,2.49938,0,0,1-.001,3.53467c-13.19726,13.20215-13.19726,33.11328,0,46.31494L53.534,120.73816a2.50036,2.50036,0,0,1-.26562,3.8291ZM177.61113,58.85535A2.502,2.502,0,0,1,178.616,60.3241a45.95087,45.95087,0,0,0,12.36914,22.24365,2.49753,2.49753,0,0,1,.72656,1.78271c-.02246,2.6626.48926,6.37354,3.05274,8.93311,3.03125,3.03027,7.65918,3.18848,10.15039,3.01416.17676-2.4834.02148-7.104-3.00586-10.13184-2.51562-2.51172-6.12793-3.05127-8.76465-3.05127-.05176,0-.10058.001-.15137.00049a2.5,2.5,0,0,1-1.77441-.73877,47.13552,47.13552,0,0,1-7.02344-8.93408,2.4995,2.4995,0,0,1,3.28516-3.51416,11.91583,11.91583,0,0,0,5.51758,1.28418,11.63637,11.63637,0,0,0,9.48535-4.62061,11.63828,11.63828,0,0,0-9.48535-4.61816,11.486,11.486,0,0,0-8.64551,3.523,2.4999,2.4999,0,0,1-4.18652-.918c-1.92774-5.72363-2.78125-13.25049-2.97754-18.88525h-.34278a84.10032,84.10032,0,0,0,1.09864,11.40039A2.49961,2.49961,0,0,1,177.61113,58.85535Z"/><path d="M141.36463,59.47466a5.34162,5.34162,0,1,1,5.341-5.34162,5.34055,5.34055,0,0,1-5.341,5.34162"/></g></g></svg>