<svg xmlns="http://www.w3.org/2000/svg" viewBox="0 0 189.87438 206.10046"><g id="Capa_2" data-name="Capa 2"><g id="Capa_1-2" data-name="Capa 1"><path d="M80.83926,96.27526a1.99965,1.99965,0,0,1-1.81836-2.833l.78125-1.70557a37.105,37.105,0,0,1,1.82617-3.4624,12.44874,12.44874,0,0,0,1.94922-5.50195c.78222-5.23487.957-6.84034.99023-7.33155a2.50173,2.50173,0,0,1-.04-.72558A177.48168,177.48168,0,0,1,89.3334,44.02087a72.57725,72.57725,0,0,1,5.53515-15.06055,42.25086,42.25086,0,0,1,10.14356-13.27783,41.31676,41.31676,0,0,1,14.65722-7.75586l1.07422-.35888c4.29883-1.43116,8.3584-2.78272,11.41309-5.55762L133.79726.51989A1.99955,1.99955,0,0,1,137.141,2.05554l-.0625,2.25439c-.0459,1.62989-.13379,3.26123-.22265,4.88965l-.09961,1.88428c-.082,1.13183-.127,2.186-.17285,3.252-.044,1.02295-.08887,2.05664-.16211,3.13623.001.01953.001.03858.001.05713,0,.03613-.001.07178-.00293.10791a52.87319,52.87319,0,0,0,.43946,8.67871c.13476,1.34863.36425,2.6709.60742,4.07129.28418,1.63379.57715,3.32373.72558,5.10449a28.08563,28.08563,0,0,1,.04493,5.13575c-.03614.30517-.07325.5913-.11524.87207a3.56774,3.56774,0,0,0,.375,1.03369c.4834.85254.59375,1.48779.59278,3.3999,0,.05029-.002.10107-.00586.15137-.0127.16894-.01856.33447-.02539.501a7.56656,7.56656,0,0,1-.9502,3.71729l-.00684.01221a4.31759,4.31759,0,0,1-1.00781,1.14209c-.041.03369-.084.06543-.12793.0957a5.24746,5.24746,0,0,1-.67676.394l-.92773.39893c-.44727.17431-.835.33545-1.2168.50683a47.96161,47.96161,0,0,0-4.70019,2.353,61.64766,61.64766,0,0,0-16.06641,13.74268,26.131,26.131,0,0,1-6.48437,5.41259,17.3855,17.3855,0,0,0-6.00489,5.56495,91.12576,91.12576,0,0,1-6.81054,9.35546,26.09073,26.09073,0,0,1-4.626,4.30811,13.39953,13.39953,0,0,1-6.6875,2.5459l-1.77344.13428C80.93984,96.27331,80.88906,96.27526,80.83926,96.27526Zm7.70019-21.53515c.12695.77734-.08594,2.46582-1.00488,8.62109A16.17157,16.17157,0,0,1,85.08535,90.286c-.26465.45508-.54883.94336-.85352,1.51416a10.56523,10.56523,0,0,0,2.9043-1.47266,22.23725,22.23725,0,0,0,3.917-3.66406A88.04218,88.04218,0,0,0,97.56,77.70691a21.23085,21.23085,0,0,1,7.17871-6.7168,22.10914,22.10914,0,0,0,5.59473-4.63672,65.61475,65.61475,0,0,1,17.12207-14.61865,51.77521,51.77521,0,0,1,5.07324-2.54151c.42285-.18994.875-.37841,1.332-.55517l.74414-.31885-.002.00049.02539-.0166.02637-.02539a3.65365,3.65365,0,0,0,.40625-1.84375c.00781-.19092.01464-.38135.02832-.57422a8.04029,8.04029,0,0,0-.0586-1.3584,7.56,7.56,0,0,1-.89746-2.48682,1.99165,1.99165,0,0,1-.01953-.77881c.06055-.352.10547-.70019.14648-1.03662a24.42426,24.42426,0,0,0-.05371-4.37011c-.13476-1.60889-.41211-3.21-.68164-4.75831-.24414-1.4082-.49707-2.86474-.64355-4.33007a56.58141,56.58141,0,0,1-.46387-9.16846c-.001-.02783-.002-.05566-.002-.084,0-.04688.002-.09375.00488-.14063.07715-1.09912.12207-2.14648.167-3.18311.0469-1.10644.09475-2.20068.17776-3.32714l.09668-1.854c.04589-.84179.09179-1.68408.13086-2.52685-3.3252,2.356-7.209,3.64892-10.98536,4.90625l-1.09765.3667a37.45937,37.45937,0,0,0-13.29395,6.98974A38.31636,38.31636,0,0,0,98.432,30.77673a68.74086,68.74086,0,0,0-5.22754,14.25391A172.73227,172.73227,0,0,0,88.53945,74.74011ZM136.3539,49.34118h0Z"/><path d="M151.68789,206.10046a8.39144,8.39144,0,0,1-2.96582-.59082,10.89541,10.89541,0,0,1-5.42383-4.79541,14.60613,14.60613,0,0,1-4.375-1.41016,17.76607,17.76607,0,0,1-4.76465-3.85888,59.22994,59.22994,0,0,1-6.35547-8.79053c-.88379-1.42481-1.72461-2.875-2.53711-4.27734-.9082-1.56641-1.76562-3.04541-2.67285-4.48194a25.40133,25.40133,0,0,0-5.74023-6.75244,20.64582,20.64582,0,0,0-7.96875-3.34277c-3.11817-.7295-6.38282-1.18994-9.73242-1.63575L88.99551,164.9198a71.4122,71.4122,0,0,1-10.62793-2.16846,50.70936,50.70936,0,0,1-19.47461-10.334A53.55558,53.55558,0,0,1,46.06289,134.6239c-1.51563-3.17823-2.77246-6.47071-3.98926-9.65479-.374-.95849-.73828-1.86523-1.0957-2.729a5.87206,5.87206,0,0,1-1.16114,3.39209,5.75888,5.75888,0,0,1-5.53906,2.33838,5.07938,5.07938,0,0,1-2.45312-1.106,47.15857,47.15857,0,0,0-.81446,9.19336c.03809,4.01172,1.25879,7.44678,3.43946,9.71875a33.63518,33.63518,0,0,0,3.07324,2.4458c.53809.39746,1.07519.79492,1.5957,1.19922l4.99317,3.81055a2.00029,2.00029,0,0,1-2.26758,3.29L36.4916,153.205c-.584-.3833-1.126-.71826-1.667-1.05371a36.84778,36.84778,0,0,1-3.834-2.61328c-3.40234-2.957-5.4375-7.62256-5.79-13.187-.44726-5.56543.45411-10.99951,1.3252-16.25391l.04687-.28662a9.72426,9.72426,0,0,1-3.65722-2.69141c-.05176-.05859-4.89746-6.15966-2.83106-8.34863a2.21442,2.21442,0,0,1,1.61817-.6792c.71875-.00781,2.81836.24414,5.73828,3.08106.09082.08886.18066.17773.26758.26562.00781-.10058.01464-.20068.02148-.30029a11.57762,11.57762,0,0,0-.36719-3.15283,10.18181,10.18181,0,0,1-3.61133.28467c-.0791-.00733-7.80371-1.07276-7.8164-4.0835a2.20713,2.20713,0,0,1,.69531-1.59961,4.94781,4.94781,0,0,1,1.78809-1.07617A2.63479,2.63479,0,0,1,18.3666,98.808q-.29736-.19629-.59961-.39844a9.54508,9.54508,0,0,1-5.00879.394c-.07812-.01319-7.71094-1.6753-7.47754-4.68409a2.19089,2.19089,0,0,1,.80762-1.52539,7.51319,7.51319,0,0,1,4.584-1.31689q-.6826-1.05688-1.27343-2.18994a9.45851,9.45851,0,0,1-5.001-2.27246c-.06152-.05176-5.79395-5.3462-4.07715-7.82227a2.20142,2.20142,0,0,1,1.47461-.91064,7.30565,7.30565,0,0,1,4.41992,1.08056A37.021,37.021,0,0,1,5.85488,70.077c.03809-1.00537.124-1.67822.17578-2.08349l.01563-.125A1.99988,1.99988,0,0,1,9.43008,66.371a16.63035,16.63035,0,0,1,4.49609,9.16553,21.78074,21.78074,0,0,1,.17969,2.64941,2.13107,2.13107,0,0,1,1.252-.27246c2.9668.22461,3.457,8.01562,3.459,8.09424a9.80841,9.80841,0,0,1-.90918,4.43506c.04688.04687.09375.09277.14063.13818.67871.59717,1.36133,1.15918,2.02441,1.66162.32032.19385.62891.38623.9375.5791.47852.29932.96.60059,1.50391.91309q.40137.23144.7998.47021c.28223-.28076.5625-.56787.82715-.8584a31.11247,31.11247,0,0,1,3.5791-12.75341,20.52222,20.52222,0,0,1,4.63868-5.80372,17.882,17.882,0,0,1,6.8164-3.57226,20.93073,20.93073,0,0,1,14.72559,1.39551c4.51562,2.18261,7.91113,5.72412,10.73828,8.87109.9502,1.06836,1.86426,2.14649,2.76855,3.21484A75.2033,75.2033,0,0,0,72.86855,90.705a15.39561,15.39561,0,0,0,4.11719,2.917,12.03655,12.03655,0,0,0,4.63867,1.14014c2.63672.08692,5.63281-1.206,9.13672-3.93066A76.39971,76.39971,0,0,0,99.433,82.48181c1.9248-2.09473,3.71679-4.2124,5.61328-6.4541.85742-1.01368,1.72168-2.03467,2.60449-3.06055a102.39859,102.39859,0,0,1,9.17285-9.39453,88.0727,88.0727,0,0,1,21.94922-14.5127,91.75425,91.75425,0,0,1,12.30859-4.61084c1.80664-.52148,3.57715-.99365,5.33692-1.46338,2.35742-.6289,4.585-1.22314,6.8584-1.91894,8.7666-2.70264,16.03515-5.061,22.94921-8.65772.03028-.02148.06934-.04785.10938-.07324a2.30494,2.30494,0,0,1,2.67285,3.74707,7.95124,7.95124,0,0,0-1.71,2.355c-.52637.9585-1.04,2.01709-1.57031,3.23975-.86524,1.96289-1.64942,3.89355-2.47949,5.938l-.44825,1.104a26.9468,26.9468,0,0,1-2.00976,3.832,10.61148,10.61148,0,0,1-3.15332,3.36182,19.33063,19.33063,0,0,0-1.03321,3.167c-.08593.32422-.17285.64893-.26367.97168l-.14355.54248a26.97184,26.97184,0,0,1-2.50684,6.79736,10.95523,10.95523,0,0,1-3.27246,3.65625,10.30222,10.30222,0,0,1-2.67285,1.32813,28.8,28.8,0,0,0-.87695,2.76465c-.15723.55664-.31446,1.11279-.48536,1.65869-.11914.41846-.248.88721-.3789,1.35791a43.59215,43.59215,0,0,1-2.23926,6.63818,16.23427,16.23427,0,0,1-2.61816,4.20948,9.346,9.346,0,0,1-5.14258,3.12158l-.10352.019c-.43457.80371-.80957,1.707-1.20117,2.64893l-.3457.82714c-.25977.64307-.51758,1.32666-.77832,2.01514a43.022,43.022,0,0,1-2.34766,5.42969,18.11718,18.11718,0,0,1-2.67187,3.86963,10.22683,10.22683,0,0,1-2.7002,2.07373c-.39551.71777-.74805,1.51074-1.11719,2.34131-.15332.34668-.30761.69238-.46484,1.03369-.20606.47461-.42188.99414-.63965,1.5166a35.15354,35.15354,0,0,1-3.03516,6.09717,14.56128,14.56128,0,0,1-3.376,3.75,10.21015,10.21015,0,0,1-3.38672,1.66406c-.27832.48-.51465.92285-.75488,1.37256-.21582.40576-.43555.8164-.668,1.22754a12.76732,12.76732,0,0,1-2.46485,3.17871c-.02441.02246-.0498.04443-.07617.06543a9.40057,9.40057,0,0,1-2.416,1.46,26.23977,26.23977,0,0,0,2.66308,3.92139,25.89137,25.89137,0,0,0,6.15137,5.561,31.07687,31.07687,0,0,0,7.55273,3.60693,48.26429,48.26429,0,0,0,8.4375,1.75342c.97852.14649,1.93067.28467,2.88477.42334a111.17265,111.17265,0,0,1,15.74414,3.0752,31.91089,31.91089,0,0,1,4.7832,1.79638,11.32524,11.32524,0,0,1,4.69239,3.83545,8.75642,8.75642,0,0,1,1.376,6.353,7.4857,7.4857,0,0,1-1.1582,2.749c.042.04834.084.09717.125.14551a13.53675,13.53675,0,0,1,2.125,3.37842,9.24766,9.24766,0,0,1,.76367,4.48047,8.44616,8.44616,0,0,1-5.17871,7.27441,6.43776,6.43776,0,0,1-1.02832.29493q.16407.64378.292,1.33984a8.99207,8.99207,0,0,1-.40429,5.01855,7.37112,7.37112,0,0,1-3.83594,3.91358,10.04517,10.04517,0,0,1-4.54.85791,14.75244,14.75244,0,0,1-2.21289-.24854q.03516.5625.02246,1.11133a8.56279,8.56279,0,0,1-1.25977,4.48535,6.72747,6.72747,0,0,1-4.22363,2.89844,11.80734,11.80734,0,0,1-3.80078.12939,6.1637,6.1637,0,0,1-.56152,2.10889,5.42123,5.42123,0,0,1-2.624,2.59375A6.4258,6.4258,0,0,1,151.68789,206.10046ZM29.13222,99.54577a1.99386,1.99386,0,0,1,.959.24561,20.66674,20.66674,0,0,1,6.13183,5.4834,52.44408,52.44408,0,0,1,5.4336,8.80127c1.376,2.72363,2.68652,5.707,4.12695,9.395,1.21485,3.18115,2.44336,6.39794,3.89551,9.44384a49.63168,49.63168,0,0,0,11.85059,16.49414,46.70065,46.70065,0,0,0,17.95019,9.5,67.423,67.423,0,0,0,10.02539,2.04346l10.15332,1.24414c3.47168.4624,6.84277.93848,10.13477,1.7085a24.40329,24.40329,0,0,1,9.46484,4.0415,29.073,29.073,0,0,1,6.71484,7.8086c.9502,1.50488,1.86719,3.08642,2.75391,4.61621.79785,1.37695,1.62305,2.80078,2.47461,4.17334a55.707,55.707,0,0,0,5.90527,8.19726,14.07289,14.07289,0,0,0,3.65235,3.0083,11.26569,11.26569,0,0,0,4.0625,1.13281,1.99971,1.99971,0,0,1,1.63867,1.2085,6.87179,6.87179,0,0,0,3.71191,3.69043,3.19228,3.19228,0,0,0,2.46289.12842,1.38381,1.38381,0,0,0,.6045-.62061,2.51164,2.51164,0,0,0,.21777-1.188,11.33892,11.33892,0,0,0-.2207-1.353,1.9999,1.9999,0,0,1,2.57422-2.334,8.83588,8.83588,0,0,0,4.59472.41309,2.741,2.741,0,0,0,1.668-1.12695,4.6258,4.6258,0,0,0,.63867-2.45948,11.39633,11.39633,0,0,0-.50781-3.40381,2.00036,2.00036,0,0,1,2.84668-2.32763,9.42224,9.42224,0,0,0,3.98047.98828,6.24063,6.24063,0,0,0,2.77051-.50928,3.36664,3.36664,0,0,0,1.76367-1.75928,5.12961,5.12961,0,0,0,.17676-2.82812,12.92994,12.92994,0,0,0-.91309-3.022c-.06836-.127-.11133-.209-.15039-.29395a2.00026,2.00026,0,0,1,2.46484-2.73437,2.8037,2.8037,0,0,0,1.85742-.02149,4.53508,4.53508,0,0,0,2.60938-3.87451,5.21981,5.21981,0,0,0-.43945-2.52685,9.582,9.582,0,0,0-1.50977-2.398,9.68244,9.68244,0,0,0-1.11719-1.10938,1.999,1.999,0,0,1-.03418-3.00781,3.91429,3.91429,0,0,0,1.30762-2.14942,4.92306,4.92306,0,0,0-.82226-3.418,7.22083,7.22083,0,0,0-3.07422-2.395,28.11134,28.11134,0,0,0-4.17481-1.55909,108.12067,108.12067,0,0,0-15.17578-2.95019q-1.44141-.20947-2.87793-.42236a51.73017,51.73017,0,0,1-9.126-1.915,34.96151,34.96151,0,0,1-8.50293-4.06836,31.04078,31.04078,0,0,1-11.35742-13.42676,2.00022,2.00022,0,0,1,1.83594-2.793h.02539a2.67822,2.67822,0,0,0,.46582-.03223,5.01349,5.01349,0,0,0,2.26367-1.08886,8.67458,8.67458,0,0,0,1.6377-2.15869c.21191-.37452.416-.75733.61719-1.13477.2998-.56152.59472-1.11279.91013-1.64111.10061-.19092.252-.44825.41116-.69727a1.99936,1.99936,0,0,1,1.38964-.90332,5.74789,5.74789,0,0,0,2.57129-1.12012,10.67862,10.67862,0,0,0,2.416-2.73,31.63422,31.63422,0,0,0,2.69043-5.44726c.22558-.54151.45019-1.08008.68164-1.61182.167-.36426.31348-.69385.46094-1.02393a27.75879,27.75879,0,0,1,1.64746-3.30078,1.9973,1.9973,0,0,1,.916-.792,6.00114,6.00114,0,0,0,1.98535-1.42822,14.35711,14.35711,0,0,0,2.07325-3.03711,39.95091,39.95091,0,0,0,2.12793-4.94531c.2705-.71778.54-1.43067.82519-2.1333l.3457-.82862a23.63324,23.63324,0,0,1,2.041-4.12646,2.00052,2.00052,0,0,1,1.65137-.89112,3.00739,3.00739,0,0,0,.53125-.0415,5.49977,5.49977,0,0,0,2.92383-1.84961,12.413,12.413,0,0,0,1.9746-3.22021,40.61443,40.61443,0,0,0,2.02247-6.043c.13281-.48145.26562-.96143.40234-1.438.17383-.55713.32031-1.07666.4668-1.59619a23.41359,23.41359,0,0,1,1.52636-4.3086,1.99923,1.99923,0,0,1,1.49024-1.07324,5.27512,5.27512,0,0,0,2.14746-.94238,6.98564,6.98564,0,0,0,2.03516-2.32471,23.15078,23.15078,0,0,0,2.1123-5.83349l.15234-.57471c.09278-.33008.17481-.63965.25782-.94922a18.80357,18.80357,0,0,1,1.65625-4.56738,1.99593,1.99593,0,0,1,.82812-.79248,6.27488,6.27488,0,0,0,2.209-2.312,22.73181,22.73181,0,0,0,1.67773-3.20362l.43164-1.06347c.8418-2.07178,1.63672-4.02881,2.52051-6.03565.24707-.56885.49219-1.10791.7373-1.62256a178.6741,178.6741,0,0,1-18.34961,6.43848c-2.34668.71826-4.71289,1.34961-7.001,1.96-1.73438.46289-3.47852.92822-5.24512,1.438a87.6444,87.6444,0,0,0-11.75977,4.40527,84.094,84.094,0,0,0-20.9541,13.85938,98.40318,98.40318,0,0,0-8.80957,9.02441c-.874,1.01563-1.73047,2.02832-2.58105,3.03369-1.83887,2.17383-3.74121,4.42188-5.71973,6.5752a80.0217,80.0217,0,0,1-9.15234,8.79345C88.94668,97.309,85.099,98.87146,81.54238,98.7611a15.75955,15.75955,0,0,1-6.16992-1.47851,19.19519,19.19519,0,0,1-5.23633-3.65625A79.39081,79.39081,0,0,1,64.35586,87.284c-.88379-1.04394-1.77637-2.09716-2.69922-3.13427-2.56543-2.85694-5.63574-6.06934-9.52149-7.94825a16.91346,16.91346,0,0,0-11.918-1.12255,13.83957,13.83957,0,0,0-5.27637,2.76562,16.51279,16.51279,0,0,0-3.70606,4.65674,27.27408,27.27408,0,0,0-3.1289,11.52978,2.0001,2.0001,0,0,1-.457,1.377,30.86052,30.86052,0,0,1-2.44727,2.53808l-.28516.25782a1.99579,1.99579,0,0,1-1.332.51513,1.89129,1.89129,0,0,1-.0459.24561c.50684.02148.98633.03174,1.4502.03222a2.00009,2.00009,0,0,1,1.35156.52686c.06543.05225.13086.10937.19336.169q.44677.41161.86719.85009a2.00389,2.00389,0,0,1,1.73144-.99707ZM34.14687,122.286l-.002.00293Zm.041-6.89453a6.90754,6.90754,0,0,1,2.44726.43994,6.81239,6.81239,0,0,1,2.04786,1.25634q-.29591-.61157-.59375-1.20166a55.22722,55.22722,0,0,0-3.83594-6.56152,19.14156,19.14156,0,0,1,.0498,1.98682,31.8449,31.8449,0,0,1-.38769,4.085C34.00625,115.39294,34.09707,115.39148,34.18789,115.39148Zm-24.4082-40.356q.09081,1.54027.32519,3.10889a17.53854,17.53854,0,0,0-.14746-2.1045A10.15594,10.15594,0,0,0,9.77969,75.03552ZM6.184,68.54724l.002.00439Zm-.001-.00489v0Z"/><path d="M39.46275,85.69113A3.08826,3.08826,0,1,0,42.551,82.60286,3.0883,3.0883,0,0,0,39.46275,85.69113Z"/></g></g></svg>