<svg xmlns="http://www.w3.org/2000/svg" viewBox="0 0 143.81166 149.09502"><defs><style>.cls-1{fill-rule:evenodd;}</style></defs><g id="Capa_2" data-name="Capa 2"><g id="Capa_1-2" data-name="Capa 1"><path class="cls-1" d="M61.45347,24.98475H9.79859A9.80369,9.80369,0,0,0,0,34.78333v96.46252a9.80284,9.80284,0,0,0,9.79859,9.79786H73.07171l27.55063,7.73a8.60379,8.60379,0,0,0,10.603-5.95727L143.4902,27.82288a8.60462,8.60462,0,0,0-5.95691-10.60376L77.30524.32139A8.60336,8.60336,0,0,0,66.70239,6.27792L61.45347,24.98475ZM89.183,140.07509,102.05,143.68454a3.3166,3.3166,0,0,0,4.08739-2.29576L138.40162,26.39489a3.31666,3.31666,0,0,0-2.29613-4.08738L75.87762,5.40905a3.31638,3.31638,0,0,0-4.08739,2.29613l-4.848,17.2792H84.93309A9.80355,9.80355,0,0,1,94.7315,34.783v92.98046l7.155-25.61231a2.64262,2.64262,0,1,1,5.09021,1.42252L99.56964,130.0865a2.64149,2.64149,0,0,1-4.83814.601v.558a9.80421,9.80421,0,0,1-5.54867,8.82961ZM63.406,30.27007H9.79859a4.51515,4.51515,0,0,0-4.51327,4.51326v96.46252a4.51585,4.51585,0,0,0,4.51327,4.51327h63.5847c.03422-.00073.06862-.00073.103,0H84.93309a4.51535,4.51535,0,0,0,4.51309-4.51327V34.78333a4.51487,4.51487,0,0,0-4.51309-4.51326H63.406ZM22.94454,122.66885H72.19137a2.64248,2.64248,0,1,0,0-5.285H22.94454a2.64248,2.64248,0,0,0,0,5.285ZM18.84933,83.05518l.00455.01347A30.53049,30.53049,0,0,0,47.568,103.2697c.17163,0,.34289-.00146.51216-.00473l.0202-.00073a30.49915,30.49915,0,0,0,0-60.989h-.0202c-.16927-.00292-.34071-.00437-.51216-.00437A30.51264,30.51264,0,0,0,18.84933,83.05518ZM69.7207,84.8144h-11.042a55.63871,55.63871,0,0,1-5.31062,12.49767A25.28,25.28,0,0,0,69.7207,84.8144Zm-44.30495,0A25.28327,25.28327,0,0,0,41.6379,97.28149,45.73357,45.73357,0,0,1,35.016,84.8144Zm27.769,0a50.16616,50.16616,0,0,1-5.4615,11.65173,40.95494,40.95494,0,0,1-7.1097-11.65173ZM107.336,82.59435l-2.81556,8.98358a2.64212,2.64212,0,0,0,5.04235,1.5805l2.81647-8.98285a2.64267,2.64267,0,1,0-5.04326-1.58123Zm-8.32984-2.04788L96.1906,89.52969a2.64223,2.64223,0,1,0,5.04235,1.58123l2.81647-8.98395a2.64256,2.64256,0,1,0-5.04326-1.5805Zm12.97269-13.38256-2.81556,8.98395a2.64207,2.64207,0,1,0,5.04235,1.58014l2.81647-8.98286a2.64267,2.64267,0,0,0-5.04326-1.58123Zm-39.94419-.50559H59.95342a41.948,41.948,0,0,1,.45391,6.11123,42.28364,42.28364,0,0,1-.55365,6.7599H71.86394a25.34357,25.34357,0,0,0,.17072-12.87113Zm-48.9336,0a25.36518,25.36518,0,0,0,.17072,12.87113H33.62347a36.18981,36.18981,0,0,1-.1163-12.87113Zm31.51262,0a37.67021,37.67021,0,0,1,.50906,6.11123,37.85725,37.85725,0,0,1-.62172,6.7599H39.00561a31.48018,31.48018,0,0,1-.13413-12.87113h15.7422Zm49.03516-1.54338-2.81556,8.98395a2.64212,2.64212,0,1,0,5.04234,1.5805l2.81629-8.98322a2.64258,2.64258,0,0,0-5.04307-1.58123Zm13.65574-14.61106L114.489,59.48746a2.642,2.642,0,1,0,5.04216,1.5805l2.81665-8.98285a2.64266,2.64266,0,1,0-5.04325-1.58123ZM53.36788,48.227a55.426,55.426,0,0,1,5.489,13.14559H70.0614A25.28388,25.28388,0,0,0,53.36788,48.227Zm-11.73.03131A25.29048,25.29048,0,0,0,25.07432,61.373h9.72761a45.51172,45.51172,0,0,1,6.836-13.11465ZM53.38462,61.373H40.367a40.7668,40.7668,0,0,1,7.35631-12.29892A50.0073,50.0073,0,0,1,53.38462,61.373Zm55.58994-12.917-2.81574,8.98286a2.64231,2.64231,0,1,0,5.04252,1.58122l2.81629-8.98358a2.64247,2.64247,0,1,0-5.04307-1.5805Z"/></g></g></svg>