<svg xmlns="http://www.w3.org/2000/svg" viewBox="0 0 172.30097 144.71369"><defs><style>.cls-1{fill-rule:evenodd;}</style></defs><g id="Capa_2" data-name="Capa 2"><g id="Capa_1-2" data-name="Capa 1"><path class="cls-1" d="M128.29274,10.49741C121.1561,3.7267,110.67486.99479,105.0938.99479c-3.66114,0-8.22248,1.54181-12.65282,3.79431A67.19691,67.19691,0,0,0,77.42822,15.22322c-3.89015,3.89015-13.17184,9.191-20.90012,9.191C26.09874,24.4142,0,55.77826,0,86.20762c0,38.30937,32.26847,58.50607,59.70346,58.50607,25.12352,0,41.31057-14.30879,50.22724-28.05621,6.0673-9.35466,8.71533-18.49077,8.71533-22.79226,0-6.77822,5.098-16.467,9.55031-22.93659a2.92911,2.92911,0,1,0-4.82575-3.32127c-5.07274,7.37213-10.58243,18.53447-10.58243,26.25786,0,3.71782-2.52829,11.51973-7.7721,19.60438-8.04959,12.41141-22.63166,25.38645-45.3126,25.38645-24.71605,0-53.84559-18.13565-53.84559-52.6482,0-27.42292,23.24754-55.93578,50.67023-55.93578,9.24584,0,20.38872-6.25283,25.04237-10.90625a60.72589,60.72589,0,0,1,13.5256-9.35511c3.51658-1.78789,7.0919-3.15783,9.99785-3.15783a31.02654,31.02654,0,0,1,19.1672,7.89412,2.92891,2.92891,0,1,0,4.03174-4.24959Z"/><path class="cls-1" d="M116.73317,34.23483a8.11308,8.11308,0,0,0,2.84379-.75531c1.878-.79856,4.864-2.39614,8.22909-4.21157,4.13019-2.22838,8.86169-4.795,12.73215-6.48821a15.9827,15.9827,0,0,1,5.084-1.6579c1.91935,0,3.73706,1.05124,5.59358,1.99,2.70255,1.36675,5.44243,2.61991,8.23649,2.61991,2.73384,0,6.85231-2.25842,9.608-5.22981,2.02429-2.18284,3.24069-4.70555,3.24069-6.71379,0-3.25321-2.1619-6.41263-5.58948-8.82767A28.77135,28.77135,0,0,0,152.07638,0c-10.01322,0-26.34675,8.005-35.21312,16.11329-4.35863,3.986-6.84947,8.15818-6.84947,11.40251a6.38609,6.38609,0,0,0,6.71949,6.71949Zm-.19486-5.87654a.809.809,0,0,1-.66665-.843,5.46237,5.46237,0,0,1,1.12318-2.78632,23.65446,23.65446,0,0,1,3.82185-4.29352c7.89707-7.22189,22.34119-14.57786,31.2598-14.57786A22.23761,22.23761,0,0,1,163.33763,9.7487c1.67134,1.17758,3.10547,2.45282,3.10547,4.03925,0,.86344-.80744,1.79221-1.67794,2.73054a13.54427,13.54427,0,0,1-3.69005,2.82639,3.96,3.96,0,0,1-1.62284.529c-1.91935,0-3.73718-1.05079-5.59358-1.9898-2.70255-1.36653-5.44243-2.62014-8.23649-2.62014a16.55336,16.55336,0,0,0-5.42762,1.319,155.36984,155.36984,0,0,0-15.16984,7.5292c-3.58613,1.9354-7.82958,3.93818-8.48643,4.2464Z"/><path class="cls-1" d="M123.01069,25.70879c-4.29011,7.58-8.15487,18.55678-8.15487,25.89864,0,5.34,5.32735,16.22211,12.27152,23.98419,4.91475,5.49387,10.657,9.29341,15.58949,9.29341,4.37206,0,8.76233-3.38933,12.17261-8.54858,4.49294-6.79688,7.46171-16.46294,7.46171-22.22293,0-5.68577-2.37349-11.75079-5.87562-17.31774a65.49426,65.49426,0,0,0-17.38672-18.28339,2.92911,2.92911,0,0,0-3.215,4.89723,59.1266,59.1266,0,0,1,15.64356,16.50529c2.88113,4.58013,4.97587,9.5206,4.97587,14.19838,0,4.9316-2.64393,13.17355-6.49059,18.993A19.03257,19.03257,0,0,1,146.0702,77.609a5.58191,5.58191,0,0,1-3.35337,1.418c-3.64475,0-7.59226-3.28144-11.22392-7.34118a55.74735,55.74735,0,0,1-8.82857-13.46515,18.10021,18.10021,0,0,1-1.95065-6.61318c0-6.53624,3.57588-16.26559,7.395-23.0133a2.92895,2.92895,0,0,0-5.098-2.88534Z"/><path class="cls-1" d="M143.60543,57.19463,135.415,22.73353a2.92913,2.92913,0,0,0-5.69943,1.35491l8.19084,34.46065a2.92886,2.92886,0,1,0,5.699-1.35446Z"/><path class="cls-1" d="M21.15234,89.28418c-2.20561-18.98771,5.05589-32.5644,21.39933-40.95249a2.92911,2.92911,0,0,0-2.675-5.21183c-18.70384,9.60028-27.06712,25.10987-24.543,46.84041a2.92893,2.92893,0,0,0,5.81871-.67609Z"/></g></g></svg>