<svg xmlns="http://www.w3.org/2000/svg" viewBox="0 0 199.99951 201.63379"><defs><style>.cls-1{fill-rule:evenodd;}</style></defs><g id="Capa_2" data-name="Capa 2"><g id="Capa_1-2" data-name="Capa 1"><path class="cls-1" d="M77.016,42.41992,1.596,105.70386a4.47484,4.47484,0,0,0-.55078,6.3l6.50293,7.75a4.47577,4.47577,0,0,0,5.27392,1.198V177.605H5.16927A4.97055,4.97055,0,0,0,.2015,182.57275V196.666a4.97008,4.97008,0,0,0,4.96777,4.96777h186.835A4.96978,4.96978,0,0,0,196.972,196.666V182.57275a4.97087,4.97087,0,0,0-4.96778-4.96777h-4.23535V121.168a4.47405,4.47405,0,0,0,4.68213-1.418l6.50293-7.75a4.47268,4.47268,0,0,0-.55078-6.29907L123.29623,42.679l9.564-4.574a3.85694,3.85694,0,0,0,0-6.959l-19.5874-9.36719L103.90707,2.19287a3.85772,3.85772,0,0,0-6.96,0L87.58089,21.77881,67.99349,31.146a3.85694,3.85694,0,0,0,0,6.959l9.022,4.31494ZM6.6141,184.01807v11.20288H190.55892V184.01807ZM91.3221,55.29565l-72.08837,60.489v61.82007H47.00179v-33.592a51.35608,51.35608,0,0,1,51.33154-51.332h2.6084a51.35608,51.35608,0,0,1,51.33155,51.332v33.592H181.3558V116.27783L109.28792,55.80469l-5.38085,11.25317a3.857,3.857,0,0,1-6.96,0l-5.625-11.76221Zm54.54,122.30909v-33.592a44.9415,44.9415,0,0,0-44.91992-44.91993h-2.6084A44.94035,44.94035,0,0,0,53.41488,144.0127v33.592h20.875v-8.04786h-.41895a11.88827,11.88827,0,0,1-11.88281-11.883v-6.94092A4.945,4.945,0,0,1,66.93,145.79077h4.74122a13.42278,13.42278,0,0,1,22.49072-12.186c8.27051-3.594,17.81592-3.10889,24.61914.68213a18.00853,18.00853,0,0,1,9.09326,11.5039h2.894a4.94441,4.94441,0,0,1,4.9419,4.94214v6.94092a11.89486,11.89486,0,0,1-9.26514,11.594v8.33692h19.417ZM80.703,169.55688v8.04786h39.32911v-8.04786Zm44.40967-17.353H68.40072v5.47a5.47329,5.47329,0,0,0,5.46972,5.47119H123.8265a5.47329,5.47329,0,0,0,5.46973-5.47119v-5.47h-4.1836Zm-34.45508-12.866a7.01212,7.01212,0,0,0-12.3457,6.45313h13.0957a7.0193,7.0193,0,0,0-.70507-6.386c-.01563-.02222-.03077-.04419-.04493-.06714Zm30.47754,6.45313a12.14007,12.14007,0,0,0-5.47509-5.9021c-4.98877-2.78-11.89014-3.155-18.03711-.77686a13.3966,13.3966,0,0,1,.66113,4.168,13.546,13.546,0,0,1-.23486,2.511ZM83.37093,45.459,7.20638,109.36914l4.00684,4.77588L88.46468,49.322l-.88379-1.8501-4.21-2.01294Zm29.90186,2.01294-1.12744,2.35889,76.64111,64.31006,4.00781-4.77612-75.85254-63.647-3.66894,1.75415Zm2.80713-8.45092,9.19238-4.395-15.78613-7.55a3.20576,3.20576,0,0,1-1.51026-1.509L100.42708,9.781,92.87777,25.56689a3.20475,3.20475,0,0,1-1.50977,1.509l-15.78613,7.55,8.6499,4.136c.02979.01392.06055.02906.09082.043l7.04492,3.37012a3.20477,3.20477,0,0,1,1.50977,1.509l2.41895,5.05884c.01806.03711.03613.074.05322.11108L100.4266,59.47,105.25912,49.363c.01709-.03711.03515-.074.0542-.11109l2.6621-5.56787a3.20267,3.20267,0,0,1,1.50977-1.509L115.9891,39.064c.02978-.01391.06006-.029.08984-.043Z"/></g></g></svg>