<svg xmlns="http://www.w3.org/2000/svg" viewBox="0 0 248.54345 120.74795"><defs><style>.cls-1{fill-rule:evenodd;}</style></defs><g id="Capa_2" data-name="Capa 2"><g id="Capa_1-2" data-name="Capa 1"><path class="cls-1" d="M238.03833,76.8a7.39832,7.39832,0,0,0-7.395-7.394H7.395A7.39754,7.39754,0,0,0,0,76.8v36.553a7.39774,7.39774,0,0,0,7.395,7.395H230.64331a7.39853,7.39853,0,0,0,7.395-7.395V76.8Zm-19.49927-1.74316V99.58291a2.82552,2.82552,0,0,1-2.82593,2.82593h-7.97a2.82573,2.82573,0,0,1-2.82617-2.82593V75.05679h-2.283V99.58291a2.82557,2.82557,0,0,1-2.82617,2.82593h-7.97a2.82568,2.82568,0,0,1-2.82593-2.82593V75.05679h-2.15527V99.58291a2.82531,2.82531,0,0,1-2.82495,2.82593h-7.971a2.82531,2.82531,0,0,1-2.825-2.82593V75.05679H159.05469V99.58291a2.82532,2.82532,0,0,1-2.825,2.82593h-7.97095a2.82635,2.82635,0,0,1-2.82617-2.82593V75.05679h-2.15381V99.58291a2.82573,2.82573,0,0,1-2.82617,2.82593h-7.97a2.82589,2.82589,0,0,1-2.82618-2.82593V75.05679H115.47656V99.58291a2.82552,2.82552,0,0,1-2.82593,2.82593h-7.97a2.82573,2.82573,0,0,1-2.82617-2.82593V75.05679H99.57056V99.58291a2.82532,2.82532,0,0,1-2.825,2.82593h-7.971a2.82531,2.82531,0,0,1-2.825-2.82593V75.05679h-2.155V99.58291a2.82573,2.82573,0,0,1-2.82617,2.82593h-7.97a2.82573,2.82573,0,0,1-2.82618-2.82593V75.05679H55.99243V99.58291a2.82552,2.82552,0,0,1-2.82593,2.82593h-7.97a2.82573,2.82573,0,0,1-2.82617-2.82593V75.05679H40.21655V99.58291a2.82557,2.82557,0,0,1-2.82617,2.82593h-7.97a2.82568,2.82568,0,0,1-2.82593-2.82593V75.05679H7.39453A1.7441,1.7441,0,0,0,5.65039,76.8v36.553a1.74426,1.74426,0,0,0,1.74414,1.7439h223.2478a1.74389,1.74389,0,0,0,1.74317-1.7439V76.8a1.74373,1.74373,0,0,0-1.74317-1.74316H218.53906Zm-186.293,0h2.31885V96.758H32.24609V75.05679Zm15.77637,0h2.32007V96.758H48.02246V75.05679Zm27.803,0h2.31885V96.758H75.82544V75.05679Zm15.77563,0h2.31885V96.758H91.60107V75.05679Zm118.968,0h2.31909V96.758h-2.31909V75.05679Zm-103.06274,0h2.31885V96.758h-2.31885V75.05679Zm43.57886,0h2.31909V96.758h-2.31909V75.05679Zm43.57788,0h2.31884V96.758h-2.31884V75.05679Zm-59.35376,0h2.31884V96.758h-2.31884V75.05679Zm43.57788,0h2.31909V96.758h-2.31909V75.05679ZM25.36523,35.217a17.78775,17.78775,0,0,0-8.12988-3.20606,16.47763,16.47763,0,0,0-11.49316,2.3479A8.60041,8.60041,0,0,0,3.9375,47.454a16.47629,16.47629,0,0,0,10.42969,5.36987A16.481,16.481,0,0,0,25.86133,50.476a8.974,8.974,0,0,0,3.97-6.125c.02612-.187.04516-.375.05786-.562l2.77905-20.168,29.4729,4.06177L60.428,40.11685a17.75732,17.75732,0,0,0-8.241-3.29,16.487,16.487,0,0,0-11.49389,2.34912,8.6019,8.6019,0,0,0-1.80518,13.095,16.47863,16.47863,0,0,0,10.42993,5.36988,16.48052,16.48052,0,0,0,11.4939-2.34791A9.039,9.039,0,0,0,64.73169,49.485a2.86753,2.86753,0,0,0,.21313-.75512l4.834-35.071a2.82627,2.82627,0,0,0-2.41406-3.18506l-35.071-4.834a2.82593,2.82593,0,0,0-3.18481,2.41406L25.365,35.217ZM224.96948,33.61a19.271,19.271,0,0,0-9.23388-4.115,18.017,18.017,0,0,0-12.62793,2.20191,9.25339,9.25339,0,0,0-2.3418,14.04516,19.33582,19.33582,0,0,0,23.85791,3.978,9.67706,9.67706,0,0,0,4.46094-6.43213l.00708-.04.00415-.02588L234.63306,10.019l8.78589,12.303a2.82578,2.82578,0,0,0,4.59887-3.28491l-12.751-17.853a2.825,2.825,0,0,0-5.08594,1.177L224.97,33.61Zm-173.554,8.81592a11.5872,11.5872,0,0,1,6.1289,2.625,3.96638,3.96638,0,0,1,1.6399,3.345,3.966,3.966,0,0,1-2.48389,2.77686,11.58175,11.58175,0,0,1-6.61011.87011,11.57985,11.57985,0,0,1-6.1289-2.626,3.96423,3.96423,0,0,1-1.6399-3.345,3.96535,3.96535,0,0,1,2.48291-2.77613,11.586,11.586,0,0,1,6.61109-.86987Zm-27.15821.83594-.08715.62988a4.21239,4.21239,0,0,1-2.4209,2.46411,11.58609,11.58609,0,0,1-6.61109.86988,11.57626,11.57626,0,0,1-6.12793-2.626,3.9606,3.9606,0,0,1-1.63989-3.345,3.9629,3.9629,0,0,1,2.48291-2.77588,11.58586,11.58586,0,0,1,6.61109-.87012,11.59356,11.59356,0,0,1,6.1289,2.625,4.21585,4.21585,0,0,1,1.66406,3.02808Zm199.26294-.96094-.0061.03394a4.73133,4.73133,0,0,1-3.02686,3.229A14.32724,14.32724,0,0,1,206.02612,43.152c-1.25293-1.19117-2.05591-2.59522-1.813-4.053.24317-1.458,1.458-2.52515,3.03-3.2461a14.32753,14.32753,0,0,1,14.46119,2.41187,4.72933,4.72933,0,0,1,1.81591,4.03613ZM33.44019,18.0231l29.4729,4.061.88208-6.39794L34.321,11.62417l-.8811,6.39893Z"/></g></g></svg>