<svg xmlns="http://www.w3.org/2000/svg" viewBox="0 0 178.00488 180.33228"><defs><style>.cls-1{fill-rule:evenodd;}</style></defs><g id="Capa_2" data-name="Capa 2"><g id="Capa_1-2" data-name="Capa 1"><path class="cls-1" d="M131.74313,105.4145a25.5361,25.5361,0,1,0,25.53585,25.536,25.54829,25.54829,0,0,0-25.53585-25.536Zm0,6.52484a19.01134,19.01134,0,1,1-19.01151,19.01134,19.02031,19.02031,0,0,1,19.01151-19.01134Z"/><path class="cls-1" d="M118.97544,72.89839a11.00654,11.00654,0,0,0-15.559,0L74.26215,102.05186a11.0076,11.0076,0,0,0,0,15.55966l7.29724,7.2966a11.00683,11.00683,0,0,0,15.559,0l29.15427-29.15363a11.00741,11.00741,0,0,0,0-15.5595l-7.29724-7.2966ZM114.362,77.51172l7.29724,7.29724a4.47972,4.47972,0,0,1,0,6.33141l-29.15426,29.1541a4.479,4.479,0,0,1-6.332,0l-7.2966-7.29723a4.47828,4.47828,0,0,1,0-6.33142l29.15362-29.1541a4.479,4.479,0,0,1,6.332,0Z"/><path class="cls-1" d="M89.09641,55.85962a3.26278,3.26278,0,0,0-3.6555-.66386c-14.3077,6.4951-23.96259,16.57184-29.66179,29.68849a3.26314,3.26314,0,0,0,.6856,3.60705l13.256,13.256a3.26223,3.26223,0,0,0,5.45351-1.4457q5.53143-20.2044,25.73759-25.73375a3.26243,3.26243,0,0,0,1.44058-5.45207L89.09625,55.85962Zm-2.98572,6.24174,7.88709,7.88725a39.46643,39.46643,0,0,0-23.40934,23.399l-7.90612-7.90628A49.80807,49.80807,0,0,1,86.11069,62.10136Z"/><path class="cls-1" d="M74.43511,28.86368a11.00712,11.00712,0,0,0-15.5595,0L29.722,58.01794a11.00634,11.00634,0,0,0,0,15.55887L37.01858,80.874a11.00761,11.00761,0,0,0,15.55967,0L81.73171,51.71978a11.00634,11.00634,0,0,0,0-15.55886l-7.2966-7.29724ZM69.821,33.47748l7.29724,7.2966a4.47953,4.47953,0,0,1,0,6.33221L47.964,76.2604a4.47972,4.47972,0,0,1-6.33141,0l-7.29724-7.29724a4.479,4.479,0,0,1,0-6.33205L63.48942,33.47748a4.47875,4.47875,0,0,1,6.33157,0Z"/><path class="cls-1" d="M4.20163.1383A3.26172,3.26172,0,0,0,.1382,4.20093L16.21514,57.68641a3.262,3.262,0,0,0,5.43113,1.36785l37.408-37.408a3.26231,3.26231,0,0,0-1.36721-5.43113L4.20163.13814ZM8.13287,8.13281,50.58106,20.89187,20.89273,50.58115,8.13287,8.13281Z"/><path class="cls-1" d="M34.96657,41.11984,27.9163,34.06957a3.26234,3.26234,0,1,0-4.614,4.61333L30.3534,45.734a3.2624,3.2624,0,1,0,4.61333-4.61413Z"/><path class="cls-1" d="M43.31787,33.02191,29.14252,18.84656a3.26211,3.26211,0,0,0-4.61332,4.61333l14.17534,14.1755a3.26217,3.26217,0,0,0,4.61333-4.61348Z"/><path class="cls-1" d="M35.55322,40.87031l8.72919,7.5375A3.26253,3.26253,0,0,0,48.54678,43.469l-8.729-7.53685a3.26234,3.26234,0,0,0-4.26453,4.93814Z"/><path class="cls-1" d="M62.349,65.94867l4.72986,5.99573a3.26245,3.26245,0,1,0,5.12277-4.04122L67.471,61.90762a3.26215,3.26215,0,1,0-5.12214,4.04105Z"/><path class="cls-1" d="M79.76729,83.4l8.08883,9.34127a3.2622,3.2622,0,1,0,4.93223-4.27093L84.69968,79.1291A3.26225,3.26225,0,0,0,79.76729,83.4Z"/><path class="cls-1" d="M106.48733,110.87776l6.82632,6.96858a3.26229,3.26229,0,1,0,4.66112-4.56553l-6.82632-6.96858a3.26229,3.26229,0,1,0-4.66112,4.56553Z"/><path class="cls-1" d="M153.55955,157.91881a18.68277,18.68277,0,0,0-2.2392,11.94925c.91531,5.74012,4.61188,10.46422,11.7141,10.46422,6.6078,0,11.6978-4.60757,13.85532-10.53168,2.1142-5.80646,1.32517-12.73172-3.2541-17.311a3.26217,3.26217,0,0,0-4.61349,4.61333c2.75793,2.75776,3.01,6.96858,1.73647,10.4655-1.23022,3.37991-3.95393,6.23918-7.7242,6.23918-3.2744,0-4.84911-2.31977-5.27079-4.96628-.5061-3.17546.36861-6.8893,2.401-8.92165.01311-.01311,1.93884-2.66426-.28677-4.906-1.72017-1.73247-10.35952-10.3536-10.35952-10.3536a3.26212,3.26212,0,1,0-4.60869,4.618s5.57323,5.5614,8.6499,8.64079Z"/><path class="cls-1" d="M117.95063,54.46779c-5.87264-5.87248-3.11024-12.39251,4.36843-19.871,2.00422-2.00359,2.70933-4.86749,2.09981-8.11968-.685-3.65357-3.146-7.91331-6.46824-11.23487a3.26217,3.26217,0,0,0-4.61349,4.61333,18.10582,18.10582,0,0,1,4.36268,6.6687c.45638,1.36257.81317,2.65178.00592,3.459-6.25485,6.25421-9.49872,12.2413-9.52094,17.69081-.01631,3.98479,1.561,7.81643,5.15218,11.40767a3.2624,3.2624,0,0,0,4.61349-4.614Z"/><path class="cls-1" d="M136.93128,54.46779c-5.87312-5.87248-3.11008-12.39251,4.36859-19.871,2.00406-2.00359,2.70917-4.86749,2.09966-8.11968-.68545-3.65357-3.14685-7.91331-6.46825-11.23487a3.26212,3.26212,0,0,0-4.61333,4.61333,18.11363,18.11363,0,0,1,4.36268,6.6687c.45574,1.36257.81253,2.65178.00512,3.459-6.25421,6.25421-9.49776,12.2413-9.52,17.69081-.0171,3.98479,1.561,7.81643,5.15218,11.40767a3.26234,3.26234,0,1,0,4.61333-4.614Z"/><path class="cls-1" d="M62.5578,34.16181l-2.41073,2.41152a3.26212,3.26212,0,0,0,4.61333,4.61333l2.41088-2.41089a3.26239,3.26239,0,1,0-4.61348-4.614Z"/><path class="cls-1" d="M105.75073,79.91078l-2.11564,2.11611a3.26223,3.26223,0,0,0,4.61349,4.61349l2.11612-2.11628a3.26234,3.26234,0,0,0-4.614-4.61332Z"/><path class="cls-1" d="M51.063,45.65676l-1.58717,1.587a3.26223,3.26223,0,1,0,4.61349,4.61348l1.587-1.58653a3.26234,3.26234,0,0,0-4.61333-4.614Z"/><path class="cls-1" d="M82.21031,103.45184l-.79351.79351a3.26217,3.26217,0,0,0,4.61333,4.61348l.7935-.79366a3.26211,3.26211,0,1,0-4.61332-4.61333Z"/></g></g></svg>