<svg xmlns="http://www.w3.org/2000/svg" viewBox="0 0 162.69399 162.69464"><defs><style>.cls-1{fill-rule:evenodd;}</style></defs><g id="Capa_2" data-name="Capa 2"><g id="Capa_1-2" data-name="Capa 1"><path class="cls-1" d="M81.347,0a81.34732,81.34732,0,1,0,81.347,81.34764A81.38566,81.38566,0,0,0,81.347,0Zm0,5.84565A75.50188,75.50188,0,1,1,5.84544,81.34786,75.53772,75.53772,0,0,1,81.347,5.84565Z"/><path class="cls-1" d="M49.82827,115.92469a46.76582,46.76582,0,0,1-5.24061-63.52548,2.92262,2.92262,0,1,0-4.58911-3.62035,52.6121,52.6121,0,0,0,5.89,71.46415,2.92282,2.92282,0,0,0,3.93976-4.31853Z"/><path class="cls-1" d="M63.11961,38.23914A46.95574,46.95574,0,0,1,93.998,36.28377a2.9229,2.9229,0,0,0,1.57939-5.62841A52.80734,52.80734,0,0,0,60.83818,32.857a2.92286,2.92286,0,1,0,2.28143,5.38214Z"/><path class="cls-1" d="M115.75994,49.6491a46.76375,46.76375,0,0,1-2.287,65.71206,2.92274,2.92274,0,1,0,4.01483,4.24863,52.60866,52.60866,0,0,0,2.57029-73.922,2.92255,2.92255,0,1,0-4.29809,3.96127Z"/><path class="cls-1" d="M89.12865,127.49877a47.29388,47.29388,0,0,1-15.08711.07744,2.92268,2.92268,0,1,0-.90637,5.77467,53.1461,53.1461,0,0,0,16.96008-.0869,2.92294,2.92294,0,0,0-.9666-5.76542Z"/><path class="cls-1" d="M101.34971,134.03851a12.94382,12.94382,0,0,0,9.03691-4.00859,9.43134,9.43134,0,0,0,2.7058-6.42466c0-2.23906-1.7977-35.58367-2.1883-42.80588,2.42662-2.36833,7.82145-8.46111,7.82145-15.818,0-7.42913-4.4635-16.76544-9.49569-21.68987-2.60041-2.54427-5.4187-3.9204-7.88017-3.9204-2.47609,0-5.29653,1.43249-7.87522,4.0615-4.9526,5.0494-9.2806,14.53519-9.2806,21.54877,0,8.01588,5.14684,13.72388,7.5969,15.98617-.39856,7.285-2.1726,39.86133-2.1726,42.74221a9.30964,9.30964,0,0,0,2.71613,6.40316,12.97689,12.97689,0,0,0,9.01539,3.92578Zm0-5.845a6.90323,6.90323,0,0,1-4.13721-1.52411,3.95368,3.95368,0,0,1-1.74866-2.95982c0-3.2218,2.24207-43.85959,2.24207-43.85959a2.92246,2.92246,0,0,0-1.18814-2.51653s-6.47844-4.72117-6.47844-12.35205c0-4.89583,2.67827-11.23489,5.96481-15.54266a16.16954,16.16954,0,0,1,3.21491-3.28869,3.89329,3.89329,0,0,1,2.13066-.93348,4.10857,4.10857,0,0,1,2.20078.91713,15.932,15.932,0,0,1,3.25514,3.19792c3.33729,4.20948,6.0745,10.48273,6.0745,15.64978,0,6.99035-6.80344,12.32861-6.80344,12.32861a2.92276,2.92276,0,0,0-1.08361,2.43371s2.25455,41.36694,2.25455,43.86153a4.08516,4.08516,0,0,1-1.7749,3.02757,6.82228,6.82228,0,0,1-4.123,1.56068Z"/><path class="cls-1" d="M61.97879,133.93463c2.854,0,6.57651-1.94569,9.03023-4.65794a10.04436,10.04436,0,0,0,2.862-6.40122c0-2.16637-1.95235-37.3747-2.344-44.42183l7.2177-7.94792a2.92182,2.92182,0,0,0,.75883-1.96461V42.294a2.92251,2.92251,0,1,0-5.845,0V67.41233l-7.28136,8.0176a2.92245,2.92245,0,0,0-.75453,2.12787s2.403,42.92718,2.403,45.31788c0,1.13007-1.02209,2.26831-2.1285,3.24589a6.74283,6.74283,0,0,1-3.91825,1.96783,2.92262,2.92262,0,1,0,0,5.84523Z"/><path class="cls-1" d="M61.97879,128.0894a6.74244,6.74244,0,0,1-3.91783-1.96783c-1.10662-.97758-2.12893-2.11582-2.12893-3.24589,0-2.3907,2.40339-45.31788,2.40339-45.31788a2.92338,2.92338,0,0,0-.75453-2.12787l-7.28158-8.0176V42.294a2.92272,2.92272,0,0,0-5.84543,0V68.54111a2.92163,2.92163,0,0,0,.759,1.96461l7.21791,7.94792c-.39189,7.04713-2.34381,42.25525-2.34381,44.42183a10.04368,10.04368,0,0,0,2.86153,6.40122c2.45393,2.71225,6.17624,4.65794,9.03024,4.65794a2.92262,2.92262,0,0,0,0-5.84523Z"/><path class="cls-1" d="M55.21342,42.294V66.78814a2.92272,2.92272,0,1,0,5.84544,0V42.294a2.92272,2.92272,0,1,0-5.84544,0Z"/><path class="cls-1" d="M63.638,42.294V66.78814a2.92272,2.92272,0,1,0,5.84544,0V42.294a2.92272,2.92272,0,1,0-5.84544,0Z"/></g></g></svg>