<svg xmlns="http://www.w3.org/2000/svg" viewBox="0 0 115.33636 135.24029"><defs><style>.cls-1{fill-rule:evenodd;}</style></defs><g id="Capa_2" data-name="Capa 2"><g id="Capa_1-2" data-name="Capa 1"><path class="cls-1" d="M34.355,76.91127a7.21317,7.21317,0,0,0-3.05247-.6729H7.25427A7.25762,7.25762,0,0,0,0,83.492v49.64708a2.101,2.101,0,0,0,2.1009,2.10123H113.23612a2.10091,2.10091,0,0,0,2.10024-2.10123V94.00541a7.62927,7.62927,0,0,0-7.626-7.626h-25.787a7.58521,7.58521,0,0,0-3.4249.81157V74.02323a8.09548,8.09548,0,0,0-8.09193-8.09193H42.447A8.09548,8.09548,0,0,0,34.355,74.02323v2.888Zm0,6.58071v47.54684H4.20115V83.492a3.05424,3.05424,0,0,1,3.05312-3.05246H31.30256A3.05432,3.05432,0,0,1,34.355,83.492Zm39.94224-9.46875v57.01559H38.55617V74.02323A3.89232,3.89232,0,0,1,42.447,70.13245H70.40649a3.89231,3.89231,0,0,1,3.89078,3.89078Zm4.20115,57.01526V94.00541a3.42653,3.42653,0,0,1,3.4249-3.4249H107.71a3.42618,3.42618,0,0,1,3.42524,3.4249v37.03308Zm13.693-23.066a2.10161,2.10161,0,0,0-2.1009,2.08671v.01353a2.10127,2.10127,0,0,0,2.1009,2.10025c2.888,0,4.79975.51045,5.81735,1.739a4.04153,4.04153,0,0,1,.79176,2.66154c0,4.11464-4.77334,3.8888-8.61756.22055a2.10063,2.10063,0,0,0-2.90026,3.03959c4.0595,3.87362,8.73676,4.65217,11.76281,3.31529a6.72075,6.72075,0,0,0,3.95616-6.57543,8.13116,8.13116,0,0,0-1.75785-5.3419,7.25649,7.25649,0,0,0-1.216-1.15892,7.26928,7.26928,0,0,0,1.216-1.15891,8.13178,8.13178,0,0,0,1.75785-5.3419,6.72074,6.72074,0,0,0-3.95616-6.57543c-3.026-1.33688-7.70331-.55866-11.76281,3.31528a2.10063,2.10063,0,0,0,2.90026,3.03959c3.84422-3.66824,8.61756-3.89408,8.61756.22056a4.04,4.04,0,0,1-.79176,2.66121c-1.0176,1.22891-2.92931,1.73936-5.81735,1.73936Zm-76.32719,1.42735a77.24587,77.24587,0,0,0,7.29951-8.10613c1.94968-2.66154,3.23571-5.39208,3.23571-7.70529,0-9.20428-11.94308-9.552-16.43907-.975a2.10068,2.10068,0,1,0,3.72107,1.95067,6.97312,6.97312,0,0,1,5.70245-3.92776,2.82063,2.82063,0,0,1,2.019.63889,3.02647,3.02647,0,0,1,.79539,2.3132c0,1.86153-1.429,3.99281-3.10992,6.12376-3.01053,3.81517-7.078,7.4428-8.58587,9.24819a4.0765,4.0765,0,0,0-1.0866,2.32642,2.19984,2.19984,0,0,0,.64318,1.606,2.33333,2.33333,0,0,0,1.76214.70855H27.039a2.10057,2.10057,0,1,0,0-4.20114H15.86424Zm39.761-34.43526-.00528.002a2.10834,2.10834,0,0,0-.67884.45432L49.77882,80.5838a2.10052,2.10052,0,1,0,2.97058,2.97059l1.57626-1.57626V98.16694h-5.336a2.10057,2.10057,0,1,0,0,4.20114H63.86342a2.10057,2.10057,0,0,0,0-4.20114H58.5268V76.90665a2.09566,2.09566,0,0,0-.15815-.80134l-.002-.00528a2.10256,2.10256,0,0,0-1.13349-1.13349l-.00529-.002a2.101,2.101,0,0,0-1.60267,0ZM82.98385,55.81739,94.46964,67.30417a2.101,2.101,0,1,0,2.97124-2.97124L85.95443,52.84713a2.1004,2.1004,0,0,0-2.97058,2.97026Zm-53.353-2.97059L18.1441,64.3326a2.101,2.101,0,1,0,2.97124,2.97124L32.60147,55.81739a2.10052,2.10052,0,0,0-2.97058-2.97059ZM54.321,5.94909,47.95394,20.68017,31.97612,22.18412a3.66923,3.66923,0,0,0-2.08143,6.40572L41.93716,39.197l-3.50744,15.6602a3.669,3.669,0,0,0,5.44953,3.95912l13.8099-8.17447,13.80923,8.17447a3.669,3.669,0,0,0,5.44954-3.95912L73.44047,39.197l12.04247-10.6072a3.66882,3.66882,0,0,0-2.08142-6.40572L67.42369,20.68017,61.0566,5.94909a3.669,3.669,0,0,0-6.73557,0Zm3.36812,2.79724,6.37171,14.742A2.10054,2.10054,0,0,0,65.79263,24.746l15.98872,1.50526L69.731,36.86667a2.1,2.1,0,0,0-.66134,2.03553L72.579,54.57362,58.75891,46.3932a2.09943,2.09943,0,0,0-2.14019,0L42.79859,54.57362,46.30868,38.9022a2.10005,2.10005,0,0,0-.66134-2.03553l-12.051-10.61546L49.58566,24.746a2.10046,2.10046,0,0,0,1.73111-1.25764l6.37238-14.742ZM90.48938,35.73681H107.8546a2.10058,2.10058,0,1,0,0-4.20115H90.48938a2.10058,2.10058,0,0,0,0,4.20115ZM25.09593,31.53566H7.73038a2.10058,2.10058,0,1,0,0,4.20115H25.09593a2.10058,2.10058,0,0,0,0-4.20115Zm7.29885-19.41032L20.88389.61512A2.10052,2.10052,0,0,0,17.91331,3.5857L29.4242,15.09659a2.10075,2.10075,0,0,0,2.97058-2.97125Zm53.76634,2.97125L97.672,3.5857A2.10052,2.10052,0,0,0,94.70142.61512L83.19053,12.12534a2.10076,2.10076,0,0,0,2.97059,2.97125Z"/></g></g></svg>