<svg xmlns="http://www.w3.org/2000/svg" viewBox="0 0 146.57132 61.39893"><defs><style>.cls-1{fill-rule:evenodd;}</style></defs><g id="Capa_2" data-name="Capa 2"><g id="Capa_1-2" data-name="Capa 1"><path class="cls-1" d="M59.74547,5.098A401.74791,401.74791,0,0,1,12.08855.32887,2.08847,2.08847,0,0,0,11.75934.303,11.765,11.765,0,0,0,0,12.06231V31.414A11.765,11.765,0,0,0,11.75934,43.17334a2.09247,2.09247,0,0,0,.26582-.017q21.36-2.75027,42.72076-3.57363L48.72806,51.34541A2.08275,2.08275,0,0,0,50.658,54.37615l8.15776-.29684L62.38668,60.347a2.08275,2.08275,0,0,0,3.65066-.05657L72.957,47.22751l6.86646,12.96373a2.083,2.083,0,0,0,3.65134.05657l3.57159-6.26767,8.15673.29684a2.08355,2.08355,0,0,0,1.93064-3.03074L91.13324,39.51791q22.02255.775,44.04068,3.47719a5.2828,5.2828,0,0,0,1.354.1779c.04328,0,.08725-.00068.13121-.00136a2.09447,2.09447,0,0,0,.46622-.03272c2.16647-.25117,4.29238-1.86588,5.91937-4.76576,2.10649-3.75494,3.5266-9.80416,3.5266-16.63517s-1.42045-12.88023-3.5266-16.63518c-1.627-2.89987-3.7529-4.51425-5.91937-4.76576a2.11177,2.11177,0,0,0-.46792-.03271c-.043-.00137-.08657-.00137-.12951-.00137a5.35668,5.35668,0,0,0-1.72854.291,374.32655,374.32655,0,0,1-49.45226,4.6567,7.30174,7.30174,0,0,0-8.17173-3.559,7.29814,7.29814,0,0,0-9.34476,0,7.30091,7.30091,0,0,0-8.08516,3.406ZM70.01108,43.887a7.22858,7.22858,0,0,1-2.18045-1.25108,7.13356,7.13356,0,0,1-1.368.20823L62.13312,51.4848l1.99675,3.50513L70.01108,43.887Zm9.01077-1.033a7.17723,7.17723,0,0,1-1.84612-.21777,7.15523,7.15523,0,0,1-1.43988.93516l5.99571,11.3197,1.767-3.10163L79.02185,42.854ZM54.0541,50.08376l4.19662-.153,4.06235-8.10663a7.35287,7.35287,0,0,1-2.64121-2.722L54.0541,50.08342ZM85.93432,38.50437c-.11281.02863-.22595.05419-.33842.07668a7.32617,7.32617,0,0,1-2.54408,3.0137l4.1179,8.2208,4.638.1687L85.93432,38.50437ZM81.89,7.67552a2.96789,2.96789,0,0,0-1.57859-1.72616,2.82439,2.82439,0,0,0-2.60917-.01942,2.08392,2.08392,0,0,1-2.83989-.64855,3.05451,3.05451,0,0,0-4.71907,0,2.08414,2.08414,0,0,1-2.8399.64855,2.82372,2.82372,0,0,0-2.60883.01942,2.9804,2.9804,0,0,0-1.57109,1.69958c-.01329.06679-.03067.13325-.05044.19834-.00886.04294-.01568.08622-.02079.12951a2.08284,2.08284,0,0,1-2.27757,1.81612,2.82506,2.82506,0,0,0-2.342,1.15021,2.82721,2.82721,0,0,0-.6005,2.53931,2.08252,2.08252,0,0,1-1.26334,2.62416,2.82713,2.82713,0,0,0-1.61165,2.053,2.826,2.826,0,0,0,.561,2.54817,2.08265,2.08265,0,0,1,0,2.91248,3.056,3.056,0,0,0,1.05069,4.60115,2.08226,2.08226,0,0,1,1.26334,2.62417,3.05627,3.05627,0,0,0,2.94248,3.68951,2.08285,2.08285,0,0,1,2.27757,1.81613,2.8261,2.8261,0,0,0,1.64232,2.02743,3.24879,3.24879,0,0,0,.39056.15915,2.07441,2.07441,0,0,1,1.00093.169,2.30982,2.30982,0,0,0,1.21734-.30877,2.08421,2.08421,0,0,1,2.8399.64855,2.828,2.828,0,0,0,2.359,1.11476c.02658,0,.05317-.00069.07975-.00137l.04941-.00136a2.79171,2.79171,0,0,0,2.23055-1.112,2.08425,2.08425,0,0,1,2.84023-.64855,2.592,2.592,0,0,0,1.90781.227c.06236-.01942.12439-.03544.18744-.04873a3.34536,3.34536,0,0,0,.51324-.19766,2.8261,2.8261,0,0,0,1.64232-2.02743,2.08285,2.08285,0,0,1,2.27757-1.81613,3.05488,3.05488,0,0,0,2.9418-3.68951,2.0835,2.0835,0,0,1,1.264-2.62417,3.056,3.056,0,0,0,1.05069-4.60115,2.08137,2.08137,0,0,1,0-2.91248,2.82607,2.82607,0,0,0,.561-2.54817,2.8264,2.8264,0,0,0-1.61165-2.053,2.0839,2.0839,0,0,1-1.264-2.62416,2.82552,2.82552,0,0,0-.59947-2.53931,2.82608,2.82608,0,0,0-2.34233-1.15021,2.08284,2.08284,0,0,1-2.27757-1.81612l-.00341-.02454a2.17019,2.17019,0,0,1-.06-.27673ZM54.68594,9.038A407.23762,407.23762,0,0,1,11.60359,4.47131a7.59611,7.59611,0,0,0-7.43662,7.591V31.414a7.59667,7.59667,0,0,0,7.46729,7.59168q21.565-2.7702,43.129-3.59375a7.326,7.326,0,0,1-1.17951-4.137,7.29738,7.29738,0,0,1-2.07923-9.111,7.2973,7.2973,0,0,1,2.07923-9.11063A7.32431,7.32431,0,0,1,54.68594,9.038Zm82.088-4.54526c-.30979.05146-.62026.1019-.929.15268a2.92347,2.92347,0,0,0-.52143.34693,7.39545,7.39545,0,0,0-1.67913,2.14909q-.13086.23362-.2573.48019a4.7831,4.7831,0,0,1,2.937,2.37947c1.43818,2.37709,2.51375,7.14762,2.51375,12.6628,0,5.51553-1.07557,10.28606-2.51375,12.66314a5.398,5.398,0,0,1-2.02776,2.038,5.8113,5.8113,0,0,0,1.02717,1.11817,2.665,2.665,0,0,0,.66865.41373q.37319.046.745.09236a2.16921,2.16921,0,0,0,.99378-.50609,7.39716,7.39716,0,0,0,1.67947-2.14909c1.84577-3.29009,2.99427-8.61068,2.99427-14.5965s-1.1485-11.30607-2.99427-14.59651A7.40063,7.40063,0,0,0,137.731,4.99205a2.21544,2.21544,0,0,0-.957-.49961Zm-7.02459,1.09363A378.48051,378.48051,0,0,1,90.44448,9.24525a7.32956,7.32956,0,0,1,.97776,3.80811,7.29845,7.29845,0,0,1,2.07956,9.11029A7.29944,7.29944,0,0,1,91.42224,31.275a7.32864,7.32864,0,0,1-1.12056,4.04531q19.8019.65741,39.60584,2.86511a25.969,25.969,0,0,1-2.30586-6.33958,35.4752,35.4752,0,0,1-1.11782-9.18152c0-.14893.00068-.29615.002-.44338-.00136-.1612-.002-.32171-.002-.48291,0-6.54474,1.3039-12.3721,3.26555-16.15158ZM73.14133,8.54524a13.25784,13.25784,0,1,0,13.2575,13.25784A13.26395,13.26395,0,0,0,73.14133,8.54524Zm58.51348,22.39608a39.8788,39.8788,0,0,1-1.0023-8.72792,25.98327,25.98327,0,0,1,1.50634-9.25206,5.75,5.75,0,0,1,.50234-.88779,5.81971,5.81971,0,0,1,.50166.88779,26.57805,26.57805,0,0,1,1.50839,9.70294,26.58068,26.58068,0,0,1-1.50839,9.70295,5.81911,5.81911,0,0,1-.50166.88778,5.76537,5.76537,0,0,1-.50234-.88778,12.86142,12.86142,0,0,1-.50438-1.42591ZM73.14133,12.71187a9.09087,9.09087,0,1,1-9.09018,9.09087,9.09489,9.09489,0,0,1,9.09018-9.09087Z"/></g></g></svg>