<svg xmlns="http://www.w3.org/2000/svg" viewBox="0 0 173.88965 173.88965"><g id="Capa_2" data-name="Capa 2"><g id="Capa_1-2" data-name="Capa 1"><path d="M86.94482,173.88965a86.94483,86.94483,0,1,1,86.94483-86.94483A87.04347,87.04347,0,0,1,86.94482,173.88965ZM86.94482,5a81.94483,81.94483,0,1,0,81.94483,81.94482A82.03757,82.03757,0,0,0,86.94482,5Z"/><path d="M95.42676,172.7666l-3.91016-3.11621,4.31152-5.40869c29.10254-45.01367,27.105-84.76758,20.30127-110.20117-7.146-26.71485-20.85205-43.56543-21.8247-44.73682l-4.5625-4.60644,3.55273-3.51856,4.76123,4.81738c.61865.72608,15.23975,18.10352,22.90332,46.75245,7.07032,26.43115,9.16651,67.71826-21.001,114.31347l-.14356.19922Z"/><path d="M76.93115,173.166l-2.72021-3.17432C42.22754,124.856,43.94189,82.37988,51.01172,54.69482,58.6626,24.73535,73.6626,5.71533,74.29736,4.92041l.188-.20947,3.876-3.86768,3.53174,3.53906L78.12549,8.1416C76.93408,9.68115,62.88086,28.25586,55.80615,56.12793c-9.81738,38.67871-2.27539,75.98242,22.41651,110.877l2.49658,2.89746Z"/><rect x="4.60107" y="84.729" width="166.78857" height="5"/></g></g></svg>