<svg xmlns="http://www.w3.org/2000/svg" viewBox="0 0 188.12335 151.77404"><defs><style>.cls-1{fill-rule:evenodd;}</style></defs><g id="Capa_2" data-name="Capa 2"><g id="Capa_1-2" data-name="Capa 1"><path class="cls-1" d="M87.38284,48.63115H2.94149A2.94,2.94,0,0,0,.00086,51.57154v17.284a2.9407,2.9407,0,0,0,2.94063,2.94063,3.1277,3.1277,0,0,1,2.67013,1.64233,9.58453,9.58453,0,0,1,1.26,5.04064,9.58483,9.58483,0,0,1-1.26,5.04087,3.12744,3.12744,0,0,1-2.67013,1.64257A2.9405,2.9405,0,0,0,.00086,88.103v17.644a2.9407,2.9407,0,0,0,2.94063,2.94063c6.34025,0,9.45922,4.97021,9.45922,9.89076,0,4.9215-3.119,9.89171-9.45922,9.89171a2.94019,2.94019,0,0,0-2.94063,2.94039v17.42294A2.9404,2.9404,0,0,0,2.94149,151.774H185.18284a2.9403,2.9403,0,0,0,2.94051-2.94063V51.57154a2.94016,2.94016,0,0,0-2.94051-2.94039H114.89947a2.94063,2.94063,0,0,0,0,5.88126h67.34286v91.38037H5.88212V134.11736c8.24174-1.35822,12.39985-8.42843,12.39985-15.53876,0-7.10984-4.15811-14.18029-12.39985-15.53828V90.53865c4.37227-1.58551,6.8711-6.682,6.8711-12.05952s-2.499-10.4733-6.8711-12.05881V54.51241H87.38284a2.94063,2.94063,0,1,0,0-5.88126Z"/><path class="cls-1" d="M3.99675,54.31616s42.33-16.27625,51.24149-19.70273c4.38111,3.246,10.3809,3.563,15.51931,1.61679,5.175-1.9601,9.34187-6.15176,10.21127-11.51088L129.67376,5.99165c3.79319.79741,20.50073,4.71,34.19232,14.29442,9.96285,6.974,18.37625,17.00466,18.37625,31.28547a2.94051,2.94051,0,1,0,5.881,0c0-16.41639-9.43188-28.08652-20.88463-36.1036C150.6638,3.86538,129.94689.04832,129.94689.04832a2.93988,2.93988,0,0,0-1.58754.148L77.13922,19.891a2.94085,2.94085,0,0,0-1.8849,2.74462c0,3.87245-3.02514,6.7479-6.58031,8.09467-3.62893,1.37493-7.98258,1.22643-10.77793-1.569a2.9398,2.9398,0,0,0-3.13473-.66538L1.88576,48.82668a2.94067,2.94067,0,1,0,2.11087,5.48948Z"/><path class="cls-1" d="M101.14151,41.35155a19.58514,19.58514,0,1,0,19.5849,19.585,19.59463,19.59463,0,0,0-19.5849-19.585Zm0,5.881a13.70388,13.70388,0,1,1-13.70388,13.704,13.71065,13.71065,0,0,1,13.70388-13.704Z"/><path class="cls-1" d="M101.7262,98.35685A18.31382,18.31382,0,1,0,120.04038,116.671,18.32283,18.32283,0,0,0,101.7262,98.35685Zm0,5.881a12.43292,12.43292,0,1,1-12.43244,12.4334,12.43887,12.43887,0,0,1,12.43244-12.4334Z"/><path class="cls-1" d="M147.86069,72.638a14.46954,14.46954,0,1,0,14.46966,14.46965A14.47628,14.47628,0,0,0,147.86069,72.638Zm0,5.88173a8.58816,8.58816,0,1,1-8.5884,8.58816,8.59245,8.59245,0,0,1,8.5884-8.58816Z"/><path class="cls-1" d="M52.41006,91.19806a13.14379,13.14379,0,1,0,13.14355,13.14343A13.15018,13.15018,0,0,0,52.41006,91.19806Zm0,5.88126a7.26265,7.26265,0,1,1-7.2624,7.2624,7.26609,7.26609,0,0,1,7.2624-7.2624Z"/><path class="cls-1" d="M137.8582,19.03a11.36047,11.36047,0,1,0,11.36071,11.36071A11.36583,11.36583,0,0,0,137.8582,19.03Zm0,5.8815a5.47909,5.47909,0,1,1-5.47921,5.47921,5.48164,5.48164,0,0,1,5.47921-5.47921Z"/><path class="cls-1" d="M127.9696,141.40627h28.13a2.94087,2.94087,0,0,0,0-5.88174h-28.13a2.94087,2.94087,0,0,0,0,5.88174Z"/><path class="cls-1" d="M166.49849,141.40627H170.59a2.94087,2.94087,0,1,0,0-5.88174h-4.0915a2.94087,2.94087,0,0,0,0,5.88174Z"/></g></g></svg>