<svg xmlns="http://www.w3.org/2000/svg" viewBox="0 0 185.16031 151.87522"><defs><style>.cls-1{fill-rule:evenodd;}</style></defs><g id="Capa_2" data-name="Capa 2"><g id="Capa_1-2" data-name="Capa 1"><path class="cls-1" d="M164.44427,0H20.71515a5.32765,5.32765,0,0,0-5.29661,4.77832S7.63475,26.47791,5.33868,32.88048A5.9323,5.9323,0,0,0,0,38.77976v6.46612a5.93386,5.93386,0,0,0,3.71309,5.50049l6.84478,92.02113a9.22154,9.22154,0,0,0,9.21692,9.10772H165.38552a9.22108,9.22108,0,0,0,9.216-9.10929c0,.00179,5.818-78.22192,6.84478-92.01934a5.93466,5.93466,0,0,0,3.714-5.50048V38.74238a5.93209,5.93209,0,0,0-5.33868-5.86167L169.74177,4.77854A5.32766,5.32766,0,0,0,164.44516.00022ZM131.043,51.17559H55.31858l5.85205,91.31061c.00358.05773.00537.11547.00537.17231a3.82551,3.82551,0,0,0,3.82319,3.82432h55.42286a3.82627,3.82627,0,0,0,3.82409-3.82432c0-.066.00179-.13315.00716-.19984L131.043,51.17559Zm44.96391,0H136.45019c-1.1082,14.90517-6.8121,91.59191-6.8121,91.59012a9.16853,9.16853,0,0,1-.82891,3.71689H165.386a3.82536,3.82536,0,0,0,3.8232-3.82431c0-.066.00268-.13315.00716-.19984l6.79062-91.28308Zm-126.0915,0H9.15382l6.78928,91.28308c.00447.06669.00761.13383.00761.19984a3.82541,3.82541,0,0,0,3.82408,3.82432H56.61252a9.16458,9.16458,0,0,1-.82891-3.72988L49.91544,51.17559Zm41.68363,58.05886-.65391.65346a2.69636,2.69636,0,1,0,3.81335,3.81312l5.25677-5.25588a2.69793,2.69793,0,0,0,.60155-.91574l.01342-.034.00314-.00626a2.69616,2.69616,0,0,0,.17052-.86539l.0009-.01656.00089-.03491v-.10988l-.00089-.02842-.00224-.03469-.00179-.034-.00269-.03492-.00268-.03379-.00179-.01947a2.60771,2.60771,0,0,0-.13293-.61318l-.00716-.02282a2.69148,2.69148,0,0,0-.48876-.84883l-4.4677-5.25678a2.69634,2.69634,0,1,0-4.10919,3.49221l.692.81414h-13.809a1.72839,1.72839,0,0,1-1.6811-1.8966,3.43518,3.43518,0,0,1,.99362-2.49591,2.69658,2.69658,0,0,0-3.25388-4.301,8.63728,8.63728,0,0,0-3.13213,6.79689,6.89611,6.89611,0,0,0,7.07349,7.28922H91.59907Zm9.477-26.67238-.03581.00917-.00716.002a2.67849,2.67849,0,0,0-.80295.363l-.01387.00917-.0282.02037-.01477.01007-.02462.01746-.026.01812-.02372.01835-.02372.01813-.02686.021-.0264.021-.02641.02193-.02685.02193-.01477.013a2.71366,2.71366,0,0,0-.42162.46459l-.01343.01947a2.6974,2.6974,0,0,0-.40729.89179L97.43143,91.213a2.69641,2.69641,0,1,0,5.23037,1.31364l.26049-1.03681,8.02682,11.23617a1.72815,1.72815,0,0,1-.56529,2.47039,3.0712,3.0712,0,0,1-2.67784.40416,2.69641,2.69641,0,0,0-1.98052,5.016,8.66527,8.66527,0,0,0,7.79319-1.03188,6.89546,6.89546,0,0,0,1.8185-9.99325l-7.63207-10.68252.91216.15129a2.6963,2.6963,0,1,0,.88531-5.31944l-7.33308-1.22166a2.67668,2.67668,0,0,0-1.09343.04319Zm-20.388,1.7847-.21081-.90007a2.69645,2.69645,0,0,0-5.25051,1.23106l1.69676,7.23774a2.69118,2.69118,0,0,0,.4601.99362l.02194.02954.00492.0056a2.6804,2.6804,0,0,0,.645.60132l.013.00917.02954.01925.01521.0094.026.01656.02641.01566.02685.01567.02462.01454.03.01656.03043.01656.03044.01656.03.01567.01745.00806a2.62761,2.62761,0,0,0,.59125.2108l.02372.0056a2.691,2.691,0,0,0,.9793.032L86.772,92.942a2.69642,2.69642,0,0,0-.80205-5.33287l-1.05718.15867,7.278-11.735a1.72856,1.72856,0,0,1,2.49792-.429,3.21149,3.21149,0,0,1,1.37406,2.5749,2.69651,2.69651,0,0,0,5.39284-.045s-.06534-4.71969-3.92434-7.11287a6.8966,6.8966,0,0,0-9.92365,2.16962L80.68807,84.34767Zm97.175-46.10321H140.17268c.01566.17679.02417.3556.02417.5362v6.46612c0,.1815-.00851.3603-.02417.5362h39.05815a.53656.53656,0,0,0,.53619-.5362V38.77976a.53656.53656,0,0,0-.53619-.5362H177.863Zm-170.66825,0H5.929a.53659.53659,0,0,0-.5362.52254v6.47978a.53628.53628,0,0,0,.5362.5362H43.51466q-.02351-.26385-.02372-.5362V38.77976q0-.2709.02372-.5362H7.19478Zm125.80684,0H49.42042a.53743.53743,0,0,0-.53754.5362v6.46612a.53743.53743,0,0,0,.53754.5362h84.846a.53743.53743,0,0,0,.53754-.5362V38.77976a.53743.53743,0,0,0-.53754-.5362ZM20.90761,5.39239h-.12577a2.663,2.663,0,0,1-.15665.84234L11.0784,32.85106H49.586l1.01152-2.66465H27.24215A6.41851,6.41851,0,0,1,20.8266,23.771V6.41544a6.47987,6.47987,0,0,1,.081-1.02305Zm98.50561,0h-.12532a6.42476,6.42476,0,0,1,.08146,1.02305V23.771a6.41823,6.41823,0,0,1-6.41556,6.41544H72.75121A6.41823,6.41823,0,0,1,66.33565,23.771V6.41544a6.48,6.48,0,0,1,.08057-1.02305h-.80474a2.68787,2.68787,0,0,1-.17411.88811l-10.083,26.57056h73.76318L119.56987,6.23473a2.7268,2.7268,0,0,1-.15665-.84234Zm44.83859,0a6.47768,6.47768,0,0,1,.08146,1.02305V23.771a6.41879,6.41879,0,0,1-6.41555,6.41544H133.89185l.95512,2.66465h39.23494L164.53423,6.23473a2.66242,2.66242,0,0,1-.15665-.84234Zm-39.25464,0,6.96025,19.40141h25.95985a1.02318,1.02318,0,0,0,1.02226-1.02305V6.41522a1.02332,1.02332,0,0,0-1.02226-1.023h-32.9201ZM52.64431,24.7938,60.00648,5.39239H27.2426a1.02336,1.02336,0,0,0-1.02316,1.02305V23.771A1.0235,1.0235,0,0,0,27.2426,24.794H52.64431ZM113.97652,6.41544V23.771A1.02342,1.02342,0,0,1,112.9538,24.794H72.75121A1.02336,1.02336,0,0,1,71.72805,23.771V6.41544a1.0235,1.0235,0,0,1,1.02316-1.02305H112.9538a1.02327,1.02327,0,0,1,1.02272,1.02305Z"/></g></g></svg>