<svg xmlns="http://www.w3.org/2000/svg" viewBox="0 0 151.80524 151.34946"><defs><style>.cls-1{fill-rule:evenodd;}</style></defs><g id="Capa_2" data-name="Capa 2"><g id="Capa_1-2" data-name="Capa 1"><path class="cls-1" d="M106.05686,61.03483c-.14512-.11431-.33664-.2702-.47193-.39862-.52537-.49586-1.10215-1.10642-1.794-1.76039C100.8963,56.13854,96.22864,52.633,86.01849,52.633c-5.55046,0-10.87451,2.93845-15.18735,8.0181-5.97005,7.0297-10.03756,18.23529-10.03756,30.43075a21.20178,21.20178,0,0,0,.97354,5.91215,2.66875,2.66875,0,0,0,5.11807-1.51469,15.883,15.883,0,0,1-.754-4.39746c0-10.79509,3.48368-20.75322,8.768-26.976,3.18953-3.7561,7.01467-6.13522,11.11929-6.13522,9.48027,0,13.00421,3.66629,15.22985,5.88952,1.71493,1.71251,3.19547,2.61888,4.72575,2.61888,1.40854,0,3.04349-.8455,4.9568-2.38468,2.73041-2.19688,6.79327-5.92626,14.65994-5.92626,4.27424,0,8.19959,3.3842,11.5515,7.85775,5.53246,7.38268,9.32531,18.00221,9.32531,25.056,0,11.80018-8.48445,24.62512-18.221,33.83722a2.66885,2.66885,0,0,0,3.66907,3.87673c10.80139-10.22053,19.88953-24.62215,19.88953-37.71395,0-7.94312-4.16178-19.94335-10.39164-28.25689-4.491-5.99232-10.09694-9.99339-15.82277-9.99339a24.93887,24.93887,0,0,0-16.58847,5.96152c-.95851.76013-1.76726,1.45938-2.49158,1.96564-.13083.09205-.31177.19672-.45392.27614Z"/><path class="cls-1" d="M105.97391,151.34946c4.97219,0,21.91363-.11469,31.63274-2.60218a17.832,17.832,0,0,0,6.64667-2.90356,5.44351,5.44351,0,0,0,2.21729-4.28648c0-1.98643-1.068-4.44423-3.30886-7.07684-2.68792-3.15669-7.137-6.80739-12.67444-10.58464-14.59369-9.95628-36.8679-20.97146-52.97721-26.68282-7.19765-2.5517-13.22913-4.03-16.92956-4.03-7.17409,0-12.94037,3.791-16.86573,9.99673-3.64475,5.76332-5.67516,13.68009-5.67516,22.35105,0,5.69725,4.617,10.72308,12.153,14.53672,15.356,7.76979,42.8773,11.28167,55.78111,11.28167Zm35.15594-9.90208a4.76713,4.76713,0,0,1-.65156.54634,15.273,15.273,0,0,1-4.19426,1.58335c-9.31157,2.38208-25.54726,2.43479-30.31031,2.43479-12.34281,0-38.68267-3.27546-53.37156-10.70712a24.69543,24.69543,0,0,1-7.00224-4.903,7.21118,7.21118,0,0,1-2.22249-4.87106c0-7.55452,1.673-14.47659,4.84805-19.49722,2.89539-4.57748,7.06385-7.51332,12.35506-7.51332,3.31665,0,8.69527,1.43637,15.14578,3.72344,15.73685,5.57922,37.497,16.33608,51.75332,26.06187,5.06146,3.45249,9.16107,6.74911,11.61757,9.63522,1.14947,1.34989,1.97715,2.48081,2.03283,3.50631Z"/><path class="cls-1" d="M18.34942,91.52905c-3.04441.11617-7.68257.38823-11.3739,2.06289C3.02307,95.38425,0,98.57212,0,104.23374c0,3.11029,1.88362,6.10664,4.53182,8.61751a58.40533,58.40533,0,0,0,6.627,5.14126,45.09632,45.09632,0,0,0-4.04635,3.807,11.019,11.019,0,0,0-3.24038,7.11025c0,3.38346,2.18222,6.81,5.15072,9.293,2.88389,2.41251,6.42454,3.87,8.81126,3.87,3.12644,0,7.69111-2.17609,12.07168-5.17355,6.14951-4.20817,12.01526-9.84381,13.05209-11.41566a2.66868,2.66868,0,1,0-4.45518-2.93919c-.91434,1.38553-6.18736,6.23915-11.61089,9.95-3.33539,2.28187-6.6771,4.24083-9.0577,4.24083-1.48611,0-3.59075-1.12349-5.38622-2.62556-1.71178-1.43192-3.23816-3.24947-3.23816-5.1999a5.56288,5.56288,0,0,1,1.768-3.425,35.00957,35.00957,0,0,1,4.04245-3.67816,11.70874,11.70874,0,0,0,2.38152-2.40658,3.158,3.158,0,0,0,.45448-1.61379,3.05406,3.05406,0,0,0-.70612-1.93373,17.32519,17.32519,0,0,0-3.17413-2.49491A35.197,35.197,0,0,1,7.08055,107.811a5.75,5.75,0,0,1-1.74295-3.57721c0-5.63564,5.38623-6.71645,9.57547-7.16258,2.9082-.31029,5.49571-.23049,6.59322-.36448a3.49318,3.49318,0,0,0,2.08664-.91118,3.54847,3.54847,0,0,0,.78816-3.43877,32.80579,32.80579,0,0,0-1.56647-4.04857,8.95207,8.95207,0,0,1-.91379-3.00377,5.021,5.021,0,0,1,1.86469-3.4885,12.40039,12.40039,0,0,1,8.16674-3.1964,3.83619,3.83619,0,0,1,2.41642,1.38218,21.48285,21.48285,0,0,1,3.47662,4.73856c3.49147,6.084,6.1252,14.497,6.59434,18.57527a2.66872,2.66872,0,0,0,5.30253-.60944c-.60963-5.30012-4.46724-17.18677-9.34108-23.84161-2.58993-3.53527-5.61523-5.58219-8.449-5.58219a17.96654,17.96654,0,0,0-11.82839,4.65059,10.29539,10.29539,0,0,0-3.54046,7.37154,12.28045,12.28045,0,0,0,.95851,4.14841c.23624.61315.54189,1.37514.82787,2.07625Z"/><path class="cls-1" d="M10.29069,96.239V40.68432l14.5935-19.35284a2.6677,2.6677,0,0,0,.53743-1.60674V5.3376H70.78994V19.85019a2.6721,2.6721,0,0,0,.532,1.59932s11.7317,15.67468,14.39215,19.22961V55.3747a2.66843,2.66843,0,1,0,5.33686,0V39.79058a2.66751,2.66751,0,0,0-.53187-1.59895L76.12754,18.962V2.669A2.66886,2.66886,0,0,0,73.45855,0H22.75282A2.6687,2.6687,0,0,0,20.084,2.669V18.83137C17.39017,22.40486,5.49089,38.18421,5.49089,38.18421a2.66978,2.66978,0,0,0-.53818,1.60637V96.239a2.6689,2.6689,0,0,0,5.33779,0Z"/><path class="cls-1" d="M74.86338,126.02805l6.73167-24.725a2.66865,2.66865,0,0,0-5.1498-1.40223l-6.73166,24.72459a2.66869,2.66869,0,0,0,5.14979,1.4026Z"/><path class="cls-1" d="M93.39931,148.43922l4.29242-14.31328a2.66846,2.66846,0,0,0-5.11193-1.53325L88.28663,146.906a2.66882,2.66882,0,0,0,5.11268,1.53325Z"/><path class="cls-1" d="M123.70312,133.91884l2.51533-10.70082a2.66891,2.66891,0,0,0-5.19619-1.22147l-2.51458,10.70118a2.66851,2.66851,0,1,0,5.19544,1.22111Z"/><path class="cls-1" d="M95.13595,72.34657c3.632,5.11936,7.45245,7.383,11.08422,7.373,3.62657-.00965,7.43872-2.293,11.06455-7.36448a2.66842,2.66842,0,1,0-4.341-3.10436c-2.31082,3.23129-4.42716,5.1253-6.738,5.13161-2.30451.00594-4.41156-1.87545-6.71644-5.12418a2.66866,2.66866,0,0,0-4.3533,3.088Z"/><path class="cls-1" d="M108.64271,77.04727c0-4.77382,1.70954-7.86592,3.02678-10.89122a19.57888,19.57888,0,0,0,1.98717-8.086c0-4.66321-2.7859-8.007-5.77854-11.24381-2.0781-2.247-4.36016-4.38113-4.36016-7.6191,0-3.86077,1.8942-5.708,3.33243-7.39121,1.61676-1.89067,2.798-3.70489,2.798-6.1664a2.6689,2.6689,0,1,0-5.33779,0A2.94493,2.94493,0,0,1,103.5278,27.45c-.49178.64916-1.07932,1.28606-1.66464,1.9894a14.07683,14.07683,0,0,0-3.683,9.76773c0,4.66247,2.78664,8.00733,5.77853,11.24381,2.07811,2.247,4.36,4.38113,4.36,7.61948,0,2.8991-1.17657,5.12864-2.278,7.61279a26.294,26.294,0,0,0-2.7356,11.36407,2.6688,2.6688,0,0,0,5.3376,0Z"/><path class="cls-1" d="M106.54029,39.19524a2.668,2.668,0,0,0-.00241,2.61369A24.075,24.075,0,0,0,111.30167,47.57a12.733,12.733,0,0,0,8.17435,3.38383,14.16471,14.16471,0,0,0,8.45124-3.34672,29.0057,29.0057,0,0,0,5.42037-5.70987,2.6702,2.6702,0,0,0-.06681-3.11474,33.69986,33.69986,0,0,0-6.52642-6.4173,10.4081,10.4081,0,0,0-5.64937-2.07551c-9.49326,0-14.56492,8.90553-14.56492,8.90553Zm5.52634,1.33134c1.397-1.81236,4.44905-4.8989,9.03858-4.8989,1.25266,0,2.55022.99545,3.75425,1.99757a27.238,27.238,0,0,1,2.86032,2.80557,22.2078,22.2078,0,0,1-3.0793,2.97037,8.76025,8.76025,0,0,1-5.16427,2.21506,7.38376,7.38376,0,0,1-4.69383-2.09332,17.73392,17.73392,0,0,1-2.71575-2.99635Z"/><path class="cls-1" d="M58.79305,96.4684V40.789c3.15965-3.63437,16.68014-19.18731,16.68014-19.18731a2.66885,2.66885,0,0,0-4.02872-3.50149l-17.33468,19.94a2.669,2.669,0,0,0-.65453,1.75038V96.4684a2.6689,2.6689,0,0,0,5.33779,0Z"/><path class="cls-1" d="M88.38313,37.1227H7.62188a2.66843,2.66843,0,1,0,0,5.33686H88.38313a2.66843,2.66843,0,0,0,0-5.33686Z"/><path class="cls-1" d="M73.45893,17.18232H22.753a2.66843,2.66843,0,1,0,0,5.33686H73.45893a2.66843,2.66843,0,1,0,0-5.33686Z"/><path class="cls-1" d="M56.12406,58.151H7.6217a2.66862,2.66862,0,1,0,0,5.33723H56.12406a2.66862,2.66862,0,1,0,0-5.33723Z"/></g></g></svg>