<svg xmlns="http://www.w3.org/2000/svg" viewBox="0 0 166.66955 190.87624"><defs><style>.cls-1{fill-rule:evenodd;}</style></defs><g id="Capa_2" data-name="Capa 2"><g id="Capa_1-2" data-name="Capa 1"><path class="cls-1" d="M90.56232,136.30857V45.39873a10.81679,10.81679,0,0,0-10.8119-10.8119H17.75251A10.81683,10.81683,0,0,0,6.94045,45.39873V175.83594a10.81683,10.81683,0,0,0,10.81206,10.8119H69.77183a3.0622,3.0622,0,1,0,0-6.1244H17.75251a4.6898,4.6898,0,0,1-4.6875-4.6875V45.39873a4.68966,4.68966,0,0,1,4.6875-4.68734H79.75042a4.68976,4.68976,0,0,1,4.688,4.68734v90.90984a3.062,3.062,0,0,0,6.12393,0Z"/><path class="cls-1" d="M38.9332,171.29455a3.0627,3.0627,0,0,0,2.86838,2.75776s13.91351.74843,16.69557.17616A3.3059,3.3059,0,0,0,61.401,170.996c0-.96247-14.10932-159.41148-14.10932-159.41148-.00592-.06427-.01327-.12837-.02286-.19183a13.62919,13.62919,0,0,0-3.53577-7.6593A13.10324,13.10324,0,0,0,35.73137.02558,3.02519,3.02519,0,0,0,35.33781,0H3.06244A3.06244,3.06244,0,0,0,0,3.06228V20.442A3.06244,3.06244,0,0,0,3.06244,23.5043h21.3901L38.93288,171.29455Zm16.11019-3.10736L44.763,167.98881C42.77444,147.69018,30.27722,20.14357,30.27722,20.14357a3.06286,3.06286,0,0,0-3.04789-2.76384H6.12472V6.12456H35.13033A7.07061,7.07061,0,0,1,39.345,8.0057a7.58047,7.58047,0,0,1,1.85556,4.22105c.3699,4.15247,12.04164,135.00945,13.84285,155.96028Z"/><path class="cls-1" d="M12.85161,73.31143c.63829-1.61914,2.66489-3.54616,5.13588-5.39708,4.00237-2.99755,9.29347-5.69313,13.33389-5.69313,7.19125,0,11.61867,3.588,16.10507,7.03924,5.49075,4.22313,11.039,8.30878,19.8389,8.30878,5.83843,0,12.244-2.62749,16.818-6.32422,3.27777-2.64922,5.59482-5.85553,6.38449-8.961a3.0621,3.0621,0,1,0-5.9353-1.50932c-.51265,2.01653-2.17047,3.98687-4.29906,5.70671a21.8624,21.8624,0,0,1-12.96814,4.96309c-7.19046,0-11.61772-3.588-16.10476-7.03876-5.49027-4.22377-11.03921-8.30942-19.83921-8.30942-5.11622,0-11.93806,3.12063-17.00521,6.91567-3.57492,2.678-6.23981,5.712-7.16232,8.054a3.062,3.062,0,1,0,5.6976,2.24528Z"/><path class="cls-1" d="M80.15229,154.40124A18.18739,18.18739,0,1,0,98.34007,172.589a18.19634,18.19634,0,0,0-18.18778-18.18779Zm0,6.12457A12.06314,12.06314,0,1,1,68.08922,172.589a12.06889,12.06889,0,0,1,12.06307-12.06322Z"/><path class="cls-1" d="M82.42954,155.392a9.65438,9.65438,0,1,1,7.81579,3.10352,3.06232,3.06232,0,1,0,.4388,6.1089,15.78763,15.78763,0,1,0-12.76433-5.06922,3.062,3.062,0,1,0,4.50974-4.1432Z"/><path class="cls-1" d="M93.27644,135.75468a10.33022,10.33022,0,0,1,19.5168-5.96871,3.06214,3.06214,0,0,0,5.50322-2.68727,16.45566,16.45566,0,0,0-31.08511,9.507,3.06227,3.06227,0,1,0,6.06509-.85121Z"/><path class="cls-1" d="M108.87463,144.9978a10.33363,10.33363,0,0,1,9.71052-13.854,10.45477,10.45477,0,0,1,1.62394.12629,3.062,3.062,0,0,0,.95527-6.04912,16.46069,16.46069,0,0,0-18.04584,21.87,3.06243,3.06243,0,0,0,5.75611-2.0931Z"/><path class="cls-1" d="M114.91911,175.42352a9.41937,9.41937,0,0,1-17.53623,1.106,3.06221,3.06221,0,0,0-5.55949,2.56914,15.54421,15.54421,0,0,0,28.93623-1.83143,3.06231,3.06231,0,0,0-5.84051-1.84373Z"/><path class="cls-1" d="M102.05071,148.74025q.36519-.0247.7366-.02478a10.74676,10.74676,0,1,1-5.90653,19.72365,3.06215,3.06215,0,0,0-3.374,5.1111,16.87043,16.87043,0,1,0,9.28052-30.95851q-.57978,0-1.15.03868a3.062,3.062,0,1,0,.41321,6.11Z"/><path class="cls-1" d="M140.5317,168.10263a10.78609,10.78609,0,1,1-19.52223,3.21014,3.062,3.062,0,1,0-5.93722-1.50069,16.9158,16.9158,0,1,0,30.59677-5.04284,3.06194,3.06194,0,1,0-5.13716,3.33339Z"/><path class="cls-1" d="M132.71989,146.86982A12.10145,12.10145,0,1,1,136.79052,161.03a3.06227,3.06227,0,1,0-3.64494,4.92184,18.218,18.218,0,1,0-6.122-21.33063,3.062,3.062,0,0,0,5.69632,2.24847Z"/><path class="cls-1" d="M131.26972,141.20483a10.11347,10.11347,0,1,1,11.60924-6.1049,3.06208,3.06208,0,1,0,5.6813,2.28652,16.24249,16.24249,0,1,0-18.62834,9.79508,3.06222,3.06222,0,0,0,1.3378-5.97654Z"/><path class="cls-1" d="M102.41518,122.515a10.121,10.121,0,0,1,19.183.13028,3.06222,3.06222,0,1,0,5.81749-1.91455,16.24543,16.24543,0,0,0-30.79115-.2102,3.06222,3.06222,0,0,0,5.79064,1.99431Z"/><path class="cls-1" d="M114.04632,150.77788a10.7905,10.7905,0,1,1,1.51459,14.93416,3.06211,3.06211,0,1,0-3.95073,4.67951,16.91345,16.91345,0,1,0-2.36645-23.41463,3.06231,3.06231,0,0,0,4.80259,3.8008Z"/><path class="cls-1" d="M146.89987,138.98641c4.83664-1.94188,9.871-6.67062,13.6229-12.51033,3.70057-5.76106,6.14678-12.56084,6.14678-18.54921a3.062,3.062,0,1,0-6.12392,0c0,4.93175-2.12795,10.49379-5.17568,15.23868-2.99755,4.66575-6.88738,8.5858-10.7518,10.13764a3.06208,3.06208,0,1,0,2.28172,5.68322Z"/></g></g></svg>