<svg xmlns="http://www.w3.org/2000/svg" viewBox="0 0 194.67798 230.00031"><defs><style>.cls-1{fill-rule:evenodd;}</style></defs><g id="Capa_2" data-name="Capa 2"><g id="Capa_1-2" data-name="Capa 1"><path class="cls-1" d="M59.88428,68.3692H3.562A3.56242,3.56242,0,0,0,0,71.93121v42.919a3.56242,3.56242,0,0,0,3.562,3.562H14.59326V226.43732a3.56217,3.56217,0,0,0,3.562,3.563H175.665a3.56264,3.56264,0,0,0,3.562-3.563V118.41217H191.116a3.56227,3.56227,0,0,0,3.562-3.562v-42.919a3.56227,3.56227,0,0,0-3.562-3.562H140.21118c9.11475-3.97705,17.13281-8.38989,21.58692-12.844A32.52942,32.52942,0,1,0,115.79492,9.5213c-5.99585,5.99585-11.915,18.458-16.8,31.34888-1.00927-2.90991-2.07275-5.803-3.18286-8.603C91.988,22.62115,87.54712,14.08624,82.981,9.5213A32.52968,32.52968,0,0,0,36.97705,55.52521c4.57227,4.572,13.227,8.98706,22.90674,12.844Zm62.69116,50.043V222.87506h49.52808V118.41217Zm-7.124-42.91919H104.47559c-.04493.001-.09009.001-.135,0H81.19751c-.0459.001-.09106.001-.136,0H78.36938V222.87506h37.082V75.493ZM71.24512,222.87531V118.41241H21.7168v104.4629Zm0-111.58716V75.49323H7.124v35.79492ZM122.57544,75.493v35.79517h64.979V75.493Zm-2.12817-7.12378c14.259-4.91894,29.65087-11.219,36.314-17.88183a25.40578,25.40578,0,0,0-35.9292-35.9292c-6.83008,6.83007-13.282,22.81714-18.2478,37.3811,1.876,6.1731,3.43774,11.928,4.59595,16.42993Zm-25.07813-15.667C93.562,46.8421,91.47705,40.66412,89.18921,34.89313c-3.40234-8.583-7.18311-16.272-11.24487-20.335a25.40569,25.40569,0,0,0-35.9292,35.929C49.05908,57.53131,66.7041,63.83917,81.655,68.3692H99.81982c-1.13378-4.33105-2.592-9.61108-4.30761-15.20288a3.56444,3.56444,0,0,1-.14307-.46411Z"/></g></g></svg>