<svg xmlns="http://www.w3.org/2000/svg" viewBox="0 0 204.99978 185.04053"><defs><style>.cls-1{fill-rule:evenodd;}</style></defs><g id="Capa_2" data-name="Capa 2"><g id="Capa_1-2" data-name="Capa 1"><path class="cls-1" d="M151.41974,94.02979H53.5799l-40.01709-23.103A2.9486,2.9486,0,0,0,9.535,72.00537L.80793,87.12158a6.03223,6.03223,0,0,0,2.207,8.23633l42.499,24.53662v49.43018a15.72677,15.72677,0,0,0,9.394,14.39111c.01661.00684.0337.01514.05079.022a15.65074,15.65074,0,0,0,6.271,1.30274h82.27588A15.72312,15.72312,0,0,0,159.221,169.32471V120.04785l42.76465-24.68994a6.03225,6.03225,0,0,0,2.20606-8.23633l-8.72706-15.11621a2.94814,2.94814,0,0,0-4.02783-1.07861l-40.01709,23.103Zm1.90381,56.05078v19.24414a9.823,9.823,0,0,1-9.81787,9.81884H124.26056l29.063-29.063Zm0-8.33985V118.27246L92.45343,179.14355h23.4668l37.40332-37.40283Zm0-41.814h-11.937L62.17023,179.14355H84.1131l69.21045-69.21093V99.92676ZM55.60334,177.37061,133.0467,99.92676H109.57941l-29.48,29.48a2.94858,2.94858,0,1,1-4.16992-4.16992l25.31006-25.31006H79.51447l-28.104,28.104v21.7251l14.52978-14.52979a2.94858,2.94858,0,0,1,4.16992,4.16993l-18.6997,18.6997v11.229a9.80892,9.80892,0,0,0,4.19287,8.0459ZM51.41,99.92676v19.76416L71.17414,99.92676Zm107.74853-3.55518a2.96185,2.96185,0,0,1,.062.60694v16.26025l39.81592-22.98828a.13053.13053,0,0,0,.04785-.17969l-7.25293-12.563L159.15851,96.37158ZM45.60724,96.23682,13.1673,77.50732,5.91437,90.0708a.13165.13165,0,0,0,.04834.17969l39.55078,22.835V96.97852a2.97171,2.97171,0,0,1,.09424-.7417Zm26.332-11.0542c.32422-10.21924-1.90771-18.63819-7.25781-24.73-3.61523-4.11524-8.66894-7.209-15.46289-9.01123a2.94868,2.94868,0,0,0-1.51221,5.70019c5.49122,1.457,9.62305,3.877,12.544,7.20313,4.45312,5.06982,6.064,12.147,5.79541,20.65185a2.94824,2.94824,0,1,0,5.89355.186Zm62.43116-.186c-.27-8.50488,1.34228-15.582,5.79492-20.65234,2.92139-3.32569,7.05224-5.74561,12.54394-7.20264a2.94862,2.94862,0,1,0-1.51171-5.70019c-6.79395,1.80224-11.84815,4.896-15.46338,9.01123-5.35059,6.09179-7.582,14.51074-7.25782,24.73a2.94849,2.94849,0,0,0,5.894-.186Zm-29.18994.09326V61.853a2.94849,2.94849,0,1,0-5.897,0V85.08984a2.94849,2.94849,0,1,0,5.897,0ZM37.71759,13.27393a2.94927,2.94927,0,0,0-5.53125,0L26.81818,27.77979,12.31232,33.148a2.94928,2.94928,0,0,0,0,5.53125l14.50586,5.36768,5.36816,14.50634a2.94927,2.94927,0,0,0,5.53125,0l5.36768-14.50634L57.59162,38.6792a2.94928,2.94928,0,0,0,0-5.53125L43.08527,27.77979,37.71759,13.27393Zm135.91114,0a2.94927,2.94927,0,0,0-5.53125,0L162.7298,27.77979,148.22345,33.148a2.94928,2.94928,0,0,0,0,5.53125l14.50635,5.36768,5.36768,14.50634a2.94927,2.94927,0,0,0,5.53125,0l5.36816-14.50634,14.50586-5.36768a2.94927,2.94927,0,0,0,0-5.53125l-14.50586-5.36816-5.36816-14.50586ZM98.95441,2.62988,93.76447,16.21924l-14.52686.73681a4.08917,4.08917,0,0,0-2.36132,7.26612L88.1966,33.35693,84.40754,47.40186a4.08916,4.08916,0,0,0,6.18115,4.49023l12.18555-7.94336,12.186,7.94336a4.08884,4.08884,0,0,0,6.18115-4.49023l-3.78808-14.04493,11.31982-9.13476a4.08893,4.08893,0,0,0-2.36084-7.26612l-14.52783-.73681L106.59455,2.62988a4.08939,4.08939,0,0,0-7.64014,0ZM34.95148,22.794l3.07276,8.30371a2.9448,2.9448,0,0,0,1.74316,1.74218l8.3042,3.07276-8.3042,3.07324A2.949,2.949,0,0,0,38.02424,40.729l-3.07276,8.30371L31.87824,40.729a2.94405,2.94405,0,0,0-1.7417-1.74316l-8.3042-3.07324,8.3042-3.07276a2.94119,2.94119,0,0,0,1.7417-1.74218L34.95148,22.794Zm135.91211,0,3.07275,8.30371a2.942,2.942,0,0,0,1.74219,1.74218l8.3042,3.07276-8.3042,3.07324a2.94487,2.94487,0,0,0-1.74219,1.74316l-3.07275,8.30371L167.79035,40.729a2.94821,2.94821,0,0,0-1.74268-1.74316l-8.3042-3.07324,8.3042-3.07276a2.94534,2.94534,0,0,0,1.74268-1.74218l3.07324-8.30371ZM102.77472,9.15674l4.187,10.96191a2.94931,2.94931,0,0,0,2.605,1.89258l11.71923.59424-9.13232,7.36914a2.94992,2.94992,0,0,0-.99463,3.063l3.05566,11.3291-9.83007-6.4082a2.94663,2.94663,0,0,0-3.21973,0l-9.83008,6.4082,3.05567-11.3291a2.94992,2.94992,0,0,0-.99463-3.063l-9.13135-7.36914,11.71924-.59424a2.95044,2.95044,0,0,0,2.605-1.89258l4.186-10.96191Z"/></g></g></svg>