<svg xmlns="http://www.w3.org/2000/svg" viewBox="0 0 105.75881 105.75916"><g id="Capa_2" data-name="Capa 2"><g id="Capa_1-2" data-name="Capa 1"><path d="M52.87905,105.75916a52.87958,52.87958,0,1,1,52.87976-52.8794A52.93905,52.93905,0,0,1,52.87905,105.75916Zm0-101.43365A48.55407,48.55407,0,1,0,101.4333,52.87976,48.60889,48.60889,0,0,0,52.87905,4.32551Zm0,89.50013A40.94606,40.94606,0,1,1,93.82564,52.87976,40.99206,40.99206,0,0,1,52.87905,93.82564Zm0-77.56662A36.62056,36.62056,0,1,0,89.50013,52.87976,36.66191,36.66191,0,0,0,52.87905,16.259Zm0,68.61675A2.16263,2.16263,0,0,1,50.7163,82.713V79.72973a2.16276,2.16276,0,1,1,4.32551,0V82.713A2.16264,2.16264,0,0,1,52.87905,84.87577Zm0-23.86668a8.12951,8.12951,0,1,1,7.90616-10.02386,2.152,2.152,0,0,1,1.04407-.26823H79.729a2.16276,2.16276,0,1,1,0,4.32551H61.82928a2.152,2.152,0,0,1-1.04407-.26823A8.14294,8.14294,0,0,1,52.87905,61.00909Zm0-11.93351a3.804,3.804,0,1,0,3.80383,3.80418A3.80841,3.80841,0,0,0,52.87905,49.07558Zm-26.85,5.96693H23.04614a2.16276,2.16276,0,0,1,0-4.32551h2.98294a2.16276,2.16276,0,0,1,0,4.32551Zm26.85-26.85032a2.16264,2.16264,0,0,1-2.16275-2.16276V23.04614a2.16276,2.16276,0,0,1,4.32551,0v2.98329A2.16264,2.16264,0,0,1,52.87905,28.19219Z"/></g></g></svg>