<svg xmlns="http://www.w3.org/2000/svg" viewBox="0 0 200.00098 168.26074"><defs><style>.cls-1{fill-rule:evenodd;}</style></defs><g id="Capa_2" data-name="Capa 2"><g id="Capa_1-2" data-name="Capa 1"><path class="cls-1" d="M180.34277,162.0459c6.708-5.44922,11.87207-13.979,11.87207-23.124a13.714,13.714,0,0,0-2.70312-7.71289c-2.27344-3.3081-6.06641-6.73095-10.99219-10.02539a114.7451,114.7451,0,0,0-18.77148-9.82763v-9.42041h1.50976a9.146,9.146,0,0,0,0-18.292h-2.69433V82.41064c.57519-.2998,1.55371-.79687,2.46-1.19677,5.59961-2.47608,15.373-6.69922,23.77344-17.94434C193.0166,52.2666,200.001,34.39258,200.001,4.35059a3.56417,3.56417,0,0,0-3.25293-3.29981C192.76465.37207,171.80273,0,150.83887,0s-41.92676.37158-45.90918,1.05078a3.56309,3.56309,0,0,0-3.25293,3.29981c0,30.53808,7.11035,48.51123,15.47363,59.457C125.707,75.00977,135.665,79.021,141.36914,81.35986c.89844.36866,1.86816.82471,2.45508,1.10987v1.17382h-4.35156a9.146,9.146,0,0,0,0,18.292H142.166v3.09521c-4.60547-1.39209-9.291-2.61279-13.93653-3.6167a3.0696,3.0696,0,0,0-.61816-.13232,142.998,142.998,0,0,0-14.98731-2.395,3.08035,3.08035,0,0,0-.37109-.03711c-3.3457-.33154-6.58691-.50684-9.67188-.50684a104.77989,104.77989,0,0,0-11.915.73926,2.87007,2.87007,0,0,0-.42969.04981c-4.50781.53515-9.20313,1.32714-13.957,2.333a3.06985,3.06985,0,0,0-.63868.13623,198.72185,198.72185,0,0,0-20.998,5.77,3.10654,3.10654,0,0,0-.66016.22168C42.582,111.44971,32.02246,116.186,24.2168,121.144c-5.1709,3.28467-9.168,6.69971-11.56543,9.99756a13.35245,13.35245,0,0,0-2.877,7.78027c0,9.082,4.96485,17.66211,11.22266,23.124H3.1084a3.10742,3.10742,0,1,0,0,6.21484H195.91992a3.10742,3.10742,0,1,0,0-6.21484H180.34277Zm-65.11035-56.61475V123.4541a13.7627,13.7627,0,0,1-27.52539,0V105.7124c-2.61914.373-5.293.83008-7.99219,1.36182V123.4541a13.7627,13.7627,0,0,1-27.52539,0V114.769A130.10644,130.10644,0,0,0,27.5498,126.39111a41.63806,41.63806,0,0,0-8.82226,7.105c-1.6582,1.87891-2.73731,3.66114-2.73731,5.42578,0,7.36133,4.19434,14.25,9.291,18.61133,3.19141,2.728,6.73047,4.5127,9.85059,4.5127h129.79c3.61523,0,7.61523-1.7666,11.15624-4.54785C181.57422,153.18213,186,146.34521,186,138.92187c0-1.78173-1.01562-3.59277-2.59863-5.48974a39.57456,39.57456,0,0,0-8.33594-7.08106A111.99844,111.99844,0,0,0,155.7666,116.396a3.10832,3.10832,0,0,1-.58594-.23975q-2.29248-.93018-4.667-1.811v9.10889a13.7627,13.7627,0,0,1-27.52539,0v-14.207a13.75427,13.75427,0,0,1,.23438-2.53809c-2.69825-.51171-5.37012-.94091-7.99024-1.27783Zm14.07422,2.55762a7.62211,7.62211,0,0,0-.10352,1.25781v14.207a7.54737,7.54737,0,1,0,15.09473,0V112.19678a3.11584,3.11584,0,0,1-.32031-.126c-4.81055-1.56689-9.75293-2.94726-14.6709-4.082ZM73.5,108.418c-5.05957,1.189-10.14648,2.61426-15.09668,4.21826V123.4541a7.54785,7.54785,0,0,0,15.0957,0V108.418Zm35.51758-3.61719c-2.207-.16016-4.35938-.24316-6.43555-.24316-2.752,0-5.65332.145-8.66015.42187v18.47412a7.54785,7.54785,0,0,0,15.0957,0V104.80078ZM153.5332,108.877V101.936h-5.15136v5.07275a3.10193,3.10193,0,0,1,.35839.14453q2.42578.83349,4.793,1.72363ZM164.18848,92.79a2.93117,2.93117,0,0,1-2.92969,2.93017H139.47363a2.93066,2.93066,0,1,1,0-5.86132h21.78516A2.932,2.932,0,0,1,164.18848,92.79Zm28.46777-69.16992a149.72023,149.72023,0,0,0,1.11133-16.65235c-6.59473-.51806-24.76172-.75293-42.92871-.75293s-36.335.23487-42.92871.75293c.37695,26.98291,6.59961,43.145,14.17968,53.0669,7.627,9.98486,16.55274,13.49023,21.6377,15.57519a18.0483,18.0483,0,0,1,4.88965,2.58692A4.12416,4.12416,0,0,1,150.04,81.30566V83.644h2.30957V81.30566a4.176,4.176,0,0,1,1.3623-3.07177,18.07159,18.07159,0,0,1,4.79786-2.7041c5.00781-2.21485,13.79785-5.92481,21.30859-15.98,4.36914-5.84668,8.2793-13.78808,10.84473-24.71a11.15469,11.15469,0,1,1,1.99316-11.21972ZM121.832,16.398a11.158,11.158,0,1,0,11.1582,11.15771A11.16267,11.16267,0,0,0,121.832,16.398Zm29.36133,0a11.158,11.158,0,1,0,11.16016,11.15771A11.16246,11.16246,0,0,0,151.19336,16.398ZM121.832,22.61279a4.94312,4.94312,0,1,1-4.94238,4.94287,4.94565,4.94565,0,0,1,4.94238-4.94287Zm29.36133,0a4.94312,4.94312,0,1,1-4.94238,4.94287,4.94586,4.94586,0,0,1,4.94238-4.94287Zm31.01953,0a4.94312,4.94312,0,1,1-4.94336,4.94287,4.94565,4.94565,0,0,1,4.94336-4.94287Z"/></g></g></svg>