<svg xmlns="http://www.w3.org/2000/svg" viewBox="0 0 140.02532 140.02457"><defs><style>.cls-1{fill-rule:evenodd;}</style></defs><g id="Capa_2" data-name="Capa 2"><g id="Capa_1-2" data-name="Capa 1"><path class="cls-1" d="M57.54738,14.38332H11.89843a2.20774,2.20774,0,0,0-1.779.90148L.42705,28.50546a2.20475,2.20475,0,0,0-.03828,2.55436l9.69235,14.08659a2.20632,2.20632,0,0,0,1.81731.95515H57.54669V54.8538L26.85676,57.48406a2.20881,2.20881,0,0,0-1.712,1.07822L18.10452,70.50952a2.20628,2.20628,0,0,0,.37741,2.715l9.38673,8.96009a2.20365,2.20365,0,0,0,1.79065.59347l27.88738-3.41037V90.89962L29.06653,88.41774a2.20593,2.20593,0,0,0-2.38754,1.99l-1.403,14.799a2.20526,2.20526,0,0,0,1.924,2.39711l30.3474,3.77376V135.2519a4.77418,4.77418,0,0,0,4.77164,4.77267H74.29635A4.77419,4.77419,0,0,0,79.068,135.2519V114.0533l21.26765,2.64461a2.2078,2.2078,0,0,0,1.80911-.60645l7.71642-7.48839a2.20692,2.20692,0,0,0,.37262-2.69008l-5.78833-9.985a2.20445,2.20445,0,0,0-1.71681-1.09087L79.068,92.7754v-16.04l39.55157-4.83694a2.205,2.205,0,0,0,1.92739-2.40087l-1.70587-17.70686a2.20737,2.20737,0,0,0-2.38479-1.98619L79.068,53.00914V46.10156h49.09692a2.208,2.208,0,0,0,1.82005-.95822L139.639,31.05777a2.20861,2.20861,0,0,0-.0376-2.54889L129.946,15.28856a2.20531,2.20531,0,0,0-1.78039-.90524H79.06869V4.772A4.774,4.774,0,0,0,74.29635,0H62.319a4.77381,4.77381,0,0,0-4.77164,4.772v9.61133Zm4.41133,97.5426v23.326a.36022.36022,0,0,0,.36031.36066H74.29567a.36081.36081,0,0,0,.361-.36066V113.505L61.958,111.92626Zm-2.421-16.42455-28.673-2.49864-.99412,10.48717h0l30.1286,3.74642.05675.00718L77.10847,109.364c.01915.00239.03829.00444.05675.00718l22.66517,2.81759,5.72338-5.55314-4.3498-7.50309L76.69141,96.99631c-.01505-.00068-.0294-.00239-.04376-.00342L59.58074,95.50581l-.04307-.00444Zm2.421-16.67309V91.28421l12.698,1.10694V77.27557l-12.698,1.55271ZM77.07429,57.60815c-.01436.00171-.02872.00308-.04308.00376L59.965,59.07506c-.015.00137-.0294.00274-.04444.00342L28.36777,61.78292l-5.57365,9.45886,7.36567,7.03064,29.29378-3.58266.05744-.00718L76.56424,72.5969l.05674-.00683,39.328-4.80994-1.29086-13.3933-37.58383,3.221ZM61.95871,46.10156v8.37415l12.698-1.08882V46.10156Zm65.0439-4.41133H13.05938L4.91223,29.85033l8.10476-11.055H127.04431l8.07331,11.055-8.115,11.8399ZM20.75255,22.27682a7.64565,7.64565,0,1,0,7.646,7.6453,7.64893,7.64893,0,0,0-7.646-7.6453Zm97.70566,0a7.64565,7.64565,0,1,0,7.64531,7.6453,7.64952,7.64952,0,0,0-7.64531-7.6453ZM20.75255,26.68849a3.23381,3.23381,0,1,1-3.234,3.23363,3.23584,3.23584,0,0,1,3.234-3.23363Zm97.70566,0a3.23381,3.23381,0,1,1-3.234,3.23363,3.23527,3.23527,0,0,1,3.234-3.23363ZM74.65735,14.38332V4.77165a.361.361,0,0,0-.36031-.36032H62.31971a.36139.36139,0,0,0-.361.36032v9.61167Z"/></g></g></svg>