<svg xmlns="http://www.w3.org/2000/svg" viewBox="0 0 164.39676 95.19849"><defs><style>.cls-1{fill-rule:evenodd;}</style></defs><g id="Capa_2" data-name="Capa 2"><g id="Capa_1-2" data-name="Capa 1"><path class="cls-1" d="M2.13894,14.40205l-.02775.00479-.013.0028a2.50624,2.50624,0,0,0-1.30632.70168l-.01458.01478-.02456.02635-.01058.01079-.01877.02c-.05312.0591-.104.1214-.15216.1845l-.019.026-.01617.022-.013.01916-.00919.01278A2.50951,2.50951,0,0,0,.069,16.83977v8.48487A2.51346,2.51346,0,0,0,2.15731,27.8019l4.04276.69449v5.0799C2.253,38.48128.12475,43.49329.00534,48.57c-.1202,5.119,1.783,10.36668,6.19473,15.69618v3.266l-3.17933-.5627A2.51474,2.51474,0,0,0,.069,69.44473v9.02562A2.513,2.513,0,0,0,2.14493,80.9448L82.42979,95.15256a2.52171,2.52171,0,0,0,.4391.04593h.08666a2.49765,2.49765,0,0,0,.44329-.04753L162.32906,80.944a2.51381,2.51381,0,0,0,2.0677-2.47366V69.44473a2.51367,2.51367,0,0,0-2.95848-2.47366l-3.014.54234V64.18192c4.03377-5.48646,5.84708-10.78681,5.7728-15.87111-.07368-5.06672-2.01779-9.96931-5.73925-14.6826V28.47442l3.858-.67372a2.51388,2.51388,0,0,0,2.08068-2.47606V16.83977a2.50822,2.50822,0,0,0-.42931-1.36822l-.00839-.012-.01478-.02237-.018-.02476-.01478-.02077-.01477-.02-.01618-.02117c-.03774-.04992-.07767-.09785-.11941-.14457h0c-.01158-.01318-.023-.02516-.03434-.03874l-.01957-.02037-.02137-.022-.01617-.01757-.00978-.00879a2.50351,2.50351,0,0,0-1.26439-.68291l-.02057-.004-.03035-.0056-.01138-.00279L83.35931.04094a2.5,2.5,0,0,0-.89238-.0016L2.13954,14.40205ZM8.27417,73.00426h0L80.39543,85.76672v3.92095L5.095,76.36251h0v-3.921l3.17914.5623Zm148.56424-.09785a2.56827,2.56827,0,0,1-.485.13739L85.42222,85.76193v3.917l73.947-13.31079V72.45074l-2.53056.45567ZM11.22586,68.42156l69.16957,12.2405V77.86252L11.22586,66.31133v2.11023Zm142.17083-2.103L85.42222,77.85693v2.79634l67.97447-12.2349V66.31851ZM9.72266,37.22288c-2.92314,3.7656-4.60147,7.56674-4.69312,11.46453-.09485,4.04316,1.53755,8.12745,5.00482,12.32835L82.90563,73.186c.01478-.0024,71.59291-12.15263,71.59291-12.15263,3.18592-4.38342,4.73165-8.57873,4.67175-12.64944a18.84648,18.84648,0,0,0-4.262-11.12787l-3.49323.623V45.1786c0,9.139-13.64825,9.139-13.64825,0a3.2212,3.2212,0,0,0-.58067-2.18691,1.71046,1.71046,0,0,0-1.74862-.35863,2.23969,2.23969,0,0,0-.82209.39218c-.11941.095-.27057.17492-.27057.32268v6.75963c0,5.87943-5.04815,8.67577-8.91339,7.63823-2.55693-.68731-4.98426-2.988-4.98426-7.63823V43.60032L83.36689,50.46618l-.02855.00519-.02776.00519-.02855.004-.028.004-.02855.004-.02776.0032-.02855.00319-.02856.0024-.02855.00239-.02776.0024-.02855.002-.02855.002-.02856.0008-.02855.0004h-.08507l-.02855-.0004H82.828l-.02855-.002-.02776-.002-.02855-.0016-.02856-.0016-.02855-.00239-.02776-.0024-.02855-.00319-.02856-.0036-.02775-.004-.02856-.004-.02875-.004-.02776-.00519-.02775-.00479L69.96625,48.1898v6.141c0,5.4569-3.71069,8.00444-7.2155,8.00444s-7.2157-2.54754-7.2157-8.00444v-6.3371a1.69,1.69,0,0,0-2.6368-1.43731,1.61518,1.61518,0,0,0-.64457,1.43731c0,5.518-3.57171,8.00524-6.80815,8.00524s-6.80835-2.48724-6.80835-8.00524V42.63785L9.72386,37.22208Zm58.17928,5.48326,12.49329,2.276V41.24248L11.22566,29.35981V32.3806l30.31369,5.5232a2.518,2.518,0,0,1,1.95149,1.734l.0024.008a2.50448,2.50448,0,0,1,.16933.90735v7.44175c0,1.82269.71226,2.97845,1.78136,2.97845s1.78136-1.15576,1.78136-2.97845a6.44376,6.44376,0,0,1,2.94451-5.65979c3.89639-2.51519,10.38964-.629,10.38964,5.65979V54.332c0,1.87141.98723,2.97765,2.18951,2.97765,1.20149,0,2.18871-1.10624,2.18871-2.97765V45.22293a2.51467,2.51467,0,0,1,.02636-.40535l.00579-.03515.0008-.00678c.00639-.03994.014-.07948.022-.11941l.00259-.01039a2.49344,2.49344,0,0,1,.54793-1.10224l.00739-.00879a2.51117,2.51117,0,0,1,2.29993-.83706L67.87,42.701l.01478.0024.01717.00319Zm17.52028-1.47005v3.73564l37.07931-6.88982a2.51231,2.51231,0,0,1,2.97226,2.4521c.0008.02915.0008.0591,0,.08865v9.48449c0,1.55792.404,2.55353,1.26119,2.78316,1.25061.33627,2.58348-.881,2.58348-2.78316V43.34792a5.662,5.662,0,0,1,3.12283-4.8918,7.11059,7.11059,0,0,1,7.82972.54633,7.60533,7.60533,0,0,1,2.52238,6.17615,1.79735,1.79735,0,1,0,3.59467,0V35.81513a2.49372,2.49372,0,0,1,.07348-.64538l.0026-.00958a2.51067,2.51067,0,0,1,.86522-1.34626l.014-.01158.01957-.01477a2.50018,2.50018,0,0,1,.94389-.45488l.01558-.004.03115-.00639.03594-.008.02776-.006.02635-.00519,4.98666-.92333V29.35223l-68.008,11.88386ZM5.095,19.87253v3.33309h0l3.768.64777a2.23358,2.23358,0,0,1,.27576.03195L80.39563,36.14141V33.20409L5.09523,19.87253Zm154.27394.00879L85.422,33.1985V36.133l70.0889-12.24688h.0008L159.369,23.212V19.88132ZM16.929,16.86373,82.90543,28.54431l64.864-11.68058-64.864-11.7972L16.929,16.86373Z"/></g></g></svg>