<svg xmlns="http://www.w3.org/2000/svg" viewBox="0 0 178.70667 173.2625"><defs><style>.cls-1{fill-rule:evenodd;}</style></defs><g id="Capa_2" data-name="Capa 2"><g id="Capa_1-2" data-name="Capa 1"><path class="cls-1" d="M31.07813,89.2405A40.72311,40.72311,0,0,0,22.1464,88.337C6.63356,88.337,0,100.63941,0,110.60984c0,12.17,9.22573,24.78615,22.1464,24.78615,2.86162,0,22.23142-.084,42.61135-.17068-.20516.65841-.38409,1.31322-.544,1.95872-.665,2.696-1.11842,5.73827-1.26817,6.818a3.98485,3.98485,0,0,1-.893.12225c-.77706.06218-1.67552.04843-2.72372.04843-2.25546,0-5.4741-.21658-7.58278-.21658-8.84079,0-13.83732,6.59866-14.40076,13.48919a14.123,14.123,0,0,0,5.01091,12.31218,14.70873,14.70873,0,0,0,9.38985,3.02236c12.91306,0,64.20657.48265,71.6891.48265,15.91427,0,27.32608-16.48067,27.32608-32.39495a32.39132,32.39132,0,0,0-4.8857-17.10777c5.17165.037,9.12674.06133,10.68424.06133,12.92025,0,22.14682-12.617,22.14682-24.78615,0-9.97106-6.6344-22.27288-22.14682-22.27288A35.43151,35.43151,0,0,0,143.64,78.868,57.08774,57.08774,0,0,0,88.00015,34.40369c-30.26174,0-55.07941,24.93865-56.922,54.83681Zm39.9037,44.7875a27.24093,27.24093,0,0,0-2.06341,7.08278c-.40017,2.27154-.6159,4.11076-.88535,4.96586a3.67756,3.67756,0,0,1-.87351,1.5169c-1.69286,1.69286-4.04392,1.989-7.8315,1.989-2.25546,0-5.4741-.21658-7.58278-.21658-5.55489,0-8.65382,4.1905-9.00788,8.52037a8.71052,8.71052,0,0,0,2.986,7.63544,9.44232,9.44232,0,0,0,6.02189,1.847c12.91348,0,64.207.48349,71.6891.48349,13.05392,0,21.915-13.931,21.915-26.98472,0-10.52371-6.49312-23.60449-21.915-23.60449-9.71387,0-15.65539,2.44137-19.377,5.50223a22.09242,22.09242,0,0,0-6.05361,8.5191,8.645,8.645,0,0,1-1.53932,2.43968,3.15556,3.15556,0,0,1-2.23684.91834,4.44789,4.44789,0,0,1-3.20722-1.54735c-1.47037-1.51266-3.37092-5.45232-9.941-5.45232a10.35131,10.35131,0,0,0-9.78409,5.76957,2.72978,2.72978,0,0,1-.31345.61611Zm-38.314-38.70681A30.86409,30.86409,0,0,0,22.146,93.748c-11.73329,0-16.73617,9.31984-16.73617,16.8618,0,9.37356,6.78373,19.37593,16.73617,19.37593,2.97245,0,23.7682-.09095,44.99456-.1819,2.56721-4.22666,6.80572-7.57241,13.93926-7.57241,6.991,0,10.31158,3.04669,12.42111,5.4612l.08375.09623a32.79528,32.79528,0,0,1,2.884-4.70846,10.60276,10.60276,0,0,1-7.16611-5.358c-8.37464.03363-15.77638.0624-16.53609.0624-3.16027,0-5.11539-.29547-6.52865-1.62624a3.40825,3.40825,0,0,1-.87351-1.42066c-.21911-.655-.401-2.06-.72587-3.79879-.67892-3.629-2.16578-9.47234-9.04722-9.47234-4.96015,0-6.38948,2.82757-7.499,3.90285a4.08839,4.08839,0,0,1-2.8832,1.3037,3.05687,3.05687,0,0,1-2.09726-.81788,7.04,7.04,0,0,1-1.37138-2.01942,15.79657,15.79657,0,0,0-4.593-6.105,16.24089,16.24089,0,0,0-4.32818-2.35465c-.05118-.0165-.10237-.03553-.15144-.05541Zm108.6305,22.99452c7.35816.05372,13.27261.09433,15.26157.09433,9.95245,0,16.73575-10.00152,16.73575-19.37508,0-7.54217-5.00245-16.86181-16.73575-16.86181-6.28753,0-10.53577,1.22587-13.44308,2.93164-.05626.03637-.11421.07106-.17343.103a14.50933,14.50933,0,0,0-1.38491.9488,15.80506,15.80506,0,0,0-4.593,6.1048,7.05,7.05,0,0,1-1.37053,2.01942,3.05854,3.05854,0,0,1-2.09768.81788,4.08677,4.08677,0,0,1-2.88277-1.3037c-1.11081-1.07507-2.53972-3.90264-7.499-3.90264-6.88185,0-8.36872,5.84317-9.04764,9.47234-.32571,1.73855-.5076,3.14377-.72714,3.79858a3.39109,3.39109,0,0,1-.87308,1.42066c-1.41284,1.33077-3.36839,1.62624-6.52865,1.62624-1.78085,0-4.32226-.16117-5.98805-.16117a6.26951,6.26951,0,0,0-6.36284,7.8774c.6252,2.33287,2.76688,4.12535,6.36284,4.12535.40354,0,.85447,0,1.34811.00191q.37816-.29377.77537-.57254c4.42462-3.11268,11.06749-5.62871,21.36088-5.62871,7.63353,0,13.53275,2.55918,17.86347,6.46372ZM138.67607,81.5598a51.66521,51.66521,0,0,0-50.67592-41.745c-27.9073,0-50.64294,23.46321-51.59005,51.19834a21.54818,21.54818,0,0,1,2.86924,1.593,21.66351,21.66351,0,0,1,6.55276,7.27165c1.684-1.73347,4.34722-3.82121,9.75914-3.82121,8.25958,0,11.77983,5.14331,13.42108,10.11594a41.159,41.159,0,0,1,1.34431,6.16212c.09179,0,.18951-.00339.29357.00529.6032.04589,1.302.03468,2.11629.03468.71826,0,7.38946-.02665,15.20193-.058a11.48652,11.48652,0,0,1,11.982-11.67873c1.66622,0,4.20678.16117,5.98763.16117.81555,0,1.51351.01226,2.11756-.03469.10321-.00783.20177-.00423.29357-.00423a41.138,41.138,0,0,1,1.34346-6.16212c1.6421-4.97284,5.16192-10.11678,13.42193-10.11678,5.41107,0,8.07515,2.08774,9.75829,3.82227A22.17641,22.17641,0,0,1,138.67523,81.56Zm20.355-11.96193,13.74722-7.93726a2.7055,2.7055,0,1,0-2.70554-4.686l-13.74722,7.93725a2.7055,2.7055,0,1,0,2.70554,4.686ZM21.6426,64.91182,7.895,56.97457a2.7055,2.7055,0,0,0-2.70553,4.686l13.74764,7.93726a2.7055,2.7055,0,1,0,2.70554-4.686ZM38.07209,41.86951,27.86753,29.70919a2.7052,2.7052,0,0,0-4.14417,3.47826L33.92665,45.34787a2.70565,2.70565,0,1,0,4.14544-3.47815Zm105.9698,3.47836L154.246,33.18745a2.70569,2.70569,0,0,0-4.14544-3.47826L139.89729,41.86951a2.70533,2.70533,0,0,0,4.1446,3.47815ZM61.97353,25.156,56.54427,10.23882a2.70517,2.70517,0,0,0-5.08409,1.85033L56.889,27.00629A2.70536,2.70536,0,1,0,61.97353,25.156Zm58.89237,1.85032,5.42968-14.91714a2.70536,2.70536,0,0,0-5.08451-1.85033L115.781,25.156a2.70556,2.70556,0,1,0,5.08494,1.85032ZM91.66548,18.57983V2.70554a2.70554,2.70554,0,1,0-5.41107,0V18.57983a2.70554,2.70554,0,1,0,5.41107,0Z"/></g></g></svg>