<svg xmlns="http://www.w3.org/2000/svg" viewBox="0 0 165.80279 180.78615"><defs><style>.cls-1{fill-rule:evenodd;}</style></defs><g id="Capa_2" data-name="Capa 2"><g id="Capa_1-2" data-name="Capa 1"><path class="cls-1" d="M132.1121,79.34919V22.08078A15.52752,15.52752,0,0,0,116.59148,6.56033H95.53523a2.88635,2.88635,0,1,0,0,5.7727h21.05625A9.75232,9.75232,0,0,1,126.3394,22.081V79.34936a2.88635,2.88635,0,1,0,5.7727,0Z"/><path class="cls-1" d="M36.57669,6.56016H15.51992A15.5276,15.5276,0,0,0,0,22.0806V148.42a15.52737,15.52737,0,0,0,15.51992,15.52044H84.35454a2.8867,2.8867,0,0,0,0-5.7734H15.51992a9.7518,9.7518,0,0,1-9.74722-9.74722V22.08043a9.75214,9.75214,0,0,1,9.74722-9.74775H36.57669a2.88644,2.88644,0,1,0,0-5.77287Z"/><path class="cls-1" d="M98.42176,7.85866A7.86277,7.86277,0,0,0,90.5624,0h-49.013A7.86277,7.86277,0,0,0,33.69,7.85866v9.94548a7.86306,7.86306,0,0,0,7.85936,7.85953H90.5624a7.863,7.863,0,0,0,7.85936-7.85953V7.85866Zm-5.7734,0v9.94548a2.0873,2.0873,0,0,1-2.086,2.08666h-49.013a2.08731,2.08731,0,0,1-2.086-2.08666V7.85866a2.08719,2.08719,0,0,1,2.086-2.08613H90.5624a2.08718,2.08718,0,0,1,2.086,2.08613Z"/><path class="cls-1" d="M44.50651,95.7592A23.09718,23.09718,0,1,0,67.6036,118.85647,23.10805,23.10805,0,0,0,44.50651,95.7592Zm0,5.77287a17.3244,17.3244,0,1,1-17.32457,17.3244,17.33255,17.33255,0,0,1,17.32457-17.3244Z"/><path class="cls-1" d="M25.53919,88.13674H83.58107a2.88635,2.88635,0,0,0,0-5.7727H25.53919a2.88635,2.88635,0,0,0,0,5.7727Z"/><path class="cls-1" d="M25.53919,67.8225H91.45773a2.8867,2.8867,0,1,0,0-5.7734H25.53919a2.8867,2.8867,0,0,0,0,5.7734Z"/><path class="cls-1" d="M25.53919,50.41h83.331a2.88635,2.88635,0,1,0,0-5.7727h-83.331a2.88635,2.88635,0,0,0,0,5.7727Z"/><path class="cls-1" d="M34.74722,120.93315l5.77969,4.73646a2.88562,2.88562,0,0,0,3.90861-.23061l10.03011-10.41614a2.88678,2.88678,0,1,0-4.15915-4.00442l-8.181,8.4975-3.71891-3.04789a2.8865,2.8865,0,1,0-3.6593,4.4651Z"/><path class="cls-1" d="M119.72085,95.93176c-25.50038,0-46.08177,19.08481-46.08177,42.42754s20.58139,42.42685,46.08177,42.42685c25.50055,0,46.08194-19.08393,46.08194-42.42685,0-23.34273-20.58139-42.42754-46.08194-42.42754Zm0,5.7734c22.17991,0,40.30924,16.35074,40.30924,36.65414,0,20.30271-18.12933,36.65345-40.30924,36.65345-22.17974,0-40.30837-16.35074-40.30837-36.65345,0-20.30358,18.12881-36.65414,40.30837-36.65414Z"/><path class="cls-1" d="M101.6125,86.70956c.52572.07011,1.08712.164,1.61407.28848,3.61436.85582,8.37669,2.73,11.59331,5.71256a8.3886,8.3886,0,0,1,3.09667,6.11992,2.8867,2.8867,0,1,0,5.7734,0,14.0231,14.0231,0,0,0-4.94485-10.35285c-3.94795-3.66087-9.75142-6.04614-14.18856-7.0969a18.65278,18.65278,0,0,0-5.70119-.61017,4.31512,4.31512,0,0,0-2.62882,1.13083,4.69341,4.69341,0,0,0-.863,4.35269c.81648,3.72014,5.13613,11.72933,10.62962,16.31053a2.88646,2.88646,0,0,0,3.69723-4.43364,31.63312,31.63312,0,0,1-7.26876-9.53812,19.005,19.005,0,0,1-.80913-1.88333Z"/><path class="cls-1" d="M146.81187,76.89346a15.49074,15.49074,0,0,1-.54059,1.75814c-2.25362,5.83791-8.08716,15.17619-14.92548,19.64183a2.88662,2.88662,0,0,0,3.15664,4.83383c8.98809-5.86938,16.52033-19.01871,18.05206-25.16521a8.43674,8.43674,0,0,0,.23218-3.64933,3.87258,3.87258,0,0,0-1.03782-1.95571,4.81738,4.81738,0,0,0-2.7498-1.23818,22.095,22.095,0,0,0-6.82189.50772,52.02452,52.02452,0,0,0-18.33564,7.63172c-4.11194,2.84807-7.51,6.43935-9.26363,10.69308a2.88654,2.88654,0,1,0,5.33719,2.20065c1.3485-3.27186,4.0504-5.95732,7.21352-8.148a45.878,45.878,0,0,1,16.18447-6.71715,24.55218,24.55218,0,0,1,3.499-.39321Z"/></g></g></svg>