<svg xmlns="http://www.w3.org/2000/svg" viewBox="0 0 165.22913 97.22677"><defs><style>.cls-1{fill-rule:evenodd;}</style></defs><g id="Capa_2" data-name="Capa 2"><g id="Capa_1-2" data-name="Capa 1"><path class="cls-1" d="M21.94933,12.43716q-.23961-.20451-.49334-.40561a11.8109,11.8109,0,0,0-7.29574-2.72208,12.83134,12.83134,0,0,0-9.24452,3.46311C1.73257,15.8319,0,20.92089,0,27.53832c0,7.72354,3.40785,17.23994,7.58053,25.855a179.95521,179.95521,0,0,0,13.7024,23.21719c.03469.048.07059.0942.10771.13978q.56757,3.64323,1.25979,7.37077a2.58643,2.58643,0,0,0,1.61114,1.9389c38.81312,15.00213,77.627,14.774,116.44136.005a2.5868,2.5868,0,0,0,1.576-1.739q1.11275-4.098,1.98347-8.16565a180.83417,180.83417,0,0,0,13.387-22.767c4.17187-8.61483,7.57973-18.13123,7.57973-25.855,0-6.61743-1.73136-11.70642-4.91452-14.76574a12.83333,12.83333,0,0,0-9.24533-3.46311,11.81393,11.81393,0,0,0-7.29574,2.72208c-.19645.15531-.38725.314-.572.47419q-.4417-1.74961-.92739-3.48792a2.58681,2.58681,0,0,0-1.8673-1.81426,236.44516,236.44516,0,0,0-115.83788,0,2.58618,2.58618,0,0,0-1.89514,1.9266q-.38059,1.6419-.72449,3.307ZM26.2628,74.38074q.54035,3.63687,1.21259,7.37C64.19248,95.59691,100.91,95.36556,137.62787,81.69624q.93547-3.56669,1.68013-7.10735l.00847-.03812c.01009-.04942.02057-.09823.03106-.15027Q80.45561,85.61429,26.26239,74.38074ZM140.68639,25.97518a302.89491,302.89491,0,0,0-115.6737-.01331,164.15975,164.15975,0,0,0-1.0222,22.0522H93.91073a2.58635,2.58635,0,0,1,0,5.17269H24.15992q.357,7.65192,1.36023,15.75445,54.98912,11.67969,114.86127-.00908a136.67268,136.67268,0,0,0,1.73418-15.74537H105.06209a2.58625,2.58625,0,0,1,0-5.17249h37.21729a131.44976,131.44976,0,0,0-1.593-22.03909ZM20.78353,18.7934a13.20048,13.20048,0,0,0-2.53007-2.6999,6.652,6.652,0,0,0-4.09321-1.61175c-6.37157,0-8.98756,5.23784-8.98756,13.05637,0,7.062,3.24851,15.72319,7.06338,23.60062,2.50224,5.16744,5.27112,9.998,7.62854,13.847q-.75455-7.3164-.97782-14.26351c-.002-.02481-.00283-.04942-.00283-.075a166.44414,166.44414,0,0,1,1.89957-31.8538ZM146.43915,63.20962c2.09845-3.51374,4.42359-7.67008,6.55511-12.07088,3.81407-7.87723,7.06258-16.53865,7.06258-23.60042,0-7.81873-2.6164-13.05657-8.98756-13.05657a6.6531,6.6531,0,0,0-4.09362,1.61195,13.10674,13.10674,0,0,0-2.37759,2.48913,137.04968,137.04968,0,0,1,1.84149,44.62679Zm-6.72453-42.68123q-.86891-4.34846-2.025-8.66626h0A231.153,231.153,0,0,0,27.36446,11.844q-.93728,4.26768-1.62284,8.71244a307.83815,307.83815,0,0,1,113.973-.028Z"/></g></g></svg>