<svg xmlns="http://www.w3.org/2000/svg" viewBox="0 0 140.02389 140.02509"><defs><style>.cls-1{fill-rule:evenodd;}</style></defs><g id="Capa_2" data-name="Capa 2"><g id="Capa_1-2" data-name="Capa 1"><path class="cls-1" d="M130.51238,45.30367A65.30843,65.30843,0,1,1,95.36394,9.77952a2.33573,2.33573,0,1,0,1.81527-4.30433,69.97525,69.97525,0,1,0,37.65631,38.05936,2.33559,2.33559,0,1,0-4.32314,1.76929Zm-23.24632,1.81885A43.69314,43.69314,0,1,1,89.26725,30.75078a2.33549,2.33549,0,1,0,2.0614-4.19151,48.41675,48.41675,0,1,0,19.91356,18.11281,2.33544,2.33544,0,1,0-3.97649,2.45044ZM87.962,70.01246A17.9363,17.9363,0,1,1,76.02608,53.096a2.33581,2.33581,0,0,0,1.56673-4.40107A22.62442,22.62442,0,1,0,92.63318,70.01246a2.33591,2.33591,0,0,0-4.67182,0Zm12.62241-32.997L65.24218,72.35709a2.33566,2.33566,0,0,0,3.303,3.3032l35.30432-35.30382,16.95136,2.20823a2.33337,2.33337,0,0,0,2.059-.77858l16.58625-18.95584a2.33607,2.33607,0,0,0-1.75817-3.87393H121.31675l1.66383-16.38421a2.33621,2.33621,0,0,0-3.9659-1.898L99.829,19.63084a2.33585,2.33585,0,0,0-.68372,1.8768l1.43854,15.50786Zm7.434-.8273,12.14894,1.583,12.37388-14.14333H118.73265a2.33406,2.33406,0,0,1-2.32326-2.57146l1.2676-12.4925-13.7772,13.61328.97805,10.54529,3.71463-3.7148a2.33578,2.33578,0,1,1,3.30337,3.3032L108.01849,36.188Z"/></g></g></svg>