<svg xmlns="http://www.w3.org/2000/svg" viewBox="0 0 128.17195 119.21418"><defs><style>.cls-1{fill-rule:evenodd;}</style></defs><g id="Capa_2" data-name="Capa 2"><g id="Capa_1-2" data-name="Capa 1"><path class="cls-1" d="M128.17113,40.83229a2.02561,2.02561,0,0,0-2.02536-2.02577H2.24289A2.02573,2.02573,0,0,0,.217,40.83229v64.90315a13.48592,13.48592,0,0,0,13.4793,13.47874H114.692a13.48557,13.48557,0,0,0,13.4793-13.47874V40.83229Zm-4.0514,2.02577v62.87738a9.43163,9.43163,0,0,1-9.42776,9.42721H13.69614a9.43151,9.43151,0,0,1-9.42721-9.42721V42.85806Z"/><path class="cls-1" d="M125.8543,52.67839c-3.35046,0-7.29444,1.63869-12.13868,3.69907-6.609,2.81146-15.10233,6.35093-26.57811,6.35093-21.62948,0-30.81206-4.02627-39.22776-7.24706-5.924-2.267-11.49089-4.14274-20.34943-4.14274-13.46474,0-18.51872,2.2417-21.48086,3.96473-.74778.43515-1.35313.84118-1.92989,1.17139a3.36678,3.36678,0,0,1-1.78855.55878,2.02577,2.02577,0,0,0,0,4.05154,7.93049,7.93049,0,0,0,4.533-1.53375c2.569-1.59117,6.45889-4.16115,20.66633-4.16115,8.23054,0,13.39715,1.76863,18.90126,3.87517,8.72627,3.34,18.248,7.51462,40.67593,7.51462,12.15475,0,21.16343-3.6966,28.1642-6.674,4.22914-1.79857,7.62739-3.37573,10.55259-3.37573a2.02577,2.02577,0,0,0,0-4.05153Z"/><path class="cls-1" d="M125.40019,72.77811c-3.33906,0-7.27068,1.639-12.09912,3.70045-6.58333,2.81036-15.04395,6.34927-26.47522,6.34927-21.5468,0-30.69435-4.02516-39.07859-7.2454C41.84371,73.31436,36.29552,71.438,27.468,71.438c-13.41968,0-18.45677,2.24334-21.40875,3.96692-.74489.4346-1.348.84063-1.92247,1.17139a3.33833,3.33833,0,0,1-1.77577.55658,2.02591,2.02591,0,0,0,0,4.05181,7.89424,7.89424,0,0,0,4.5235-1.53539c2.5583-1.59062,6.43306-4.15923,20.58349-4.15923,8.19744,0,13.34441,1.76808,18.8264,3.87407,8.69537,3.34,18.18357,7.51545,40.5313,7.51545,12.11271,0,21.08994-3.69687,28.06639-6.67481,4.21129-1.79831,7.5954-3.37519,10.50809-3.37519a2.02577,2.02577,0,0,0,0-4.05153Z"/><path class="cls-1" d="M125.70293,90.19741c-3.34634,0-7.28634,1.639-12.12494,3.69989-6.60064,2.81091-15.08337,6.35038-26.5446,6.35038-21.60187,0-30.77249-4.02627-39.17762-7.24651-5.91714-2.26752-11.478-4.14329-20.32636-4.14329-13.44949,0-18.49784,2.24225-21.45668,3.96528-.74669.43488-1.35148.84118-1.9277,1.17139a3.35587,3.35587,0,0,1-1.784.55823,2.02563,2.02563,0,0,0,0,4.05126,7.91757,7.91757,0,0,0,4.53009-1.5343c2.565-1.59061,6.45-4.16032,20.63816-4.16032,8.21983,0,13.37985,1.76863,18.87654,3.87517,8.71611,3.33974,18.22669,7.51462,40.62745,7.51462,12.14073,0,21.13938-3.6966,28.13164-6.67454,4.22364-1.798,7.61668-3.37518,10.53789-3.37518a2.026,2.026,0,0,0,0-4.05208Z"/><path class="cls-1" d="M42.544,11.85122a2.02595,2.02595,0,0,0-.98569,2.74334,10.46611,10.46611,0,0,1,1.06948,4.64272A10.74558,10.74558,0,0,1,21.9705,23.38772,2.02674,2.02674,0,0,0,19.27044,22.324l-.46757.21044a2.012,2.012,0,0,0-.29986.167C6.26475,30.94.548,39.72463.548,39.72463a2.02567,2.02567,0,0,0,1.69473,3.13508l123.90343-.00138a2.02592,2.02592,0,0,0,.77691-3.89687L55.89937,9.45953A2.027,2.027,0,0,0,54.87549,9.32a87.27419,87.27419,0,0,0-11.52317,2.19829,1.96639,1.96639,0,0,0-.31716.11181l-.49119.22114ZM19.32291,27.0585a14.79635,14.79635,0,0,0,27.35693-7.82122,14.60836,14.60836,0,0,0-.61715-4.22131,83.58291,83.58291,0,0,1,8.77915-1.60847c4.794,1.9917,43.07724,17.89374,61.1468,25.39957-25.67855,0-92.37464.0011-109.62458.0011A70.27,70.27,0,0,1,19.32291,27.0585Z"/><path class="cls-1" d="M2.54508,5.07394c9.60385-2.54416,16.42124-.09725,19.72211,5.00453a2.02577,2.02577,0,0,0,3.4017-2.20076C21.6,1.58887,13.34478-1.97861,1.50761,1.15757a2.02574,2.02574,0,1,0,1.0376,3.91637Z"/><path class="cls-1" d="M31.9797,4.452A14.79712,14.79712,0,1,0,46.77723,19.24937,14.80417,14.80417,0,0,0,31.9797,4.452Zm0,4.05126A10.74572,10.74572,0,1,1,21.23412,19.24937,10.75085,10.75085,0,0,1,31.9797,8.50324Z"/></g></g></svg>