<svg xmlns="http://www.w3.org/2000/svg" viewBox="0 0 155.95951 130.78389"><defs><style>.cls-1{fill-rule:evenodd;}</style></defs><g id="Capa_2" data-name="Capa 2"><g id="Tecnología"><path class="cls-1" d="M22.92805,76.85541a27.004,27.004,0,0,1-3.06761-.425,2.45076,2.45076,0,0,0-2.81368,3.1358,33.79644,33.79644,0,0,0,24.77763,23.01562,58.58622,58.58622,0,0,1-31.97958,9.471,59.38123,59.38123,0,0,1-7.10156-.41916,2.45075,2.45075,0,0,0-1.63692,4.482,88.72446,88.72446,0,0,0,48.85038,14.66829c58.5761,0,90.62806-49.71507,90.62806-92.86445,0-.98015-.013-1.95946-.03933-2.9304a66.08,66.08,0,0,0,15.01844-16.30061,2.45023,2.45023,0,0,0-3.07054-3.565,57.97691,57.97691,0,0,1-7.88215,2.91994A34.31548,34.31548,0,0,0,151.68011,5.5073l-2.33888-.72915-1.2713-2.09457a58.6937,58.6937,0,0,1-17.59157,7.11536A32.96885,32.96885,0,0,0,107.03018,0C88.59149,0,73.59941,15.31,73.59941,34.22852a35.764,35.764,0,0,0,.28948,4.57443A84.91079,84.91079,0,0,1,14.88358,6.72673a2.45047,2.45047,0,0,0-4.0511.31709,34.94329,34.94329,0,0,0,3.74572,39.7329,28.70676,28.70676,0,0,1-4.85847-2.18033A2.45029,2.45029,0,0,0,6.064,46.73028V47.121a34.35905,34.35905,0,0,0,16.8641,29.73441ZM144.23553,10.26956a63.04722,63.04722,0,0,1-14.10481,4.61291,2.452,2.452,0,0,1-2.29077-.74964,28.12028,28.12028,0,0,0-20.80977-9.23252C91.2621,4.90031,78.501,18.04964,78.501,34.22852a29.93262,29.93262,0,0,0,.73668,6.68992,2.451,2.451,0,0,1-2.51458,2.9944,89.53329,89.53329,0,0,1-63.225-31.17932,30.02168,30.02168,0,0,0-2.277,11.51032A29.53962,29.53962,0,0,0,23.94459,48.673a2.45054,2.45054,0,0,1-1.46,4.47069A32.55974,32.55974,0,0,1,11.181,50.7362,29.02806,29.02806,0,0,0,33.877,75.87987a2.45014,2.45014,0,0,1,.18407,4.75557,31.97844,31.97844,0,0,1-8.84222,1.214q-1.041,0-2.06822-.06443A28.50593,28.50593,0,0,0,48.37793,98.44287a2.45,2.45,0,0,1,1.49176,4.359,63.64672,63.64672,0,0,1-37.61154,14.10648,83.5088,83.5088,0,0,0,37.69814,8.97525c55.447,0,85.72692-47.11891,85.72692-87.96372,0-1.34953-.02469-2.6999-.077-4.02266a2.44792,2.44792,0,0,1,.99019-2.06612,60.81825,60.81825,0,0,0,9.9349-9.24424,63.1034,63.1034,0,0,1-10.5214,2.19916,2.45044,2.45044,0,0,1-1.57794-4.52089,29.07658,29.07658,0,0,0,9.80355-9.99471Z"/></g></g></svg>