<svg xmlns="http://www.w3.org/2000/svg" viewBox="0 0 134.87187 205.11816"><defs><style>.cls-1{fill-rule:evenodd;}</style></defs><g id="Capa_2" data-name="Capa 2"><g id="Tecnología"><path class="cls-1" d="M39.91109,146.16436c-13.13139,2.61029-23.95441,7.04215-30.85427,12.45823C3.15176,163.25958,0,168.69589,0,174.3455c0,7.03253,4.989,13.79011,14.00823,19.06222,12.05666,7.047,31.49542,11.71044,53.42722,11.71044,21.93277,0,41.37153-4.66347,53.42818-11.71044,9.01926-5.27211,14.00824-12.02969,14.00824-19.06222,0-5.64961-3.15176-11.08592-9.05778-15.72291-6.89915-5.41608-17.72288-9.84794-30.85332-12.45823a414.70136,414.70136,0,0,0,25.63273-39.21314c8.41472-14.98908,14.27837-29.31849,14.27837-39.516A67.43594,67.43594,0,0,0,0,67.43521c0,10.197,5.86389,24.52645,14.27836,39.516a414.564,414.564,0,0,0,25.63273,39.21314Zm4.31462,5.86148c-13.29439,2.27178-24.32325,6.40992-31.12369,11.749-4.04713,3.177-6.552,6.69788-6.552,10.57022,0,5.11128,4.208,9.57541,10.76378,13.40778,11.30212,6.60591,29.56069,10.81531,50.12186,10.81531,20.56093,0,38.82046-4.2094,50.12258-10.81531,6.55607-3.83237,10.76379-8.2965,10.76379-13.40778,0-3.87234-2.5046-7.39318-6.552-10.57022-6.80043-5.339-17.8305-9.47718-31.12464-11.749-11.48077,15.41137-20.70418,26.36824-20.70418,26.36824a3.275,3.275,0,0,1-5.01065,0s-9.22414-10.95687-20.7049-26.36824Zm42.44554-5.62313c9.3426-12.6287,19.98215-28.00106,28.21052-42.65838,7.75432-13.81226,13.44005-26.91332,13.44005-36.30912a60.88589,60.88589,0,0,0-121.77177,0c0,9.39628,5.685,22.49686,13.43908,36.30912,8.22837,14.6578,18.86793,30.02968,28.21076,42.65838.06693.08185.13.1666.18924.2552,8.22235,11.10277,15.41642,20.05317,19.04632,24.48792h0c3.63014-4.43475,10.8247-13.38515,19.04729-24.48792.05923-.0886.1223-.17335.18851-.2552ZM67.43545,37.57454a30.77218,30.77218,0,1,0,30.77242,30.7717,30.78721,30.78721,0,0,0-30.77242-30.7717Zm0,6.55053A24.22213,24.22213,0,1,1,43.2138,68.34672,24.23347,24.23347,0,0,1,67.43545,44.12507Zm49.096,27.30816C118.36577,46.1378,106.04766,28.809,80.60922,18.8985a3.275,3.275,0,1,0-2.37772,6.1032c22.33146,8.7005,33.37717,23.75217,31.76675,45.9582a3.275,3.275,0,0,0,6.53295.47333Z"/></g></g></svg>