<svg xmlns="http://www.w3.org/2000/svg" viewBox="0 0 145.70046 153.97697"><defs><style>.cls-1,.cls-2{fill:none;stroke:#000;stroke-linecap:round;stroke-linejoin:round;stroke-width:5px;}.cls-2{stroke-dasharray:8 8;}</style></defs><g id="Capa_2" data-name="Capa 2"><g id="Capa_1-2" data-name="Capa 1"><path class="cls-1" d="M64.57373,44.92782A20.69125,20.69125,0,1,1,43.88249,24.23657,20.59247,20.59247,0,0,1,64.57373,44.92782Z"/><line class="cls-2" x1="72.85023" y1="151.47697" x2="130.78572" y2="151.47697"/><path class="cls-1" d="M66.983,86.62978,79.24134,65.39435a41.38249,41.38249,0,1,0-70.7177,0l35.35885,61.25312L58.21573,101.818h72.57a12.4145,12.4145,0,0,1,12.41474,12.41475h0a12.41476,12.41476,0,0,1-12.41474,12.41474H72.85023a12.41451,12.41451,0,0,0-12.41474,12.41475h0A12.41477,12.41477,0,0,0,72.85023,151.477h8.2765"/></g></g></svg>