<svg xmlns="http://www.w3.org/2000/svg" viewBox="0 0 156.97099 156.39275"><defs><style>.cls-1{fill-rule:evenodd;}</style></defs><g id="Capa_2" data-name="Capa 2"><g id="Capa_1-2" data-name="Capa 1"><path class="cls-1" d="M26.17133,129.05848c0,8.23969,2.27555,14.225,5.92865,18.4727,5.43661,6.32138,14.07761,8.86157,23.5948,8.86157,20.97725,0,61.45854-4.8486,83.861-12.9471,6.0915-2.20183,10.89125-4.68473,13.77836-7.31594,2.43841-2.22161,3.63682-4.63428,3.63682-7.07123a9.963,9.963,0,0,0-3.32624-7.0212c-2.68093-2.67949-7.15119-5.23218-12.903-7.51369-21.04443-8.34685-59.88761-13.61348-85.04693-13.61348-8.62966,0-15.9248,1.9785-21.09562,6.39045-5.23682,4.46794-8.42783,11.45759-8.42783,21.75792Zm5.15453,0c0-8.39817,2.34883-14.19363,6.619-17.8367,4.33591-3.69977,10.51378-5.157,17.7499-5.157,24.594,0,62.57465,5.09085,83.14623,13.25027a39.91436,39.91436,0,0,1,9.98481,5.32493c1.79194,1.43411,2.99035,2.82838,2.99035,4.4185,0,1.16555-.78808,2.19893-1.95421,3.26124-2.51547,2.293-6.75018,4.359-12.05913,6.27849-21.93226,7.92881-61.5705,12.63972-82.108,12.63972-7.89857,0-15.17452-1.8219-19.68666-7.06774-2.979-3.46437-4.68226-8.39279-4.68226-15.11185Z"/><path class="cls-1" d="M29.20618,120.31673H7.76858a7.76829,7.76829,0,1,0,0,15.53657h21.2099a2.57734,2.57734,0,0,0,0-5.15467H7.76858a2.61362,2.61362,0,1,1,0-5.22723h21.4376a2.57734,2.57734,0,0,0,0-5.15467Z"/><path class="cls-1" d="M33.01718,111.39205l-14.289-3.82831a7.76829,7.76829,0,1,0-4.02125,15.00716l13.70653,3.6723a2.57731,2.57731,0,0,0,1.33393-4.979l-13.706-3.67215a2.6136,2.6136,0,1,1,1.35283-5.04911L31.683,116.37122a2.5773,2.5773,0,0,0,1.33392-4.979Z"/><path class="cls-1" d="M28.24477,130.15308l-13.53786,3.62707a7.76861,7.76861,0,0,0,4.02155,15.00774L32.47279,145.105a2.5773,2.5773,0,0,0-1.33392-4.979l-13.74463,3.68247a2.61356,2.61356,0,1,1-1.35254-5.04911L29.579,135.13225a2.57728,2.57728,0,1,0-1.33422-4.97888Z"/><path class="cls-1" d="M50.91132,116.80888V140.2558a2.57726,2.57726,0,0,0,5.15452,0V116.80888a2.57726,2.57726,0,0,0-5.15452,0Z"/><path class="cls-1" d="M70.10535,118.22685v20.61142a2.57727,2.57727,0,0,0,5.15453,0V118.22685a2.57727,2.57727,0,1,0-5.15453,0Z"/><path class="cls-1" d="M90.82582,120.40789v16.24876a2.57727,2.57727,0,1,0,5.15453,0V120.40789a2.57727,2.57727,0,1,0-5.15453,0Z"/><path class="cls-1" d="M109.58278,121.8039v13.45688a2.57741,2.57741,0,1,0,5.15482,0V121.8039a2.57741,2.57741,0,1,0-5.15482,0Z"/><path class="cls-1" d="M129.32207,124.85736v7.35a2.57727,2.57727,0,1,0,5.15453,0v-7.35a2.57727,2.57727,0,1,0-5.15453,0Z"/><path class="cls-1" d="M153.4755,122.568l-6.14588-53.57219a12.60257,12.60257,0,0,0-22.32368-6.48569,2.57756,2.57756,0,0,0,4.00933,3.24044,7.44808,7.44808,0,0,1,13.19385,3.83311l6.145,53.57146a2.57746,2.57746,0,0,0,5.12137-.58713Z"/><path class="cls-1" d="M128.53021,62.045a14.26573,14.26573,0,0,0-8.41184-2.72994,2.57727,2.57727,0,0,0,0,5.15453,9.1247,9.1247,0,0,1,5.38223,1.74628,2.57748,2.57748,0,1,0,3.02961-4.17073Z"/><path class="cls-1" d="M124.66482,65.19789c6.8476,15.04351,8.78582,30.63781,3.13314,47.67174a2.57716,2.57716,0,0,0,4.89193,1.62357c6.09819-18.37585,4.05354-35.20244-3.33321-51.4304a2.57754,2.57754,0,0,0-4.69215,2.13509Z"/><path class="cls-1" d="M105.86628,78.85673c-2.1947,8.7816-2.43287,18.75143-.0221,30.29655a2.57728,2.57728,0,0,0,5.04577-1.05344c-2.22757-10.66718-2.05076-19.879-.02268-27.99308a2.57741,2.57741,0,1,0-5.001-1.24988Z"/><path class="cls-1" d="M89.71029,105.46267c-.10323-9.71494,1.13676-20.7638,3.362-32.80635.01308-.06775.02268-.13682.02966-.206a9.79326,9.79326,0,0,1,10.73276-8.74162q.4567.04712.8983.13334a2.57715,2.57715,0,0,0,.99106-5.05813q-.67133-.1313-1.36446-.20312A14.95027,14.95027,0,0,0,87.98553,71.819a179.15825,179.15825,0,0,0-3.42976,33.698,2.5774,2.5774,0,1,0,5.15452-.05424Z"/><path class="cls-1" d="M73.94631,104.11362a6.35267,6.35267,0,0,1,.14657-1.26136l8.02361-36.54669a6.2608,6.2608,0,0,1,11.53916-1.786,2.5775,2.5775,0,0,0,4.46358-2.57887,11.41547,11.41547,0,0,0-21.03716,3.25964L69.05845,101.7469a11.41636,11.41636,0,0,0-.26609,2.29417,2.57723,2.57723,0,1,0,5.15395.07255Z"/><path class="cls-1" d="M104.85312,68.078a11.94773,11.94773,0,0,0-3.77,2.17508A5.85388,5.85388,0,0,0,98.95878,74.621a6.40013,6.40013,0,0,0,3.28581,5.2566,19.48283,19.48283,0,0,0,10.257,2.56811,19.48319,19.48319,0,0,0,10.25729-2.56811,6.39928,6.39928,0,0,0,3.28582-5.2566,5.88914,5.88914,0,0,0-2.20111-4.43623,12.14623,12.14623,0,0,0-3.80955-2.14891,56.92217,56.92217,0,0,0,4.63951-22.02343,11.75332,11.75332,0,0,0-3.7953-8.06883,12.18069,12.18069,0,0,0-8.11726-3.64307c-5.57678,0-12.70587,4.3916-12.70587,11.84873,0,5.63,2.09845,15.408,4.798,21.92891Zm4.1021,4.19414a2.57759,2.57759,0,0,0,1.78671-3.76055c-2.99035-5.51673-5.532-16.4657-5.532-22.36251,0-4.3314,4.31177-6.694,7.55105-6.694a6.91427,6.91427,0,0,1,4.52464,2.185,6.50752,6.50752,0,0,1,2.23339,4.37226c0,8.37011-2.50936,17.52524-5.45493,22.33255a2.57744,2.57744,0,0,0,1.75327,3.8856,11.08277,11.08277,0,0,1,4.18527,1.49183,3.30922,3.30922,0,0,1,.71451.6152c.07881.09524.17274.17448.17274.28339,0,.20923-.20735.34315-.39521.51647a5.49453,5.49453,0,0,1-1.35341.86834,17.79538,17.79538,0,0,1-13.27934,0,5.49247,5.49247,0,0,1-1.35312-.86834c-.18815-.17347-.39549-.30738-.39549-.51647,0-.37281.4205-.577.83374-.86224a10.70656,10.70656,0,0,1,4.00817-1.4866Z"/><path class="cls-1" d="M41.49038,106.53167l-5.55962-17.9552A2.57694,2.57694,0,0,0,33.01108,86.803a16.54771,16.54771,0,0,1-4.99546-.01977c-2.25665-.37456-4.83028-1.37987-5.76522-4.33751a7.39609,7.39609,0,0,1,3.3556-9.10556,2.57743,2.57743,0,0,0-1.55929-4.86067s-6.097,1.15843-7.63656-4.22307a4.73729,4.73729,0,0,1,1.25745-4.54355A14.72578,14.72578,0,0,1,22.481,56.27467a2.5773,2.5773,0,0,0-1.22342-4.9434s-6.60972.66245-10.24973-3.69309c-1.5718-1.88078-2.49424-4.70087-2.22437-8.843C9.59745,26.29117,23.142,27.1316,23.142,27.1316a2.577,2.577,0,0,0,2.22088-4.09571s-3.7764-4.8486.41207-7.99555c4.4691-3.3572,8.32664,1.32033,8.32664,1.32033a2.57717,2.57717,0,0,0,4.54121-1.61877S38.72453,4.73928,47.857,5.1704a8.55181,8.55181,0,0,1,4.71512,1.35137,5.71457,5.71457,0,0,1,2.088,4.57925,16.62285,16.62285,0,0,1-.93029,5.94137A2.57751,2.57751,0,0,0,57.70657,20a18.92133,18.92133,0,0,1,6.22469-3.0214c1.69685-.40146,3.55917-.4562,4.94806.97006a4.69863,4.69863,0,0,1,.80058,1.06551,2.57719,2.57719,0,0,0,4.55547-2.41151,9.77919,9.77919,0,0,0-1.6637-2.25c-2.78533-2.86109-6.423-3.19588-9.8269-2.39057a18.762,18.762,0,0,0-2.96156.98685,17.32,17.32,0,0,0,.02443-2.11488,10.75824,10.75824,0,0,0-4.19225-8.47262,13.48126,13.48126,0,0,0-7.51558-2.34C39.05023-.40608,35.60128,5.64194,34.28975,10.09083a10.07574,10.07574,0,0,0-11.61041.82792c-4.67848,3.51453-4.37343,8.12656-3.32275,11.33662-5.55671.82618-14.92442,4.02911-15.71716,16.205-.383,5.8782,1.18213,9.81367,3.41318,12.48312a15.0783,15.0783,0,0,0,7.415,4.64721q-.35943.35988-.69735.74854a9.69259,9.69259,0,0,0-2.31568,9.335,10.241,10.241,0,0,0,7.06948,7.3536c-1.6541,2.47039-2.7391,6.06882-1.18823,10.97223a10.969,10.969,0,0,0,7.6095,7.34284,19.89951,19.89951,0,0,0,6.68068.75871l4.9402,15.95476a2.57743,2.57743,0,0,0,4.92421-1.5247Z"/><path class="cls-1" d="M40.88173,88.01885a11.0253,11.0253,0,0,0-1.23825,9.77092,11.47791,11.47791,0,0,0,7.26,7.10874,22.13729,22.13729,0,0,0,8.55549,1.1577,2.57707,2.57707,0,1,0-.45162-5.13432l-6.30524-.8541a6.45768,6.45768,0,0,1-4.17539-3.92892C42.76,90.91513,48.1475,87.72063,48.1475,87.72063a2.57724,2.57724,0,0,0-1.9641-4.69607,10.176,10.176,0,0,1-3.40824.11486,4.43291,4.43291,0,0,1-3.90232-3.10594,6.64268,6.64268,0,0,1,.02734-4.98543c1.41942-2.94935,5.131-3.69846,5.131-3.69846a2.5772,2.5772,0,0,0-.46238-5.09215S30.50433,65.82268,30.8629,53.18239c.11981-4.22322,1.33479-6.97773,3.12557-8.71079C38.16066,40.43551,44.90938,41.841,44.90938,41.841a2.57737,2.57737,0,0,0,2.601-4.01064s-3.795-5.0968.65809-8.23372a5.20925,5.20925,0,0,1,5.3799-.32163,10.6506,10.6506,0,0,1,2.86036,1.90521,2.57753,2.57753,0,0,0,4.39291-1.56337s.95733-10.75006,10.76911-9.26c3.65048.55442,4.723,3.23637,4.95474,5.71694a17.90089,17.90089,0,0,1-.54729,5.88547,2.57708,2.57708,0,0,0,3.82351,2.9159,18.46862,18.46862,0,0,1,5.64279-2.12375c2.6094-.47357,5.714-.19426,7.5275,3.20584,1.79863,3.37218.41033,6.25828-1.31415,8.31835a18.45059,18.45059,0,0,1-4.51563,3.8033,2.57722,2.57722,0,0,0,.89248,4.80032A11.026,11.026,0,0,1,91.53423,54.149,4.98357,4.98357,0,0,1,94.28,59.01958a4.19468,4.19468,0,0,1-.88027,2.10311,2.577,2.577,0,1,0,4.18731,3.005,9.28866,9.28866,0,0,0,1.8344-4.73474A9.87729,9.87729,0,0,0,94.13,49.69534c-.11691-.06776-.23294-.13348-.34984-.197a20.89354,20.89354,0,0,0,1.82975-1.91365c2.90514-3.46916,4.93962-8.37432,1.91059-14.053-3.16019-5.92356-8.452-6.677-12.9961-5.852a20.67578,20.67578,0,0,0-2.81732.73021,19.70824,19.70824,0,0,0-.04944-2.8147c-.42545-4.56143-2.5998-9.31472-9.31246-10.33429-10.018-1.52164-14.09418,5.19168-15.69507,9.802-.31756-.17216-.65286-.33952-1.003-.49554a10.16728,10.16728,0,0,0-10.44689.81528c-4.76747,3.35851-4.72326,7.89013-3.802,11.16882-3.27273.14656-7.69123,1.02072-10.99361,4.2161-2.54252,2.45963-4.52406,6.27485-4.69448,12.26864-.28993,10.233,5.68,14.77554,10.75806,16.7866a10.26547,10.26547,0,0,0-2.21274,2.9905,11.5186,11.5186,0,0,0-.296,8.77927,9.12883,9.12883,0,0,0,6.92234,6.42681Z"/></g></g></svg>