<svg xmlns="http://www.w3.org/2000/svg" viewBox="0 0 178.8066 170.52996"><defs><style>.cls-1,.cls-2{fill:none;stroke:#000;stroke-linecap:round;stroke-linejoin:round;stroke-width:5px;}.cls-2{stroke-dasharray:8 8;}</style></defs><g id="Capa_2" data-name="Capa 2"><g id="Capa_1-2" data-name="Capa 1"><circle class="cls-1" cx="93.54168" cy="83.19585" r="62.07387"/><ellipse class="cls-1" cx="93.54148" cy="83.19585" rx="61.82149" ry="33.29061" transform="translate(-31.43069 90.51131) rotate(-45)"/><path class="cls-1" d="M30.72658,76.65742C44.57937,79.09071,61.06615,88.216,75.4685,102.61831c13.78782,13.78823,22.73968,29.48627,25.61328,42.955"/><path class="cls-1" d="M153.72445,92.77921c-13.441-2.90215-29.08486-11.84077-42.83047-25.58638C96.4937,52.79255,87.36887,36.30825,84.93433,22.45712"/><line class="cls-1" x1="136.667" y1="41.42023" x2="49.21545" y2="128.87136"/><line class="cls-1" x1="136.22338" y1="127.94771" x2="48.63527" y2="40.3596"/><path class="cls-1" d="M65.33186,2.5C51.77579,6.68377,39.582,15.61,31.73425,23.45775A84.54,84.54,0,0,0,14.89778,47.42442L2.5,41.42023"/><path class="cls-2" d="M154.027,26.09216q1.40721,1.532,2.72545,3.11486"/><path class="cls-2" d="M163.83667,39.071A84.69794,84.69794,0,1,1,7.09759,77.99242"/><path class="cls-2" d="M7.696,71.94065q.27684-2.04845.65342-4.08487"/><line class="cls-1" x1="12.42766" y1="22.32594" x2="36.39805" y2="19.15894"/></g></g></svg>