<svg xmlns="http://www.w3.org/2000/svg" viewBox="0 0 140.02628 107.93747"><defs><style>.cls-1{fill-rule:evenodd;}</style></defs><g id="Capa_2" data-name="Capa 2"><g id="Capa_1-2" data-name="Capa 1"><path class="cls-1" d="M57.35073,14.248l-1.3394.04922A18.085,18.085,0,0,0,42.71922,8.0904c-5.42528,0-9.15426,3.2791-11.59991,7.33319a34.75361,34.75361,0,0,0-3.93342,10.89193c-.76918.10871-1.19787.19144-1.19787.19144a2.04961,2.04961,0,0,0-1.37221.95891L4.157,61.62122a2.03719,2.03719,0,0,0-.28921.95036A31.10294,31.10294,0,1,0,62.61056,76.83525c0-.39518-.00684-.78764-.0212-1.17975H77.84373c-.015.39211-.02187.78457-.02187,1.17975a31.10221,31.10221,0,1,0,56.75384-17.5831L114.76026,27.43579a2.03522,2.03522,0,0,0-.7767-.72508,22.001,22.001,0,0,0-2.44223-1.05668l-4.56653-10.613c-2.58376-3.87462-6.21292-6.95-10.802-6.95a21.74266,21.74266,0,0,0-13.56287,5.23042l-.36852.013c-1.21975-4.42227-6.2136-7.67163-12.42584-7.67163-6.24984,0-11.31276,3.95017-12.46482,8.58576ZM131.1455,61.49336a26.99467,26.99467,0,0,0-38.43642-6.24984c-.026.02017-.05128.03966-.07726.05846a27.002,27.002,0,1,0,39.89684,8.41209l-1.38316-2.22071ZM47.054,54.75535a27.004,27.004,0,1,0,11.46044,22.0799q0-1.07531-.08273-2.12909a2.05163,2.05163,0,0,1-.20033-1.79065,26.99857,26.99857,0,0,0-10.04105-17.313,2.02733,2.02733,0,0,1-.84028-.4892,2.05867,2.05867,0,0,1-.296-.35792ZM31.03931,56.71966A20.11525,20.11525,0,1,0,51.15559,76.83491,20.125,20.125,0,0,0,31.03931,56.71966Zm77.88339,0a20.11525,20.11525,0,1,0,20.11559,20.11525A20.12481,20.12481,0,0,0,108.9227,56.71966ZM31.03931,60.8158A16.01894,16.01894,0,1,1,15.02054,76.83457,16.0262,16.0262,0,0,1,31.03931,60.8158Zm77.88339,0A16.01894,16.01894,0,1,1,92.90393,76.83457,16.02634,16.02634,0,0,1,108.9227,60.8158ZM88.001,53.83028a37.79769,37.79769,0,0,0-18.74337-4.63354c-8.87463,0-14.41819,2.65829-17.09152,4.39424a31.07628,31.07628,0,0,1,9.99865,17.968H78.26832A31.06821,31.06821,0,0,1,88.001,53.83028ZM68.9903,53.04264a7.31542,7.31542,0,1,0,7.31576,7.31576,7.31943,7.31943,0,0,0-7.31576-7.31576Zm0,4.09614a3.21928,3.21928,0,1,1-3.21893,3.21962,3.22053,3.22053,0,0,1,3.21893-3.21962ZM109.296,29.19738a27.06477,27.06477,0,0,0-28.7475,6.87134,5.22216,5.22216,0,0,1-2.5147.99481,117.69478,117.69478,0,0,1-15.52308.95857,26.86815,26.86815,0,0,1-4.98018-.33024,2.78955,2.78955,0,0,1-1.32094-.69465,20.331,20.331,0,0,0-4.507-3.37516,1.93574,1.93574,0,0,1-.216-.11829,30.07661,30.07661,0,0,0-9.866-3.12457,49.77587,49.77587,0,0,0-12.36362-.19452c-.05265.00752-.106.013-.15931.01743-.58731.06461-1.0789.13025-1.45631.18563L15.95108,49.9037a31.09711,31.09711,0,0,1,32.81424,1.05771C51.481,48.91915,58.055,45.1006,69.25764,45.1006c11.62384,0,19.27393,4.129,22.17084,6.02251a31.09945,31.09945,0,0,1,32.203-1.69425c-5.70287-9.157-12.03681-19.32692-12.03681-19.32692-.43211-.199-1.15479-.50834-2.1161-.84166-.06222-.01811-.12238-.039-.18255-.0629Zm-28.1554.88473.20375-12.61592-.78217.02872-21.32645.78285L56.827,18.366l-2.00192,12.3503a24.05264,24.05264,0,0,1,3.904,3.01621c.79106.05128,3.79326.22562,6.54316.16272,4.6896-.10666,11.64436-.89908,12.6795-1.01942a37.31969,37.31969,0,0,1,3.18885-2.79366ZM52.9059,16.95614a13.83479,13.83479,0,0,0-10.18668-4.76925c-3.83632,0-6.36265,2.48633-8.09177,5.35246a28.95812,28.95812,0,0,0-3.18064,8.3574,52.61171,52.61171,0,0,1,10.78356.43108,36.23591,36.23591,0,0,1,8.7666,2.40805L52.9059,16.95614Zm54.07915,7.35815a33.26592,33.26592,0,0,0-3.41857-7.00125c-1.80912-2.71366-4.17887-5.1265-7.3937-5.1265A17.31454,17.31454,0,0,0,85.461,16.26627l-.17845,11.06115a30.48856,30.48856,0,0,1,21.70249-3.01313ZM2.04841,25.25713H12.06279a2.04807,2.04807,0,1,0,0-4.09614H2.04841a2.04807,2.04807,0,1,0,0,4.09614ZM7.07509,9.97028l7.08124,7.08158a2.04818,2.04818,0,0,0,2.89622-2.8969L9.97131,7.07372A2.04806,2.04806,0,0,0,7.07509,9.97028ZM20.51146,2.04841V12.06279a2.04807,2.04807,0,1,0,4.09614,0V2.04841a2.04807,2.04807,0,1,0-4.09614,0Zm57.42116,11.444a5.7411,5.7411,0,0,0-1.76536-1.926,11.02573,11.02573,0,0,0-6.351-1.80774c-3.66335,0-6.90621,1.82313-8.11365,4.32963L69.311,13.809l8.62165-.31656Z"/></g></g></svg>