<svg xmlns="http://www.w3.org/2000/svg" viewBox="0 0 150.92733 151.5852"><defs><style>.cls-1{fill-rule:evenodd;}</style></defs><g id="Capa_2" data-name="Capa 2"><g id="Tecnología"><path class="cls-1" d="M75.73832,150.324h.02991l.9699-.00712a75.16306,75.16306,0,0,0,52.1968-128.28269l-1.72205,1.72017,1.72205-1.72017A74.67838,74.67838,0,0,0,75.76823,0h0A75.17414,75.17414,0,0,0,10.13784,111.80513L.08644,148.50849a2.4337,2.4337,0,0,0,2.96533,2.99691l37.627-9.86629A75.14084,75.14084,0,0,0,75.73916,150.324ZM125.49166,25.4754A70.29146,70.29146,0,0,0,5.4764,75.1319h0a70.11632,70.11632,0,0,0,9.38208,35.12793,2.43785,2.43785,0,0,1,.23991,1.85989L5.89431,145.727l34.47429-9.04051a2.43188,2.43188,0,0,1,1.78208.218A70.25683,70.25683,0,0,0,75.74,145.45552h.02823A70.29514,70.29514,0,0,0,125.49166,25.4754ZM108.64492,90.31766l1.08891-2.177c-1.854-.92786-10.973-5.401-12.672-6.02018H97.061a6.41959,6.41959,0,0,0-4.18245-.402,5.19393,5.19393,0,0,0-2.76495,2.24894h0c-1.1686,1.75489-4.53552,5.69889-5.56022,6.86938h0a2.407,2.407,0,0,1-.19285.18908,5.89187,5.89187,0,0,1-.82243-.30831,47.48508,47.48508,0,0,1-14.082-8.65648h0a52.09609,52.09609,0,0,1-9.62638-11.99349c-.03326-.05773-.0684-.13345-.09517-.19411.1165-.13637.35641-.41331.50806-.56391.85339-.85,1.90465-2.213,2.85467-3.32153l.00189-.00167a14.52066,14.52066,0,0,0,2.1454-3.52568l.00063-.00084a5.64693,5.64693,0,0,0-.15332-5.358c-.4472-.89774-4.0352-9.73954-5.532-13.3355-1.09414-2.6271-2.35-3.642-3.386-4.13183a6.77424,6.77424,0,0,0-2.82707-.48234h-.00272c-1.095-.054-2.34912-.06693-3.60348-.06693a9.08215,9.08215,0,0,0-6.63972,3.063l-.00084.00083A22.62507,22.62507,0,0,0,36.10144,58.948c0,9.62115,6.92941,18.94654,7.906,20.25089h0C44.9447,80.448,57.25508,99.29709,76.033,107.40264a106.86214,106.86214,0,0,0,10.58854,3.91263,27.33219,27.33219,0,0,0,12.54.807h.00084a23.93441,23.93441,0,0,0,9.407-4.38158,13.75033,13.75033,0,0,0,4.79092-5.8449v-.00083a23.17759,23.17759,0,0,0,1.45725-8.15073,5.64917,5.64917,0,0,0-.60135-2.556v-.00209a4.92776,4.92776,0,0,0-1.711-1.63357c-.66744-.41-1.59885-.827-2.76892-1.41312l-1.08974,2.177ZM94.38178,86.39457a2.65518,2.65518,0,0,0-.21753.2715c-1.25268,1.88164-4.84906,6.12057-5.94759,7.376a4.95834,4.95834,0,0,1-3.223,1.83647,6.35864,6.35864,0,0,1-3.63423-.80654v-.00084a51.81752,51.81752,0,0,1-15.14372-9.37642A57.43361,57.43361,0,0,1,55.62381,72.519v-.00083a4.97411,4.97411,0,0,1-.73522-3.46711,6.10455,6.10455,0,0,1,1.91679-3.18851l.00167-.00083c.77977-.77726,1.72728-2.02974,2.59343-3.04a10.29681,10.29681,0,0,0,1.488-2.53549,1.05219,1.05219,0,0,0-.15081-1.00692v-.00209c-.45912-.91949-4.14062-9.96-5.6715-13.6392h0a5.93943,5.93943,0,0,0-.73165-1.35664c-.09413-.12007-.14558-.21879-.23218-.24138a4.20738,4.20738,0,0,0-.99813-.0251c-1.02219-.05062-2.19225-.06024-3.36274-.06024a4.27,4.27,0,0,0-3.05,1.48256,18.12067,18.12067,0,0,0-5.72128,13.51119c0,8.25949,6.0915,16.20858,6.93276,17.33137.8833,1.17676,12.3817,19.02352,30.06049,26.65551h0a101.87042,101.87042,0,0,0,10.13089,3.74028h.00083a22.499,22.499,0,0,0,10.34758.63335,18.61665,18.61665,0,0,0,7.1915-3.45038,8.81765,8.81765,0,0,0,3.14249-3.60014,23.11226,23.11226,0,0,0,1.1161-6.5594l-.5911-.31081q-.4176-.21586-.8354-.43339l-.90966-.46184c-1.781-.891-10.52683-5.204-12.15978-5.79929-.32985-.11965-.813-.24849-1.0134-.29953Z"/></g></g></svg>