<svg xmlns="http://www.w3.org/2000/svg" viewBox="0 0 193.86768 137.20752"><g id="Capa_2" data-name="Capa 2"><g id="Capa_1-2" data-name="Capa 1"><path d="M149.92334,137.20752H43.94482A43.99435,43.99435,0,0,1,0,93.2627V43.94531A43.99477,43.99477,0,0,1,43.94482,0H149.92334a43.99467,43.99467,0,0,1,43.94434,43.94531V93.2627A43.99425,43.99425,0,0,1,149.92334,137.20752ZM43.94482,5A38.98919,38.98919,0,0,0,5,43.94531V93.2627a38.98909,38.98909,0,0,0,38.94482,38.94482H149.92334A38.98868,38.98868,0,0,0,188.86768,93.2627V43.94531A38.98878,38.98878,0,0,0,149.92334,5Z"/><path d="M79.62891,98.65332a13.59105,13.59105,0,0,1-6.38721-1.623,4.27216,4.27216,0,0,1-2.416-3.67871V45.08984A4.31254,4.31254,0,0,1,73.3208,41.355c2.27686-1.32324,6.98731-2.29394,9.48877-.86768L128.2583,65.21289c2.063,1.17432,4.09473,3.55713,4.06982,5.88379a3.84216,3.84216,0,0,1-2.09472,3.40186l-.082.042L82.62744,98.05225A6.46223,6.46223,0,0,1,79.62891,98.65332Zm-3.80323-5.88965a8.48321,8.48321,0,0,0,4.57715.81445l46.54639-23.03173a4.27193,4.27193,0,0,0-1.123-.96534L80.37695,44.855a8.424,8.424,0,0,0-4.55127.813Z"/></g></g></svg>