<svg xmlns="http://www.w3.org/2000/svg" viewBox="0 0 171.348 74.92566"><defs><style>.cls-1{fill-rule:evenodd;}</style></defs><g id="Capa_2" data-name="Capa 2"><g id="Tecnología"><path class="cls-1" d="M127.51966,45.73006l40.35328,20.17685A2.40142,2.40142,0,0,0,171.348,63.76V11.16646a2.40142,2.40142,0,0,0-3.47506-2.14812L127.51966,29.1956V2.40037A2.40011,2.40011,0,0,0,125.11929,0H2.40079A2.40074,2.40074,0,0,0,0,2.40037v70.1245a2.4,2.4,0,0,0,2.40079,2.40079h122.7185a2.40019,2.40019,0,0,0,2.40037-2.40079V45.73006ZM122.71892,70.1245V4.802H4.80158V70.1245ZM127.51966,34.564l39.02634-19.513V59.87544l-39.02634-19.5138V34.564Z"/></g></g></svg>